M48
;GenerationSoftware,Autodesk,EAGLE,9.6.2*%
;CreationDate,2021-11-24T19:02:17Z*%
FMAT,2
ICI,OFF
METRIC,TZ,000.000
T4C0.900
T3C1.016
T2C1.194
T1C3.302
%
G90
M71
T1
X44000Y81450
X17330Y81450
T2
X55400Y26000
X34200Y37100
X45200Y37000
X34100Y48500
X45100Y48400
X34200Y57600
X72800Y18800
X44900Y57600
X72900Y25500
X72800Y12600
X55200Y12600
X55300Y19200
T3
X4830Y12550
X4830Y10010
X4830Y7470
X4830Y4930
X73730Y75830
X73730Y78370
X73730Y80910
X18600Y76370
X21140Y76370
X45270Y90340
X45270Y92880
X35110Y82720
X37650Y82720
X73730Y83450
X22410Y89070
X22410Y91610
X67520Y95100
X70060Y95100
X72600Y95100
X75140Y95100
X40190Y82720
X58490Y83450
X58490Y80910
X58490Y78370
X58490Y75830
X58490Y73290
X58490Y70750
X58490Y68210
X58490Y65670
X58490Y63130
X58490Y60590
X58490Y58050
X58490Y55510
X58490Y52970
X58490Y50430
X58490Y47890
X58490Y45350
X58490Y42810
X73730Y42810
X73730Y45350
X73730Y47890
X73730Y50430
X73730Y52970
X73730Y55510
X73730Y58050
X73730Y60590
X73730Y63130
X73730Y65670
X73730Y68210
X73730Y70750
X73730Y73290
T4
X39500Y23660
X39500Y26200
X39500Y31280
X39500Y28740
M30