G04 EAGLE Gerber RS-274X export*
G75*
%MOMM*%
%FSLAX34Y34*%
%LPD*%
%INBottom Copper*%
%IPPOS*%
%AMOC8*
5,1,8,0,0,1.08239X$1,22.5*%
G01*
%ADD10C,1.879600*%
%ADD11C,1.778000*%
%ADD12P,2.336880X8X22.500000*%
%ADD13C,2.000000*%

G36*
X782647Y10177D02*
X782647Y10177D01*
X782954Y10186D01*
X783033Y10197D01*
X783113Y10201D01*
X783416Y10248D01*
X783721Y10289D01*
X783799Y10308D01*
X783878Y10320D01*
X784175Y10398D01*
X784474Y10471D01*
X784550Y10498D01*
X784627Y10518D01*
X784913Y10626D01*
X785204Y10729D01*
X785276Y10764D01*
X785351Y10792D01*
X785625Y10929D01*
X785903Y11061D01*
X785972Y11103D01*
X786043Y11139D01*
X786302Y11304D01*
X786565Y11464D01*
X786628Y11512D01*
X786696Y11556D01*
X786936Y11746D01*
X787181Y11933D01*
X787240Y11987D01*
X787302Y12037D01*
X787522Y12252D01*
X787746Y12462D01*
X787798Y12523D01*
X787856Y12579D01*
X788052Y12816D01*
X788253Y13047D01*
X788299Y13113D01*
X788350Y13175D01*
X788521Y13430D01*
X788697Y13682D01*
X788736Y13752D01*
X788781Y13818D01*
X788924Y14090D01*
X789073Y14358D01*
X789105Y14432D01*
X789142Y14503D01*
X789257Y14788D01*
X789378Y15070D01*
X789402Y15147D01*
X789432Y15221D01*
X789516Y15516D01*
X789607Y15810D01*
X789623Y15888D01*
X789645Y15965D01*
X789699Y16267D01*
X789759Y16569D01*
X789764Y16633D01*
X789781Y16728D01*
X789838Y17500D01*
X789835Y17596D01*
X789839Y17660D01*
X789839Y982340D01*
X789823Y982647D01*
X789814Y982954D01*
X789803Y983033D01*
X789799Y983113D01*
X789752Y983416D01*
X789711Y983721D01*
X789692Y983799D01*
X789680Y983878D01*
X789602Y984175D01*
X789529Y984474D01*
X789502Y984550D01*
X789482Y984627D01*
X789374Y984913D01*
X789271Y985204D01*
X789236Y985276D01*
X789208Y985351D01*
X789071Y985625D01*
X788939Y985903D01*
X788897Y985972D01*
X788861Y986043D01*
X788696Y986302D01*
X788536Y986565D01*
X788488Y986628D01*
X788444Y986696D01*
X788254Y986936D01*
X788067Y987181D01*
X788013Y987240D01*
X787963Y987302D01*
X787748Y987522D01*
X787538Y987746D01*
X787477Y987798D01*
X787421Y987856D01*
X787184Y988052D01*
X786953Y988253D01*
X786887Y988299D01*
X786825Y988350D01*
X786570Y988521D01*
X786318Y988697D01*
X786248Y988736D01*
X786182Y988781D01*
X785910Y988924D01*
X785642Y989073D01*
X785568Y989105D01*
X785497Y989142D01*
X785212Y989257D01*
X784930Y989378D01*
X784853Y989402D01*
X784779Y989432D01*
X784484Y989516D01*
X784190Y989607D01*
X784112Y989623D01*
X784035Y989645D01*
X783733Y989699D01*
X783431Y989759D01*
X783367Y989764D01*
X783272Y989781D01*
X782500Y989838D01*
X782404Y989835D01*
X782340Y989839D01*
X17660Y989839D01*
X17353Y989823D01*
X17046Y989814D01*
X16967Y989803D01*
X16887Y989799D01*
X16584Y989752D01*
X16279Y989711D01*
X16201Y989692D01*
X16122Y989680D01*
X15825Y989602D01*
X15526Y989529D01*
X15450Y989502D01*
X15373Y989482D01*
X15087Y989374D01*
X14796Y989271D01*
X14724Y989236D01*
X14649Y989208D01*
X14375Y989071D01*
X14097Y988939D01*
X14028Y988897D01*
X13957Y988861D01*
X13698Y988696D01*
X13435Y988536D01*
X13372Y988488D01*
X13304Y988444D01*
X13064Y988254D01*
X12819Y988067D01*
X12760Y988013D01*
X12698Y987963D01*
X12478Y987748D01*
X12254Y987538D01*
X12202Y987477D01*
X12144Y987421D01*
X11948Y987184D01*
X11747Y986953D01*
X11701Y986887D01*
X11650Y986825D01*
X11479Y986570D01*
X11303Y986318D01*
X11264Y986248D01*
X11219Y986182D01*
X11076Y985910D01*
X10927Y985642D01*
X10895Y985568D01*
X10858Y985497D01*
X10743Y985212D01*
X10622Y984930D01*
X10598Y984853D01*
X10568Y984779D01*
X10484Y984484D01*
X10393Y984190D01*
X10377Y984112D01*
X10355Y984035D01*
X10301Y983733D01*
X10241Y983431D01*
X10236Y983367D01*
X10219Y983272D01*
X10162Y982500D01*
X10165Y982404D01*
X10161Y982340D01*
X10161Y17660D01*
X10177Y17353D01*
X10186Y17046D01*
X10197Y16967D01*
X10201Y16887D01*
X10248Y16584D01*
X10289Y16279D01*
X10308Y16201D01*
X10320Y16122D01*
X10398Y15825D01*
X10471Y15526D01*
X10498Y15450D01*
X10518Y15373D01*
X10626Y15087D01*
X10729Y14796D01*
X10764Y14724D01*
X10792Y14649D01*
X10929Y14375D01*
X11061Y14097D01*
X11103Y14028D01*
X11139Y13957D01*
X11304Y13698D01*
X11464Y13435D01*
X11512Y13372D01*
X11556Y13304D01*
X11746Y13064D01*
X11933Y12819D01*
X11987Y12760D01*
X12037Y12698D01*
X12252Y12478D01*
X12462Y12254D01*
X12523Y12202D01*
X12579Y12144D01*
X12816Y11948D01*
X13047Y11747D01*
X13113Y11701D01*
X13175Y11650D01*
X13430Y11479D01*
X13682Y11303D01*
X13752Y11264D01*
X13818Y11219D01*
X14090Y11076D01*
X14358Y10927D01*
X14432Y10895D01*
X14503Y10858D01*
X14788Y10743D01*
X15070Y10622D01*
X15147Y10598D01*
X15221Y10568D01*
X15516Y10484D01*
X15810Y10393D01*
X15888Y10377D01*
X15965Y10355D01*
X16267Y10301D01*
X16569Y10241D01*
X16633Y10236D01*
X16728Y10219D01*
X17500Y10162D01*
X17596Y10165D01*
X17660Y10161D01*
X782340Y10161D01*
X782647Y10177D01*
G37*
%LPC*%
G36*
X734635Y414701D02*
X734635Y414701D01*
X729710Y416741D01*
X725941Y420510D01*
X723901Y425435D01*
X723901Y430765D01*
X725957Y435728D01*
X726165Y435949D01*
X726213Y436013D01*
X726267Y436072D01*
X726448Y436320D01*
X726635Y436565D01*
X726676Y436633D01*
X726723Y436698D01*
X726878Y436963D01*
X727038Y437225D01*
X727073Y437298D01*
X727113Y437367D01*
X727239Y437647D01*
X727372Y437924D01*
X727399Y438000D01*
X727431Y438073D01*
X727528Y438364D01*
X727631Y438654D01*
X727650Y438731D01*
X727675Y438807D01*
X727742Y439107D01*
X727814Y439406D01*
X727825Y439486D01*
X727842Y439563D01*
X727877Y439869D01*
X727919Y440173D01*
X727921Y440253D01*
X727930Y440333D01*
X727934Y440640D01*
X727944Y440947D01*
X727938Y441027D01*
X727939Y441107D01*
X727910Y441413D01*
X727888Y441719D01*
X727875Y441798D01*
X727867Y441878D01*
X727807Y442180D01*
X727754Y442482D01*
X727732Y442559D01*
X727716Y442637D01*
X727626Y442931D01*
X727542Y443227D01*
X727512Y443301D01*
X727488Y443377D01*
X727368Y443660D01*
X727254Y443945D01*
X727216Y444016D01*
X727185Y444090D01*
X727036Y444359D01*
X726893Y444630D01*
X726849Y444697D01*
X726810Y444767D01*
X726634Y445020D01*
X726464Y445275D01*
X726422Y445323D01*
X726367Y445402D01*
X725953Y445881D01*
X723901Y450835D01*
X723901Y456165D01*
X725957Y461128D01*
X726165Y461349D01*
X726213Y461413D01*
X726267Y461472D01*
X726448Y461720D01*
X726635Y461965D01*
X726676Y462033D01*
X726723Y462098D01*
X726878Y462363D01*
X727038Y462625D01*
X727073Y462698D01*
X727113Y462767D01*
X727239Y463047D01*
X727372Y463324D01*
X727399Y463400D01*
X727431Y463473D01*
X727528Y463764D01*
X727631Y464054D01*
X727650Y464131D01*
X727675Y464207D01*
X727742Y464507D01*
X727814Y464806D01*
X727825Y464886D01*
X727842Y464963D01*
X727877Y465268D01*
X727919Y465573D01*
X727921Y465653D01*
X727930Y465733D01*
X727934Y466040D01*
X727944Y466347D01*
X727938Y466427D01*
X727939Y466507D01*
X727910Y466813D01*
X727888Y467119D01*
X727875Y467198D01*
X727867Y467278D01*
X727807Y467580D01*
X727754Y467882D01*
X727732Y467959D01*
X727716Y468037D01*
X727626Y468331D01*
X727542Y468627D01*
X727512Y468701D01*
X727488Y468777D01*
X727368Y469060D01*
X727254Y469345D01*
X727216Y469416D01*
X727185Y469490D01*
X727036Y469759D01*
X726893Y470030D01*
X726849Y470097D01*
X726810Y470167D01*
X726634Y470420D01*
X726464Y470675D01*
X726422Y470723D01*
X726367Y470802D01*
X725953Y471281D01*
X723901Y476235D01*
X723901Y481565D01*
X725957Y486528D01*
X726165Y486749D01*
X726213Y486813D01*
X726267Y486872D01*
X726448Y487120D01*
X726635Y487365D01*
X726676Y487433D01*
X726723Y487498D01*
X726878Y487763D01*
X727038Y488025D01*
X727073Y488098D01*
X727113Y488167D01*
X727239Y488447D01*
X727372Y488724D01*
X727399Y488800D01*
X727431Y488873D01*
X727528Y489164D01*
X727631Y489454D01*
X727650Y489531D01*
X727675Y489607D01*
X727742Y489907D01*
X727814Y490206D01*
X727825Y490286D01*
X727842Y490363D01*
X727877Y490669D01*
X727919Y490973D01*
X727921Y491053D01*
X727930Y491133D01*
X727934Y491440D01*
X727944Y491747D01*
X727938Y491827D01*
X727939Y491907D01*
X727910Y492213D01*
X727888Y492519D01*
X727875Y492598D01*
X727867Y492678D01*
X727807Y492980D01*
X727754Y493282D01*
X727732Y493359D01*
X727716Y493437D01*
X727626Y493731D01*
X727542Y494027D01*
X727512Y494101D01*
X727488Y494177D01*
X727368Y494460D01*
X727254Y494745D01*
X727216Y494816D01*
X727185Y494890D01*
X727036Y495159D01*
X726893Y495430D01*
X726849Y495497D01*
X726810Y495567D01*
X726634Y495820D01*
X726464Y496075D01*
X726422Y496123D01*
X726367Y496202D01*
X725953Y496681D01*
X723901Y501635D01*
X723901Y506965D01*
X725957Y511928D01*
X726165Y512149D01*
X726213Y512213D01*
X726267Y512272D01*
X726448Y512520D01*
X726635Y512765D01*
X726676Y512833D01*
X726723Y512898D01*
X726878Y513163D01*
X727038Y513425D01*
X727073Y513498D01*
X727113Y513567D01*
X727239Y513847D01*
X727372Y514124D01*
X727399Y514200D01*
X727431Y514273D01*
X727528Y514564D01*
X727631Y514854D01*
X727650Y514931D01*
X727675Y515007D01*
X727742Y515307D01*
X727814Y515606D01*
X727825Y515686D01*
X727842Y515763D01*
X727877Y516069D01*
X727919Y516373D01*
X727921Y516453D01*
X727930Y516533D01*
X727934Y516840D01*
X727944Y517147D01*
X727938Y517227D01*
X727939Y517307D01*
X727910Y517613D01*
X727888Y517919D01*
X727875Y517998D01*
X727867Y518078D01*
X727807Y518380D01*
X727754Y518682D01*
X727732Y518759D01*
X727716Y518837D01*
X727626Y519131D01*
X727542Y519427D01*
X727512Y519501D01*
X727488Y519577D01*
X727368Y519860D01*
X727254Y520145D01*
X727216Y520216D01*
X727185Y520290D01*
X727036Y520559D01*
X726893Y520830D01*
X726849Y520897D01*
X726810Y520967D01*
X726634Y521220D01*
X726464Y521475D01*
X726422Y521523D01*
X726367Y521602D01*
X725953Y522081D01*
X723901Y527035D01*
X723901Y532365D01*
X725957Y537328D01*
X726165Y537549D01*
X726213Y537613D01*
X726267Y537672D01*
X726448Y537920D01*
X726635Y538165D01*
X726676Y538233D01*
X726723Y538298D01*
X726878Y538563D01*
X727038Y538825D01*
X727073Y538898D01*
X727113Y538967D01*
X727239Y539247D01*
X727372Y539524D01*
X727399Y539600D01*
X727431Y539673D01*
X727528Y539964D01*
X727631Y540254D01*
X727650Y540331D01*
X727675Y540407D01*
X727742Y540707D01*
X727814Y541006D01*
X727825Y541086D01*
X727842Y541163D01*
X727877Y541469D01*
X727919Y541773D01*
X727921Y541853D01*
X727930Y541933D01*
X727934Y542240D01*
X727944Y542547D01*
X727938Y542627D01*
X727939Y542707D01*
X727910Y543013D01*
X727888Y543319D01*
X727875Y543398D01*
X727867Y543478D01*
X727807Y543780D01*
X727754Y544082D01*
X727732Y544159D01*
X727716Y544237D01*
X727626Y544531D01*
X727542Y544827D01*
X727512Y544901D01*
X727488Y544977D01*
X727368Y545260D01*
X727254Y545545D01*
X727216Y545616D01*
X727185Y545690D01*
X727036Y545959D01*
X726893Y546230D01*
X726849Y546297D01*
X726810Y546367D01*
X726634Y546620D01*
X726464Y546875D01*
X726422Y546923D01*
X726367Y547002D01*
X725953Y547481D01*
X723901Y552435D01*
X723901Y557765D01*
X725957Y562728D01*
X726165Y562949D01*
X726213Y563013D01*
X726267Y563072D01*
X726448Y563320D01*
X726635Y563565D01*
X726676Y563633D01*
X726723Y563698D01*
X726878Y563963D01*
X727038Y564225D01*
X727073Y564298D01*
X727113Y564367D01*
X727239Y564647D01*
X727372Y564924D01*
X727399Y565000D01*
X727431Y565073D01*
X727528Y565364D01*
X727631Y565654D01*
X727650Y565731D01*
X727675Y565807D01*
X727742Y566107D01*
X727814Y566406D01*
X727825Y566486D01*
X727842Y566563D01*
X727877Y566869D01*
X727919Y567173D01*
X727921Y567253D01*
X727930Y567333D01*
X727934Y567640D01*
X727944Y567947D01*
X727938Y568027D01*
X727939Y568107D01*
X727910Y568413D01*
X727888Y568719D01*
X727875Y568798D01*
X727867Y568878D01*
X727807Y569180D01*
X727754Y569482D01*
X727732Y569559D01*
X727716Y569637D01*
X727626Y569931D01*
X727542Y570227D01*
X727512Y570301D01*
X727488Y570377D01*
X727368Y570660D01*
X727254Y570945D01*
X727216Y571016D01*
X727185Y571090D01*
X727036Y571359D01*
X726893Y571630D01*
X726849Y571697D01*
X726810Y571767D01*
X726634Y572020D01*
X726464Y572275D01*
X726422Y572323D01*
X726367Y572402D01*
X725953Y572881D01*
X723901Y577835D01*
X723901Y583165D01*
X725957Y588128D01*
X726165Y588349D01*
X726213Y588413D01*
X726267Y588472D01*
X726448Y588720D01*
X726635Y588965D01*
X726676Y589033D01*
X726723Y589098D01*
X726878Y589363D01*
X727038Y589625D01*
X727073Y589698D01*
X727113Y589767D01*
X727239Y590047D01*
X727372Y590324D01*
X727399Y590400D01*
X727431Y590473D01*
X727528Y590764D01*
X727631Y591054D01*
X727650Y591131D01*
X727675Y591207D01*
X727742Y591507D01*
X727814Y591806D01*
X727825Y591886D01*
X727842Y591963D01*
X727877Y592269D01*
X727919Y592573D01*
X727921Y592653D01*
X727930Y592733D01*
X727934Y593040D01*
X727944Y593347D01*
X727938Y593427D01*
X727939Y593507D01*
X727910Y593813D01*
X727888Y594119D01*
X727875Y594198D01*
X727867Y594278D01*
X727807Y594580D01*
X727754Y594882D01*
X727732Y594959D01*
X727716Y595037D01*
X727626Y595331D01*
X727542Y595627D01*
X727512Y595701D01*
X727488Y595777D01*
X727368Y596060D01*
X727254Y596345D01*
X727216Y596416D01*
X727185Y596490D01*
X727036Y596759D01*
X726893Y597030D01*
X726849Y597097D01*
X726810Y597167D01*
X726634Y597420D01*
X726464Y597675D01*
X726422Y597723D01*
X726367Y597802D01*
X725953Y598281D01*
X723901Y603235D01*
X723901Y608565D01*
X725957Y613528D01*
X726165Y613749D01*
X726213Y613813D01*
X726267Y613872D01*
X726448Y614120D01*
X726635Y614365D01*
X726676Y614433D01*
X726723Y614498D01*
X726878Y614763D01*
X727038Y615025D01*
X727073Y615098D01*
X727113Y615167D01*
X727239Y615447D01*
X727372Y615724D01*
X727399Y615800D01*
X727431Y615873D01*
X727528Y616164D01*
X727631Y616454D01*
X727650Y616531D01*
X727675Y616607D01*
X727742Y616907D01*
X727814Y617206D01*
X727825Y617286D01*
X727842Y617363D01*
X727877Y617669D01*
X727919Y617973D01*
X727921Y618053D01*
X727930Y618133D01*
X727934Y618440D01*
X727944Y618747D01*
X727938Y618827D01*
X727939Y618907D01*
X727910Y619213D01*
X727888Y619519D01*
X727875Y619598D01*
X727867Y619678D01*
X727807Y619980D01*
X727754Y620282D01*
X727732Y620359D01*
X727716Y620437D01*
X727626Y620731D01*
X727542Y621027D01*
X727512Y621101D01*
X727488Y621177D01*
X727368Y621460D01*
X727254Y621745D01*
X727216Y621816D01*
X727185Y621890D01*
X727036Y622159D01*
X726893Y622430D01*
X726849Y622497D01*
X726810Y622567D01*
X726634Y622820D01*
X726464Y623075D01*
X726422Y623123D01*
X726367Y623202D01*
X725953Y623681D01*
X723901Y628635D01*
X723901Y633965D01*
X725957Y638928D01*
X726165Y639149D01*
X726213Y639213D01*
X726267Y639272D01*
X726448Y639520D01*
X726635Y639765D01*
X726676Y639833D01*
X726723Y639898D01*
X726878Y640163D01*
X727038Y640425D01*
X727073Y640498D01*
X727113Y640567D01*
X727239Y640847D01*
X727372Y641124D01*
X727399Y641200D01*
X727431Y641273D01*
X727528Y641564D01*
X727631Y641854D01*
X727650Y641931D01*
X727675Y642007D01*
X727742Y642307D01*
X727814Y642606D01*
X727825Y642686D01*
X727842Y642763D01*
X727877Y643069D01*
X727919Y643373D01*
X727921Y643453D01*
X727930Y643533D01*
X727934Y643840D01*
X727944Y644147D01*
X727938Y644227D01*
X727939Y644307D01*
X727910Y644613D01*
X727888Y644919D01*
X727875Y644998D01*
X727867Y645078D01*
X727807Y645380D01*
X727754Y645682D01*
X727732Y645759D01*
X727716Y645837D01*
X727626Y646131D01*
X727542Y646427D01*
X727512Y646501D01*
X727488Y646577D01*
X727368Y646860D01*
X727254Y647145D01*
X727216Y647216D01*
X727185Y647290D01*
X727036Y647559D01*
X726893Y647830D01*
X726849Y647897D01*
X726810Y647967D01*
X726634Y648220D01*
X726464Y648475D01*
X726422Y648523D01*
X726367Y648602D01*
X725953Y649081D01*
X723901Y654035D01*
X723901Y659365D01*
X725957Y664328D01*
X726165Y664549D01*
X726213Y664613D01*
X726267Y664672D01*
X726448Y664920D01*
X726635Y665165D01*
X726676Y665233D01*
X726723Y665298D01*
X726878Y665563D01*
X727038Y665825D01*
X727073Y665898D01*
X727113Y665967D01*
X727239Y666247D01*
X727372Y666524D01*
X727399Y666600D01*
X727431Y666673D01*
X727528Y666964D01*
X727631Y667254D01*
X727650Y667331D01*
X727675Y667407D01*
X727742Y667707D01*
X727814Y668006D01*
X727825Y668086D01*
X727842Y668163D01*
X727877Y668469D01*
X727919Y668773D01*
X727921Y668853D01*
X727930Y668933D01*
X727934Y669240D01*
X727944Y669547D01*
X727938Y669627D01*
X727939Y669707D01*
X727910Y670013D01*
X727888Y670319D01*
X727875Y670398D01*
X727867Y670478D01*
X727807Y670780D01*
X727754Y671082D01*
X727732Y671159D01*
X727716Y671237D01*
X727626Y671531D01*
X727542Y671827D01*
X727512Y671901D01*
X727488Y671977D01*
X727368Y672260D01*
X727254Y672545D01*
X727216Y672616D01*
X727185Y672690D01*
X727036Y672959D01*
X726893Y673230D01*
X726849Y673297D01*
X726810Y673367D01*
X726634Y673620D01*
X726464Y673875D01*
X726422Y673923D01*
X726367Y674002D01*
X725953Y674481D01*
X723901Y679435D01*
X723901Y684765D01*
X725957Y689728D01*
X726165Y689949D01*
X726213Y690013D01*
X726267Y690072D01*
X726448Y690320D01*
X726635Y690565D01*
X726676Y690633D01*
X726723Y690698D01*
X726878Y690963D01*
X727038Y691225D01*
X727073Y691298D01*
X727113Y691367D01*
X727239Y691647D01*
X727372Y691924D01*
X727399Y692000D01*
X727431Y692073D01*
X727528Y692364D01*
X727631Y692654D01*
X727650Y692731D01*
X727675Y692807D01*
X727742Y693107D01*
X727814Y693406D01*
X727825Y693486D01*
X727842Y693563D01*
X727877Y693869D01*
X727919Y694173D01*
X727921Y694253D01*
X727930Y694333D01*
X727934Y694640D01*
X727944Y694947D01*
X727938Y695027D01*
X727939Y695107D01*
X727910Y695413D01*
X727888Y695719D01*
X727875Y695798D01*
X727867Y695878D01*
X727807Y696180D01*
X727754Y696482D01*
X727732Y696559D01*
X727716Y696637D01*
X727626Y696931D01*
X727542Y697227D01*
X727512Y697301D01*
X727488Y697377D01*
X727368Y697660D01*
X727254Y697945D01*
X727216Y698016D01*
X727185Y698090D01*
X727036Y698359D01*
X726893Y698630D01*
X726849Y698697D01*
X726810Y698767D01*
X726634Y699020D01*
X726464Y699275D01*
X726422Y699323D01*
X726367Y699402D01*
X725953Y699881D01*
X723901Y704835D01*
X723901Y710165D01*
X725957Y715128D01*
X726165Y715349D01*
X726213Y715413D01*
X726267Y715472D01*
X726448Y715720D01*
X726635Y715965D01*
X726676Y716033D01*
X726723Y716098D01*
X726878Y716363D01*
X727038Y716625D01*
X727073Y716698D01*
X727113Y716767D01*
X727239Y717046D01*
X727243Y717055D01*
X727372Y717324D01*
X727399Y717400D01*
X727431Y717473D01*
X727528Y717764D01*
X727631Y718054D01*
X727650Y718131D01*
X727675Y718207D01*
X727742Y718507D01*
X727814Y718806D01*
X727825Y718886D01*
X727842Y718963D01*
X727877Y719269D01*
X727919Y719573D01*
X727921Y719653D01*
X727930Y719733D01*
X727934Y720040D01*
X727944Y720347D01*
X727938Y720427D01*
X727939Y720507D01*
X727910Y720813D01*
X727888Y721119D01*
X727875Y721198D01*
X727867Y721278D01*
X727807Y721580D01*
X727754Y721882D01*
X727732Y721959D01*
X727716Y722037D01*
X727626Y722331D01*
X727542Y722627D01*
X727512Y722701D01*
X727488Y722777D01*
X727368Y723060D01*
X727254Y723345D01*
X727216Y723416D01*
X727185Y723490D01*
X727036Y723759D01*
X726893Y724030D01*
X726849Y724097D01*
X726810Y724167D01*
X726634Y724420D01*
X726464Y724675D01*
X726422Y724723D01*
X726367Y724802D01*
X725953Y725281D01*
X723901Y730235D01*
X723901Y735565D01*
X725941Y740490D01*
X726936Y741484D01*
X727072Y741636D01*
X727216Y741780D01*
X727331Y741923D01*
X727454Y742060D01*
X727574Y742224D01*
X727703Y742383D01*
X727803Y742537D01*
X727911Y742685D01*
X728013Y742861D01*
X728124Y743032D01*
X728208Y743196D01*
X728300Y743354D01*
X728384Y743540D01*
X728477Y743721D01*
X728543Y743892D01*
X728619Y744060D01*
X728683Y744253D01*
X728757Y744443D01*
X728805Y744621D01*
X728863Y744795D01*
X728907Y744994D01*
X728960Y745190D01*
X728990Y745372D01*
X729030Y745551D01*
X729053Y745753D01*
X729086Y745955D01*
X729097Y746138D01*
X729118Y746320D01*
X729120Y746524D01*
X729132Y746727D01*
X729124Y746911D01*
X729126Y747094D01*
X729107Y747297D01*
X729098Y747501D01*
X729071Y747683D01*
X729054Y747865D01*
X729015Y748065D01*
X728985Y748267D01*
X728939Y748445D01*
X728904Y748625D01*
X728844Y748820D01*
X728793Y749017D01*
X728729Y749190D01*
X728675Y749365D01*
X728596Y749552D01*
X728525Y749744D01*
X728444Y749908D01*
X728372Y750077D01*
X728273Y750256D01*
X728183Y750438D01*
X728111Y750548D01*
X727997Y750755D01*
X727965Y750801D01*
X737300Y750801D01*
X746638Y750801D01*
X746578Y750715D01*
X746481Y750536D01*
X746375Y750362D01*
X746295Y750196D01*
X746208Y750035D01*
X746129Y749847D01*
X746041Y749663D01*
X745980Y749490D01*
X745909Y749321D01*
X745850Y749126D01*
X745781Y748934D01*
X745738Y748755D01*
X745685Y748579D01*
X745647Y748379D01*
X745598Y748181D01*
X745574Y747999D01*
X745539Y747819D01*
X745521Y747616D01*
X745494Y747414D01*
X745488Y747231D01*
X745472Y747048D01*
X745476Y746844D01*
X745469Y746640D01*
X745482Y746457D01*
X745485Y746273D01*
X745510Y746071D01*
X745524Y745868D01*
X745556Y745687D01*
X745578Y745505D01*
X745623Y745306D01*
X745659Y745105D01*
X745709Y744929D01*
X745750Y744750D01*
X745815Y744557D01*
X745871Y744361D01*
X745939Y744190D01*
X745998Y744016D01*
X746083Y743831D01*
X746159Y743642D01*
X746245Y743480D01*
X746321Y743313D01*
X746425Y743137D01*
X746520Y742957D01*
X746622Y742804D01*
X746715Y742646D01*
X746836Y742482D01*
X746949Y742312D01*
X747035Y742213D01*
X747175Y742023D01*
X747610Y741547D01*
X747664Y741484D01*
X748659Y740490D01*
X750699Y735565D01*
X750699Y730235D01*
X748643Y725272D01*
X748435Y725051D01*
X748387Y724987D01*
X748333Y724928D01*
X748152Y724680D01*
X747965Y724435D01*
X747924Y724367D01*
X747876Y724302D01*
X747722Y724037D01*
X747562Y723775D01*
X747527Y723702D01*
X747487Y723633D01*
X747361Y723353D01*
X747228Y723076D01*
X747201Y723000D01*
X747168Y722927D01*
X747116Y722768D01*
X747071Y722635D01*
X746969Y722346D01*
X746950Y722269D01*
X746924Y722192D01*
X746858Y721892D01*
X746786Y721594D01*
X746775Y721515D01*
X746758Y721436D01*
X746723Y721131D01*
X746681Y720827D01*
X746679Y720746D01*
X746670Y720667D01*
X746666Y720360D01*
X746656Y720053D01*
X746662Y719973D01*
X746661Y719893D01*
X746690Y719587D01*
X746712Y719280D01*
X746725Y719202D01*
X746733Y719122D01*
X746793Y718820D01*
X746846Y718518D01*
X746868Y718441D01*
X746884Y718362D01*
X746974Y718068D01*
X747058Y717773D01*
X747088Y717699D01*
X747112Y717622D01*
X747232Y717340D01*
X747346Y717055D01*
X747384Y716984D01*
X747415Y716910D01*
X747564Y716641D01*
X747707Y716369D01*
X747751Y716303D01*
X747790Y716233D01*
X747966Y715981D01*
X748136Y715725D01*
X748178Y715677D01*
X748233Y715598D01*
X748647Y715119D01*
X750699Y710165D01*
X750699Y704835D01*
X748643Y699872D01*
X748435Y699651D01*
X748387Y699587D01*
X748333Y699528D01*
X748152Y699280D01*
X747965Y699035D01*
X747924Y698967D01*
X747876Y698902D01*
X747722Y698637D01*
X747562Y698375D01*
X747527Y698302D01*
X747487Y698233D01*
X747361Y697953D01*
X747228Y697676D01*
X747201Y697600D01*
X747168Y697527D01*
X747072Y697235D01*
X746969Y696946D01*
X746950Y696869D01*
X746924Y696792D01*
X746858Y696492D01*
X746786Y696194D01*
X746775Y696115D01*
X746758Y696036D01*
X746723Y695731D01*
X746681Y695427D01*
X746679Y695346D01*
X746670Y695267D01*
X746666Y694960D01*
X746656Y694653D01*
X746662Y694573D01*
X746661Y694493D01*
X746690Y694187D01*
X746712Y693880D01*
X746725Y693802D01*
X746733Y693722D01*
X746793Y693420D01*
X746846Y693118D01*
X746868Y693041D01*
X746884Y692962D01*
X746974Y692668D01*
X747058Y692373D01*
X747088Y692299D01*
X747112Y692222D01*
X747232Y691940D01*
X747346Y691655D01*
X747384Y691584D01*
X747415Y691510D01*
X747564Y691241D01*
X747707Y690969D01*
X747751Y690903D01*
X747790Y690833D01*
X747966Y690581D01*
X748136Y690325D01*
X748178Y690277D01*
X748233Y690198D01*
X748647Y689719D01*
X750699Y684765D01*
X750699Y679435D01*
X748643Y674472D01*
X748435Y674251D01*
X748387Y674187D01*
X748333Y674128D01*
X748152Y673880D01*
X747965Y673635D01*
X747924Y673567D01*
X747876Y673502D01*
X747722Y673237D01*
X747562Y672975D01*
X747527Y672902D01*
X747487Y672833D01*
X747361Y672553D01*
X747228Y672276D01*
X747201Y672200D01*
X747168Y672127D01*
X747072Y671835D01*
X746969Y671546D01*
X746950Y671469D01*
X746924Y671392D01*
X746858Y671092D01*
X746786Y670794D01*
X746775Y670715D01*
X746758Y670636D01*
X746723Y670331D01*
X746681Y670027D01*
X746679Y669946D01*
X746670Y669867D01*
X746666Y669560D01*
X746656Y669253D01*
X746662Y669173D01*
X746661Y669093D01*
X746690Y668787D01*
X746712Y668480D01*
X746725Y668402D01*
X746733Y668322D01*
X746793Y668020D01*
X746846Y667718D01*
X746868Y667641D01*
X746884Y667562D01*
X746974Y667268D01*
X747058Y666973D01*
X747088Y666899D01*
X747112Y666822D01*
X747232Y666540D01*
X747346Y666255D01*
X747384Y666184D01*
X747415Y666110D01*
X747564Y665841D01*
X747707Y665569D01*
X747751Y665503D01*
X747790Y665433D01*
X747966Y665181D01*
X748136Y664925D01*
X748178Y664877D01*
X748233Y664798D01*
X748647Y664319D01*
X750699Y659365D01*
X750699Y654035D01*
X748643Y649072D01*
X748435Y648851D01*
X748387Y648787D01*
X748333Y648728D01*
X748152Y648480D01*
X747965Y648235D01*
X747924Y648167D01*
X747876Y648102D01*
X747722Y647837D01*
X747562Y647575D01*
X747527Y647502D01*
X747487Y647433D01*
X747361Y647153D01*
X747228Y646876D01*
X747201Y646800D01*
X747168Y646727D01*
X747072Y646435D01*
X746969Y646146D01*
X746950Y646069D01*
X746924Y645992D01*
X746858Y645692D01*
X746786Y645394D01*
X746775Y645315D01*
X746758Y645236D01*
X746723Y644931D01*
X746681Y644627D01*
X746679Y644546D01*
X746670Y644467D01*
X746666Y644160D01*
X746656Y643853D01*
X746662Y643773D01*
X746661Y643693D01*
X746690Y643387D01*
X746712Y643080D01*
X746725Y643002D01*
X746733Y642922D01*
X746793Y642620D01*
X746846Y642318D01*
X746868Y642241D01*
X746884Y642162D01*
X746974Y641868D01*
X747058Y641573D01*
X747088Y641499D01*
X747112Y641422D01*
X747232Y641140D01*
X747346Y640855D01*
X747384Y640784D01*
X747415Y640710D01*
X747564Y640441D01*
X747707Y640169D01*
X747751Y640103D01*
X747790Y640033D01*
X747966Y639781D01*
X748136Y639525D01*
X748178Y639477D01*
X748233Y639398D01*
X748647Y638919D01*
X750699Y633965D01*
X750699Y628635D01*
X748643Y623672D01*
X748435Y623451D01*
X748387Y623387D01*
X748333Y623328D01*
X748152Y623080D01*
X747965Y622835D01*
X747924Y622767D01*
X747876Y622702D01*
X747722Y622437D01*
X747562Y622175D01*
X747527Y622102D01*
X747487Y622033D01*
X747361Y621753D01*
X747228Y621476D01*
X747201Y621400D01*
X747168Y621327D01*
X747072Y621035D01*
X746969Y620746D01*
X746950Y620669D01*
X746924Y620592D01*
X746858Y620292D01*
X746786Y619994D01*
X746775Y619915D01*
X746758Y619836D01*
X746723Y619531D01*
X746681Y619227D01*
X746679Y619146D01*
X746670Y619067D01*
X746666Y618760D01*
X746656Y618453D01*
X746662Y618373D01*
X746661Y618293D01*
X746690Y617987D01*
X746712Y617680D01*
X746725Y617602D01*
X746733Y617522D01*
X746793Y617220D01*
X746846Y616918D01*
X746868Y616841D01*
X746884Y616762D01*
X746974Y616468D01*
X747058Y616173D01*
X747088Y616099D01*
X747112Y616022D01*
X747232Y615740D01*
X747346Y615455D01*
X747384Y615384D01*
X747415Y615310D01*
X747564Y615041D01*
X747707Y614769D01*
X747751Y614703D01*
X747790Y614633D01*
X747966Y614381D01*
X748136Y614125D01*
X748178Y614077D01*
X748233Y613998D01*
X748647Y613519D01*
X750699Y608565D01*
X750699Y603235D01*
X748643Y598272D01*
X748435Y598051D01*
X748387Y597987D01*
X748333Y597928D01*
X748152Y597680D01*
X747965Y597435D01*
X747924Y597367D01*
X747876Y597302D01*
X747722Y597037D01*
X747562Y596775D01*
X747527Y596702D01*
X747487Y596633D01*
X747361Y596353D01*
X747228Y596076D01*
X747201Y596000D01*
X747168Y595927D01*
X747072Y595635D01*
X746969Y595346D01*
X746950Y595269D01*
X746924Y595192D01*
X746858Y594892D01*
X746786Y594594D01*
X746775Y594515D01*
X746758Y594436D01*
X746723Y594131D01*
X746681Y593827D01*
X746679Y593746D01*
X746670Y593667D01*
X746666Y593360D01*
X746656Y593053D01*
X746662Y592973D01*
X746661Y592893D01*
X746690Y592587D01*
X746712Y592280D01*
X746725Y592202D01*
X746733Y592122D01*
X746793Y591820D01*
X746846Y591518D01*
X746868Y591441D01*
X746884Y591362D01*
X746974Y591068D01*
X747058Y590773D01*
X747088Y590699D01*
X747112Y590622D01*
X747232Y590340D01*
X747346Y590055D01*
X747384Y589984D01*
X747415Y589910D01*
X747564Y589641D01*
X747707Y589369D01*
X747751Y589303D01*
X747790Y589233D01*
X747966Y588981D01*
X748136Y588725D01*
X748178Y588677D01*
X748233Y588598D01*
X748647Y588119D01*
X750699Y583165D01*
X750699Y577835D01*
X748643Y572872D01*
X748435Y572651D01*
X748387Y572587D01*
X748333Y572528D01*
X748152Y572280D01*
X747965Y572035D01*
X747924Y571967D01*
X747876Y571902D01*
X747722Y571637D01*
X747562Y571375D01*
X747527Y571302D01*
X747487Y571233D01*
X747361Y570953D01*
X747228Y570676D01*
X747201Y570600D01*
X747168Y570527D01*
X747072Y570235D01*
X746969Y569946D01*
X746950Y569869D01*
X746924Y569792D01*
X746858Y569492D01*
X746786Y569194D01*
X746775Y569115D01*
X746758Y569036D01*
X746723Y568731D01*
X746681Y568427D01*
X746679Y568346D01*
X746670Y568267D01*
X746666Y567960D01*
X746656Y567653D01*
X746662Y567573D01*
X746661Y567493D01*
X746690Y567187D01*
X746712Y566880D01*
X746725Y566802D01*
X746733Y566722D01*
X746793Y566420D01*
X746846Y566118D01*
X746868Y566041D01*
X746884Y565962D01*
X746974Y565668D01*
X747058Y565373D01*
X747088Y565299D01*
X747112Y565222D01*
X747232Y564940D01*
X747346Y564655D01*
X747384Y564584D01*
X747415Y564510D01*
X747564Y564241D01*
X747707Y563969D01*
X747751Y563903D01*
X747790Y563833D01*
X747966Y563581D01*
X748136Y563325D01*
X748178Y563277D01*
X748233Y563198D01*
X748647Y562719D01*
X750699Y557765D01*
X750699Y552435D01*
X748643Y547472D01*
X748435Y547251D01*
X748387Y547187D01*
X748333Y547128D01*
X748152Y546880D01*
X747965Y546635D01*
X747924Y546567D01*
X747876Y546502D01*
X747722Y546237D01*
X747562Y545975D01*
X747527Y545902D01*
X747487Y545833D01*
X747361Y545553D01*
X747228Y545276D01*
X747201Y545200D01*
X747168Y545127D01*
X747072Y544835D01*
X746969Y544546D01*
X746950Y544469D01*
X746924Y544392D01*
X746858Y544092D01*
X746786Y543794D01*
X746775Y543715D01*
X746758Y543636D01*
X746723Y543331D01*
X746681Y543027D01*
X746679Y542946D01*
X746670Y542867D01*
X746666Y542560D01*
X746656Y542253D01*
X746662Y542173D01*
X746661Y542093D01*
X746690Y541787D01*
X746712Y541480D01*
X746725Y541402D01*
X746733Y541322D01*
X746793Y541020D01*
X746846Y540718D01*
X746868Y540641D01*
X746884Y540562D01*
X746974Y540268D01*
X747058Y539973D01*
X747088Y539899D01*
X747112Y539822D01*
X747232Y539540D01*
X747346Y539255D01*
X747384Y539184D01*
X747415Y539110D01*
X747564Y538841D01*
X747707Y538569D01*
X747751Y538503D01*
X747790Y538433D01*
X747966Y538181D01*
X748136Y537925D01*
X748178Y537877D01*
X748233Y537798D01*
X748647Y537319D01*
X750699Y532365D01*
X750699Y527035D01*
X748643Y522072D01*
X748435Y521851D01*
X748387Y521787D01*
X748333Y521728D01*
X748152Y521480D01*
X747965Y521235D01*
X747924Y521167D01*
X747876Y521102D01*
X747722Y520837D01*
X747562Y520575D01*
X747527Y520502D01*
X747487Y520433D01*
X747361Y520153D01*
X747228Y519876D01*
X747201Y519800D01*
X747168Y519727D01*
X747072Y519435D01*
X746969Y519146D01*
X746950Y519069D01*
X746924Y518992D01*
X746858Y518692D01*
X746786Y518394D01*
X746775Y518315D01*
X746758Y518236D01*
X746723Y517931D01*
X746681Y517627D01*
X746679Y517546D01*
X746670Y517467D01*
X746666Y517160D01*
X746656Y516853D01*
X746662Y516773D01*
X746661Y516693D01*
X746690Y516387D01*
X746712Y516080D01*
X746725Y516002D01*
X746733Y515922D01*
X746793Y515620D01*
X746846Y515318D01*
X746868Y515241D01*
X746884Y515162D01*
X746974Y514868D01*
X747058Y514573D01*
X747088Y514499D01*
X747112Y514422D01*
X747232Y514140D01*
X747346Y513855D01*
X747384Y513784D01*
X747415Y513710D01*
X747564Y513441D01*
X747707Y513169D01*
X747751Y513103D01*
X747790Y513033D01*
X747966Y512781D01*
X748136Y512525D01*
X748178Y512477D01*
X748233Y512398D01*
X748647Y511919D01*
X750699Y506965D01*
X750699Y501635D01*
X748643Y496672D01*
X748435Y496451D01*
X748387Y496387D01*
X748333Y496328D01*
X748152Y496080D01*
X747965Y495835D01*
X747924Y495767D01*
X747876Y495702D01*
X747722Y495437D01*
X747562Y495175D01*
X747527Y495102D01*
X747487Y495033D01*
X747361Y494753D01*
X747228Y494476D01*
X747201Y494400D01*
X747168Y494327D01*
X747072Y494035D01*
X746969Y493746D01*
X746950Y493669D01*
X746924Y493592D01*
X746858Y493292D01*
X746786Y492994D01*
X746775Y492915D01*
X746758Y492836D01*
X746723Y492531D01*
X746681Y492227D01*
X746679Y492146D01*
X746670Y492067D01*
X746666Y491760D01*
X746656Y491453D01*
X746662Y491373D01*
X746661Y491293D01*
X746690Y490987D01*
X746712Y490680D01*
X746725Y490602D01*
X746733Y490522D01*
X746793Y490220D01*
X746846Y489918D01*
X746868Y489841D01*
X746884Y489762D01*
X746974Y489468D01*
X747058Y489173D01*
X747088Y489099D01*
X747112Y489022D01*
X747232Y488740D01*
X747346Y488455D01*
X747384Y488384D01*
X747415Y488310D01*
X747564Y488041D01*
X747707Y487769D01*
X747751Y487703D01*
X747790Y487633D01*
X747966Y487381D01*
X748136Y487125D01*
X748178Y487077D01*
X748233Y486998D01*
X748647Y486519D01*
X750699Y481565D01*
X750699Y476235D01*
X748643Y471272D01*
X748435Y471051D01*
X748387Y470987D01*
X748333Y470928D01*
X748152Y470680D01*
X747965Y470435D01*
X747924Y470367D01*
X747876Y470302D01*
X747722Y470037D01*
X747562Y469775D01*
X747527Y469702D01*
X747487Y469633D01*
X747361Y469353D01*
X747228Y469076D01*
X747201Y469000D01*
X747168Y468927D01*
X747072Y468635D01*
X746969Y468346D01*
X746950Y468269D01*
X746924Y468192D01*
X746858Y467892D01*
X746786Y467594D01*
X746775Y467515D01*
X746758Y467436D01*
X746723Y467131D01*
X746681Y466827D01*
X746679Y466746D01*
X746670Y466667D01*
X746666Y466360D01*
X746656Y466053D01*
X746662Y465973D01*
X746661Y465893D01*
X746690Y465587D01*
X746712Y465280D01*
X746725Y465202D01*
X746733Y465122D01*
X746793Y464820D01*
X746846Y464518D01*
X746868Y464441D01*
X746884Y464362D01*
X746974Y464068D01*
X747058Y463773D01*
X747088Y463699D01*
X747112Y463622D01*
X747232Y463340D01*
X747346Y463055D01*
X747384Y462984D01*
X747415Y462910D01*
X747564Y462641D01*
X747707Y462369D01*
X747751Y462303D01*
X747790Y462233D01*
X747966Y461981D01*
X748136Y461725D01*
X748178Y461677D01*
X748233Y461598D01*
X748647Y461119D01*
X750699Y456165D01*
X750699Y450835D01*
X748643Y445872D01*
X748435Y445651D01*
X748387Y445587D01*
X748333Y445528D01*
X748152Y445280D01*
X747965Y445035D01*
X747924Y444967D01*
X747876Y444902D01*
X747722Y444637D01*
X747562Y444375D01*
X747527Y444302D01*
X747487Y444233D01*
X747361Y443953D01*
X747228Y443676D01*
X747201Y443600D01*
X747168Y443527D01*
X747072Y443235D01*
X746969Y442946D01*
X746950Y442869D01*
X746924Y442792D01*
X746858Y442492D01*
X746786Y442194D01*
X746775Y442115D01*
X746758Y442036D01*
X746723Y441731D01*
X746681Y441427D01*
X746679Y441346D01*
X746670Y441267D01*
X746666Y440960D01*
X746656Y440653D01*
X746662Y440573D01*
X746661Y440493D01*
X746690Y440187D01*
X746712Y439880D01*
X746725Y439802D01*
X746733Y439722D01*
X746793Y439420D01*
X746846Y439118D01*
X746868Y439041D01*
X746884Y438962D01*
X746974Y438668D01*
X747058Y438373D01*
X747088Y438299D01*
X747112Y438222D01*
X747232Y437940D01*
X747346Y437655D01*
X747384Y437584D01*
X747415Y437510D01*
X747564Y437241D01*
X747707Y436969D01*
X747751Y436903D01*
X747790Y436833D01*
X747966Y436581D01*
X748136Y436325D01*
X748178Y436277D01*
X748233Y436198D01*
X748647Y435719D01*
X750699Y430765D01*
X750699Y425435D01*
X748659Y420510D01*
X744890Y416741D01*
X739965Y414701D01*
X734635Y414701D01*
G37*
%LPD*%
%LPC*%
G36*
X582235Y414701D02*
X582235Y414701D01*
X577310Y416741D01*
X573541Y420510D01*
X571501Y425435D01*
X571501Y430765D01*
X573557Y435728D01*
X573765Y435949D01*
X573813Y436013D01*
X573867Y436072D01*
X574048Y436320D01*
X574235Y436565D01*
X574276Y436633D01*
X574324Y436698D01*
X574478Y436963D01*
X574638Y437225D01*
X574673Y437298D01*
X574713Y437367D01*
X574839Y437647D01*
X574972Y437924D01*
X574999Y438000D01*
X575032Y438073D01*
X575128Y438365D01*
X575231Y438654D01*
X575250Y438731D01*
X575276Y438808D01*
X575342Y439108D01*
X575414Y439406D01*
X575425Y439485D01*
X575442Y439564D01*
X575477Y439869D01*
X575519Y440173D01*
X575521Y440254D01*
X575530Y440333D01*
X575534Y440640D01*
X575544Y440947D01*
X575538Y441027D01*
X575539Y441107D01*
X575510Y441413D01*
X575488Y441720D01*
X575475Y441798D01*
X575467Y441878D01*
X575407Y442180D01*
X575354Y442482D01*
X575332Y442559D01*
X575316Y442638D01*
X575226Y442932D01*
X575142Y443227D01*
X575112Y443301D01*
X575088Y443378D01*
X574968Y443660D01*
X574854Y443945D01*
X574816Y444016D01*
X574785Y444090D01*
X574636Y444359D01*
X574493Y444631D01*
X574449Y444697D01*
X574410Y444767D01*
X574234Y445019D01*
X574064Y445275D01*
X574022Y445323D01*
X573967Y445402D01*
X573553Y445881D01*
X571501Y450835D01*
X571501Y456165D01*
X573557Y461128D01*
X573765Y461349D01*
X573813Y461413D01*
X573867Y461472D01*
X574048Y461720D01*
X574235Y461965D01*
X574276Y462033D01*
X574324Y462098D01*
X574478Y462363D01*
X574638Y462625D01*
X574673Y462698D01*
X574713Y462767D01*
X574839Y463047D01*
X574972Y463324D01*
X574999Y463400D01*
X575032Y463473D01*
X575128Y463765D01*
X575231Y464054D01*
X575250Y464131D01*
X575276Y464208D01*
X575342Y464508D01*
X575414Y464806D01*
X575425Y464885D01*
X575442Y464964D01*
X575477Y465269D01*
X575519Y465573D01*
X575521Y465654D01*
X575530Y465733D01*
X575534Y466040D01*
X575544Y466347D01*
X575538Y466427D01*
X575539Y466507D01*
X575510Y466813D01*
X575488Y467120D01*
X575475Y467198D01*
X575467Y467278D01*
X575407Y467580D01*
X575354Y467882D01*
X575332Y467959D01*
X575316Y468038D01*
X575226Y468332D01*
X575142Y468627D01*
X575112Y468701D01*
X575088Y468778D01*
X574968Y469060D01*
X574854Y469345D01*
X574816Y469416D01*
X574785Y469490D01*
X574636Y469759D01*
X574493Y470031D01*
X574449Y470097D01*
X574410Y470167D01*
X574234Y470419D01*
X574064Y470675D01*
X574022Y470723D01*
X573967Y470802D01*
X573553Y471281D01*
X571501Y476235D01*
X571501Y481565D01*
X573557Y486528D01*
X573765Y486749D01*
X573813Y486813D01*
X573867Y486872D01*
X574048Y487120D01*
X574235Y487365D01*
X574276Y487433D01*
X574324Y487498D01*
X574478Y487763D01*
X574638Y488025D01*
X574673Y488098D01*
X574713Y488167D01*
X574839Y488447D01*
X574972Y488724D01*
X574999Y488800D01*
X575032Y488873D01*
X575128Y489165D01*
X575231Y489454D01*
X575250Y489531D01*
X575276Y489608D01*
X575342Y489908D01*
X575414Y490206D01*
X575425Y490285D01*
X575442Y490364D01*
X575477Y490669D01*
X575519Y490973D01*
X575521Y491054D01*
X575530Y491133D01*
X575534Y491440D01*
X575544Y491747D01*
X575538Y491827D01*
X575539Y491907D01*
X575510Y492213D01*
X575488Y492520D01*
X575475Y492598D01*
X575467Y492678D01*
X575407Y492980D01*
X575354Y493282D01*
X575332Y493359D01*
X575316Y493438D01*
X575226Y493732D01*
X575142Y494027D01*
X575112Y494101D01*
X575088Y494178D01*
X574968Y494460D01*
X574854Y494745D01*
X574816Y494816D01*
X574785Y494890D01*
X574636Y495159D01*
X574493Y495431D01*
X574449Y495497D01*
X574410Y495567D01*
X574234Y495819D01*
X574064Y496075D01*
X574022Y496123D01*
X573967Y496202D01*
X573553Y496681D01*
X571501Y501635D01*
X571501Y506965D01*
X573557Y511928D01*
X573765Y512149D01*
X573813Y512213D01*
X573867Y512272D01*
X574048Y512520D01*
X574235Y512765D01*
X574276Y512833D01*
X574324Y512898D01*
X574478Y513163D01*
X574638Y513425D01*
X574673Y513498D01*
X574713Y513567D01*
X574839Y513847D01*
X574972Y514124D01*
X574999Y514200D01*
X575032Y514273D01*
X575128Y514565D01*
X575231Y514854D01*
X575250Y514931D01*
X575276Y515008D01*
X575342Y515308D01*
X575414Y515606D01*
X575425Y515685D01*
X575442Y515764D01*
X575477Y516069D01*
X575519Y516373D01*
X575521Y516454D01*
X575530Y516533D01*
X575534Y516840D01*
X575544Y517147D01*
X575538Y517227D01*
X575539Y517307D01*
X575510Y517613D01*
X575488Y517920D01*
X575475Y517998D01*
X575467Y518078D01*
X575407Y518380D01*
X575354Y518682D01*
X575332Y518759D01*
X575316Y518838D01*
X575226Y519132D01*
X575142Y519427D01*
X575112Y519501D01*
X575088Y519578D01*
X574968Y519860D01*
X574854Y520145D01*
X574816Y520216D01*
X574785Y520290D01*
X574636Y520559D01*
X574493Y520831D01*
X574449Y520897D01*
X574410Y520967D01*
X574234Y521219D01*
X574064Y521475D01*
X574022Y521523D01*
X573967Y521602D01*
X573553Y522081D01*
X571501Y527035D01*
X571501Y532365D01*
X573557Y537328D01*
X573765Y537549D01*
X573813Y537613D01*
X573867Y537672D01*
X574048Y537920D01*
X574235Y538165D01*
X574276Y538233D01*
X574324Y538298D01*
X574478Y538563D01*
X574638Y538825D01*
X574673Y538898D01*
X574713Y538967D01*
X574839Y539247D01*
X574972Y539524D01*
X574999Y539600D01*
X575032Y539673D01*
X575128Y539965D01*
X575231Y540254D01*
X575250Y540331D01*
X575276Y540408D01*
X575342Y540708D01*
X575414Y541006D01*
X575425Y541085D01*
X575442Y541164D01*
X575477Y541469D01*
X575519Y541773D01*
X575521Y541854D01*
X575530Y541933D01*
X575534Y542240D01*
X575544Y542547D01*
X575538Y542627D01*
X575539Y542707D01*
X575510Y543013D01*
X575488Y543320D01*
X575475Y543398D01*
X575467Y543478D01*
X575407Y543780D01*
X575354Y544082D01*
X575332Y544159D01*
X575316Y544238D01*
X575226Y544532D01*
X575142Y544827D01*
X575112Y544901D01*
X575088Y544978D01*
X574968Y545260D01*
X574854Y545545D01*
X574816Y545616D01*
X574785Y545690D01*
X574636Y545959D01*
X574493Y546231D01*
X574449Y546297D01*
X574410Y546367D01*
X574234Y546619D01*
X574064Y546875D01*
X574022Y546923D01*
X573967Y547002D01*
X573553Y547481D01*
X571501Y552435D01*
X571501Y557765D01*
X573557Y562728D01*
X573765Y562949D01*
X573813Y563013D01*
X573867Y563072D01*
X574048Y563320D01*
X574235Y563565D01*
X574276Y563633D01*
X574324Y563698D01*
X574478Y563963D01*
X574638Y564225D01*
X574673Y564298D01*
X574713Y564367D01*
X574839Y564647D01*
X574972Y564924D01*
X574999Y565000D01*
X575032Y565073D01*
X575128Y565365D01*
X575231Y565654D01*
X575250Y565731D01*
X575276Y565808D01*
X575342Y566108D01*
X575414Y566406D01*
X575425Y566485D01*
X575442Y566564D01*
X575477Y566869D01*
X575519Y567173D01*
X575521Y567254D01*
X575530Y567333D01*
X575534Y567640D01*
X575544Y567947D01*
X575538Y568027D01*
X575539Y568107D01*
X575510Y568413D01*
X575488Y568720D01*
X575475Y568798D01*
X575467Y568878D01*
X575407Y569180D01*
X575354Y569482D01*
X575332Y569559D01*
X575316Y569638D01*
X575226Y569932D01*
X575142Y570227D01*
X575112Y570301D01*
X575088Y570378D01*
X574968Y570660D01*
X574854Y570945D01*
X574816Y571016D01*
X574785Y571090D01*
X574636Y571359D01*
X574493Y571631D01*
X574449Y571697D01*
X574410Y571767D01*
X574234Y572019D01*
X574064Y572275D01*
X574022Y572323D01*
X573967Y572402D01*
X573553Y572881D01*
X571501Y577835D01*
X571501Y583165D01*
X573557Y588128D01*
X573765Y588349D01*
X573813Y588413D01*
X573867Y588472D01*
X574048Y588720D01*
X574235Y588965D01*
X574276Y589033D01*
X574324Y589098D01*
X574478Y589363D01*
X574638Y589625D01*
X574673Y589698D01*
X574713Y589767D01*
X574839Y590047D01*
X574972Y590324D01*
X574999Y590400D01*
X575032Y590473D01*
X575128Y590765D01*
X575231Y591054D01*
X575250Y591131D01*
X575276Y591208D01*
X575342Y591508D01*
X575414Y591806D01*
X575425Y591885D01*
X575442Y591964D01*
X575477Y592269D01*
X575519Y592573D01*
X575521Y592654D01*
X575530Y592733D01*
X575534Y593040D01*
X575544Y593347D01*
X575538Y593427D01*
X575539Y593507D01*
X575510Y593813D01*
X575488Y594120D01*
X575475Y594198D01*
X575467Y594278D01*
X575407Y594580D01*
X575354Y594882D01*
X575332Y594959D01*
X575316Y595038D01*
X575226Y595332D01*
X575142Y595627D01*
X575112Y595701D01*
X575088Y595778D01*
X574968Y596060D01*
X574854Y596345D01*
X574816Y596416D01*
X574785Y596490D01*
X574636Y596759D01*
X574493Y597031D01*
X574449Y597097D01*
X574410Y597167D01*
X574234Y597419D01*
X574064Y597675D01*
X574022Y597723D01*
X573967Y597802D01*
X573553Y598281D01*
X571501Y603235D01*
X571501Y608565D01*
X573557Y613528D01*
X573765Y613749D01*
X573813Y613813D01*
X573867Y613872D01*
X574048Y614120D01*
X574235Y614365D01*
X574276Y614433D01*
X574324Y614498D01*
X574478Y614763D01*
X574638Y615025D01*
X574673Y615098D01*
X574713Y615167D01*
X574839Y615447D01*
X574972Y615724D01*
X574999Y615800D01*
X575032Y615873D01*
X575128Y616165D01*
X575231Y616454D01*
X575250Y616531D01*
X575276Y616608D01*
X575342Y616908D01*
X575414Y617206D01*
X575425Y617285D01*
X575442Y617364D01*
X575477Y617669D01*
X575519Y617973D01*
X575521Y618054D01*
X575530Y618133D01*
X575534Y618440D01*
X575544Y618747D01*
X575538Y618827D01*
X575539Y618907D01*
X575510Y619213D01*
X575488Y619520D01*
X575475Y619598D01*
X575467Y619678D01*
X575407Y619980D01*
X575354Y620282D01*
X575332Y620359D01*
X575316Y620438D01*
X575226Y620732D01*
X575142Y621027D01*
X575112Y621101D01*
X575088Y621178D01*
X574968Y621460D01*
X574854Y621745D01*
X574816Y621816D01*
X574785Y621890D01*
X574636Y622159D01*
X574493Y622431D01*
X574449Y622497D01*
X574410Y622567D01*
X574234Y622819D01*
X574064Y623075D01*
X574022Y623123D01*
X573967Y623202D01*
X573553Y623681D01*
X571501Y628635D01*
X571501Y633965D01*
X573557Y638928D01*
X573765Y639149D01*
X573813Y639213D01*
X573867Y639272D01*
X574048Y639520D01*
X574235Y639765D01*
X574276Y639833D01*
X574324Y639898D01*
X574478Y640163D01*
X574638Y640425D01*
X574673Y640498D01*
X574713Y640567D01*
X574839Y640847D01*
X574972Y641124D01*
X574999Y641200D01*
X575032Y641273D01*
X575128Y641565D01*
X575231Y641854D01*
X575250Y641931D01*
X575276Y642008D01*
X575342Y642308D01*
X575414Y642606D01*
X575425Y642685D01*
X575442Y642764D01*
X575477Y643069D01*
X575519Y643373D01*
X575521Y643454D01*
X575530Y643533D01*
X575534Y643840D01*
X575544Y644147D01*
X575538Y644227D01*
X575539Y644307D01*
X575510Y644613D01*
X575488Y644920D01*
X575475Y644998D01*
X575467Y645078D01*
X575407Y645380D01*
X575354Y645682D01*
X575332Y645759D01*
X575316Y645838D01*
X575226Y646132D01*
X575142Y646427D01*
X575112Y646501D01*
X575088Y646578D01*
X574968Y646860D01*
X574854Y647145D01*
X574816Y647216D01*
X574785Y647290D01*
X574636Y647559D01*
X574493Y647831D01*
X574449Y647897D01*
X574410Y647967D01*
X574234Y648219D01*
X574064Y648475D01*
X574022Y648523D01*
X573967Y648602D01*
X573553Y649081D01*
X571501Y654035D01*
X571501Y659365D01*
X573557Y664328D01*
X573765Y664549D01*
X573813Y664613D01*
X573867Y664672D01*
X574048Y664920D01*
X574235Y665165D01*
X574276Y665233D01*
X574324Y665298D01*
X574478Y665563D01*
X574638Y665825D01*
X574673Y665898D01*
X574713Y665967D01*
X574839Y666247D01*
X574972Y666524D01*
X574999Y666600D01*
X575032Y666673D01*
X575128Y666965D01*
X575231Y667254D01*
X575250Y667331D01*
X575276Y667408D01*
X575342Y667708D01*
X575414Y668006D01*
X575425Y668085D01*
X575442Y668164D01*
X575477Y668469D01*
X575519Y668773D01*
X575521Y668854D01*
X575530Y668933D01*
X575534Y669240D01*
X575544Y669547D01*
X575538Y669627D01*
X575539Y669707D01*
X575510Y670013D01*
X575488Y670320D01*
X575475Y670398D01*
X575467Y670478D01*
X575407Y670780D01*
X575354Y671082D01*
X575332Y671159D01*
X575316Y671238D01*
X575226Y671532D01*
X575142Y671827D01*
X575112Y671901D01*
X575088Y671978D01*
X574968Y672260D01*
X574854Y672545D01*
X574816Y672616D01*
X574785Y672690D01*
X574636Y672959D01*
X574493Y673231D01*
X574449Y673297D01*
X574410Y673367D01*
X574234Y673619D01*
X574064Y673875D01*
X574022Y673923D01*
X573967Y674002D01*
X573553Y674481D01*
X571501Y679435D01*
X571501Y684765D01*
X573541Y689690D01*
X574536Y690684D01*
X574672Y690836D01*
X574816Y690980D01*
X574931Y691123D01*
X575054Y691259D01*
X575174Y691424D01*
X575302Y691583D01*
X575403Y691737D01*
X575511Y691885D01*
X575613Y692061D01*
X575724Y692232D01*
X575808Y692395D01*
X575900Y692554D01*
X575984Y692740D01*
X576077Y692921D01*
X576143Y693092D01*
X576219Y693260D01*
X576283Y693453D01*
X576357Y693643D01*
X576405Y693820D01*
X576463Y693995D01*
X576507Y694194D01*
X576560Y694390D01*
X576590Y694571D01*
X576630Y694751D01*
X576653Y694953D01*
X576686Y695154D01*
X576697Y695337D01*
X576718Y695520D01*
X576720Y695724D01*
X576732Y695927D01*
X576724Y696110D01*
X576726Y696294D01*
X576707Y696497D01*
X576698Y696701D01*
X576671Y696883D01*
X576654Y697065D01*
X576615Y697265D01*
X576585Y697467D01*
X576539Y697645D01*
X576504Y697825D01*
X576444Y698020D01*
X576393Y698217D01*
X576330Y698389D01*
X576275Y698565D01*
X576196Y698752D01*
X576125Y698943D01*
X576044Y699108D01*
X575972Y699277D01*
X575873Y699455D01*
X575783Y699638D01*
X575711Y699749D01*
X575597Y699954D01*
X575565Y700001D01*
X584900Y700001D01*
X594237Y700001D01*
X594179Y699915D01*
X594081Y699736D01*
X593974Y699562D01*
X593895Y699396D01*
X593808Y699235D01*
X593729Y699047D01*
X593641Y698863D01*
X593580Y698690D01*
X593509Y698521D01*
X593450Y698325D01*
X593381Y698134D01*
X593338Y697955D01*
X593285Y697780D01*
X593247Y697579D01*
X593198Y697381D01*
X593174Y697200D01*
X593139Y697019D01*
X593121Y696816D01*
X593094Y696614D01*
X593088Y696431D01*
X593072Y696248D01*
X593076Y696044D01*
X593069Y695840D01*
X593082Y695657D01*
X593085Y695474D01*
X593110Y695271D01*
X593124Y695068D01*
X593156Y694887D01*
X593178Y694705D01*
X593223Y694506D01*
X593259Y694305D01*
X593309Y694129D01*
X593350Y693950D01*
X593415Y693757D01*
X593471Y693561D01*
X593539Y693390D01*
X593598Y693217D01*
X593683Y693031D01*
X593759Y692842D01*
X593845Y692680D01*
X593921Y692513D01*
X594025Y692337D01*
X594120Y692157D01*
X594221Y692004D01*
X594315Y691846D01*
X594436Y691682D01*
X594549Y691512D01*
X594635Y691413D01*
X594775Y691223D01*
X595211Y690746D01*
X595264Y690684D01*
X596259Y689690D01*
X598299Y684765D01*
X598299Y679435D01*
X596243Y674472D01*
X596035Y674251D01*
X595987Y674187D01*
X595933Y674128D01*
X595752Y673880D01*
X595565Y673635D01*
X595524Y673567D01*
X595477Y673502D01*
X595322Y673237D01*
X595162Y672975D01*
X595127Y672902D01*
X595087Y672833D01*
X594961Y672553D01*
X594828Y672276D01*
X594801Y672200D01*
X594769Y672127D01*
X594672Y671836D01*
X594569Y671546D01*
X594550Y671469D01*
X594525Y671393D01*
X594458Y671093D01*
X594386Y670794D01*
X594375Y670714D01*
X594358Y670637D01*
X594323Y670331D01*
X594281Y670027D01*
X594279Y669947D01*
X594270Y669867D01*
X594266Y669560D01*
X594256Y669253D01*
X594262Y669173D01*
X594261Y669093D01*
X594290Y668787D01*
X594312Y668481D01*
X594325Y668402D01*
X594333Y668322D01*
X594393Y668020D01*
X594446Y667718D01*
X594468Y667641D01*
X594484Y667563D01*
X594574Y667269D01*
X594658Y666973D01*
X594688Y666899D01*
X594712Y666823D01*
X594832Y666540D01*
X594946Y666255D01*
X594984Y666184D01*
X595015Y666110D01*
X595164Y665841D01*
X595307Y665570D01*
X595351Y665503D01*
X595390Y665433D01*
X595566Y665180D01*
X595736Y664925D01*
X595778Y664877D01*
X595833Y664798D01*
X596247Y664319D01*
X598299Y659365D01*
X598299Y654035D01*
X596243Y649072D01*
X596035Y648851D01*
X595987Y648787D01*
X595933Y648728D01*
X595752Y648480D01*
X595565Y648235D01*
X595524Y648167D01*
X595477Y648102D01*
X595322Y647837D01*
X595162Y647575D01*
X595127Y647502D01*
X595087Y647433D01*
X594961Y647153D01*
X594828Y646876D01*
X594801Y646800D01*
X594769Y646727D01*
X594672Y646436D01*
X594569Y646146D01*
X594550Y646069D01*
X594525Y645993D01*
X594458Y645693D01*
X594386Y645394D01*
X594375Y645314D01*
X594358Y645237D01*
X594323Y644931D01*
X594281Y644627D01*
X594279Y644547D01*
X594270Y644467D01*
X594266Y644160D01*
X594256Y643853D01*
X594262Y643773D01*
X594261Y643693D01*
X594290Y643387D01*
X594312Y643081D01*
X594325Y643002D01*
X594333Y642922D01*
X594393Y642620D01*
X594446Y642318D01*
X594468Y642241D01*
X594484Y642163D01*
X594574Y641869D01*
X594658Y641573D01*
X594688Y641499D01*
X594712Y641423D01*
X594832Y641140D01*
X594946Y640855D01*
X594984Y640784D01*
X595015Y640710D01*
X595164Y640441D01*
X595307Y640170D01*
X595351Y640103D01*
X595390Y640033D01*
X595566Y639780D01*
X595736Y639525D01*
X595778Y639477D01*
X595833Y639398D01*
X596247Y638919D01*
X598299Y633965D01*
X598299Y628635D01*
X596243Y623672D01*
X596035Y623451D01*
X595987Y623387D01*
X595933Y623328D01*
X595752Y623080D01*
X595565Y622835D01*
X595524Y622767D01*
X595477Y622702D01*
X595322Y622437D01*
X595162Y622175D01*
X595127Y622102D01*
X595087Y622033D01*
X594961Y621753D01*
X594828Y621476D01*
X594801Y621400D01*
X594769Y621327D01*
X594672Y621036D01*
X594569Y620746D01*
X594550Y620669D01*
X594525Y620593D01*
X594458Y620293D01*
X594386Y619994D01*
X594375Y619914D01*
X594358Y619837D01*
X594323Y619531D01*
X594281Y619227D01*
X594279Y619147D01*
X594270Y619067D01*
X594266Y618760D01*
X594256Y618453D01*
X594262Y618373D01*
X594261Y618293D01*
X594290Y617987D01*
X594312Y617681D01*
X594325Y617602D01*
X594333Y617522D01*
X594393Y617220D01*
X594446Y616918D01*
X594468Y616841D01*
X594484Y616763D01*
X594574Y616469D01*
X594658Y616173D01*
X594688Y616099D01*
X594712Y616023D01*
X594832Y615740D01*
X594946Y615455D01*
X594984Y615384D01*
X595015Y615310D01*
X595164Y615041D01*
X595307Y614770D01*
X595351Y614703D01*
X595390Y614633D01*
X595566Y614380D01*
X595736Y614125D01*
X595778Y614077D01*
X595833Y613998D01*
X596247Y613519D01*
X598299Y608565D01*
X598299Y603235D01*
X596243Y598272D01*
X596035Y598051D01*
X595987Y597987D01*
X595933Y597928D01*
X595752Y597680D01*
X595565Y597435D01*
X595524Y597367D01*
X595477Y597302D01*
X595322Y597037D01*
X595162Y596775D01*
X595127Y596702D01*
X595087Y596633D01*
X594961Y596353D01*
X594828Y596076D01*
X594801Y596000D01*
X594769Y595927D01*
X594672Y595636D01*
X594569Y595346D01*
X594550Y595269D01*
X594525Y595193D01*
X594458Y594893D01*
X594386Y594594D01*
X594375Y594514D01*
X594358Y594437D01*
X594323Y594131D01*
X594281Y593827D01*
X594279Y593747D01*
X594270Y593667D01*
X594266Y593360D01*
X594256Y593053D01*
X594262Y592973D01*
X594261Y592893D01*
X594290Y592587D01*
X594312Y592281D01*
X594325Y592202D01*
X594333Y592122D01*
X594393Y591820D01*
X594446Y591518D01*
X594468Y591441D01*
X594484Y591363D01*
X594574Y591069D01*
X594658Y590773D01*
X594688Y590699D01*
X594712Y590623D01*
X594832Y590340D01*
X594946Y590055D01*
X594984Y589984D01*
X595015Y589910D01*
X595164Y589641D01*
X595307Y589370D01*
X595351Y589303D01*
X595390Y589233D01*
X595566Y588980D01*
X595736Y588725D01*
X595778Y588677D01*
X595833Y588598D01*
X596247Y588119D01*
X598299Y583165D01*
X598299Y577835D01*
X596243Y572872D01*
X596035Y572651D01*
X595987Y572587D01*
X595933Y572528D01*
X595752Y572280D01*
X595565Y572035D01*
X595524Y571967D01*
X595477Y571902D01*
X595322Y571637D01*
X595162Y571375D01*
X595127Y571302D01*
X595087Y571233D01*
X594961Y570953D01*
X594828Y570676D01*
X594801Y570600D01*
X594769Y570527D01*
X594672Y570236D01*
X594569Y569946D01*
X594550Y569869D01*
X594525Y569793D01*
X594458Y569493D01*
X594386Y569194D01*
X594375Y569114D01*
X594358Y569037D01*
X594323Y568731D01*
X594281Y568427D01*
X594279Y568347D01*
X594270Y568267D01*
X594266Y567960D01*
X594256Y567653D01*
X594262Y567573D01*
X594261Y567493D01*
X594290Y567187D01*
X594312Y566881D01*
X594325Y566802D01*
X594333Y566722D01*
X594393Y566420D01*
X594446Y566118D01*
X594468Y566041D01*
X594484Y565963D01*
X594574Y565669D01*
X594658Y565373D01*
X594688Y565299D01*
X594712Y565223D01*
X594832Y564940D01*
X594946Y564655D01*
X594984Y564584D01*
X595015Y564510D01*
X595164Y564241D01*
X595307Y563970D01*
X595351Y563903D01*
X595390Y563833D01*
X595566Y563580D01*
X595736Y563325D01*
X595778Y563277D01*
X595833Y563198D01*
X596247Y562719D01*
X598299Y557765D01*
X598299Y552435D01*
X596243Y547472D01*
X596035Y547251D01*
X595987Y547187D01*
X595933Y547128D01*
X595752Y546880D01*
X595565Y546635D01*
X595524Y546567D01*
X595477Y546502D01*
X595322Y546237D01*
X595162Y545975D01*
X595127Y545902D01*
X595087Y545833D01*
X594961Y545553D01*
X594828Y545276D01*
X594801Y545200D01*
X594769Y545127D01*
X594672Y544836D01*
X594569Y544546D01*
X594550Y544469D01*
X594525Y544393D01*
X594458Y544093D01*
X594386Y543794D01*
X594375Y543714D01*
X594358Y543637D01*
X594323Y543331D01*
X594281Y543027D01*
X594279Y542947D01*
X594270Y542867D01*
X594266Y542560D01*
X594256Y542253D01*
X594262Y542173D01*
X594261Y542093D01*
X594290Y541787D01*
X594312Y541481D01*
X594325Y541402D01*
X594333Y541322D01*
X594393Y541020D01*
X594446Y540718D01*
X594468Y540641D01*
X594484Y540563D01*
X594574Y540269D01*
X594658Y539973D01*
X594688Y539899D01*
X594712Y539823D01*
X594832Y539540D01*
X594946Y539255D01*
X594984Y539184D01*
X595015Y539110D01*
X595164Y538841D01*
X595307Y538570D01*
X595351Y538503D01*
X595390Y538433D01*
X595566Y538180D01*
X595736Y537925D01*
X595778Y537877D01*
X595833Y537798D01*
X596247Y537319D01*
X598299Y532365D01*
X598299Y527035D01*
X596243Y522072D01*
X596035Y521851D01*
X595987Y521787D01*
X595933Y521728D01*
X595752Y521480D01*
X595565Y521235D01*
X595524Y521167D01*
X595477Y521102D01*
X595322Y520837D01*
X595162Y520575D01*
X595127Y520502D01*
X595087Y520433D01*
X594961Y520153D01*
X594828Y519876D01*
X594801Y519800D01*
X594769Y519727D01*
X594672Y519436D01*
X594569Y519146D01*
X594550Y519069D01*
X594525Y518993D01*
X594458Y518693D01*
X594386Y518394D01*
X594375Y518314D01*
X594358Y518237D01*
X594323Y517931D01*
X594281Y517627D01*
X594279Y517547D01*
X594270Y517467D01*
X594266Y517160D01*
X594256Y516853D01*
X594262Y516773D01*
X594261Y516693D01*
X594290Y516387D01*
X594312Y516081D01*
X594325Y516002D01*
X594333Y515922D01*
X594393Y515620D01*
X594446Y515318D01*
X594468Y515241D01*
X594484Y515163D01*
X594574Y514869D01*
X594658Y514573D01*
X594688Y514499D01*
X594712Y514423D01*
X594832Y514140D01*
X594946Y513855D01*
X594984Y513784D01*
X595015Y513710D01*
X595164Y513441D01*
X595307Y513170D01*
X595351Y513103D01*
X595390Y513033D01*
X595566Y512780D01*
X595736Y512525D01*
X595778Y512477D01*
X595833Y512398D01*
X596247Y511919D01*
X598299Y506965D01*
X598299Y501635D01*
X596243Y496672D01*
X596035Y496451D01*
X595987Y496387D01*
X595933Y496328D01*
X595752Y496080D01*
X595565Y495835D01*
X595524Y495767D01*
X595477Y495702D01*
X595322Y495437D01*
X595162Y495175D01*
X595127Y495102D01*
X595087Y495033D01*
X594961Y494753D01*
X594828Y494476D01*
X594801Y494400D01*
X594769Y494327D01*
X594672Y494036D01*
X594569Y493746D01*
X594550Y493669D01*
X594525Y493593D01*
X594458Y493293D01*
X594386Y492994D01*
X594375Y492914D01*
X594358Y492837D01*
X594323Y492531D01*
X594281Y492227D01*
X594279Y492147D01*
X594270Y492067D01*
X594266Y491760D01*
X594256Y491453D01*
X594262Y491373D01*
X594261Y491293D01*
X594290Y490987D01*
X594312Y490681D01*
X594325Y490602D01*
X594333Y490522D01*
X594393Y490220D01*
X594446Y489918D01*
X594468Y489841D01*
X594484Y489763D01*
X594574Y489469D01*
X594658Y489173D01*
X594688Y489099D01*
X594712Y489023D01*
X594832Y488740D01*
X594946Y488455D01*
X594984Y488384D01*
X595015Y488310D01*
X595164Y488041D01*
X595307Y487770D01*
X595351Y487703D01*
X595390Y487633D01*
X595566Y487380D01*
X595736Y487125D01*
X595778Y487077D01*
X595833Y486998D01*
X596247Y486519D01*
X598299Y481565D01*
X598299Y476235D01*
X596243Y471272D01*
X596035Y471051D01*
X595987Y470987D01*
X595933Y470928D01*
X595752Y470680D01*
X595565Y470435D01*
X595524Y470367D01*
X595477Y470302D01*
X595322Y470037D01*
X595162Y469775D01*
X595127Y469702D01*
X595087Y469633D01*
X594961Y469353D01*
X594828Y469076D01*
X594801Y469000D01*
X594769Y468927D01*
X594672Y468636D01*
X594569Y468346D01*
X594550Y468269D01*
X594525Y468193D01*
X594458Y467893D01*
X594386Y467594D01*
X594375Y467514D01*
X594358Y467437D01*
X594323Y467131D01*
X594281Y466827D01*
X594279Y466747D01*
X594270Y466667D01*
X594266Y466360D01*
X594256Y466053D01*
X594262Y465973D01*
X594261Y465893D01*
X594290Y465587D01*
X594312Y465281D01*
X594325Y465202D01*
X594333Y465122D01*
X594393Y464820D01*
X594446Y464518D01*
X594468Y464441D01*
X594484Y464363D01*
X594574Y464069D01*
X594658Y463773D01*
X594688Y463699D01*
X594712Y463623D01*
X594832Y463340D01*
X594946Y463055D01*
X594984Y462984D01*
X595015Y462910D01*
X595164Y462641D01*
X595307Y462370D01*
X595351Y462303D01*
X595390Y462233D01*
X595566Y461980D01*
X595736Y461725D01*
X595778Y461677D01*
X595833Y461598D01*
X596247Y461119D01*
X598299Y456165D01*
X598299Y450835D01*
X596243Y445872D01*
X596035Y445651D01*
X595987Y445587D01*
X595933Y445528D01*
X595752Y445280D01*
X595565Y445035D01*
X595524Y444967D01*
X595477Y444902D01*
X595322Y444637D01*
X595162Y444375D01*
X595127Y444302D01*
X595087Y444233D01*
X594961Y443953D01*
X594828Y443676D01*
X594801Y443600D01*
X594769Y443527D01*
X594672Y443236D01*
X594569Y442946D01*
X594550Y442869D01*
X594525Y442793D01*
X594458Y442493D01*
X594386Y442194D01*
X594375Y442114D01*
X594358Y442037D01*
X594323Y441731D01*
X594281Y441427D01*
X594279Y441347D01*
X594270Y441267D01*
X594266Y440960D01*
X594256Y440653D01*
X594262Y440573D01*
X594261Y440493D01*
X594290Y440187D01*
X594312Y439881D01*
X594325Y439802D01*
X594333Y439722D01*
X594393Y439420D01*
X594446Y439118D01*
X594468Y439041D01*
X594484Y438963D01*
X594574Y438669D01*
X594658Y438373D01*
X594688Y438299D01*
X594712Y438223D01*
X594832Y437940D01*
X594946Y437655D01*
X594984Y437584D01*
X595015Y437510D01*
X595164Y437241D01*
X595307Y436970D01*
X595351Y436903D01*
X595390Y436833D01*
X595566Y436580D01*
X595736Y436325D01*
X595778Y436277D01*
X595833Y436198D01*
X596247Y435719D01*
X598299Y430765D01*
X598299Y425435D01*
X596259Y420510D01*
X592490Y416741D01*
X587565Y414701D01*
X582235Y414701D01*
G37*
%LPD*%
%LPC*%
G36*
X183335Y750301D02*
X183335Y750301D01*
X178410Y752341D01*
X174641Y756110D01*
X172601Y761035D01*
X172601Y766365D01*
X174641Y771290D01*
X178379Y775027D01*
X178481Y775141D01*
X178591Y775249D01*
X178741Y775429D01*
X178897Y775602D01*
X178988Y775726D01*
X179086Y775845D01*
X179216Y776039D01*
X179354Y776228D01*
X179431Y776360D01*
X179516Y776488D01*
X179625Y776695D01*
X179743Y776897D01*
X179806Y777037D01*
X179878Y777173D01*
X179966Y777390D01*
X180062Y777603D01*
X180110Y777748D01*
X180167Y777891D01*
X180232Y778116D01*
X180306Y778338D01*
X180339Y778488D01*
X180381Y778635D01*
X180422Y778865D01*
X180472Y779094D01*
X180490Y779246D01*
X180517Y779398D01*
X180534Y779631D01*
X180561Y779863D01*
X180562Y780017D01*
X180573Y780170D01*
X180566Y780403D01*
X180569Y780637D01*
X180555Y780790D01*
X180550Y780944D01*
X180519Y781176D01*
X180497Y781408D01*
X180467Y781559D01*
X180447Y781711D01*
X180392Y781939D01*
X180346Y782168D01*
X180301Y782314D01*
X180265Y782464D01*
X180187Y782685D01*
X180118Y782908D01*
X180058Y783049D01*
X180007Y783194D01*
X179906Y783405D01*
X179815Y783620D01*
X179741Y783754D01*
X179674Y783893D01*
X179553Y784093D01*
X179440Y784297D01*
X179352Y784423D01*
X179272Y784555D01*
X179130Y784741D01*
X178997Y784932D01*
X178896Y785049D01*
X178803Y785171D01*
X178643Y785342D01*
X178491Y785518D01*
X178379Y785624D01*
X178274Y785736D01*
X178097Y785889D01*
X177927Y786049D01*
X177805Y786142D01*
X177688Y786243D01*
X177497Y786377D01*
X177311Y786519D01*
X177180Y786599D01*
X177054Y786687D01*
X176850Y786801D01*
X176651Y786922D01*
X176512Y786989D01*
X176377Y787063D01*
X176162Y787155D01*
X175952Y787256D01*
X175807Y787307D01*
X175666Y787368D01*
X175442Y787437D01*
X175222Y787516D01*
X175073Y787552D01*
X174926Y787597D01*
X174697Y787643D01*
X174470Y787699D01*
X174318Y787719D01*
X174167Y787749D01*
X174013Y787761D01*
X173703Y787803D01*
X173226Y787818D01*
X173076Y787829D01*
X169789Y787829D01*
X163005Y789647D01*
X156924Y793158D01*
X151958Y798124D01*
X148447Y804205D01*
X146629Y810989D01*
X146629Y818011D01*
X148447Y824795D01*
X151958Y830876D01*
X156924Y835842D01*
X163005Y839353D01*
X169789Y841171D01*
X176811Y841171D01*
X183595Y839353D01*
X189676Y835842D01*
X194642Y830876D01*
X198153Y824795D01*
X199971Y818011D01*
X199971Y810989D01*
X198153Y804205D01*
X194642Y798124D01*
X189676Y793158D01*
X186099Y791093D01*
X185795Y790896D01*
X185492Y790702D01*
X185471Y790686D01*
X185449Y790671D01*
X185167Y790444D01*
X184886Y790221D01*
X184867Y790202D01*
X184846Y790185D01*
X184591Y789932D01*
X184333Y789679D01*
X184315Y789658D01*
X184297Y789640D01*
X184068Y789361D01*
X183838Y789083D01*
X183823Y789061D01*
X183806Y789040D01*
X183608Y788739D01*
X183408Y788440D01*
X183395Y788416D01*
X183380Y788394D01*
X183215Y788075D01*
X183046Y787755D01*
X183036Y787730D01*
X183024Y787707D01*
X182891Y787371D01*
X182757Y787037D01*
X182749Y787011D01*
X182739Y786986D01*
X182642Y786637D01*
X182543Y786293D01*
X182538Y786266D01*
X182531Y786241D01*
X182470Y785885D01*
X182407Y785530D01*
X182405Y785504D01*
X182401Y785477D01*
X182377Y785117D01*
X182351Y784758D01*
X182351Y784732D01*
X182350Y784705D01*
X182363Y784344D01*
X182374Y783984D01*
X182378Y783958D01*
X182379Y783931D01*
X182429Y783576D01*
X182477Y783217D01*
X182483Y783191D01*
X182487Y783164D01*
X182574Y782817D01*
X182659Y782464D01*
X182668Y782439D01*
X182674Y782413D01*
X182796Y782076D01*
X182917Y781734D01*
X182929Y781710D01*
X182938Y781685D01*
X183094Y781362D01*
X183249Y781035D01*
X183263Y781012D01*
X183275Y780988D01*
X183465Y780681D01*
X183652Y780373D01*
X183668Y780352D01*
X183682Y780329D01*
X183903Y780043D01*
X184121Y779757D01*
X184139Y779737D01*
X184155Y779716D01*
X184403Y779455D01*
X184650Y779192D01*
X184671Y779175D01*
X184689Y779155D01*
X184962Y778922D01*
X185235Y778685D01*
X185257Y778670D01*
X185278Y778652D01*
X185575Y778447D01*
X185870Y778241D01*
X185893Y778228D01*
X185915Y778213D01*
X186232Y778040D01*
X186546Y777865D01*
X186571Y777854D01*
X186594Y777841D01*
X186925Y777703D01*
X187258Y777560D01*
X187284Y777552D01*
X187308Y777542D01*
X187653Y777438D01*
X187998Y777331D01*
X188024Y777325D01*
X188050Y777318D01*
X188213Y777286D01*
X193628Y775043D01*
X193849Y774835D01*
X193913Y774787D01*
X193972Y774733D01*
X194220Y774552D01*
X194465Y774365D01*
X194533Y774324D01*
X194598Y774277D01*
X194863Y774122D01*
X195125Y773962D01*
X195198Y773927D01*
X195267Y773887D01*
X195547Y773761D01*
X195824Y773628D01*
X195900Y773601D01*
X195973Y773569D01*
X196264Y773472D01*
X196554Y773369D01*
X196631Y773350D01*
X196707Y773325D01*
X197007Y773258D01*
X197306Y773186D01*
X197386Y773175D01*
X197463Y773158D01*
X197769Y773123D01*
X198073Y773081D01*
X198153Y773079D01*
X198233Y773070D01*
X198540Y773066D01*
X198847Y773056D01*
X198927Y773062D01*
X199007Y773061D01*
X199313Y773090D01*
X199619Y773112D01*
X199698Y773125D01*
X199778Y773133D01*
X200080Y773193D01*
X200382Y773246D01*
X200459Y773268D01*
X200537Y773284D01*
X200831Y773374D01*
X201127Y773458D01*
X201201Y773488D01*
X201277Y773512D01*
X201560Y773632D01*
X201845Y773746D01*
X201916Y773784D01*
X201990Y773815D01*
X202259Y773964D01*
X202530Y774107D01*
X202597Y774151D01*
X202667Y774190D01*
X202920Y774366D01*
X203175Y774536D01*
X203223Y774578D01*
X203302Y774633D01*
X203781Y775047D01*
X208735Y777099D01*
X214065Y777099D01*
X218990Y775059D01*
X222759Y771290D01*
X224799Y766365D01*
X224799Y761035D01*
X222759Y756110D01*
X218990Y752341D01*
X214065Y750301D01*
X208735Y750301D01*
X203772Y752357D01*
X203551Y752565D01*
X203487Y752613D01*
X203428Y752667D01*
X203180Y752848D01*
X202935Y753035D01*
X202867Y753076D01*
X202802Y753124D01*
X202537Y753278D01*
X202275Y753438D01*
X202202Y753473D01*
X202133Y753513D01*
X201853Y753639D01*
X201576Y753772D01*
X201500Y753799D01*
X201427Y753832D01*
X201135Y753928D01*
X200846Y754031D01*
X200769Y754050D01*
X200692Y754076D01*
X200392Y754142D01*
X200094Y754214D01*
X200015Y754225D01*
X199936Y754242D01*
X199631Y754277D01*
X199327Y754319D01*
X199246Y754321D01*
X199167Y754330D01*
X198860Y754334D01*
X198553Y754344D01*
X198473Y754338D01*
X198393Y754339D01*
X198087Y754310D01*
X197780Y754288D01*
X197702Y754275D01*
X197622Y754267D01*
X197320Y754207D01*
X197018Y754154D01*
X196941Y754132D01*
X196862Y754116D01*
X196568Y754026D01*
X196273Y753942D01*
X196199Y753912D01*
X196122Y753888D01*
X195840Y753768D01*
X195555Y753654D01*
X195484Y753616D01*
X195410Y753585D01*
X195141Y753436D01*
X194869Y753293D01*
X194803Y753249D01*
X194733Y753210D01*
X194481Y753034D01*
X194225Y752864D01*
X194177Y752822D01*
X194098Y752767D01*
X193619Y752353D01*
X188665Y750301D01*
X183335Y750301D01*
G37*
%LPD*%
%LPC*%
G36*
X584900Y714999D02*
X584900Y714999D01*
X575562Y714999D01*
X575622Y715085D01*
X575719Y715264D01*
X575825Y715438D01*
X575905Y715604D01*
X575992Y715765D01*
X576071Y715953D01*
X576159Y716137D01*
X576220Y716310D01*
X576291Y716479D01*
X576350Y716674D01*
X576419Y716866D01*
X576462Y717045D01*
X576515Y717221D01*
X576553Y717421D01*
X576602Y717619D01*
X576626Y717801D01*
X576661Y717981D01*
X576679Y718184D01*
X576706Y718386D01*
X576712Y718569D01*
X576728Y718752D01*
X576724Y718956D01*
X576731Y719160D01*
X576718Y719343D01*
X576715Y719527D01*
X576690Y719729D01*
X576676Y719932D01*
X576644Y720113D01*
X576622Y720295D01*
X576577Y720494D01*
X576541Y720695D01*
X576491Y720871D01*
X576450Y721050D01*
X576385Y721243D01*
X576329Y721439D01*
X576261Y721610D01*
X576202Y721784D01*
X576117Y721969D01*
X576041Y722158D01*
X575955Y722320D01*
X575879Y722487D01*
X575775Y722663D01*
X575680Y722843D01*
X575578Y722996D01*
X575485Y723154D01*
X575364Y723318D01*
X575251Y723488D01*
X575165Y723587D01*
X575025Y723777D01*
X574590Y724253D01*
X574536Y724316D01*
X573541Y725310D01*
X571501Y730235D01*
X571501Y735565D01*
X573557Y740528D01*
X573765Y740749D01*
X573813Y740813D01*
X573867Y740872D01*
X574048Y741120D01*
X574235Y741365D01*
X574276Y741433D01*
X574324Y741498D01*
X574478Y741763D01*
X574638Y742025D01*
X574673Y742098D01*
X574713Y742167D01*
X574839Y742447D01*
X574972Y742724D01*
X574999Y742800D01*
X575032Y742873D01*
X575128Y743165D01*
X575231Y743454D01*
X575250Y743531D01*
X575276Y743608D01*
X575342Y743908D01*
X575414Y744206D01*
X575425Y744285D01*
X575442Y744364D01*
X575477Y744669D01*
X575519Y744973D01*
X575521Y745054D01*
X575530Y745133D01*
X575534Y745440D01*
X575544Y745747D01*
X575538Y745827D01*
X575539Y745907D01*
X575510Y746213D01*
X575488Y746520D01*
X575475Y746598D01*
X575467Y746678D01*
X575407Y746980D01*
X575354Y747282D01*
X575332Y747359D01*
X575316Y747438D01*
X575226Y747732D01*
X575142Y748027D01*
X575112Y748101D01*
X575088Y748178D01*
X574968Y748460D01*
X574854Y748745D01*
X574816Y748816D01*
X574785Y748890D01*
X574636Y749159D01*
X574493Y749431D01*
X574449Y749497D01*
X574410Y749567D01*
X574234Y749819D01*
X574064Y750075D01*
X574022Y750123D01*
X573967Y750202D01*
X573553Y750681D01*
X571501Y755635D01*
X571501Y760965D01*
X573557Y765928D01*
X573765Y766149D01*
X573813Y766213D01*
X573867Y766272D01*
X574048Y766520D01*
X574235Y766765D01*
X574276Y766833D01*
X574324Y766898D01*
X574478Y767163D01*
X574638Y767425D01*
X574673Y767498D01*
X574713Y767567D01*
X574839Y767846D01*
X574972Y768124D01*
X574999Y768200D01*
X575032Y768273D01*
X575128Y768565D01*
X575231Y768854D01*
X575250Y768931D01*
X575276Y769008D01*
X575342Y769308D01*
X575414Y769606D01*
X575425Y769685D01*
X575442Y769764D01*
X575477Y770069D01*
X575519Y770373D01*
X575521Y770454D01*
X575530Y770533D01*
X575534Y770840D01*
X575544Y771147D01*
X575538Y771227D01*
X575539Y771307D01*
X575510Y771613D01*
X575488Y771920D01*
X575475Y771998D01*
X575467Y772078D01*
X575407Y772380D01*
X575354Y772682D01*
X575332Y772759D01*
X575316Y772838D01*
X575226Y773132D01*
X575142Y773427D01*
X575112Y773501D01*
X575088Y773578D01*
X574968Y773860D01*
X574854Y774145D01*
X574816Y774216D01*
X574785Y774290D01*
X574636Y774559D01*
X574493Y774831D01*
X574449Y774897D01*
X574410Y774967D01*
X574234Y775219D01*
X574064Y775475D01*
X574022Y775523D01*
X573967Y775602D01*
X573553Y776081D01*
X571501Y781035D01*
X571501Y786365D01*
X573557Y791328D01*
X573765Y791549D01*
X573813Y791613D01*
X573867Y791672D01*
X574017Y791877D01*
X574048Y791920D01*
X574235Y792165D01*
X574276Y792233D01*
X574324Y792298D01*
X574443Y792503D01*
X574478Y792563D01*
X574638Y792825D01*
X574673Y792898D01*
X574713Y792967D01*
X574799Y793158D01*
X574839Y793247D01*
X574972Y793524D01*
X574999Y793600D01*
X575031Y793673D01*
X575128Y793964D01*
X575231Y794254D01*
X575250Y794331D01*
X575275Y794407D01*
X575342Y794707D01*
X575414Y795006D01*
X575425Y795086D01*
X575442Y795163D01*
X575477Y795469D01*
X575506Y795676D01*
X575519Y795773D01*
X575521Y795853D01*
X575530Y795933D01*
X575534Y796240D01*
X575544Y796547D01*
X575538Y796627D01*
X575539Y796707D01*
X575524Y796867D01*
X575510Y797013D01*
X575488Y797319D01*
X575475Y797398D01*
X575467Y797478D01*
X575407Y797780D01*
X575354Y798082D01*
X575342Y798124D01*
X575332Y798159D01*
X575316Y798237D01*
X575316Y798238D01*
X575226Y798532D01*
X575184Y798678D01*
X575142Y798827D01*
X575112Y798901D01*
X575088Y798977D01*
X574993Y799200D01*
X574968Y799260D01*
X574854Y799545D01*
X574816Y799616D01*
X574785Y799690D01*
X574636Y799959D01*
X574493Y800231D01*
X574449Y800297D01*
X574410Y800367D01*
X574234Y800619D01*
X574064Y800875D01*
X574022Y800923D01*
X573967Y801002D01*
X573858Y801128D01*
X573553Y801481D01*
X572425Y804205D01*
X571501Y806435D01*
X571501Y811765D01*
X573557Y816728D01*
X573765Y816949D01*
X573813Y817013D01*
X573867Y817072D01*
X574048Y817320D01*
X574235Y817565D01*
X574276Y817633D01*
X574324Y817698D01*
X574478Y817963D01*
X574638Y818225D01*
X574673Y818298D01*
X574713Y818367D01*
X574839Y818647D01*
X574972Y818924D01*
X574999Y819000D01*
X575032Y819073D01*
X575128Y819365D01*
X575231Y819654D01*
X575250Y819731D01*
X575276Y819808D01*
X575342Y820108D01*
X575414Y820406D01*
X575425Y820485D01*
X575442Y820564D01*
X575477Y820869D01*
X575519Y821173D01*
X575521Y821254D01*
X575530Y821333D01*
X575534Y821640D01*
X575544Y821947D01*
X575538Y822027D01*
X575539Y822107D01*
X575510Y822413D01*
X575488Y822720D01*
X575475Y822798D01*
X575467Y822878D01*
X575407Y823180D01*
X575354Y823482D01*
X575332Y823559D01*
X575316Y823638D01*
X575226Y823932D01*
X575142Y824227D01*
X575112Y824301D01*
X575088Y824378D01*
X574968Y824660D01*
X574854Y824945D01*
X574816Y825016D01*
X574785Y825090D01*
X574636Y825359D01*
X574493Y825631D01*
X574449Y825697D01*
X574410Y825767D01*
X574234Y826019D01*
X574064Y826275D01*
X574022Y826323D01*
X573967Y826402D01*
X573553Y826881D01*
X571501Y831835D01*
X571501Y837165D01*
X573541Y842090D01*
X577310Y845859D01*
X582235Y847899D01*
X587565Y847899D01*
X592490Y845859D01*
X596259Y842090D01*
X598299Y837165D01*
X598299Y831835D01*
X596243Y826872D01*
X596035Y826651D01*
X595987Y826587D01*
X595933Y826528D01*
X595752Y826280D01*
X595565Y826035D01*
X595524Y825967D01*
X595477Y825902D01*
X595322Y825637D01*
X595162Y825375D01*
X595127Y825302D01*
X595087Y825233D01*
X594961Y824953D01*
X594828Y824676D01*
X594801Y824600D01*
X594769Y824527D01*
X594672Y824236D01*
X594569Y823946D01*
X594550Y823869D01*
X594525Y823793D01*
X594458Y823493D01*
X594386Y823194D01*
X594375Y823114D01*
X594358Y823037D01*
X594323Y822731D01*
X594281Y822427D01*
X594279Y822347D01*
X594270Y822267D01*
X594266Y821960D01*
X594256Y821653D01*
X594262Y821573D01*
X594261Y821493D01*
X594290Y821187D01*
X594312Y820881D01*
X594325Y820802D01*
X594333Y820722D01*
X594393Y820420D01*
X594446Y820118D01*
X594468Y820041D01*
X594484Y819963D01*
X594574Y819669D01*
X594658Y819373D01*
X594688Y819299D01*
X594712Y819223D01*
X594832Y818940D01*
X594946Y818655D01*
X594984Y818584D01*
X595015Y818510D01*
X595164Y818241D01*
X595307Y817970D01*
X595351Y817903D01*
X595390Y817833D01*
X595566Y817580D01*
X595736Y817325D01*
X595778Y817277D01*
X595833Y817198D01*
X596247Y816719D01*
X598299Y811765D01*
X598299Y806435D01*
X596243Y801472D01*
X596035Y801251D01*
X595987Y801187D01*
X595933Y801128D01*
X595752Y800880D01*
X595565Y800635D01*
X595524Y800567D01*
X595476Y800502D01*
X595322Y800237D01*
X595162Y799975D01*
X595127Y799902D01*
X595087Y799833D01*
X594961Y799553D01*
X594828Y799276D01*
X594823Y799260D01*
X594801Y799200D01*
X594768Y799127D01*
X594718Y798976D01*
X594672Y798836D01*
X594569Y798546D01*
X594550Y798469D01*
X594525Y798393D01*
X594458Y798093D01*
X594386Y797794D01*
X594375Y797714D01*
X594358Y797637D01*
X594323Y797331D01*
X594281Y797027D01*
X594279Y796947D01*
X594270Y796867D01*
X594266Y796560D01*
X594256Y796253D01*
X594257Y796240D01*
X594262Y796173D01*
X594261Y796093D01*
X594290Y795787D01*
X594291Y795773D01*
X594312Y795481D01*
X594325Y795402D01*
X594333Y795322D01*
X594393Y795020D01*
X594446Y794718D01*
X594468Y794641D01*
X594484Y794563D01*
X594484Y794562D01*
X594574Y794268D01*
X594616Y794122D01*
X594658Y793973D01*
X594662Y793964D01*
X594688Y793899D01*
X594712Y793822D01*
X594776Y793673D01*
X594832Y793540D01*
X594946Y793255D01*
X594984Y793184D01*
X595015Y793110D01*
X595164Y792841D01*
X595307Y792569D01*
X595351Y792503D01*
X595390Y792433D01*
X595566Y792181D01*
X595736Y791925D01*
X595778Y791877D01*
X595833Y791798D01*
X596239Y791328D01*
X596247Y791319D01*
X598299Y786365D01*
X598299Y781035D01*
X596243Y776072D01*
X596035Y775851D01*
X595987Y775787D01*
X595933Y775728D01*
X595752Y775480D01*
X595565Y775235D01*
X595524Y775167D01*
X595477Y775102D01*
X595322Y774837D01*
X595162Y774575D01*
X595127Y774502D01*
X595087Y774433D01*
X594961Y774153D01*
X594828Y773876D01*
X594801Y773800D01*
X594769Y773727D01*
X594672Y773436D01*
X594569Y773146D01*
X594550Y773069D01*
X594525Y772993D01*
X594458Y772693D01*
X594386Y772394D01*
X594375Y772314D01*
X594358Y772237D01*
X594323Y771931D01*
X594281Y771627D01*
X594279Y771547D01*
X594270Y771467D01*
X594266Y771159D01*
X594256Y770853D01*
X594262Y770773D01*
X594261Y770693D01*
X594290Y770387D01*
X594312Y770081D01*
X594325Y770002D01*
X594333Y769922D01*
X594393Y769620D01*
X594446Y769318D01*
X594468Y769241D01*
X594484Y769163D01*
X594574Y768869D01*
X594658Y768573D01*
X594688Y768499D01*
X594712Y768423D01*
X594832Y768140D01*
X594946Y767855D01*
X594984Y767784D01*
X595015Y767710D01*
X595164Y767441D01*
X595307Y767170D01*
X595351Y767103D01*
X595390Y767033D01*
X595566Y766780D01*
X595736Y766525D01*
X595778Y766477D01*
X595833Y766398D01*
X596247Y765919D01*
X598299Y760965D01*
X598299Y755635D01*
X596243Y750672D01*
X596035Y750451D01*
X595987Y750387D01*
X595933Y750328D01*
X595752Y750080D01*
X595565Y749835D01*
X595524Y749767D01*
X595477Y749702D01*
X595322Y749437D01*
X595162Y749175D01*
X595127Y749102D01*
X595087Y749033D01*
X594961Y748753D01*
X594828Y748476D01*
X594801Y748400D01*
X594769Y748327D01*
X594672Y748036D01*
X594569Y747746D01*
X594550Y747669D01*
X594525Y747593D01*
X594458Y747293D01*
X594386Y746994D01*
X594375Y746914D01*
X594358Y746837D01*
X594323Y746531D01*
X594281Y746227D01*
X594279Y746147D01*
X594270Y746067D01*
X594266Y745760D01*
X594256Y745453D01*
X594262Y745373D01*
X594261Y745293D01*
X594290Y744987D01*
X594312Y744681D01*
X594325Y744602D01*
X594333Y744522D01*
X594393Y744220D01*
X594446Y743918D01*
X594468Y743841D01*
X594484Y743763D01*
X594574Y743469D01*
X594658Y743173D01*
X594688Y743099D01*
X594712Y743023D01*
X594832Y742740D01*
X594946Y742455D01*
X594984Y742384D01*
X595015Y742310D01*
X595164Y742041D01*
X595307Y741770D01*
X595351Y741703D01*
X595390Y741633D01*
X595566Y741380D01*
X595736Y741125D01*
X595778Y741077D01*
X595833Y740998D01*
X596247Y740519D01*
X598299Y735565D01*
X598299Y730235D01*
X596259Y725310D01*
X595264Y724316D01*
X595128Y724164D01*
X594984Y724020D01*
X594869Y723877D01*
X594746Y723740D01*
X594626Y723576D01*
X594497Y723417D01*
X594397Y723263D01*
X594289Y723115D01*
X594187Y722939D01*
X594076Y722768D01*
X593992Y722604D01*
X593900Y722446D01*
X593816Y722260D01*
X593723Y722079D01*
X593657Y721908D01*
X593581Y721740D01*
X593517Y721547D01*
X593443Y721357D01*
X593395Y721179D01*
X593337Y721005D01*
X593293Y720806D01*
X593240Y720610D01*
X593210Y720428D01*
X593170Y720249D01*
X593147Y720047D01*
X593114Y719845D01*
X593103Y719662D01*
X593082Y719480D01*
X593080Y719276D01*
X593068Y719073D01*
X593076Y718889D01*
X593074Y718706D01*
X593093Y718503D01*
X593102Y718299D01*
X593129Y718117D01*
X593146Y717935D01*
X593185Y717735D01*
X593215Y717533D01*
X593261Y717355D01*
X593296Y717175D01*
X593356Y716980D01*
X593407Y716783D01*
X593471Y716610D01*
X593525Y716435D01*
X593604Y716248D01*
X593675Y716056D01*
X593756Y715892D01*
X593828Y715723D01*
X593927Y715544D01*
X594017Y715362D01*
X594089Y715252D01*
X594203Y715045D01*
X594235Y714999D01*
X584900Y714999D01*
X584900Y714999D01*
G37*
%LPD*%
%LPC*%
G36*
X418222Y833246D02*
X418222Y833246D01*
X418529Y833274D01*
X418835Y833296D01*
X418914Y833310D01*
X418993Y833318D01*
X419295Y833377D01*
X419597Y833431D01*
X419674Y833453D01*
X419753Y833468D01*
X420047Y833559D01*
X420342Y833643D01*
X420416Y833673D01*
X420493Y833697D01*
X420775Y833817D01*
X421061Y833931D01*
X421132Y833968D01*
X421205Y834000D01*
X421475Y834149D01*
X421746Y834292D01*
X421812Y834336D01*
X421883Y834375D01*
X422135Y834551D01*
X422390Y834721D01*
X422438Y834763D01*
X422518Y834818D01*
X423104Y835324D01*
X423170Y835395D01*
X423218Y835436D01*
X423624Y835842D01*
X429705Y839353D01*
X436489Y841171D01*
X443511Y841171D01*
X450295Y839353D01*
X456376Y835842D01*
X461342Y830876D01*
X464853Y824795D01*
X466671Y818011D01*
X466671Y810989D01*
X464853Y804205D01*
X461342Y798124D01*
X456376Y793158D01*
X450295Y789647D01*
X443511Y787829D01*
X436489Y787829D01*
X429705Y789647D01*
X423624Y793158D01*
X418658Y798124D01*
X415147Y804205D01*
X413989Y808528D01*
X413981Y808550D01*
X413976Y808573D01*
X413862Y808920D01*
X413750Y809265D01*
X413740Y809286D01*
X413733Y809308D01*
X413584Y809639D01*
X413436Y809973D01*
X413425Y809993D01*
X413415Y810014D01*
X413234Y810326D01*
X413052Y810644D01*
X413038Y810664D01*
X413026Y810684D01*
X412814Y810975D01*
X412600Y811273D01*
X412584Y811291D01*
X412570Y811310D01*
X412328Y811579D01*
X412085Y811852D01*
X412068Y811868D01*
X412052Y811885D01*
X411784Y812128D01*
X411514Y812374D01*
X411495Y812389D01*
X411478Y812404D01*
X411185Y812618D01*
X410892Y812835D01*
X410872Y812847D01*
X410853Y812861D01*
X410538Y813045D01*
X410225Y813230D01*
X410204Y813239D01*
X410184Y813251D01*
X409850Y813402D01*
X409522Y813553D01*
X409500Y813561D01*
X409478Y813570D01*
X409132Y813686D01*
X408789Y813802D01*
X408766Y813808D01*
X408744Y813815D01*
X408388Y813894D01*
X408034Y813975D01*
X408011Y813977D01*
X407988Y813983D01*
X407627Y814024D01*
X407265Y814068D01*
X407242Y814069D01*
X407218Y814071D01*
X406857Y814075D01*
X406491Y814082D01*
X406468Y814080D01*
X406444Y814080D01*
X406085Y814047D01*
X405720Y814016D01*
X405696Y814011D01*
X405673Y814009D01*
X405320Y813939D01*
X404959Y813871D01*
X404936Y813864D01*
X404914Y813859D01*
X404836Y813833D01*
X404729Y813801D01*
X399235Y813801D01*
X394310Y815841D01*
X393316Y816836D01*
X393164Y816972D01*
X393020Y817116D01*
X392877Y817231D01*
X392740Y817354D01*
X392576Y817474D01*
X392417Y817603D01*
X392263Y817703D01*
X392115Y817811D01*
X391939Y817913D01*
X391768Y818024D01*
X391604Y818108D01*
X391446Y818200D01*
X391260Y818284D01*
X391079Y818377D01*
X390908Y818443D01*
X390740Y818519D01*
X390547Y818583D01*
X390357Y818657D01*
X390179Y818705D01*
X390005Y818763D01*
X389806Y818807D01*
X389610Y818860D01*
X389428Y818890D01*
X389249Y818930D01*
X389047Y818953D01*
X388845Y818986D01*
X388662Y818997D01*
X388480Y819018D01*
X388276Y819020D01*
X388073Y819032D01*
X387889Y819024D01*
X387706Y819026D01*
X387503Y819007D01*
X387299Y818998D01*
X387117Y818971D01*
X386935Y818954D01*
X386735Y818915D01*
X386533Y818885D01*
X386355Y818839D01*
X386175Y818804D01*
X385980Y818744D01*
X385783Y818693D01*
X385610Y818629D01*
X385435Y818575D01*
X385248Y818496D01*
X385056Y818425D01*
X384892Y818344D01*
X384723Y818272D01*
X384544Y818173D01*
X384362Y818083D01*
X384252Y818011D01*
X384045Y817897D01*
X383999Y817865D01*
X383999Y827200D01*
X383999Y836538D01*
X384085Y836478D01*
X384264Y836381D01*
X384438Y836275D01*
X384604Y836195D01*
X384765Y836108D01*
X384953Y836029D01*
X385137Y835941D01*
X385310Y835880D01*
X385479Y835809D01*
X385674Y835750D01*
X385866Y835681D01*
X386045Y835638D01*
X386221Y835585D01*
X386421Y835547D01*
X386619Y835498D01*
X386801Y835474D01*
X386981Y835439D01*
X387184Y835421D01*
X387386Y835394D01*
X387569Y835388D01*
X387752Y835372D01*
X387956Y835376D01*
X388160Y835369D01*
X388343Y835382D01*
X388527Y835385D01*
X388729Y835410D01*
X388932Y835424D01*
X389113Y835456D01*
X389295Y835478D01*
X389494Y835523D01*
X389695Y835559D01*
X389871Y835609D01*
X390050Y835650D01*
X390243Y835715D01*
X390439Y835771D01*
X390610Y835839D01*
X390784Y835898D01*
X390969Y835983D01*
X391158Y836059D01*
X391320Y836145D01*
X391487Y836221D01*
X391663Y836325D01*
X391843Y836420D01*
X391996Y836522D01*
X392154Y836615D01*
X392318Y836736D01*
X392488Y836849D01*
X392587Y836935D01*
X392777Y837075D01*
X393253Y837510D01*
X393316Y837564D01*
X394310Y838559D01*
X399235Y840599D01*
X404565Y840599D01*
X409490Y838559D01*
X412613Y835436D01*
X412841Y835230D01*
X413064Y835020D01*
X413128Y834971D01*
X413188Y834918D01*
X413436Y834736D01*
X413680Y834550D01*
X413748Y834508D01*
X413813Y834461D01*
X414079Y834306D01*
X414341Y834146D01*
X414413Y834112D01*
X414482Y834072D01*
X414763Y833945D01*
X415040Y833813D01*
X415115Y833786D01*
X415188Y833753D01*
X415480Y833656D01*
X415769Y833553D01*
X415847Y833534D01*
X415923Y833509D01*
X416223Y833443D01*
X416521Y833370D01*
X416601Y833360D01*
X416679Y833342D01*
X416984Y833307D01*
X417289Y833266D01*
X417369Y833263D01*
X417448Y833254D01*
X417755Y833251D01*
X418063Y833241D01*
X418142Y833247D01*
X418222Y833246D01*
G37*
%LPD*%
%LPC*%
G36*
X44993Y34777D02*
X44993Y34777D01*
X39847Y36909D01*
X35909Y40847D01*
X33777Y45993D01*
X33777Y51563D01*
X35909Y56709D01*
X36323Y57123D01*
X36529Y57351D01*
X36739Y57575D01*
X36788Y57639D01*
X36841Y57698D01*
X37023Y57946D01*
X37209Y58191D01*
X37251Y58259D01*
X37298Y58323D01*
X37452Y58589D01*
X37613Y58851D01*
X37647Y58923D01*
X37687Y58993D01*
X37814Y59273D01*
X37946Y59550D01*
X37973Y59625D01*
X38006Y59698D01*
X38103Y59990D01*
X38206Y60280D01*
X38225Y60357D01*
X38250Y60433D01*
X38316Y60733D01*
X38389Y61032D01*
X38400Y61111D01*
X38417Y61189D01*
X38452Y61495D01*
X38493Y61799D01*
X38496Y61879D01*
X38505Y61959D01*
X38508Y62266D01*
X38518Y62573D01*
X38512Y62653D01*
X38513Y62733D01*
X38485Y63039D01*
X38463Y63345D01*
X38449Y63424D01*
X38441Y63504D01*
X38382Y63805D01*
X38328Y64108D01*
X38306Y64185D01*
X38291Y64263D01*
X38200Y64557D01*
X38116Y64853D01*
X38086Y64927D01*
X38063Y65003D01*
X37942Y65286D01*
X37828Y65571D01*
X37791Y65642D01*
X37759Y65716D01*
X37611Y65984D01*
X37467Y66256D01*
X37423Y66323D01*
X37384Y66393D01*
X37208Y66645D01*
X37038Y66901D01*
X37019Y66923D01*
X34901Y72035D01*
X34901Y77365D01*
X36957Y82328D01*
X37165Y82549D01*
X37213Y82613D01*
X37267Y82672D01*
X37448Y82920D01*
X37635Y83165D01*
X37676Y83233D01*
X37724Y83298D01*
X37878Y83563D01*
X38038Y83825D01*
X38073Y83898D01*
X38113Y83967D01*
X38239Y84247D01*
X38372Y84524D01*
X38399Y84600D01*
X38432Y84673D01*
X38528Y84965D01*
X38631Y85254D01*
X38650Y85331D01*
X38676Y85408D01*
X38742Y85708D01*
X38814Y86006D01*
X38825Y86085D01*
X38842Y86164D01*
X38877Y86469D01*
X38919Y86773D01*
X38921Y86854D01*
X38930Y86933D01*
X38934Y87240D01*
X38944Y87547D01*
X38938Y87627D01*
X38939Y87707D01*
X38910Y88013D01*
X38888Y88320D01*
X38875Y88398D01*
X38867Y88478D01*
X38807Y88780D01*
X38754Y89082D01*
X38732Y89159D01*
X38716Y89238D01*
X38626Y89532D01*
X38542Y89827D01*
X38512Y89901D01*
X38488Y89978D01*
X38368Y90260D01*
X38254Y90545D01*
X38216Y90616D01*
X38185Y90690D01*
X38036Y90958D01*
X37893Y91231D01*
X37849Y91297D01*
X37810Y91367D01*
X37634Y91619D01*
X37464Y91875D01*
X37422Y91923D01*
X37367Y92002D01*
X36953Y92481D01*
X34901Y97435D01*
X34901Y102765D01*
X36941Y107690D01*
X37936Y108684D01*
X38072Y108836D01*
X38216Y108981D01*
X38331Y109123D01*
X38454Y109259D01*
X38575Y109424D01*
X38703Y109583D01*
X38803Y109737D01*
X38911Y109885D01*
X39013Y110061D01*
X39124Y110232D01*
X39208Y110396D01*
X39300Y110554D01*
X39384Y110740D01*
X39477Y110922D01*
X39543Y111093D01*
X39619Y111260D01*
X39683Y111453D01*
X39757Y111644D01*
X39805Y111821D01*
X39863Y111995D01*
X39907Y112194D01*
X39960Y112391D01*
X39990Y112572D01*
X40030Y112751D01*
X40053Y112953D01*
X40086Y113155D01*
X40097Y113338D01*
X40118Y113520D01*
X40120Y113724D01*
X40132Y113928D01*
X40124Y114111D01*
X40126Y114294D01*
X40107Y114498D01*
X40098Y114701D01*
X40071Y114883D01*
X40054Y115065D01*
X40015Y115265D01*
X39985Y115467D01*
X39939Y115645D01*
X39904Y115825D01*
X39844Y116020D01*
X39793Y116217D01*
X39729Y116390D01*
X39675Y116565D01*
X39596Y116752D01*
X39525Y116944D01*
X39444Y117108D01*
X39372Y117277D01*
X39273Y117456D01*
X39183Y117639D01*
X39111Y117749D01*
X38997Y117954D01*
X38965Y118001D01*
X48300Y118001D01*
X57637Y118001D01*
X57579Y117915D01*
X57481Y117736D01*
X57374Y117562D01*
X57295Y117396D01*
X57208Y117235D01*
X57129Y117047D01*
X57041Y116863D01*
X56980Y116690D01*
X56909Y116521D01*
X56850Y116325D01*
X56781Y116134D01*
X56738Y115955D01*
X56685Y115780D01*
X56647Y115579D01*
X56598Y115381D01*
X56574Y115200D01*
X56539Y115019D01*
X56521Y114816D01*
X56494Y114614D01*
X56488Y114431D01*
X56472Y114248D01*
X56476Y114044D01*
X56469Y113840D01*
X56482Y113657D01*
X56485Y113474D01*
X56510Y113271D01*
X56524Y113068D01*
X56556Y112887D01*
X56578Y112705D01*
X56623Y112506D01*
X56659Y112305D01*
X56709Y112129D01*
X56750Y111950D01*
X56815Y111757D01*
X56871Y111561D01*
X56939Y111390D01*
X56998Y111217D01*
X57083Y111031D01*
X57159Y110842D01*
X57245Y110680D01*
X57321Y110513D01*
X57425Y110337D01*
X57520Y110157D01*
X57621Y110004D01*
X57715Y109846D01*
X57836Y109682D01*
X57949Y109512D01*
X58035Y109413D01*
X58175Y109223D01*
X58611Y108746D01*
X58664Y108684D01*
X59659Y107690D01*
X61699Y102765D01*
X61699Y97435D01*
X59643Y92472D01*
X59435Y92251D01*
X59387Y92187D01*
X59333Y92128D01*
X59152Y91880D01*
X58965Y91635D01*
X58924Y91567D01*
X58877Y91502D01*
X58722Y91237D01*
X58562Y90975D01*
X58527Y90902D01*
X58487Y90833D01*
X58361Y90553D01*
X58228Y90276D01*
X58201Y90200D01*
X58169Y90127D01*
X58072Y89836D01*
X57969Y89546D01*
X57950Y89469D01*
X57925Y89393D01*
X57858Y89093D01*
X57786Y88794D01*
X57775Y88714D01*
X57758Y88637D01*
X57723Y88331D01*
X57681Y88027D01*
X57679Y87947D01*
X57670Y87867D01*
X57666Y87560D01*
X57656Y87253D01*
X57662Y87173D01*
X57661Y87093D01*
X57690Y86787D01*
X57712Y86481D01*
X57725Y86402D01*
X57733Y86322D01*
X57793Y86020D01*
X57846Y85718D01*
X57868Y85641D01*
X57884Y85563D01*
X57974Y85269D01*
X58058Y84973D01*
X58088Y84899D01*
X58112Y84823D01*
X58232Y84539D01*
X58346Y84255D01*
X58384Y84184D01*
X58415Y84110D01*
X58564Y83841D01*
X58707Y83570D01*
X58751Y83503D01*
X58790Y83433D01*
X58966Y83180D01*
X59136Y82925D01*
X59178Y82877D01*
X59233Y82798D01*
X59647Y82319D01*
X61699Y77365D01*
X61699Y72035D01*
X59570Y66895D01*
X59391Y66661D01*
X59349Y66593D01*
X59302Y66528D01*
X59148Y66263D01*
X58987Y66000D01*
X58953Y65928D01*
X58913Y65859D01*
X58787Y65580D01*
X58654Y65301D01*
X58627Y65226D01*
X58594Y65153D01*
X58497Y64862D01*
X58394Y64572D01*
X58375Y64494D01*
X58350Y64418D01*
X58284Y64118D01*
X58211Y63820D01*
X58201Y63741D01*
X58183Y63662D01*
X58148Y63357D01*
X58107Y63052D01*
X58104Y62972D01*
X58095Y62893D01*
X58092Y62586D01*
X58082Y62278D01*
X58088Y62199D01*
X58087Y62119D01*
X58115Y61813D01*
X58137Y61506D01*
X58151Y61427D01*
X58158Y61348D01*
X58218Y61046D01*
X58272Y60744D01*
X58294Y60667D01*
X58309Y60588D01*
X58400Y60295D01*
X58484Y59999D01*
X58514Y59925D01*
X58537Y59848D01*
X58658Y59566D01*
X58772Y59280D01*
X58809Y59210D01*
X58841Y59136D01*
X58990Y58867D01*
X59133Y58595D01*
X59177Y58529D01*
X59216Y58459D01*
X59392Y58206D01*
X59562Y57951D01*
X59604Y57903D01*
X59659Y57824D01*
X60165Y57238D01*
X60167Y57235D01*
X62301Y52085D01*
X62301Y46515D01*
X60169Y41369D01*
X55709Y36909D01*
X50563Y34777D01*
X44993Y34777D01*
G37*
%LPD*%
%LPC*%
G36*
X713607Y960361D02*
X713607Y960361D01*
X713913Y960390D01*
X714219Y960412D01*
X714298Y960425D01*
X714378Y960433D01*
X714680Y960493D01*
X714982Y960546D01*
X715059Y960568D01*
X715137Y960584D01*
X715431Y960674D01*
X715727Y960758D01*
X715801Y960788D01*
X715877Y960812D01*
X716160Y960932D01*
X716445Y961046D01*
X716516Y961084D01*
X716590Y961115D01*
X716859Y961264D01*
X717130Y961407D01*
X717197Y961451D01*
X717267Y961490D01*
X717520Y961666D01*
X717775Y961836D01*
X717823Y961878D01*
X717902Y961933D01*
X718381Y962347D01*
X723335Y964399D01*
X728665Y964399D01*
X733628Y962343D01*
X733849Y962135D01*
X733913Y962087D01*
X733972Y962033D01*
X734220Y961852D01*
X734465Y961665D01*
X734533Y961624D01*
X734598Y961577D01*
X734863Y961422D01*
X735125Y961262D01*
X735198Y961227D01*
X735267Y961187D01*
X735547Y961061D01*
X735824Y960928D01*
X735900Y960901D01*
X735973Y960869D01*
X736264Y960772D01*
X736554Y960669D01*
X736631Y960650D01*
X736707Y960625D01*
X737007Y960558D01*
X737306Y960486D01*
X737386Y960475D01*
X737463Y960458D01*
X737769Y960423D01*
X738073Y960381D01*
X738153Y960379D01*
X738233Y960370D01*
X738540Y960366D01*
X738847Y960356D01*
X738927Y960362D01*
X739007Y960361D01*
X739313Y960390D01*
X739619Y960412D01*
X739698Y960425D01*
X739778Y960433D01*
X740080Y960493D01*
X740382Y960546D01*
X740459Y960568D01*
X740537Y960584D01*
X740831Y960674D01*
X741127Y960758D01*
X741201Y960788D01*
X741277Y960812D01*
X741560Y960932D01*
X741845Y961046D01*
X741916Y961084D01*
X741990Y961115D01*
X742259Y961264D01*
X742530Y961407D01*
X742597Y961451D01*
X742667Y961490D01*
X742920Y961666D01*
X743175Y961836D01*
X743223Y961878D01*
X743302Y961933D01*
X743781Y962347D01*
X748735Y964399D01*
X754065Y964399D01*
X758990Y962359D01*
X762759Y958590D01*
X764799Y953665D01*
X764799Y948335D01*
X762759Y943410D01*
X758990Y939641D01*
X754065Y937601D01*
X748735Y937601D01*
X743772Y939657D01*
X743551Y939865D01*
X743487Y939913D01*
X743428Y939967D01*
X743180Y940148D01*
X742935Y940335D01*
X742867Y940376D01*
X742802Y940424D01*
X742537Y940578D01*
X742275Y940738D01*
X742202Y940773D01*
X742133Y940813D01*
X741853Y940939D01*
X741576Y941072D01*
X741500Y941099D01*
X741427Y941132D01*
X741135Y941228D01*
X740846Y941331D01*
X740769Y941350D01*
X740692Y941376D01*
X740392Y941442D01*
X740094Y941514D01*
X740015Y941525D01*
X739936Y941542D01*
X739631Y941577D01*
X739327Y941619D01*
X739246Y941621D01*
X739167Y941630D01*
X738860Y941634D01*
X738553Y941644D01*
X738473Y941638D01*
X738393Y941639D01*
X738087Y941610D01*
X737780Y941588D01*
X737702Y941575D01*
X737622Y941567D01*
X737320Y941507D01*
X737018Y941454D01*
X736941Y941432D01*
X736862Y941416D01*
X736568Y941326D01*
X736273Y941242D01*
X736199Y941212D01*
X736122Y941188D01*
X735840Y941068D01*
X735555Y940954D01*
X735484Y940916D01*
X735410Y940885D01*
X735141Y940736D01*
X734869Y940593D01*
X734803Y940549D01*
X734733Y940510D01*
X734481Y940334D01*
X734225Y940164D01*
X734177Y940122D01*
X734098Y940067D01*
X733619Y939653D01*
X728665Y937601D01*
X723335Y937601D01*
X718372Y939657D01*
X718151Y939865D01*
X718087Y939913D01*
X718028Y939967D01*
X717780Y940148D01*
X717535Y940335D01*
X717467Y940376D01*
X717402Y940424D01*
X717137Y940578D01*
X716875Y940738D01*
X716802Y940773D01*
X716733Y940813D01*
X716453Y940939D01*
X716176Y941072D01*
X716100Y941099D01*
X716027Y941132D01*
X715735Y941228D01*
X715446Y941331D01*
X715369Y941350D01*
X715292Y941376D01*
X714992Y941442D01*
X714694Y941514D01*
X714615Y941525D01*
X714536Y941542D01*
X714231Y941577D01*
X713927Y941619D01*
X713846Y941621D01*
X713767Y941630D01*
X713460Y941634D01*
X713153Y941644D01*
X713073Y941638D01*
X712993Y941639D01*
X712687Y941610D01*
X712380Y941588D01*
X712302Y941575D01*
X712222Y941567D01*
X711920Y941507D01*
X711618Y941454D01*
X711541Y941432D01*
X711462Y941416D01*
X711168Y941326D01*
X710873Y941242D01*
X710799Y941212D01*
X710722Y941188D01*
X710440Y941068D01*
X710155Y940954D01*
X710084Y940916D01*
X710010Y940885D01*
X709741Y940736D01*
X709469Y940593D01*
X709403Y940549D01*
X709333Y940510D01*
X709081Y940334D01*
X708825Y940164D01*
X708777Y940122D01*
X708698Y940067D01*
X708219Y939653D01*
X703265Y937601D01*
X697935Y937601D01*
X693010Y939641D01*
X692016Y940636D01*
X691864Y940772D01*
X691720Y940916D01*
X691577Y941031D01*
X691440Y941154D01*
X691276Y941274D01*
X691117Y941403D01*
X690963Y941503D01*
X690815Y941611D01*
X690639Y941713D01*
X690468Y941824D01*
X690304Y941908D01*
X690146Y942000D01*
X689960Y942084D01*
X689779Y942177D01*
X689608Y942243D01*
X689440Y942319D01*
X689247Y942383D01*
X689057Y942457D01*
X688879Y942505D01*
X688705Y942563D01*
X688506Y942607D01*
X688310Y942660D01*
X688128Y942690D01*
X687949Y942730D01*
X687747Y942753D01*
X687545Y942786D01*
X687362Y942797D01*
X687180Y942818D01*
X686976Y942820D01*
X686773Y942832D01*
X686589Y942824D01*
X686406Y942826D01*
X686203Y942807D01*
X685999Y942798D01*
X685817Y942771D01*
X685635Y942754D01*
X685435Y942715D01*
X685233Y942685D01*
X685055Y942639D01*
X684875Y942604D01*
X684680Y942544D01*
X684483Y942493D01*
X684310Y942429D01*
X684135Y942375D01*
X683948Y942296D01*
X683756Y942225D01*
X683592Y942144D01*
X683423Y942072D01*
X683244Y941973D01*
X683062Y941883D01*
X682952Y941811D01*
X682745Y941697D01*
X682699Y941665D01*
X682699Y951000D01*
X682699Y960338D01*
X682785Y960278D01*
X682964Y960181D01*
X683138Y960075D01*
X683304Y959995D01*
X683465Y959908D01*
X683653Y959829D01*
X683837Y959741D01*
X684010Y959680D01*
X684179Y959609D01*
X684374Y959550D01*
X684566Y959481D01*
X684745Y959438D01*
X684921Y959385D01*
X685121Y959347D01*
X685319Y959298D01*
X685501Y959274D01*
X685681Y959239D01*
X685884Y959221D01*
X686086Y959194D01*
X686269Y959188D01*
X686452Y959172D01*
X686656Y959176D01*
X686860Y959169D01*
X687043Y959182D01*
X687227Y959185D01*
X687429Y959210D01*
X687632Y959224D01*
X687813Y959256D01*
X687995Y959278D01*
X688194Y959323D01*
X688395Y959359D01*
X688571Y959409D01*
X688750Y959450D01*
X688943Y959515D01*
X689139Y959571D01*
X689310Y959639D01*
X689484Y959698D01*
X689669Y959783D01*
X689858Y959859D01*
X690020Y959945D01*
X690187Y960021D01*
X690363Y960125D01*
X690543Y960220D01*
X690696Y960322D01*
X690854Y960415D01*
X691018Y960536D01*
X691188Y960649D01*
X691287Y960735D01*
X691477Y960875D01*
X691953Y961310D01*
X692016Y961364D01*
X693010Y962359D01*
X697935Y964399D01*
X703265Y964399D01*
X708228Y962343D01*
X708449Y962135D01*
X708513Y962087D01*
X708572Y962033D01*
X708820Y961852D01*
X709065Y961665D01*
X709133Y961624D01*
X709198Y961577D01*
X709463Y961422D01*
X709725Y961262D01*
X709798Y961227D01*
X709867Y961187D01*
X710147Y961061D01*
X710424Y960928D01*
X710500Y960901D01*
X710573Y960869D01*
X710864Y960772D01*
X711154Y960669D01*
X711231Y960650D01*
X711307Y960625D01*
X711607Y960558D01*
X711906Y960486D01*
X711986Y960475D01*
X712063Y960458D01*
X712369Y960423D01*
X712673Y960381D01*
X712753Y960379D01*
X712833Y960370D01*
X713140Y960366D01*
X713447Y960356D01*
X713527Y960362D01*
X713607Y960361D01*
G37*
%LPD*%
%LPC*%
G36*
X737300Y765799D02*
X737300Y765799D01*
X727962Y765799D01*
X728022Y765885D01*
X728119Y766064D01*
X728225Y766238D01*
X728305Y766404D01*
X728392Y766565D01*
X728471Y766753D01*
X728559Y766937D01*
X728620Y767110D01*
X728691Y767279D01*
X728750Y767474D01*
X728819Y767666D01*
X728862Y767845D01*
X728915Y768021D01*
X728953Y768221D01*
X729002Y768419D01*
X729026Y768601D01*
X729061Y768781D01*
X729079Y768984D01*
X729106Y769186D01*
X729112Y769369D01*
X729128Y769552D01*
X729124Y769756D01*
X729131Y769960D01*
X729118Y770143D01*
X729115Y770327D01*
X729090Y770529D01*
X729076Y770732D01*
X729044Y770913D01*
X729022Y771095D01*
X728977Y771294D01*
X728941Y771495D01*
X728891Y771671D01*
X728850Y771850D01*
X728785Y772043D01*
X728729Y772239D01*
X728661Y772410D01*
X728602Y772584D01*
X728517Y772769D01*
X728441Y772958D01*
X728355Y773120D01*
X728279Y773287D01*
X728175Y773463D01*
X728080Y773643D01*
X727978Y773796D01*
X727885Y773954D01*
X727764Y774118D01*
X727651Y774288D01*
X727565Y774387D01*
X727425Y774577D01*
X726990Y775053D01*
X726936Y775116D01*
X725941Y776110D01*
X724184Y780352D01*
X723901Y781035D01*
X723901Y786365D01*
X725957Y791328D01*
X726165Y791549D01*
X726213Y791613D01*
X726267Y791672D01*
X726448Y791920D01*
X726635Y792165D01*
X726676Y792233D01*
X726723Y792298D01*
X726878Y792563D01*
X727038Y792825D01*
X727073Y792898D01*
X727113Y792967D01*
X727239Y793247D01*
X727372Y793524D01*
X727399Y793600D01*
X727431Y793673D01*
X727528Y793964D01*
X727631Y794254D01*
X727650Y794331D01*
X727675Y794407D01*
X727742Y794707D01*
X727814Y795006D01*
X727825Y795086D01*
X727842Y795163D01*
X727877Y795469D01*
X727919Y795773D01*
X727921Y795853D01*
X727930Y795933D01*
X727934Y796240D01*
X727944Y796547D01*
X727938Y796627D01*
X727939Y796707D01*
X727910Y797013D01*
X727888Y797319D01*
X727875Y797398D01*
X727867Y797478D01*
X727807Y797780D01*
X727754Y798082D01*
X727732Y798159D01*
X727716Y798237D01*
X727626Y798531D01*
X727542Y798827D01*
X727512Y798901D01*
X727488Y798977D01*
X727368Y799260D01*
X727254Y799545D01*
X727216Y799616D01*
X727185Y799690D01*
X727036Y799959D01*
X726893Y800230D01*
X726849Y800297D01*
X726810Y800367D01*
X726634Y800620D01*
X726464Y800875D01*
X726422Y800923D01*
X726367Y801002D01*
X725953Y801481D01*
X723901Y806435D01*
X723901Y811765D01*
X725957Y816728D01*
X726165Y816949D01*
X726213Y817013D01*
X726267Y817072D01*
X726448Y817320D01*
X726635Y817565D01*
X726676Y817633D01*
X726723Y817698D01*
X726878Y817963D01*
X727038Y818225D01*
X727073Y818298D01*
X727113Y818367D01*
X727239Y818647D01*
X727372Y818924D01*
X727399Y819000D01*
X727431Y819073D01*
X727528Y819364D01*
X727631Y819654D01*
X727650Y819731D01*
X727675Y819807D01*
X727742Y820107D01*
X727814Y820406D01*
X727825Y820486D01*
X727842Y820563D01*
X727877Y820869D01*
X727919Y821173D01*
X727921Y821253D01*
X727930Y821333D01*
X727934Y821640D01*
X727944Y821947D01*
X727938Y822027D01*
X727939Y822107D01*
X727910Y822413D01*
X727888Y822719D01*
X727875Y822798D01*
X727867Y822878D01*
X727807Y823180D01*
X727754Y823482D01*
X727732Y823559D01*
X727716Y823637D01*
X727626Y823931D01*
X727542Y824227D01*
X727512Y824301D01*
X727488Y824377D01*
X727368Y824660D01*
X727254Y824945D01*
X727216Y825016D01*
X727185Y825090D01*
X727036Y825359D01*
X726893Y825630D01*
X726849Y825697D01*
X726810Y825767D01*
X726634Y826020D01*
X726464Y826275D01*
X726422Y826323D01*
X726367Y826402D01*
X725953Y826881D01*
X723901Y831835D01*
X723901Y837165D01*
X725941Y842090D01*
X729710Y845859D01*
X734635Y847899D01*
X739965Y847899D01*
X744890Y845859D01*
X748659Y842090D01*
X750699Y837165D01*
X750699Y831835D01*
X748643Y826872D01*
X748435Y826651D01*
X748387Y826587D01*
X748333Y826528D01*
X748152Y826280D01*
X747965Y826035D01*
X747924Y825967D01*
X747876Y825902D01*
X747722Y825637D01*
X747562Y825375D01*
X747527Y825302D01*
X747487Y825233D01*
X747361Y824953D01*
X747228Y824676D01*
X747201Y824600D01*
X747168Y824527D01*
X747072Y824235D01*
X746969Y823946D01*
X746950Y823869D01*
X746924Y823792D01*
X746858Y823492D01*
X746786Y823194D01*
X746775Y823115D01*
X746758Y823036D01*
X746723Y822731D01*
X746681Y822427D01*
X746679Y822346D01*
X746670Y822267D01*
X746666Y821960D01*
X746656Y821653D01*
X746662Y821573D01*
X746661Y821493D01*
X746690Y821187D01*
X746712Y820880D01*
X746725Y820802D01*
X746733Y820722D01*
X746793Y820420D01*
X746846Y820118D01*
X746868Y820041D01*
X746884Y819962D01*
X746974Y819668D01*
X747058Y819373D01*
X747088Y819299D01*
X747112Y819222D01*
X747232Y818940D01*
X747346Y818655D01*
X747384Y818584D01*
X747415Y818510D01*
X747564Y818241D01*
X747707Y817969D01*
X747751Y817903D01*
X747790Y817833D01*
X747966Y817581D01*
X748136Y817325D01*
X748178Y817277D01*
X748233Y817198D01*
X748647Y816719D01*
X750699Y811765D01*
X750699Y806435D01*
X748643Y801472D01*
X748435Y801251D01*
X748387Y801187D01*
X748333Y801128D01*
X748152Y800880D01*
X747965Y800635D01*
X747924Y800567D01*
X747876Y800502D01*
X747722Y800237D01*
X747562Y799975D01*
X747527Y799902D01*
X747487Y799833D01*
X747361Y799553D01*
X747228Y799276D01*
X747201Y799200D01*
X747168Y799127D01*
X747072Y798835D01*
X746969Y798546D01*
X746950Y798469D01*
X746924Y798392D01*
X746858Y798092D01*
X746786Y797794D01*
X746775Y797715D01*
X746758Y797636D01*
X746723Y797331D01*
X746681Y797027D01*
X746679Y796946D01*
X746670Y796867D01*
X746666Y796560D01*
X746656Y796253D01*
X746662Y796173D01*
X746661Y796093D01*
X746690Y795787D01*
X746712Y795480D01*
X746725Y795402D01*
X746733Y795322D01*
X746793Y795020D01*
X746846Y794718D01*
X746868Y794641D01*
X746884Y794562D01*
X746974Y794268D01*
X747058Y793973D01*
X747088Y793899D01*
X747112Y793822D01*
X747232Y793540D01*
X747346Y793255D01*
X747384Y793184D01*
X747415Y793110D01*
X747564Y792841D01*
X747707Y792569D01*
X747751Y792503D01*
X747790Y792433D01*
X747966Y792181D01*
X748136Y791925D01*
X748178Y791877D01*
X748233Y791798D01*
X748647Y791319D01*
X750699Y786365D01*
X750699Y781035D01*
X748659Y776110D01*
X747664Y775116D01*
X747528Y774964D01*
X747384Y774820D01*
X747269Y774677D01*
X747146Y774540D01*
X747026Y774376D01*
X746897Y774217D01*
X746797Y774063D01*
X746689Y773915D01*
X746587Y773739D01*
X746476Y773568D01*
X746392Y773404D01*
X746300Y773246D01*
X746216Y773060D01*
X746123Y772879D01*
X746057Y772708D01*
X745981Y772540D01*
X745917Y772347D01*
X745843Y772157D01*
X745795Y771979D01*
X745737Y771805D01*
X745693Y771606D01*
X745640Y771410D01*
X745610Y771228D01*
X745570Y771049D01*
X745547Y770847D01*
X745514Y770645D01*
X745503Y770462D01*
X745482Y770280D01*
X745480Y770076D01*
X745468Y769873D01*
X745476Y769689D01*
X745474Y769506D01*
X745493Y769303D01*
X745502Y769099D01*
X745529Y768917D01*
X745546Y768735D01*
X745585Y768535D01*
X745615Y768333D01*
X745661Y768155D01*
X745696Y767975D01*
X745756Y767780D01*
X745807Y767583D01*
X745871Y767410D01*
X745925Y767235D01*
X746004Y767048D01*
X746075Y766856D01*
X746156Y766692D01*
X746228Y766523D01*
X746327Y766344D01*
X746417Y766162D01*
X746489Y766052D01*
X746603Y765845D01*
X746635Y765799D01*
X737300Y765799D01*
X737300Y765799D01*
G37*
%LPD*%
%LPC*%
G36*
X392436Y223709D02*
X392436Y223709D01*
X387698Y225672D01*
X384072Y229298D01*
X382109Y234036D01*
X382109Y239164D01*
X384072Y243902D01*
X384167Y243997D01*
X384373Y244225D01*
X384583Y244449D01*
X384632Y244513D01*
X384685Y244572D01*
X384867Y244821D01*
X385053Y245065D01*
X385095Y245133D01*
X385142Y245198D01*
X385296Y245463D01*
X385457Y245725D01*
X385491Y245798D01*
X385531Y245867D01*
X385658Y246146D01*
X385790Y246424D01*
X385817Y246500D01*
X385850Y246573D01*
X385947Y246864D01*
X386050Y247154D01*
X386069Y247232D01*
X386094Y247307D01*
X386160Y247607D01*
X386233Y247906D01*
X386244Y247985D01*
X386261Y248064D01*
X386296Y248369D01*
X386337Y248673D01*
X386340Y248753D01*
X386349Y248833D01*
X386352Y249140D01*
X386362Y249447D01*
X386356Y249527D01*
X386357Y249607D01*
X386329Y249912D01*
X386307Y250219D01*
X386293Y250299D01*
X386286Y250378D01*
X386226Y250679D01*
X386172Y250982D01*
X386150Y251059D01*
X386135Y251138D01*
X386044Y251430D01*
X385960Y251727D01*
X385930Y251801D01*
X385907Y251877D01*
X385787Y252159D01*
X385672Y252445D01*
X385635Y252516D01*
X385603Y252590D01*
X385454Y252859D01*
X385311Y253130D01*
X385267Y253197D01*
X385228Y253267D01*
X385052Y253520D01*
X384882Y253775D01*
X384841Y253823D01*
X384785Y253902D01*
X384279Y254488D01*
X384209Y254554D01*
X384167Y254603D01*
X384072Y254698D01*
X382109Y259436D01*
X382109Y264564D01*
X384072Y269302D01*
X385310Y270540D01*
X385447Y270692D01*
X385590Y270836D01*
X385706Y270979D01*
X385829Y271115D01*
X385949Y271280D01*
X386077Y271439D01*
X386177Y271593D01*
X386285Y271741D01*
X386388Y271917D01*
X386499Y272088D01*
X386582Y272251D01*
X386675Y272410D01*
X386758Y272596D01*
X386851Y272777D01*
X386917Y272948D01*
X386993Y273116D01*
X387057Y273309D01*
X387131Y273499D01*
X387179Y273676D01*
X387237Y273851D01*
X387281Y274050D01*
X387335Y274246D01*
X387364Y274427D01*
X387404Y274607D01*
X387427Y274809D01*
X387460Y275010D01*
X387471Y275193D01*
X387492Y275376D01*
X387494Y275580D01*
X387506Y275783D01*
X387498Y275966D01*
X387500Y276150D01*
X387481Y276353D01*
X387472Y276557D01*
X387446Y276738D01*
X387429Y276921D01*
X387389Y277121D01*
X387359Y277323D01*
X387314Y277501D01*
X387278Y277681D01*
X387218Y277875D01*
X387167Y278073D01*
X387104Y278245D01*
X387050Y278421D01*
X386970Y278608D01*
X386899Y278799D01*
X386818Y278964D01*
X386746Y279133D01*
X386648Y279311D01*
X386558Y279494D01*
X386485Y279605D01*
X386371Y279810D01*
X386308Y279901D01*
X395000Y279901D01*
X403694Y279901D01*
X403604Y279771D01*
X403507Y279592D01*
X403400Y279418D01*
X403321Y279252D01*
X403233Y279091D01*
X403155Y278903D01*
X403067Y278719D01*
X403005Y278546D01*
X402934Y278377D01*
X402876Y278181D01*
X402807Y277989D01*
X402764Y277811D01*
X402711Y277635D01*
X402672Y277435D01*
X402624Y277237D01*
X402599Y277055D01*
X402565Y276875D01*
X402547Y276672D01*
X402520Y276470D01*
X402514Y276286D01*
X402498Y276104D01*
X402501Y275900D01*
X402495Y275696D01*
X402508Y275513D01*
X402511Y275329D01*
X402536Y275127D01*
X402550Y274924D01*
X402582Y274743D01*
X402604Y274561D01*
X402649Y274362D01*
X402685Y274161D01*
X402735Y273985D01*
X402776Y273806D01*
X402841Y273612D01*
X402897Y273416D01*
X402965Y273246D01*
X403024Y273072D01*
X403109Y272887D01*
X403185Y272698D01*
X403270Y272535D01*
X403347Y272369D01*
X403451Y272193D01*
X403546Y272012D01*
X403647Y271860D01*
X403741Y271702D01*
X403862Y271537D01*
X403975Y271368D01*
X404061Y271269D01*
X404201Y271079D01*
X404636Y270603D01*
X404690Y270540D01*
X405928Y269302D01*
X407891Y264564D01*
X407891Y259436D01*
X405928Y254698D01*
X405833Y254603D01*
X405627Y254375D01*
X405417Y254151D01*
X405368Y254087D01*
X405315Y254028D01*
X405133Y253780D01*
X404947Y253535D01*
X404905Y253467D01*
X404858Y253402D01*
X404703Y253136D01*
X404543Y252875D01*
X404509Y252802D01*
X404469Y252733D01*
X404342Y252452D01*
X404210Y252176D01*
X404183Y252101D01*
X404150Y252027D01*
X404053Y251735D01*
X403950Y251446D01*
X403931Y251368D01*
X403906Y251292D01*
X403840Y250992D01*
X403767Y250694D01*
X403756Y250615D01*
X403739Y250536D01*
X403704Y250232D01*
X403663Y249927D01*
X403660Y249846D01*
X403651Y249767D01*
X403648Y249460D01*
X403638Y249153D01*
X403644Y249073D01*
X403643Y248993D01*
X403671Y248687D01*
X403693Y248380D01*
X403707Y248302D01*
X403714Y248222D01*
X403774Y247920D01*
X403828Y247618D01*
X403850Y247541D01*
X403865Y247462D01*
X403956Y247169D01*
X404040Y246873D01*
X404070Y246799D01*
X404093Y246722D01*
X404214Y246440D01*
X404328Y246155D01*
X404365Y246084D01*
X404397Y246010D01*
X404546Y245741D01*
X404689Y245469D01*
X404733Y245403D01*
X404772Y245333D01*
X404948Y245081D01*
X405118Y244825D01*
X405160Y244777D01*
X405215Y244698D01*
X405721Y244112D01*
X405792Y244045D01*
X405833Y243997D01*
X405928Y243902D01*
X407891Y239164D01*
X407891Y234036D01*
X405928Y229298D01*
X402302Y225672D01*
X397564Y223709D01*
X392436Y223709D01*
G37*
%LPD*%
%LPC*%
G36*
X221435Y877301D02*
X221435Y877301D01*
X216510Y879341D01*
X212741Y883110D01*
X210701Y888035D01*
X210701Y893365D01*
X212757Y898328D01*
X212965Y898549D01*
X213013Y898613D01*
X213067Y898672D01*
X213248Y898920D01*
X213435Y899165D01*
X213476Y899233D01*
X213523Y899298D01*
X213678Y899563D01*
X213838Y899825D01*
X213873Y899898D01*
X213913Y899967D01*
X214039Y900247D01*
X214172Y900524D01*
X214199Y900600D01*
X214231Y900673D01*
X214328Y900964D01*
X214431Y901254D01*
X214450Y901331D01*
X214475Y901407D01*
X214542Y901707D01*
X214614Y902006D01*
X214625Y902086D01*
X214642Y902163D01*
X214677Y902469D01*
X214719Y902773D01*
X214721Y902853D01*
X214730Y902933D01*
X214734Y903240D01*
X214744Y903547D01*
X214738Y903627D01*
X214739Y903707D01*
X214710Y904013D01*
X214688Y904319D01*
X214675Y904398D01*
X214667Y904478D01*
X214607Y904780D01*
X214554Y905082D01*
X214532Y905159D01*
X214516Y905237D01*
X214426Y905531D01*
X214342Y905827D01*
X214312Y905901D01*
X214288Y905977D01*
X214168Y906260D01*
X214054Y906545D01*
X214016Y906616D01*
X213985Y906690D01*
X213836Y906959D01*
X213693Y907230D01*
X213649Y907297D01*
X213610Y907367D01*
X213434Y907620D01*
X213264Y907875D01*
X213222Y907923D01*
X213167Y908002D01*
X212753Y908481D01*
X210701Y913435D01*
X210701Y918765D01*
X212741Y923690D01*
X216510Y927459D01*
X221435Y929499D01*
X226765Y929499D01*
X231690Y927459D01*
X235459Y923690D01*
X237499Y918765D01*
X237499Y913435D01*
X235443Y908472D01*
X235235Y908251D01*
X235187Y908187D01*
X235133Y908128D01*
X234952Y907880D01*
X234765Y907635D01*
X234724Y907567D01*
X234676Y907502D01*
X234522Y907237D01*
X234362Y906975D01*
X234327Y906902D01*
X234287Y906833D01*
X234161Y906553D01*
X234028Y906276D01*
X234001Y906200D01*
X233968Y906127D01*
X233872Y905835D01*
X233769Y905546D01*
X233750Y905469D01*
X233724Y905392D01*
X233658Y905092D01*
X233586Y904794D01*
X233575Y904715D01*
X233558Y904636D01*
X233523Y904331D01*
X233481Y904027D01*
X233479Y903946D01*
X233470Y903867D01*
X233466Y903560D01*
X233456Y903253D01*
X233462Y903173D01*
X233461Y903093D01*
X233490Y902787D01*
X233512Y902480D01*
X233525Y902402D01*
X233533Y902322D01*
X233593Y902020D01*
X233646Y901718D01*
X233668Y901641D01*
X233684Y901562D01*
X233774Y901268D01*
X233858Y900973D01*
X233888Y900899D01*
X233912Y900822D01*
X234032Y900540D01*
X234146Y900255D01*
X234184Y900184D01*
X234215Y900110D01*
X234364Y899841D01*
X234507Y899569D01*
X234551Y899503D01*
X234590Y899433D01*
X234766Y899181D01*
X234936Y898925D01*
X234978Y898877D01*
X235033Y898798D01*
X235447Y898319D01*
X237499Y893365D01*
X237499Y888035D01*
X235459Y883110D01*
X231690Y879341D01*
X226765Y877301D01*
X221435Y877301D01*
G37*
%LPD*%
%LPC*%
G36*
X334871Y470204D02*
X334871Y470204D01*
X326204Y478871D01*
X326204Y491129D01*
X334871Y499796D01*
X347129Y499796D01*
X355796Y491129D01*
X355796Y478871D01*
X347129Y470204D01*
X334871Y470204D01*
G37*
%LPD*%
%LPC*%
G36*
X444871Y469204D02*
X444871Y469204D01*
X436204Y477871D01*
X436204Y490129D01*
X444871Y498796D01*
X457129Y498796D01*
X465796Y490129D01*
X465796Y477871D01*
X457129Y469204D01*
X444871Y469204D01*
G37*
%LPD*%
%LPC*%
G36*
X335871Y356204D02*
X335871Y356204D01*
X327204Y364871D01*
X327204Y377129D01*
X335871Y385796D01*
X348129Y385796D01*
X356796Y377129D01*
X356796Y364871D01*
X348129Y356204D01*
X335871Y356204D01*
G37*
%LPD*%
%LPC*%
G36*
X445871Y355204D02*
X445871Y355204D01*
X437204Y363871D01*
X437204Y376129D01*
X445871Y384796D01*
X458129Y384796D01*
X466796Y376129D01*
X466796Y363871D01*
X458129Y355204D01*
X445871Y355204D01*
G37*
%LPD*%
%LPC*%
G36*
X547871Y245204D02*
X547871Y245204D01*
X539204Y253871D01*
X539204Y266129D01*
X547871Y274796D01*
X560129Y274796D01*
X568796Y266129D01*
X568796Y253871D01*
X560129Y245204D01*
X547871Y245204D01*
G37*
%LPD*%
%LPC*%
G36*
X722871Y240204D02*
X722871Y240204D01*
X714204Y248871D01*
X714204Y261129D01*
X722871Y269796D01*
X735129Y269796D01*
X743796Y261129D01*
X743796Y248871D01*
X735129Y240204D01*
X722871Y240204D01*
G37*
%LPD*%
%LPC*%
G36*
X546871Y177204D02*
X546871Y177204D01*
X538204Y185871D01*
X538204Y198129D01*
X546871Y206796D01*
X559129Y206796D01*
X567796Y198129D01*
X567796Y185871D01*
X559129Y177204D01*
X546871Y177204D01*
G37*
%LPD*%
%LPC*%
G36*
X721871Y173204D02*
X721871Y173204D01*
X713204Y181871D01*
X713204Y194129D01*
X721871Y202796D01*
X734129Y202796D01*
X742796Y194129D01*
X742796Y181871D01*
X734129Y173204D01*
X721871Y173204D01*
G37*
%LPD*%
%LPC*%
G36*
X721871Y111204D02*
X721871Y111204D01*
X713204Y119871D01*
X713204Y132129D01*
X721871Y140796D01*
X734129Y140796D01*
X742796Y132129D01*
X742796Y119871D01*
X734129Y111204D01*
X721871Y111204D01*
G37*
%LPD*%
%LPC*%
G36*
X545871Y111204D02*
X545871Y111204D01*
X537204Y119871D01*
X537204Y132129D01*
X545871Y140796D01*
X558129Y140796D01*
X566796Y132129D01*
X566796Y119871D01*
X558129Y111204D01*
X545871Y111204D01*
G37*
%LPD*%
%LPC*%
G36*
X450035Y890001D02*
X450035Y890001D01*
X445110Y892041D01*
X441341Y895810D01*
X439301Y900735D01*
X439301Y906065D01*
X441341Y910990D01*
X442336Y911984D01*
X442472Y912136D01*
X442616Y912280D01*
X442731Y912423D01*
X442854Y912560D01*
X442974Y912724D01*
X443103Y912883D01*
X443203Y913037D01*
X443311Y913185D01*
X443413Y913361D01*
X443524Y913532D01*
X443608Y913696D01*
X443700Y913854D01*
X443784Y914040D01*
X443877Y914221D01*
X443943Y914392D01*
X444019Y914560D01*
X444083Y914753D01*
X444157Y914943D01*
X444205Y915121D01*
X444263Y915295D01*
X444307Y915494D01*
X444360Y915690D01*
X444390Y915872D01*
X444430Y916051D01*
X444453Y916253D01*
X444486Y916455D01*
X444497Y916638D01*
X444518Y916820D01*
X444520Y917024D01*
X444532Y917227D01*
X444524Y917411D01*
X444526Y917594D01*
X444507Y917797D01*
X444498Y918001D01*
X444471Y918183D01*
X444454Y918365D01*
X444415Y918565D01*
X444385Y918767D01*
X444339Y918945D01*
X444304Y919125D01*
X444244Y919320D01*
X444193Y919517D01*
X444129Y919690D01*
X444075Y919865D01*
X443996Y920052D01*
X443925Y920244D01*
X443844Y920408D01*
X443772Y920577D01*
X443673Y920756D01*
X443583Y920938D01*
X443511Y921048D01*
X443397Y921255D01*
X443365Y921301D01*
X452700Y921301D01*
X462038Y921301D01*
X461978Y921215D01*
X461881Y921036D01*
X461775Y920862D01*
X461695Y920696D01*
X461608Y920535D01*
X461529Y920347D01*
X461441Y920163D01*
X461380Y919990D01*
X461309Y919821D01*
X461250Y919626D01*
X461181Y919434D01*
X461138Y919255D01*
X461085Y919079D01*
X461047Y918879D01*
X460998Y918681D01*
X460974Y918499D01*
X460939Y918319D01*
X460921Y918116D01*
X460894Y917914D01*
X460888Y917731D01*
X460872Y917548D01*
X460876Y917344D01*
X460869Y917140D01*
X460882Y916957D01*
X460885Y916773D01*
X460910Y916571D01*
X460924Y916368D01*
X460956Y916187D01*
X460978Y916005D01*
X461023Y915806D01*
X461059Y915605D01*
X461109Y915429D01*
X461150Y915250D01*
X461215Y915057D01*
X461271Y914861D01*
X461339Y914690D01*
X461398Y914516D01*
X461483Y914331D01*
X461559Y914142D01*
X461645Y913980D01*
X461721Y913813D01*
X461825Y913637D01*
X461920Y913457D01*
X462022Y913304D01*
X462115Y913146D01*
X462236Y912982D01*
X462349Y912812D01*
X462435Y912713D01*
X462575Y912523D01*
X463010Y912047D01*
X463064Y911984D01*
X464059Y910990D01*
X466099Y906065D01*
X466099Y900735D01*
X464059Y895810D01*
X460290Y892041D01*
X455365Y890001D01*
X450035Y890001D01*
G37*
%LPD*%
%LPC*%
G36*
X348435Y813801D02*
X348435Y813801D01*
X343510Y815841D01*
X339741Y819610D01*
X337701Y824535D01*
X337701Y829865D01*
X339741Y834790D01*
X343510Y838559D01*
X348435Y840599D01*
X353765Y840599D01*
X358690Y838559D01*
X359684Y837564D01*
X359836Y837428D01*
X359980Y837284D01*
X360123Y837169D01*
X360260Y837046D01*
X360424Y836926D01*
X360583Y836797D01*
X360737Y836697D01*
X360885Y836589D01*
X361061Y836487D01*
X361232Y836376D01*
X361396Y836292D01*
X361554Y836200D01*
X361740Y836116D01*
X361921Y836023D01*
X362092Y835957D01*
X362260Y835881D01*
X362453Y835817D01*
X362643Y835743D01*
X362821Y835695D01*
X362995Y835637D01*
X363194Y835593D01*
X363390Y835540D01*
X363572Y835510D01*
X363751Y835470D01*
X363953Y835447D01*
X364155Y835414D01*
X364338Y835403D01*
X364520Y835382D01*
X364724Y835380D01*
X364927Y835368D01*
X365111Y835376D01*
X365294Y835374D01*
X365497Y835393D01*
X365701Y835402D01*
X365883Y835429D01*
X366065Y835446D01*
X366265Y835485D01*
X366467Y835515D01*
X366645Y835561D01*
X366825Y835596D01*
X367020Y835656D01*
X367217Y835707D01*
X367390Y835771D01*
X367565Y835825D01*
X367752Y835904D01*
X367944Y835975D01*
X368108Y836056D01*
X368277Y836128D01*
X368456Y836227D01*
X368638Y836317D01*
X368748Y836389D01*
X368955Y836503D01*
X369001Y836535D01*
X369001Y827200D01*
X369001Y817862D01*
X368915Y817922D01*
X368736Y818019D01*
X368562Y818125D01*
X368396Y818205D01*
X368235Y818292D01*
X368047Y818371D01*
X367863Y818459D01*
X367690Y818520D01*
X367521Y818591D01*
X367326Y818650D01*
X367134Y818719D01*
X366955Y818762D01*
X366779Y818815D01*
X366579Y818853D01*
X366381Y818902D01*
X366199Y818926D01*
X366019Y818961D01*
X365816Y818979D01*
X365614Y819006D01*
X365431Y819012D01*
X365248Y819028D01*
X365044Y819024D01*
X364840Y819031D01*
X364657Y819018D01*
X364473Y819015D01*
X364271Y818990D01*
X364068Y818976D01*
X363887Y818944D01*
X363705Y818922D01*
X363506Y818877D01*
X363305Y818841D01*
X363129Y818791D01*
X362950Y818750D01*
X362757Y818685D01*
X362561Y818629D01*
X362390Y818561D01*
X362216Y818502D01*
X362031Y818417D01*
X361842Y818341D01*
X361680Y818255D01*
X361513Y818179D01*
X361337Y818075D01*
X361157Y817980D01*
X361004Y817878D01*
X360846Y817785D01*
X360682Y817664D01*
X360512Y817551D01*
X360413Y817465D01*
X360223Y817325D01*
X359747Y816890D01*
X359684Y816836D01*
X358690Y815841D01*
X353765Y813801D01*
X348435Y813801D01*
G37*
%LPD*%
%LPC*%
G36*
X395000Y294899D02*
X395000Y294899D01*
X386306Y294899D01*
X386396Y295029D01*
X386493Y295208D01*
X386600Y295382D01*
X386679Y295548D01*
X386767Y295709D01*
X386845Y295897D01*
X386933Y296081D01*
X386995Y296254D01*
X387066Y296423D01*
X387124Y296619D01*
X387193Y296811D01*
X387236Y296989D01*
X387289Y297165D01*
X387328Y297365D01*
X387376Y297563D01*
X387401Y297745D01*
X387435Y297925D01*
X387453Y298128D01*
X387480Y298330D01*
X387486Y298513D01*
X387502Y298696D01*
X387499Y298900D01*
X387505Y299104D01*
X387492Y299287D01*
X387489Y299471D01*
X387464Y299673D01*
X387450Y299876D01*
X387418Y300057D01*
X387396Y300239D01*
X387351Y300438D01*
X387315Y300639D01*
X387265Y300815D01*
X387224Y300994D01*
X387159Y301188D01*
X387103Y301384D01*
X387035Y301554D01*
X386976Y301728D01*
X386891Y301913D01*
X386815Y302102D01*
X386730Y302265D01*
X386653Y302431D01*
X386549Y302607D01*
X386454Y302788D01*
X386353Y302940D01*
X386259Y303098D01*
X386138Y303263D01*
X386025Y303432D01*
X385939Y303531D01*
X385799Y303721D01*
X385364Y304197D01*
X385310Y304260D01*
X384167Y305403D01*
X384072Y305498D01*
X382109Y310236D01*
X382109Y315364D01*
X384072Y320102D01*
X387698Y323728D01*
X392436Y325691D01*
X397564Y325691D01*
X402302Y323728D01*
X405928Y320102D01*
X407891Y315364D01*
X407891Y310236D01*
X405928Y305498D01*
X405833Y305403D01*
X404690Y304260D01*
X404553Y304108D01*
X404410Y303964D01*
X404294Y303821D01*
X404171Y303685D01*
X404051Y303520D01*
X403923Y303361D01*
X403823Y303207D01*
X403715Y303059D01*
X403612Y302883D01*
X403501Y302712D01*
X403418Y302549D01*
X403325Y302390D01*
X403242Y302204D01*
X403149Y302023D01*
X403083Y301852D01*
X403007Y301684D01*
X402943Y301491D01*
X402869Y301301D01*
X402821Y301124D01*
X402763Y300949D01*
X402719Y300750D01*
X402665Y300554D01*
X402636Y300373D01*
X402596Y300193D01*
X402573Y299991D01*
X402540Y299790D01*
X402529Y299607D01*
X402508Y299424D01*
X402506Y299220D01*
X402494Y299017D01*
X402502Y298834D01*
X402500Y298650D01*
X402519Y298447D01*
X402528Y298243D01*
X402554Y298062D01*
X402571Y297879D01*
X402611Y297679D01*
X402641Y297477D01*
X402686Y297299D01*
X402722Y297119D01*
X402782Y296925D01*
X402833Y296727D01*
X402896Y296555D01*
X402950Y296379D01*
X403030Y296192D01*
X403101Y296001D01*
X403182Y295836D01*
X403254Y295667D01*
X403352Y295489D01*
X403442Y295306D01*
X403515Y295195D01*
X403629Y294990D01*
X403692Y294899D01*
X395000Y294899D01*
X395000Y294899D01*
G37*
%LPD*%
%LPC*%
G36*
X349499Y583499D02*
X349499Y583499D01*
X349499Y587360D01*
X353360Y583499D01*
X349499Y583499D01*
G37*
%LPD*%
%LPC*%
G36*
X456499Y583499D02*
X456499Y583499D01*
X456499Y587360D01*
X460360Y583499D01*
X456499Y583499D01*
G37*
%LPD*%
%LPC*%
G36*
X330640Y583499D02*
X330640Y583499D01*
X334501Y587360D01*
X334501Y583499D01*
X330640Y583499D01*
G37*
%LPD*%
%LPC*%
G36*
X437640Y583499D02*
X437640Y583499D01*
X441501Y587360D01*
X441501Y583499D01*
X437640Y583499D01*
G37*
%LPD*%
%LPC*%
G36*
X349499Y568501D02*
X349499Y568501D01*
X353360Y568501D01*
X349499Y564640D01*
X349499Y568501D01*
G37*
%LPD*%
%LPC*%
G36*
X456499Y568501D02*
X456499Y568501D01*
X460360Y568501D01*
X456499Y564640D01*
X456499Y568501D01*
G37*
%LPD*%
%LPC*%
G36*
X437640Y568501D02*
X437640Y568501D01*
X441501Y568501D01*
X441501Y564640D01*
X437640Y568501D01*
G37*
%LPD*%
%LPC*%
G36*
X330640Y568501D02*
X330640Y568501D01*
X334501Y568501D01*
X334501Y564640D01*
X330640Y568501D01*
G37*
%LPD*%
%LPC*%
G36*
X460199Y936299D02*
X460199Y936299D01*
X460199Y938094D01*
X460589Y937795D01*
X461695Y936689D01*
X461994Y936299D01*
X460199Y936299D01*
G37*
%LPD*%
%LPC*%
G36*
X55799Y132999D02*
X55799Y132999D01*
X55799Y134794D01*
X56189Y134495D01*
X57295Y133389D01*
X57594Y132999D01*
X55799Y132999D01*
G37*
%LPD*%
%LPC*%
G36*
X665906Y958499D02*
X665906Y958499D01*
X666205Y958889D01*
X667311Y959995D01*
X667701Y960294D01*
X667701Y958499D01*
X665906Y958499D01*
G37*
%LPD*%
%LPC*%
G36*
X443406Y936299D02*
X443406Y936299D01*
X443705Y936689D01*
X444811Y937795D01*
X445201Y938094D01*
X445201Y936299D01*
X443406Y936299D01*
G37*
%LPD*%
%LPC*%
G36*
X39006Y132999D02*
X39006Y132999D01*
X39305Y133389D01*
X40411Y134495D01*
X40801Y134794D01*
X40801Y132999D01*
X39006Y132999D01*
G37*
%LPD*%
%LPC*%
G36*
X667311Y942005D02*
X667311Y942005D01*
X666205Y943111D01*
X665906Y943501D01*
X667701Y943501D01*
X667701Y941706D01*
X667311Y942005D01*
G37*
%LPD*%
D10*
X48300Y125500D03*
X48300Y100100D03*
X48300Y74700D03*
X48300Y49300D03*
D11*
X395000Y236600D03*
X395000Y262000D03*
X395000Y287400D03*
X395000Y312800D03*
D10*
X186000Y763700D03*
X211400Y763700D03*
X452700Y903400D03*
X452700Y928800D03*
X351100Y827200D03*
X376500Y827200D03*
X401900Y827200D03*
X224100Y890700D03*
X224100Y916100D03*
X675200Y951000D03*
X700600Y951000D03*
X726000Y951000D03*
X751400Y951000D03*
D12*
X552000Y126000D03*
X553000Y192000D03*
X554000Y260000D03*
X342000Y371000D03*
X452000Y370000D03*
X341000Y485000D03*
X451000Y484000D03*
X342000Y576000D03*
X449000Y576000D03*
X729000Y255000D03*
X728000Y126000D03*
X728000Y188000D03*
D10*
X584900Y834500D03*
X584900Y809100D03*
X584900Y783700D03*
X584900Y758300D03*
X584900Y732900D03*
X584900Y707500D03*
X584900Y682100D03*
X584900Y656700D03*
X584900Y631300D03*
X584900Y605900D03*
X584900Y580500D03*
X584900Y555100D03*
X584900Y529700D03*
X584900Y504300D03*
X584900Y478900D03*
X584900Y453500D03*
X584900Y428100D03*
X737300Y428100D03*
X737300Y453500D03*
X737300Y478900D03*
X737300Y504300D03*
X737300Y529700D03*
X737300Y555100D03*
X737300Y580500D03*
X737300Y605900D03*
X737300Y631300D03*
X737300Y656700D03*
X737300Y682100D03*
X737300Y707500D03*
X737300Y732900D03*
X737300Y758300D03*
X737300Y783700D03*
X737300Y809100D03*
X737300Y834500D03*
D13*
X48300Y49300D02*
X47778Y48778D01*
M02*
