G04 EAGLE Gerber RS-274X export*
G75*
%MOMM*%
%FSLAX34Y34*%
%LPD*%
%INTop Copper*%
%IPPOS*%
%AMOC8*
5,1,8,0,0,1.08239X$1,22.5*%
G01*
%ADD10C,1.879600*%
%ADD11C,1.778000*%
%ADD12P,2.336880X8X22.500000*%
%ADD13R,1.500000X1.300000*%
%ADD14R,1.300000X1.500000*%
%ADD15C,1.500000*%

G36*
X781726Y643944D02*
X781726Y643944D01*
X781718Y643943D01*
X781574Y643924D01*
X781497Y643918D01*
X781421Y643913D01*
X781335Y643897D01*
X781191Y643872D01*
X780959Y643841D01*
X780949Y643839D01*
X780809Y643805D01*
X780658Y643778D01*
X780433Y643714D01*
X780206Y643659D01*
X780196Y643656D01*
X780061Y643608D01*
X779913Y643566D01*
X779696Y643479D01*
X779476Y643401D01*
X779337Y643335D01*
X779195Y643278D01*
X778988Y643169D01*
X778777Y643069D01*
X778646Y642989D01*
X778509Y642917D01*
X778315Y642788D01*
X778115Y642666D01*
X777993Y642573D01*
X777865Y642488D01*
X777749Y642387D01*
X777644Y642308D01*
X777499Y642197D01*
X777378Y642084D01*
X777151Y641871D01*
X777037Y641773D01*
X756415Y621150D01*
X754015Y620156D01*
X753738Y620024D01*
X753457Y619898D01*
X753388Y619858D01*
X753316Y619823D01*
X753054Y619664D01*
X752788Y619509D01*
X752723Y619462D01*
X752655Y619420D01*
X752411Y619234D01*
X752162Y619053D01*
X752102Y618999D01*
X752039Y618951D01*
X751815Y618741D01*
X751586Y618535D01*
X751533Y618475D01*
X751474Y618421D01*
X751273Y618189D01*
X751067Y617960D01*
X751020Y617896D01*
X750968Y617835D01*
X750792Y617583D01*
X750610Y617335D01*
X750570Y617266D01*
X750524Y617201D01*
X750375Y616932D01*
X750220Y616667D01*
X750187Y616593D01*
X750148Y616523D01*
X750028Y616241D01*
X749901Y615961D01*
X749876Y615885D01*
X749844Y615811D01*
X749754Y615518D01*
X749657Y615226D01*
X749639Y615148D01*
X749616Y615072D01*
X749555Y614770D01*
X749489Y614470D01*
X749480Y614391D01*
X749464Y614312D01*
X749435Y614006D01*
X749400Y613701D01*
X749399Y613621D01*
X749392Y613541D01*
X749395Y613234D01*
X749391Y612927D01*
X749399Y612847D01*
X749399Y612767D01*
X749434Y612462D01*
X749462Y612156D01*
X749478Y612077D01*
X749487Y611998D01*
X749553Y611697D01*
X749612Y611396D01*
X749632Y611336D01*
X749653Y611242D01*
X749896Y610506D01*
X749936Y610418D01*
X749956Y610358D01*
X750699Y608565D01*
X750699Y603235D01*
X748643Y598272D01*
X748435Y598051D01*
X748387Y597987D01*
X748333Y597928D01*
X748152Y597680D01*
X747965Y597435D01*
X747924Y597367D01*
X747876Y597302D01*
X747722Y597037D01*
X747562Y596775D01*
X747527Y596702D01*
X747487Y596633D01*
X747361Y596353D01*
X747228Y596076D01*
X747201Y596000D01*
X747168Y595927D01*
X747072Y595635D01*
X746969Y595346D01*
X746950Y595269D01*
X746924Y595192D01*
X746858Y594892D01*
X746786Y594594D01*
X746775Y594515D01*
X746758Y594436D01*
X746723Y594131D01*
X746681Y593827D01*
X746679Y593746D01*
X746670Y593667D01*
X746666Y593360D01*
X746656Y593053D01*
X746662Y592973D01*
X746661Y592893D01*
X746690Y592587D01*
X746712Y592280D01*
X746725Y592202D01*
X746733Y592122D01*
X746793Y591820D01*
X746846Y591518D01*
X746868Y591441D01*
X746884Y591362D01*
X746974Y591068D01*
X747058Y590773D01*
X747088Y590699D01*
X747112Y590622D01*
X747232Y590340D01*
X747346Y590055D01*
X747384Y589984D01*
X747415Y589910D01*
X747564Y589641D01*
X747707Y589369D01*
X747751Y589303D01*
X747790Y589233D01*
X747966Y588981D01*
X748136Y588725D01*
X748178Y588677D01*
X748233Y588598D01*
X748647Y588119D01*
X750699Y583165D01*
X750699Y577835D01*
X748643Y572872D01*
X748435Y572651D01*
X748387Y572587D01*
X748333Y572528D01*
X748152Y572280D01*
X747965Y572035D01*
X747924Y571967D01*
X747876Y571902D01*
X747722Y571637D01*
X747562Y571375D01*
X747527Y571302D01*
X747487Y571233D01*
X747361Y570953D01*
X747228Y570676D01*
X747201Y570600D01*
X747168Y570527D01*
X747072Y570235D01*
X746969Y569946D01*
X746950Y569869D01*
X746924Y569792D01*
X746858Y569492D01*
X746786Y569194D01*
X746775Y569115D01*
X746758Y569036D01*
X746723Y568731D01*
X746681Y568427D01*
X746679Y568346D01*
X746670Y568267D01*
X746666Y567960D01*
X746656Y567653D01*
X746662Y567573D01*
X746661Y567493D01*
X746690Y567187D01*
X746712Y566880D01*
X746725Y566802D01*
X746733Y566722D01*
X746793Y566420D01*
X746846Y566118D01*
X746868Y566041D01*
X746884Y565962D01*
X746974Y565668D01*
X747058Y565373D01*
X747088Y565299D01*
X747112Y565222D01*
X747232Y564940D01*
X747346Y564655D01*
X747384Y564584D01*
X747415Y564510D01*
X747564Y564241D01*
X747707Y563969D01*
X747751Y563903D01*
X747790Y563833D01*
X747966Y563581D01*
X748136Y563325D01*
X748178Y563277D01*
X748233Y563198D01*
X748647Y562719D01*
X750699Y557765D01*
X750699Y552435D01*
X748643Y547472D01*
X748435Y547251D01*
X748387Y547187D01*
X748333Y547128D01*
X748152Y546880D01*
X747965Y546635D01*
X747924Y546567D01*
X747876Y546502D01*
X747722Y546237D01*
X747562Y545975D01*
X747527Y545902D01*
X747487Y545833D01*
X747361Y545553D01*
X747228Y545276D01*
X747201Y545200D01*
X747168Y545127D01*
X747072Y544835D01*
X746969Y544546D01*
X746950Y544469D01*
X746924Y544392D01*
X746858Y544092D01*
X746786Y543794D01*
X746775Y543715D01*
X746758Y543636D01*
X746723Y543331D01*
X746681Y543027D01*
X746679Y542946D01*
X746670Y542867D01*
X746666Y542560D01*
X746656Y542253D01*
X746662Y542173D01*
X746661Y542093D01*
X746690Y541787D01*
X746712Y541480D01*
X746725Y541402D01*
X746733Y541322D01*
X746793Y541020D01*
X746846Y540718D01*
X746868Y540641D01*
X746884Y540562D01*
X746974Y540268D01*
X747058Y539973D01*
X747088Y539899D01*
X747112Y539822D01*
X747232Y539540D01*
X747346Y539255D01*
X747384Y539184D01*
X747415Y539110D01*
X747564Y538841D01*
X747707Y538569D01*
X747751Y538503D01*
X747790Y538433D01*
X747966Y538181D01*
X748136Y537925D01*
X748178Y537877D01*
X748233Y537798D01*
X748647Y537319D01*
X750699Y532365D01*
X750699Y527035D01*
X748643Y522072D01*
X748435Y521851D01*
X748387Y521787D01*
X748333Y521728D01*
X748152Y521480D01*
X747965Y521235D01*
X747924Y521167D01*
X747876Y521102D01*
X747722Y520837D01*
X747562Y520575D01*
X747527Y520502D01*
X747487Y520433D01*
X747361Y520153D01*
X747228Y519876D01*
X747201Y519800D01*
X747168Y519727D01*
X747072Y519435D01*
X746969Y519146D01*
X746950Y519069D01*
X746924Y518992D01*
X746858Y518692D01*
X746786Y518394D01*
X746775Y518315D01*
X746758Y518236D01*
X746723Y517931D01*
X746681Y517627D01*
X746679Y517546D01*
X746670Y517467D01*
X746666Y517160D01*
X746656Y516853D01*
X746662Y516773D01*
X746661Y516693D01*
X746690Y516387D01*
X746712Y516080D01*
X746725Y516002D01*
X746733Y515922D01*
X746793Y515620D01*
X746846Y515318D01*
X746868Y515241D01*
X746884Y515162D01*
X746974Y514868D01*
X747058Y514573D01*
X747088Y514499D01*
X747112Y514422D01*
X747232Y514140D01*
X747346Y513855D01*
X747384Y513784D01*
X747415Y513710D01*
X747564Y513441D01*
X747707Y513169D01*
X747751Y513103D01*
X747790Y513033D01*
X747966Y512781D01*
X748136Y512525D01*
X748178Y512477D01*
X748233Y512398D01*
X748647Y511919D01*
X750699Y506965D01*
X750699Y501635D01*
X748643Y496672D01*
X748435Y496451D01*
X748387Y496387D01*
X748333Y496328D01*
X748152Y496080D01*
X747965Y495835D01*
X747924Y495767D01*
X747876Y495702D01*
X747722Y495437D01*
X747562Y495175D01*
X747527Y495102D01*
X747487Y495033D01*
X747361Y494753D01*
X747228Y494476D01*
X747201Y494400D01*
X747168Y494327D01*
X747072Y494035D01*
X746969Y493746D01*
X746950Y493669D01*
X746924Y493592D01*
X746858Y493292D01*
X746786Y492994D01*
X746775Y492915D01*
X746758Y492836D01*
X746723Y492531D01*
X746681Y492227D01*
X746679Y492146D01*
X746670Y492067D01*
X746666Y491760D01*
X746656Y491453D01*
X746662Y491373D01*
X746661Y491293D01*
X746690Y490987D01*
X746712Y490680D01*
X746725Y490602D01*
X746733Y490522D01*
X746793Y490220D01*
X746846Y489918D01*
X746868Y489841D01*
X746884Y489762D01*
X746974Y489468D01*
X747058Y489173D01*
X747088Y489099D01*
X747112Y489022D01*
X747232Y488740D01*
X747346Y488455D01*
X747384Y488384D01*
X747415Y488310D01*
X747564Y488041D01*
X747707Y487769D01*
X747751Y487703D01*
X747790Y487633D01*
X747966Y487381D01*
X748136Y487125D01*
X748178Y487077D01*
X748233Y486998D01*
X748647Y486519D01*
X750699Y481565D01*
X750699Y476235D01*
X748643Y471272D01*
X748435Y471051D01*
X748387Y470987D01*
X748333Y470928D01*
X748152Y470680D01*
X747965Y470435D01*
X747924Y470367D01*
X747876Y470302D01*
X747722Y470037D01*
X747562Y469775D01*
X747527Y469702D01*
X747487Y469633D01*
X747361Y469353D01*
X747228Y469076D01*
X747201Y469000D01*
X747168Y468927D01*
X747072Y468635D01*
X746969Y468346D01*
X746950Y468269D01*
X746924Y468192D01*
X746858Y467892D01*
X746786Y467594D01*
X746775Y467515D01*
X746758Y467436D01*
X746723Y467131D01*
X746681Y466827D01*
X746679Y466746D01*
X746670Y466667D01*
X746666Y466360D01*
X746656Y466053D01*
X746662Y465973D01*
X746661Y465893D01*
X746690Y465587D01*
X746712Y465280D01*
X746725Y465202D01*
X746733Y465122D01*
X746793Y464820D01*
X746846Y464518D01*
X746868Y464441D01*
X746884Y464362D01*
X746974Y464068D01*
X747058Y463773D01*
X747088Y463699D01*
X747112Y463622D01*
X747232Y463340D01*
X747346Y463055D01*
X747384Y462984D01*
X747415Y462910D01*
X747564Y462641D01*
X747707Y462369D01*
X747751Y462303D01*
X747790Y462233D01*
X747966Y461981D01*
X748136Y461725D01*
X748178Y461677D01*
X748233Y461598D01*
X748647Y461119D01*
X750699Y456165D01*
X750699Y450835D01*
X748643Y445872D01*
X748435Y445651D01*
X748387Y445587D01*
X748333Y445528D01*
X748152Y445280D01*
X747965Y445035D01*
X747924Y444967D01*
X747876Y444902D01*
X747722Y444637D01*
X747562Y444375D01*
X747527Y444302D01*
X747487Y444233D01*
X747361Y443953D01*
X747228Y443676D01*
X747201Y443600D01*
X747168Y443527D01*
X747072Y443235D01*
X746969Y442946D01*
X746950Y442869D01*
X746924Y442792D01*
X746858Y442492D01*
X746786Y442194D01*
X746775Y442115D01*
X746758Y442036D01*
X746723Y441731D01*
X746681Y441427D01*
X746679Y441346D01*
X746670Y441267D01*
X746666Y440960D01*
X746656Y440653D01*
X746662Y440573D01*
X746661Y440493D01*
X746690Y440187D01*
X746712Y439880D01*
X746725Y439802D01*
X746733Y439722D01*
X746793Y439420D01*
X746846Y439118D01*
X746868Y439041D01*
X746884Y438962D01*
X746974Y438668D01*
X747058Y438373D01*
X747088Y438299D01*
X747112Y438222D01*
X747232Y437940D01*
X747346Y437655D01*
X747384Y437584D01*
X747415Y437510D01*
X747564Y437241D01*
X747707Y436969D01*
X747751Y436903D01*
X747790Y436833D01*
X747966Y436581D01*
X748136Y436325D01*
X748178Y436277D01*
X748233Y436198D01*
X748647Y435719D01*
X750699Y430765D01*
X750699Y425435D01*
X748659Y420510D01*
X744890Y416741D01*
X739965Y414701D01*
X734635Y414701D01*
X729710Y416741D01*
X725941Y420510D01*
X723901Y425435D01*
X723901Y430765D01*
X725957Y435728D01*
X726165Y435949D01*
X726213Y436013D01*
X726267Y436072D01*
X726448Y436320D01*
X726635Y436565D01*
X726676Y436633D01*
X726723Y436698D01*
X726878Y436963D01*
X727038Y437225D01*
X727073Y437298D01*
X727113Y437367D01*
X727239Y437647D01*
X727372Y437924D01*
X727399Y438000D01*
X727431Y438073D01*
X727528Y438364D01*
X727631Y438654D01*
X727650Y438731D01*
X727675Y438807D01*
X727742Y439107D01*
X727814Y439406D01*
X727825Y439486D01*
X727842Y439563D01*
X727877Y439869D01*
X727919Y440173D01*
X727921Y440253D01*
X727930Y440333D01*
X727934Y440640D01*
X727944Y440947D01*
X727938Y441027D01*
X727939Y441107D01*
X727910Y441413D01*
X727888Y441719D01*
X727875Y441798D01*
X727867Y441878D01*
X727807Y442180D01*
X727754Y442482D01*
X727732Y442559D01*
X727716Y442637D01*
X727626Y442931D01*
X727542Y443227D01*
X727512Y443301D01*
X727488Y443377D01*
X727368Y443660D01*
X727254Y443945D01*
X727216Y444016D01*
X727185Y444090D01*
X727036Y444359D01*
X726893Y444630D01*
X726849Y444697D01*
X726810Y444767D01*
X726634Y445020D01*
X726464Y445275D01*
X726422Y445323D01*
X726367Y445402D01*
X725953Y445881D01*
X723901Y450835D01*
X723901Y456165D01*
X725957Y461128D01*
X726165Y461349D01*
X726213Y461413D01*
X726267Y461472D01*
X726448Y461720D01*
X726635Y461965D01*
X726676Y462033D01*
X726723Y462098D01*
X726878Y462363D01*
X727038Y462625D01*
X727073Y462698D01*
X727113Y462767D01*
X727239Y463047D01*
X727372Y463324D01*
X727399Y463400D01*
X727431Y463473D01*
X727528Y463764D01*
X727631Y464054D01*
X727650Y464131D01*
X727675Y464207D01*
X727742Y464507D01*
X727814Y464806D01*
X727825Y464886D01*
X727842Y464963D01*
X727877Y465268D01*
X727919Y465573D01*
X727921Y465653D01*
X727930Y465733D01*
X727934Y466040D01*
X727944Y466347D01*
X727938Y466427D01*
X727939Y466507D01*
X727910Y466813D01*
X727888Y467119D01*
X727875Y467198D01*
X727867Y467278D01*
X727807Y467580D01*
X727754Y467882D01*
X727732Y467959D01*
X727716Y468037D01*
X727626Y468331D01*
X727542Y468627D01*
X727512Y468701D01*
X727488Y468777D01*
X727368Y469060D01*
X727254Y469345D01*
X727216Y469416D01*
X727185Y469490D01*
X727036Y469759D01*
X726893Y470030D01*
X726849Y470097D01*
X726810Y470167D01*
X726634Y470420D01*
X726464Y470675D01*
X726422Y470723D01*
X726367Y470802D01*
X725953Y471281D01*
X723901Y476235D01*
X723901Y481565D01*
X725957Y486528D01*
X726165Y486749D01*
X726213Y486813D01*
X726267Y486872D01*
X726448Y487120D01*
X726635Y487365D01*
X726676Y487433D01*
X726723Y487498D01*
X726878Y487763D01*
X727038Y488025D01*
X727073Y488098D01*
X727113Y488167D01*
X727239Y488447D01*
X727372Y488724D01*
X727399Y488800D01*
X727431Y488873D01*
X727528Y489164D01*
X727631Y489454D01*
X727650Y489531D01*
X727675Y489607D01*
X727742Y489907D01*
X727814Y490206D01*
X727825Y490286D01*
X727842Y490363D01*
X727877Y490669D01*
X727919Y490973D01*
X727921Y491053D01*
X727930Y491133D01*
X727934Y491440D01*
X727944Y491747D01*
X727938Y491827D01*
X727939Y491907D01*
X727910Y492213D01*
X727888Y492519D01*
X727875Y492598D01*
X727867Y492678D01*
X727807Y492980D01*
X727754Y493282D01*
X727732Y493359D01*
X727716Y493437D01*
X727626Y493731D01*
X727542Y494027D01*
X727512Y494101D01*
X727488Y494177D01*
X727368Y494460D01*
X727254Y494745D01*
X727216Y494816D01*
X727185Y494890D01*
X727036Y495159D01*
X726893Y495430D01*
X726849Y495497D01*
X726810Y495567D01*
X726634Y495820D01*
X726464Y496075D01*
X726422Y496123D01*
X726367Y496202D01*
X725953Y496681D01*
X723901Y501635D01*
X723901Y507429D01*
X723893Y507583D01*
X723895Y507737D01*
X723873Y507970D01*
X723861Y508203D01*
X723838Y508355D01*
X723823Y508508D01*
X723778Y508737D01*
X723742Y508968D01*
X723703Y509116D01*
X723673Y509267D01*
X723604Y509490D01*
X723544Y509716D01*
X723490Y509860D01*
X723444Y510007D01*
X723353Y510222D01*
X723270Y510441D01*
X723201Y510578D01*
X723141Y510719D01*
X723028Y510924D01*
X722923Y511133D01*
X722840Y511262D01*
X722766Y511397D01*
X722632Y511588D01*
X722506Y511785D01*
X722411Y511906D01*
X722323Y512032D01*
X722170Y512209D01*
X722025Y512392D01*
X721917Y512501D01*
X721817Y512618D01*
X721647Y512778D01*
X721483Y512945D01*
X721365Y513043D01*
X721253Y513148D01*
X721067Y513290D01*
X720887Y513439D01*
X720759Y513525D01*
X720637Y513618D01*
X720438Y513740D01*
X720244Y513870D01*
X720108Y513942D01*
X719977Y514022D01*
X719766Y514122D01*
X719559Y514232D01*
X719417Y514289D01*
X719278Y514355D01*
X719058Y514434D01*
X718841Y514521D01*
X718693Y514563D01*
X718548Y514615D01*
X718321Y514670D01*
X718097Y514735D01*
X717946Y514762D01*
X717796Y514798D01*
X717564Y514830D01*
X717334Y514870D01*
X717181Y514882D01*
X717029Y514902D01*
X716795Y514910D01*
X716562Y514927D01*
X716409Y514922D01*
X716255Y514927D01*
X716022Y514911D01*
X715788Y514904D01*
X715636Y514883D01*
X715483Y514872D01*
X715253Y514832D01*
X715021Y514800D01*
X714871Y514764D01*
X714720Y514738D01*
X714496Y514674D01*
X714268Y514619D01*
X714123Y514567D01*
X713975Y514525D01*
X713759Y514438D01*
X713538Y514360D01*
X713399Y514294D01*
X713257Y514237D01*
X713050Y514128D01*
X712839Y514028D01*
X712708Y513948D01*
X712571Y513877D01*
X712377Y513747D01*
X712177Y513625D01*
X712055Y513533D01*
X711927Y513447D01*
X711811Y513347D01*
X711561Y513157D01*
X711213Y512830D01*
X711099Y512732D01*
X707697Y509330D01*
X707648Y509275D01*
X707594Y509225D01*
X707389Y508988D01*
X707179Y508755D01*
X707135Y508696D01*
X707087Y508640D01*
X706907Y508383D01*
X706722Y508130D01*
X706685Y508066D01*
X706643Y508006D01*
X706490Y507731D01*
X706333Y507460D01*
X706303Y507394D01*
X706267Y507329D01*
X706143Y507040D01*
X706014Y506755D01*
X705991Y506685D01*
X705962Y506617D01*
X705869Y506317D01*
X705770Y506020D01*
X705754Y505948D01*
X705733Y505878D01*
X705671Y505570D01*
X705603Y505264D01*
X705595Y505191D01*
X705581Y505118D01*
X705570Y504968D01*
X705515Y504494D01*
X705512Y504181D01*
X705501Y504027D01*
X705501Y274000D01*
X705517Y273693D01*
X705526Y273386D01*
X705537Y273307D01*
X705541Y273227D01*
X705573Y273020D01*
X705588Y272923D01*
X705629Y272619D01*
X705648Y272541D01*
X705660Y272462D01*
X705738Y272165D01*
X705811Y271866D01*
X705838Y271790D01*
X705858Y271713D01*
X705966Y271427D01*
X706069Y271136D01*
X706104Y271064D01*
X706132Y270989D01*
X706269Y270715D01*
X706401Y270437D01*
X706443Y270368D01*
X706479Y270297D01*
X706644Y270038D01*
X706804Y269775D01*
X706852Y269712D01*
X706896Y269644D01*
X707086Y269404D01*
X707273Y269159D01*
X707327Y269100D01*
X707377Y269038D01*
X707592Y268818D01*
X707802Y268594D01*
X707863Y268542D01*
X707919Y268484D01*
X708156Y268288D01*
X708387Y268087D01*
X708453Y268041D01*
X708515Y267990D01*
X708770Y267819D01*
X709022Y267643D01*
X709092Y267604D01*
X709158Y267559D01*
X709430Y267416D01*
X709698Y267267D01*
X709772Y267235D01*
X709843Y267198D01*
X710128Y267083D01*
X710410Y266962D01*
X710487Y266938D01*
X710561Y266908D01*
X710856Y266824D01*
X711150Y266733D01*
X711228Y266717D01*
X711305Y266695D01*
X711607Y266641D01*
X711909Y266581D01*
X711973Y266576D01*
X712068Y266559D01*
X712840Y266502D01*
X712936Y266505D01*
X713000Y266501D01*
X716470Y266501D01*
X716544Y266505D01*
X716617Y266502D01*
X716930Y266525D01*
X717243Y266541D01*
X717316Y266552D01*
X717390Y266557D01*
X717699Y266612D01*
X718008Y266660D01*
X718080Y266679D01*
X718152Y266692D01*
X718454Y266778D01*
X718757Y266858D01*
X718826Y266884D01*
X718897Y266904D01*
X719189Y267021D01*
X719481Y267132D01*
X719547Y267165D01*
X719615Y267192D01*
X719893Y267338D01*
X720173Y267479D01*
X720236Y267519D01*
X720301Y267553D01*
X720561Y267727D01*
X720826Y267896D01*
X720884Y267941D01*
X720945Y267982D01*
X721059Y268080D01*
X721432Y268377D01*
X721656Y268597D01*
X721773Y268697D01*
X722871Y269796D01*
X735129Y269796D01*
X743796Y261129D01*
X743796Y248871D01*
X735129Y240204D01*
X722871Y240204D01*
X721773Y241303D01*
X721718Y241352D01*
X721668Y241406D01*
X721431Y241611D01*
X721198Y241821D01*
X721138Y241865D01*
X721083Y241913D01*
X720826Y242093D01*
X720572Y242278D01*
X720509Y242315D01*
X720448Y242357D01*
X720174Y242509D01*
X719903Y242667D01*
X719836Y242698D01*
X719772Y242733D01*
X719483Y242857D01*
X719197Y242986D01*
X719128Y243009D01*
X719060Y243038D01*
X718760Y243131D01*
X718463Y243230D01*
X718391Y243246D01*
X718320Y243267D01*
X718013Y243329D01*
X717706Y243397D01*
X717633Y243405D01*
X717561Y243419D01*
X717411Y243430D01*
X716937Y243485D01*
X716623Y243488D01*
X716470Y243499D01*
X701712Y243499D01*
X697485Y245250D01*
X696303Y246433D01*
X696189Y246535D01*
X696081Y246646D01*
X695901Y246795D01*
X695728Y246951D01*
X695604Y247042D01*
X695485Y247140D01*
X695291Y247270D01*
X695102Y247408D01*
X694969Y247485D01*
X694842Y247570D01*
X694635Y247680D01*
X694433Y247797D01*
X694293Y247860D01*
X694157Y247932D01*
X693940Y248020D01*
X693727Y248116D01*
X693581Y248164D01*
X693439Y248222D01*
X693214Y248286D01*
X692992Y248360D01*
X692842Y248393D01*
X692695Y248435D01*
X692465Y248476D01*
X692236Y248527D01*
X692084Y248544D01*
X691932Y248571D01*
X691699Y248588D01*
X691467Y248615D01*
X691313Y248616D01*
X691160Y248628D01*
X690927Y248620D01*
X690693Y248623D01*
X690540Y248609D01*
X690386Y248604D01*
X690154Y248573D01*
X689922Y248551D01*
X689771Y248521D01*
X689619Y248501D01*
X689391Y248446D01*
X689162Y248401D01*
X689016Y248355D01*
X688866Y248319D01*
X688646Y248241D01*
X688422Y248172D01*
X688281Y248112D01*
X688136Y248061D01*
X687925Y247961D01*
X687710Y247869D01*
X687576Y247795D01*
X687437Y247729D01*
X687237Y247607D01*
X687033Y247494D01*
X686907Y247406D01*
X686775Y247326D01*
X686589Y247185D01*
X686398Y247051D01*
X686281Y246950D01*
X686159Y246857D01*
X685989Y246698D01*
X685812Y246545D01*
X685706Y246433D01*
X685594Y246328D01*
X685441Y246151D01*
X685281Y245981D01*
X685188Y245859D01*
X685087Y245743D01*
X684953Y245551D01*
X684811Y245365D01*
X684731Y245234D01*
X684643Y245108D01*
X684529Y244904D01*
X684408Y244705D01*
X684341Y244566D01*
X684267Y244432D01*
X684175Y244217D01*
X684074Y244006D01*
X684023Y243861D01*
X683962Y243720D01*
X683893Y243496D01*
X683814Y243276D01*
X683778Y243127D01*
X683733Y242980D01*
X683687Y242751D01*
X683631Y242524D01*
X683611Y242372D01*
X683581Y242221D01*
X683569Y242068D01*
X683527Y241757D01*
X683512Y241280D01*
X683501Y241130D01*
X683501Y223870D01*
X683505Y223797D01*
X683502Y223723D01*
X683525Y223410D01*
X683541Y223097D01*
X683552Y223024D01*
X683557Y222951D01*
X683612Y222642D01*
X683660Y222332D01*
X683679Y222261D01*
X683692Y222188D01*
X683778Y221886D01*
X683858Y221583D01*
X683884Y221515D01*
X683904Y221443D01*
X684021Y221151D01*
X684132Y220859D01*
X684165Y220793D01*
X684192Y220725D01*
X684338Y220447D01*
X684479Y220167D01*
X684519Y220105D01*
X684553Y220040D01*
X684727Y219779D01*
X684896Y219514D01*
X684941Y219456D01*
X684982Y219395D01*
X685080Y219282D01*
X685377Y218908D01*
X685597Y218684D01*
X685697Y218567D01*
X702567Y201697D01*
X702622Y201648D01*
X702672Y201594D01*
X702909Y201389D01*
X703142Y201179D01*
X703202Y201135D01*
X703257Y201087D01*
X703514Y200907D01*
X703768Y200722D01*
X703832Y200685D01*
X703892Y200643D01*
X704166Y200491D01*
X704437Y200333D01*
X704504Y200302D01*
X704568Y200267D01*
X704857Y200143D01*
X705143Y200014D01*
X705213Y199991D01*
X705280Y199962D01*
X705580Y199869D01*
X705878Y199770D01*
X705950Y199754D01*
X706020Y199733D01*
X706327Y199671D01*
X706634Y199603D01*
X706707Y199595D01*
X706779Y199581D01*
X706929Y199570D01*
X707403Y199515D01*
X707717Y199512D01*
X707870Y199501D01*
X715470Y199501D01*
X715544Y199505D01*
X715617Y199502D01*
X715930Y199525D01*
X716243Y199541D01*
X716316Y199552D01*
X716390Y199557D01*
X716699Y199612D01*
X717008Y199660D01*
X717080Y199679D01*
X717152Y199692D01*
X717454Y199778D01*
X717757Y199858D01*
X717826Y199884D01*
X717897Y199904D01*
X718189Y200021D01*
X718481Y200132D01*
X718547Y200165D01*
X718615Y200192D01*
X718893Y200338D01*
X719173Y200479D01*
X719236Y200519D01*
X719301Y200553D01*
X719561Y200727D01*
X719826Y200896D01*
X719884Y200941D01*
X719945Y200982D01*
X720059Y201080D01*
X720432Y201377D01*
X720656Y201597D01*
X720773Y201697D01*
X721871Y202796D01*
X734129Y202796D01*
X742796Y194129D01*
X742796Y181871D01*
X734129Y173204D01*
X721871Y173204D01*
X720773Y174303D01*
X720718Y174352D01*
X720668Y174406D01*
X720431Y174611D01*
X720198Y174821D01*
X720138Y174865D01*
X720083Y174913D01*
X719826Y175093D01*
X719572Y175278D01*
X719509Y175315D01*
X719448Y175357D01*
X719174Y175509D01*
X718903Y175667D01*
X718836Y175698D01*
X718772Y175733D01*
X718483Y175857D01*
X718197Y175986D01*
X718128Y176009D01*
X718060Y176038D01*
X717760Y176131D01*
X717463Y176230D01*
X717391Y176246D01*
X717320Y176267D01*
X717013Y176329D01*
X716706Y176397D01*
X716633Y176405D01*
X716561Y176419D01*
X716411Y176430D01*
X715937Y176485D01*
X715623Y176488D01*
X715470Y176499D01*
X697712Y176499D01*
X693485Y178250D01*
X674303Y197433D01*
X674189Y197536D01*
X674081Y197646D01*
X673901Y197795D01*
X673728Y197951D01*
X673604Y198042D01*
X673485Y198140D01*
X673291Y198270D01*
X673102Y198408D01*
X672969Y198485D01*
X672842Y198570D01*
X672635Y198680D01*
X672433Y198797D01*
X672293Y198860D01*
X672157Y198932D01*
X671940Y199020D01*
X671727Y199116D01*
X671582Y199164D01*
X671439Y199222D01*
X671214Y199286D01*
X670992Y199360D01*
X670842Y199393D01*
X670695Y199435D01*
X670465Y199476D01*
X670236Y199527D01*
X670084Y199544D01*
X669932Y199571D01*
X669699Y199588D01*
X669467Y199615D01*
X669313Y199616D01*
X669160Y199628D01*
X668927Y199620D01*
X668693Y199623D01*
X668540Y199609D01*
X668386Y199604D01*
X668154Y199573D01*
X667922Y199551D01*
X667771Y199521D01*
X667619Y199501D01*
X667391Y199446D01*
X667162Y199401D01*
X667016Y199355D01*
X666866Y199319D01*
X666646Y199241D01*
X666422Y199172D01*
X666281Y199112D01*
X666136Y199061D01*
X665925Y198960D01*
X665710Y198869D01*
X665576Y198795D01*
X665437Y198729D01*
X665237Y198607D01*
X665033Y198494D01*
X664907Y198406D01*
X664775Y198326D01*
X664589Y198185D01*
X664398Y198051D01*
X664281Y197950D01*
X664159Y197857D01*
X663988Y197697D01*
X663812Y197545D01*
X663706Y197433D01*
X663594Y197328D01*
X663441Y197151D01*
X663281Y196981D01*
X663188Y196859D01*
X663087Y196743D01*
X662953Y196551D01*
X662811Y196365D01*
X662731Y196234D01*
X662643Y196108D01*
X662530Y195904D01*
X662408Y195705D01*
X662341Y195566D01*
X662267Y195432D01*
X662175Y195217D01*
X662074Y195006D01*
X662023Y194861D01*
X661962Y194720D01*
X661893Y194496D01*
X661814Y194276D01*
X661778Y194127D01*
X661733Y193980D01*
X661687Y193751D01*
X661631Y193524D01*
X661611Y193372D01*
X661581Y193221D01*
X661569Y193067D01*
X661527Y192757D01*
X661512Y192280D01*
X661501Y192130D01*
X661501Y176870D01*
X661505Y176797D01*
X661502Y176723D01*
X661525Y176410D01*
X661541Y176097D01*
X661552Y176024D01*
X661557Y175951D01*
X661612Y175642D01*
X661660Y175332D01*
X661679Y175261D01*
X661692Y175188D01*
X661778Y174886D01*
X661858Y174583D01*
X661884Y174515D01*
X661904Y174443D01*
X662021Y174151D01*
X662132Y173859D01*
X662165Y173793D01*
X662192Y173725D01*
X662338Y173447D01*
X662479Y173167D01*
X662519Y173105D01*
X662553Y173040D01*
X662727Y172779D01*
X662896Y172514D01*
X662941Y172456D01*
X662982Y172395D01*
X663080Y172282D01*
X663377Y171908D01*
X663597Y171684D01*
X663697Y171567D01*
X695567Y139697D01*
X695622Y139648D01*
X695672Y139594D01*
X695909Y139389D01*
X696142Y139179D01*
X696202Y139135D01*
X696257Y139087D01*
X696514Y138907D01*
X696768Y138722D01*
X696832Y138685D01*
X696892Y138643D01*
X697166Y138491D01*
X697437Y138333D01*
X697504Y138302D01*
X697568Y138267D01*
X697857Y138143D01*
X698143Y138014D01*
X698213Y137991D01*
X698280Y137962D01*
X698580Y137869D01*
X698878Y137770D01*
X698950Y137754D01*
X699020Y137733D01*
X699327Y137671D01*
X699634Y137603D01*
X699707Y137595D01*
X699779Y137581D01*
X699929Y137570D01*
X700403Y137515D01*
X700717Y137512D01*
X700870Y137501D01*
X715470Y137501D01*
X715544Y137505D01*
X715617Y137502D01*
X715930Y137525D01*
X716243Y137541D01*
X716316Y137552D01*
X716390Y137557D01*
X716699Y137612D01*
X717008Y137660D01*
X717080Y137679D01*
X717152Y137692D01*
X717454Y137778D01*
X717757Y137858D01*
X717826Y137884D01*
X717897Y137904D01*
X718189Y138021D01*
X718481Y138132D01*
X718547Y138165D01*
X718615Y138192D01*
X718893Y138338D01*
X719173Y138479D01*
X719236Y138519D01*
X719301Y138553D01*
X719561Y138727D01*
X719826Y138896D01*
X719884Y138941D01*
X719945Y138982D01*
X720059Y139080D01*
X720432Y139377D01*
X720656Y139597D01*
X720773Y139697D01*
X721871Y140796D01*
X734129Y140796D01*
X742796Y132129D01*
X742796Y119871D01*
X734129Y111204D01*
X721871Y111204D01*
X720773Y112303D01*
X720718Y112352D01*
X720668Y112406D01*
X720431Y112611D01*
X720198Y112821D01*
X720138Y112865D01*
X720083Y112913D01*
X719826Y113093D01*
X719572Y113278D01*
X719509Y113315D01*
X719448Y113357D01*
X719174Y113509D01*
X718903Y113667D01*
X718836Y113698D01*
X718772Y113733D01*
X718483Y113857D01*
X718197Y113986D01*
X718128Y114009D01*
X718060Y114038D01*
X717760Y114131D01*
X717463Y114230D01*
X717391Y114246D01*
X717320Y114267D01*
X717013Y114329D01*
X716706Y114397D01*
X716633Y114405D01*
X716561Y114419D01*
X716411Y114430D01*
X715937Y114485D01*
X715623Y114488D01*
X715470Y114499D01*
X690712Y114499D01*
X686485Y116250D01*
X640250Y162485D01*
X638499Y166712D01*
X638499Y178130D01*
X638491Y178283D01*
X638493Y178437D01*
X638471Y178670D01*
X638459Y178903D01*
X638436Y179055D01*
X638421Y179208D01*
X638376Y179437D01*
X638340Y179668D01*
X638301Y179817D01*
X638271Y179968D01*
X638202Y180191D01*
X638142Y180417D01*
X638088Y180560D01*
X638042Y180708D01*
X637951Y180923D01*
X637868Y181141D01*
X637799Y181278D01*
X637739Y181420D01*
X637626Y181625D01*
X637521Y181833D01*
X637438Y181963D01*
X637364Y182097D01*
X637230Y182289D01*
X637104Y182486D01*
X637009Y182606D01*
X636921Y182732D01*
X636768Y182909D01*
X636623Y183092D01*
X636515Y183202D01*
X636415Y183318D01*
X636245Y183478D01*
X636081Y183646D01*
X635963Y183744D01*
X635851Y183849D01*
X635665Y183991D01*
X635485Y184140D01*
X635357Y184226D01*
X635235Y184319D01*
X635036Y184441D01*
X634842Y184570D01*
X634706Y184642D01*
X634575Y184722D01*
X634364Y184823D01*
X634157Y184932D01*
X634014Y184990D01*
X633876Y185056D01*
X633656Y185134D01*
X633439Y185222D01*
X633291Y185264D01*
X633146Y185316D01*
X632919Y185371D01*
X632695Y185435D01*
X632544Y185462D01*
X632394Y185499D01*
X632162Y185530D01*
X631932Y185571D01*
X631779Y185582D01*
X631627Y185603D01*
X631393Y185610D01*
X631160Y185628D01*
X631007Y185623D01*
X630853Y185628D01*
X630620Y185611D01*
X630386Y185604D01*
X630234Y185584D01*
X630081Y185573D01*
X629851Y185532D01*
X629619Y185501D01*
X629469Y185465D01*
X629318Y185438D01*
X629094Y185374D01*
X628866Y185319D01*
X628721Y185268D01*
X628573Y185226D01*
X628356Y185139D01*
X628136Y185061D01*
X627997Y184995D01*
X627855Y184938D01*
X627648Y184829D01*
X627437Y184729D01*
X627306Y184649D01*
X627169Y184577D01*
X626975Y184448D01*
X626775Y184326D01*
X626653Y184233D01*
X626525Y184148D01*
X626409Y184047D01*
X626159Y183857D01*
X625811Y183531D01*
X625697Y183433D01*
X568992Y126728D01*
X568943Y126673D01*
X568889Y126623D01*
X568684Y126386D01*
X568474Y126153D01*
X568430Y126093D01*
X568382Y126038D01*
X568202Y125781D01*
X568017Y125527D01*
X567980Y125463D01*
X567938Y125403D01*
X567786Y125129D01*
X567628Y124858D01*
X567597Y124791D01*
X567562Y124727D01*
X567438Y124438D01*
X567309Y124152D01*
X567286Y124082D01*
X567257Y124015D01*
X567164Y123715D01*
X567065Y123417D01*
X567049Y123345D01*
X567028Y123275D01*
X566966Y122968D01*
X566898Y122661D01*
X566890Y122588D01*
X566876Y122516D01*
X566865Y122366D01*
X566810Y121892D01*
X566807Y121578D01*
X566796Y121425D01*
X566796Y119871D01*
X558129Y111204D01*
X545871Y111204D01*
X537204Y119871D01*
X537204Y132129D01*
X545871Y140796D01*
X547425Y140796D01*
X547498Y140800D01*
X547572Y140797D01*
X547885Y140820D01*
X548198Y140836D01*
X548271Y140847D01*
X548344Y140852D01*
X548653Y140907D01*
X548963Y140955D01*
X549034Y140974D01*
X549107Y140987D01*
X549409Y141073D01*
X549712Y141153D01*
X549780Y141179D01*
X549852Y141199D01*
X550144Y141316D01*
X550436Y141427D01*
X550502Y141460D01*
X550570Y141487D01*
X550848Y141633D01*
X551128Y141774D01*
X551190Y141814D01*
X551255Y141848D01*
X551516Y142022D01*
X551781Y142191D01*
X551839Y142236D01*
X551900Y142277D01*
X552013Y142375D01*
X552387Y142672D01*
X552611Y142892D01*
X552728Y142992D01*
X614303Y204567D01*
X614352Y204622D01*
X614406Y204672D01*
X614611Y204909D01*
X614821Y205142D01*
X614865Y205202D01*
X614913Y205257D01*
X615093Y205514D01*
X615278Y205768D01*
X615315Y205832D01*
X615357Y205892D01*
X615509Y206166D01*
X615667Y206437D01*
X615698Y206504D01*
X615733Y206568D01*
X615857Y206857D01*
X615986Y207143D01*
X616009Y207213D01*
X616038Y207280D01*
X616131Y207580D01*
X616230Y207878D01*
X616246Y207950D01*
X616267Y208020D01*
X616329Y208326D01*
X616397Y208634D01*
X616405Y208707D01*
X616419Y208779D01*
X616430Y208929D01*
X616485Y209403D01*
X616488Y209717D01*
X616499Y209870D01*
X616499Y221130D01*
X616491Y221283D01*
X616493Y221437D01*
X616471Y221670D01*
X616459Y221903D01*
X616436Y222055D01*
X616421Y222208D01*
X616376Y222437D01*
X616340Y222668D01*
X616301Y222817D01*
X616271Y222968D01*
X616202Y223191D01*
X616142Y223417D01*
X616088Y223560D01*
X616042Y223708D01*
X615951Y223923D01*
X615868Y224141D01*
X615799Y224278D01*
X615739Y224420D01*
X615626Y224625D01*
X615521Y224833D01*
X615438Y224963D01*
X615364Y225097D01*
X615230Y225289D01*
X615104Y225486D01*
X615009Y225606D01*
X614921Y225732D01*
X614768Y225909D01*
X614623Y226092D01*
X614515Y226202D01*
X614415Y226318D01*
X614245Y226478D01*
X614081Y226646D01*
X613963Y226744D01*
X613851Y226849D01*
X613665Y226991D01*
X613485Y227140D01*
X613357Y227226D01*
X613235Y227319D01*
X613036Y227441D01*
X612842Y227570D01*
X612706Y227642D01*
X612575Y227722D01*
X612364Y227823D01*
X612157Y227932D01*
X612014Y227990D01*
X611876Y228056D01*
X611656Y228134D01*
X611439Y228222D01*
X611291Y228264D01*
X611146Y228316D01*
X610919Y228371D01*
X610695Y228435D01*
X610544Y228462D01*
X610394Y228499D01*
X610162Y228530D01*
X609932Y228571D01*
X609779Y228582D01*
X609627Y228603D01*
X609393Y228610D01*
X609160Y228628D01*
X609007Y228623D01*
X608853Y228628D01*
X608620Y228611D01*
X608386Y228604D01*
X608234Y228584D01*
X608081Y228573D01*
X607851Y228532D01*
X607619Y228501D01*
X607469Y228465D01*
X607318Y228438D01*
X607094Y228374D01*
X606866Y228319D01*
X606721Y228268D01*
X606573Y228226D01*
X606356Y228139D01*
X606136Y228061D01*
X605997Y227995D01*
X605855Y227938D01*
X605648Y227829D01*
X605437Y227729D01*
X605306Y227649D01*
X605169Y227577D01*
X604975Y227448D01*
X604775Y227326D01*
X604653Y227233D01*
X604525Y227148D01*
X604409Y227047D01*
X604159Y226857D01*
X603811Y226531D01*
X603697Y226433D01*
X569992Y192728D01*
X569943Y192673D01*
X569889Y192623D01*
X569684Y192386D01*
X569474Y192153D01*
X569430Y192093D01*
X569382Y192038D01*
X569202Y191781D01*
X569017Y191527D01*
X568980Y191463D01*
X568938Y191403D01*
X568786Y191129D01*
X568628Y190858D01*
X568597Y190791D01*
X568562Y190727D01*
X568438Y190438D01*
X568309Y190152D01*
X568286Y190082D01*
X568257Y190015D01*
X568164Y189715D01*
X568065Y189417D01*
X568049Y189345D01*
X568028Y189275D01*
X567966Y188967D01*
X567898Y188661D01*
X567890Y188588D01*
X567876Y188516D01*
X567865Y188366D01*
X567810Y187892D01*
X567807Y187578D01*
X567796Y187425D01*
X567796Y185871D01*
X559129Y177204D01*
X546871Y177204D01*
X538204Y185871D01*
X538204Y198129D01*
X546871Y206796D01*
X548425Y206796D01*
X548498Y206800D01*
X548572Y206797D01*
X548885Y206820D01*
X549198Y206836D01*
X549271Y206847D01*
X549344Y206852D01*
X549653Y206907D01*
X549963Y206955D01*
X550034Y206974D01*
X550107Y206987D01*
X550409Y207073D01*
X550712Y207153D01*
X550780Y207179D01*
X550852Y207199D01*
X551144Y207316D01*
X551436Y207427D01*
X551502Y207460D01*
X551570Y207487D01*
X551848Y207633D01*
X552128Y207774D01*
X552190Y207814D01*
X552255Y207848D01*
X552516Y208022D01*
X552781Y208191D01*
X552839Y208236D01*
X552900Y208277D01*
X553013Y208375D01*
X553387Y208672D01*
X553611Y208892D01*
X553728Y208992D01*
X614303Y269567D01*
X614352Y269622D01*
X614406Y269672D01*
X614611Y269909D01*
X614821Y270142D01*
X614865Y270202D01*
X614913Y270257D01*
X615093Y270514D01*
X615278Y270768D01*
X615315Y270832D01*
X615357Y270892D01*
X615509Y271166D01*
X615667Y271437D01*
X615698Y271504D01*
X615733Y271568D01*
X615857Y271857D01*
X615986Y272143D01*
X616009Y272213D01*
X616038Y272280D01*
X616131Y272580D01*
X616230Y272878D01*
X616246Y272950D01*
X616267Y273020D01*
X616329Y273327D01*
X616397Y273634D01*
X616405Y273707D01*
X616419Y273779D01*
X616430Y273929D01*
X616485Y274403D01*
X616488Y274717D01*
X616499Y274870D01*
X616499Y288130D01*
X616491Y288283D01*
X616493Y288437D01*
X616471Y288670D01*
X616459Y288903D01*
X616436Y289055D01*
X616421Y289208D01*
X616376Y289437D01*
X616340Y289668D01*
X616301Y289817D01*
X616271Y289968D01*
X616202Y290191D01*
X616142Y290417D01*
X616088Y290560D01*
X616042Y290708D01*
X615951Y290923D01*
X615868Y291141D01*
X615799Y291279D01*
X615739Y291420D01*
X615626Y291624D01*
X615521Y291833D01*
X615438Y291963D01*
X615364Y292097D01*
X615230Y292289D01*
X615104Y292486D01*
X615009Y292606D01*
X614921Y292732D01*
X614768Y292909D01*
X614623Y293092D01*
X614515Y293202D01*
X614415Y293318D01*
X614245Y293478D01*
X614081Y293646D01*
X613963Y293744D01*
X613851Y293849D01*
X613666Y293990D01*
X613485Y294140D01*
X613357Y294226D01*
X613235Y294319D01*
X613036Y294441D01*
X612842Y294570D01*
X612706Y294642D01*
X612575Y294722D01*
X612364Y294823D01*
X612157Y294932D01*
X612014Y294990D01*
X611876Y295056D01*
X611656Y295134D01*
X611439Y295222D01*
X611291Y295264D01*
X611146Y295316D01*
X610919Y295371D01*
X610695Y295435D01*
X610544Y295462D01*
X610394Y295499D01*
X610162Y295530D01*
X609932Y295571D01*
X609779Y295582D01*
X609627Y295603D01*
X609393Y295610D01*
X609160Y295628D01*
X609007Y295623D01*
X608853Y295628D01*
X608620Y295611D01*
X608386Y295604D01*
X608234Y295584D01*
X608081Y295573D01*
X607851Y295532D01*
X607619Y295501D01*
X607469Y295465D01*
X607318Y295438D01*
X607094Y295374D01*
X606866Y295319D01*
X606721Y295268D01*
X606573Y295226D01*
X606356Y295139D01*
X606136Y295061D01*
X605997Y294995D01*
X605855Y294938D01*
X605648Y294829D01*
X605437Y294729D01*
X605305Y294649D01*
X605170Y294577D01*
X604975Y294448D01*
X604775Y294326D01*
X604653Y294233D01*
X604525Y294148D01*
X604409Y294047D01*
X604159Y293857D01*
X603811Y293531D01*
X603697Y293433D01*
X570992Y260728D01*
X570943Y260673D01*
X570889Y260623D01*
X570684Y260386D01*
X570474Y260153D01*
X570430Y260093D01*
X570382Y260038D01*
X570202Y259781D01*
X570017Y259527D01*
X569980Y259463D01*
X569938Y259403D01*
X569786Y259129D01*
X569628Y258858D01*
X569597Y258791D01*
X569562Y258727D01*
X569438Y258438D01*
X569309Y258152D01*
X569286Y258082D01*
X569257Y258015D01*
X569164Y257715D01*
X569065Y257417D01*
X569049Y257345D01*
X569028Y257275D01*
X568966Y256968D01*
X568898Y256661D01*
X568890Y256588D01*
X568876Y256516D01*
X568865Y256366D01*
X568810Y255892D01*
X568807Y255578D01*
X568796Y255425D01*
X568796Y253871D01*
X560129Y245204D01*
X547871Y245204D01*
X539204Y253871D01*
X539204Y266129D01*
X547871Y274796D01*
X549425Y274796D01*
X549498Y274800D01*
X549572Y274797D01*
X549885Y274820D01*
X550198Y274836D01*
X550271Y274847D01*
X550344Y274852D01*
X550654Y274907D01*
X550963Y274955D01*
X551034Y274974D01*
X551107Y274987D01*
X551409Y275073D01*
X551712Y275153D01*
X551780Y275179D01*
X551852Y275199D01*
X552144Y275316D01*
X552436Y275427D01*
X552502Y275460D01*
X552570Y275487D01*
X552848Y275633D01*
X553128Y275774D01*
X553190Y275814D01*
X553255Y275848D01*
X553516Y276022D01*
X553781Y276191D01*
X553839Y276236D01*
X553900Y276277D01*
X554014Y276375D01*
X554387Y276672D01*
X554611Y276892D01*
X554728Y276992D01*
X566233Y288497D01*
X566336Y288611D01*
X566446Y288719D01*
X566595Y288899D01*
X566751Y289072D01*
X566842Y289196D01*
X566940Y289315D01*
X567070Y289509D01*
X567208Y289698D01*
X567285Y289831D01*
X567370Y289958D01*
X567480Y290165D01*
X567597Y290367D01*
X567660Y290507D01*
X567732Y290643D01*
X567820Y290860D01*
X567916Y291073D01*
X567964Y291219D01*
X568022Y291361D01*
X568086Y291586D01*
X568160Y291808D01*
X568193Y291958D01*
X568235Y292105D01*
X568276Y292335D01*
X568327Y292564D01*
X568344Y292716D01*
X568371Y292868D01*
X568388Y293101D01*
X568415Y293333D01*
X568416Y293487D01*
X568428Y293640D01*
X568420Y293873D01*
X568423Y294107D01*
X568409Y294260D01*
X568404Y294414D01*
X568373Y294646D01*
X568351Y294878D01*
X568321Y295029D01*
X568301Y295181D01*
X568246Y295409D01*
X568201Y295638D01*
X568155Y295784D01*
X568119Y295934D01*
X568041Y296154D01*
X567972Y296378D01*
X567912Y296519D01*
X567861Y296664D01*
X567760Y296875D01*
X567669Y297090D01*
X567595Y297224D01*
X567529Y297363D01*
X567407Y297563D01*
X567294Y297767D01*
X567206Y297894D01*
X567126Y298025D01*
X566985Y298211D01*
X566851Y298402D01*
X566750Y298519D01*
X566657Y298641D01*
X566497Y298812D01*
X566345Y298988D01*
X566233Y299094D01*
X566128Y299206D01*
X565951Y299359D01*
X565781Y299519D01*
X565659Y299612D01*
X565543Y299713D01*
X565351Y299847D01*
X565165Y299989D01*
X565034Y300069D01*
X564908Y300157D01*
X564704Y300271D01*
X564505Y300392D01*
X564366Y300459D01*
X564232Y300533D01*
X564017Y300625D01*
X563806Y300726D01*
X563661Y300777D01*
X563520Y300838D01*
X563296Y300907D01*
X563076Y300986D01*
X562927Y301022D01*
X562780Y301067D01*
X562551Y301113D01*
X562324Y301169D01*
X562172Y301189D01*
X562021Y301219D01*
X561868Y301231D01*
X561557Y301273D01*
X561080Y301288D01*
X560930Y301299D01*
X412839Y301299D01*
X412608Y301287D01*
X412378Y301285D01*
X412222Y301267D01*
X412065Y301259D01*
X411838Y301224D01*
X411608Y301198D01*
X411455Y301164D01*
X411300Y301140D01*
X411078Y301081D01*
X410852Y301031D01*
X410703Y300982D01*
X410552Y300942D01*
X410336Y300861D01*
X410117Y300788D01*
X409974Y300724D01*
X409828Y300668D01*
X409621Y300565D01*
X409411Y300470D01*
X409276Y300391D01*
X409135Y300321D01*
X408941Y300197D01*
X408741Y300081D01*
X408615Y299989D01*
X408483Y299904D01*
X408302Y299761D01*
X408116Y299625D01*
X407999Y299520D01*
X407876Y299423D01*
X407712Y299261D01*
X407540Y299107D01*
X407435Y298991D01*
X407323Y298881D01*
X407176Y298704D01*
X407021Y298532D01*
X406929Y298406D01*
X406829Y298285D01*
X406700Y298094D01*
X406564Y297907D01*
X406485Y297772D01*
X406398Y297642D01*
X406290Y297438D01*
X406174Y297238D01*
X406110Y297096D01*
X406036Y296957D01*
X405950Y296743D01*
X405855Y296533D01*
X405806Y296384D01*
X405747Y296239D01*
X405683Y296017D01*
X405611Y295798D01*
X405577Y295645D01*
X405533Y295495D01*
X405493Y295268D01*
X405443Y295042D01*
X405427Y294899D01*
X395000Y294899D01*
X386306Y294899D01*
X386396Y295029D01*
X386493Y295208D01*
X386600Y295382D01*
X386679Y295548D01*
X386767Y295709D01*
X386845Y295897D01*
X386933Y296081D01*
X386995Y296254D01*
X387066Y296423D01*
X387124Y296619D01*
X387193Y296811D01*
X387236Y296989D01*
X387289Y297165D01*
X387328Y297365D01*
X387376Y297563D01*
X387401Y297745D01*
X387435Y297925D01*
X387453Y298128D01*
X387480Y298330D01*
X387486Y298513D01*
X387502Y298696D01*
X387499Y298900D01*
X387505Y299104D01*
X387492Y299287D01*
X387489Y299471D01*
X387464Y299673D01*
X387450Y299876D01*
X387418Y300057D01*
X387396Y300239D01*
X387351Y300438D01*
X387315Y300639D01*
X387265Y300815D01*
X387224Y300994D01*
X387159Y301188D01*
X387103Y301384D01*
X387035Y301554D01*
X386976Y301728D01*
X386891Y301913D01*
X386815Y302102D01*
X386730Y302265D01*
X386653Y302431D01*
X386549Y302607D01*
X386454Y302788D01*
X386353Y302940D01*
X386259Y303098D01*
X386138Y303263D01*
X386025Y303432D01*
X385939Y303531D01*
X385799Y303721D01*
X385364Y304197D01*
X385310Y304260D01*
X384167Y305403D01*
X384072Y305498D01*
X382109Y310236D01*
X382109Y315364D01*
X384072Y320102D01*
X387698Y323728D01*
X392436Y325691D01*
X397564Y325691D01*
X399542Y324872D01*
X399683Y324821D01*
X399822Y324762D01*
X400048Y324692D01*
X400271Y324613D01*
X400418Y324577D01*
X400561Y324533D01*
X400794Y324486D01*
X401024Y324430D01*
X401173Y324410D01*
X401321Y324381D01*
X401475Y324369D01*
X401791Y324326D01*
X402260Y324312D01*
X402412Y324301D01*
X404130Y324301D01*
X404283Y324309D01*
X404437Y324307D01*
X404670Y324329D01*
X404903Y324341D01*
X405055Y324364D01*
X405208Y324379D01*
X405437Y324424D01*
X405668Y324460D01*
X405817Y324499D01*
X405968Y324529D01*
X406191Y324598D01*
X406417Y324658D01*
X406560Y324712D01*
X406708Y324758D01*
X406923Y324849D01*
X407141Y324932D01*
X407278Y325001D01*
X407420Y325061D01*
X407625Y325174D01*
X407833Y325279D01*
X407963Y325362D01*
X408097Y325436D01*
X408289Y325570D01*
X408486Y325696D01*
X408606Y325791D01*
X408732Y325879D01*
X408909Y326032D01*
X409092Y326177D01*
X409202Y326285D01*
X409318Y326385D01*
X409478Y326555D01*
X409646Y326719D01*
X409744Y326837D01*
X409849Y326949D01*
X409991Y327135D01*
X410140Y327315D01*
X410226Y327443D01*
X410319Y327565D01*
X410441Y327764D01*
X410570Y327958D01*
X410642Y328094D01*
X410722Y328225D01*
X410823Y328436D01*
X410932Y328643D01*
X410990Y328786D01*
X411056Y328924D01*
X411134Y329144D01*
X411222Y329361D01*
X411264Y329509D01*
X411316Y329654D01*
X411371Y329881D01*
X411435Y330105D01*
X411462Y330256D01*
X411499Y330406D01*
X411530Y330638D01*
X411571Y330868D01*
X411582Y331021D01*
X411603Y331173D01*
X411610Y331407D01*
X411628Y331640D01*
X411623Y331793D01*
X411628Y331947D01*
X411611Y332180D01*
X411604Y332414D01*
X411584Y332566D01*
X411573Y332719D01*
X411532Y332949D01*
X411501Y333181D01*
X411465Y333331D01*
X411438Y333482D01*
X411374Y333706D01*
X411319Y333934D01*
X411268Y334079D01*
X411226Y334227D01*
X411139Y334444D01*
X411061Y334664D01*
X410995Y334803D01*
X410938Y334945D01*
X410829Y335152D01*
X410729Y335363D01*
X410649Y335494D01*
X410577Y335631D01*
X410448Y335825D01*
X410326Y336025D01*
X410233Y336147D01*
X410148Y336275D01*
X410047Y336391D01*
X409857Y336641D01*
X409531Y336989D01*
X409433Y337103D01*
X389233Y357303D01*
X389178Y357352D01*
X389128Y357406D01*
X388891Y357611D01*
X388658Y357821D01*
X388598Y357865D01*
X388543Y357913D01*
X388286Y358093D01*
X388032Y358278D01*
X387968Y358315D01*
X387908Y358357D01*
X387634Y358509D01*
X387363Y358667D01*
X387296Y358698D01*
X387232Y358733D01*
X386943Y358857D01*
X386657Y358986D01*
X386587Y359009D01*
X386520Y359038D01*
X386220Y359131D01*
X385922Y359230D01*
X385850Y359246D01*
X385780Y359267D01*
X385472Y359329D01*
X385166Y359397D01*
X385093Y359405D01*
X385021Y359419D01*
X384871Y359430D01*
X384397Y359485D01*
X384083Y359488D01*
X383930Y359499D01*
X354530Y359499D01*
X354456Y359495D01*
X354383Y359498D01*
X354348Y359495D01*
X354070Y359475D01*
X353775Y359460D01*
X353757Y359459D01*
X353731Y359455D01*
X353684Y359448D01*
X353610Y359443D01*
X353301Y359388D01*
X353165Y359367D01*
X352992Y359340D01*
X352920Y359321D01*
X352848Y359308D01*
X352546Y359222D01*
X352243Y359142D01*
X352174Y359116D01*
X352103Y359096D01*
X351812Y358979D01*
X351519Y358868D01*
X351453Y358835D01*
X351385Y358808D01*
X351107Y358662D01*
X350827Y358521D01*
X350764Y358481D01*
X350699Y358447D01*
X350438Y358273D01*
X350174Y358104D01*
X350116Y358059D01*
X350055Y358018D01*
X349941Y357919D01*
X349568Y357623D01*
X349343Y357403D01*
X349227Y357303D01*
X348129Y356204D01*
X335871Y356204D01*
X327204Y364871D01*
X327204Y377129D01*
X335871Y385796D01*
X348129Y385796D01*
X349227Y384697D01*
X349282Y384648D01*
X349332Y384594D01*
X349570Y384388D01*
X349802Y384179D01*
X349861Y384135D01*
X349917Y384087D01*
X350174Y383907D01*
X350428Y383722D01*
X350491Y383685D01*
X350552Y383643D01*
X350826Y383490D01*
X351097Y383333D01*
X351164Y383303D01*
X351228Y383267D01*
X351517Y383143D01*
X351803Y383014D01*
X351838Y383002D01*
X351872Y382991D01*
X351940Y382962D01*
X352240Y382869D01*
X352537Y382770D01*
X352609Y382754D01*
X352680Y382733D01*
X352987Y382671D01*
X353293Y382603D01*
X353367Y382595D01*
X353439Y382581D01*
X353589Y382570D01*
X354063Y382515D01*
X354377Y382512D01*
X354530Y382501D01*
X394088Y382501D01*
X398315Y380750D01*
X452567Y326497D01*
X452622Y326448D01*
X452672Y326394D01*
X452909Y326189D01*
X453142Y325979D01*
X453202Y325935D01*
X453257Y325887D01*
X453514Y325707D01*
X453768Y325522D01*
X453832Y325485D01*
X453892Y325443D01*
X454166Y325291D01*
X454437Y325133D01*
X454504Y325102D01*
X454568Y325067D01*
X454857Y324943D01*
X455143Y324814D01*
X455213Y324791D01*
X455280Y324762D01*
X455580Y324669D01*
X455878Y324570D01*
X455950Y324554D01*
X456020Y324533D01*
X456327Y324471D01*
X456634Y324403D01*
X456707Y324395D01*
X456779Y324381D01*
X456929Y324370D01*
X457403Y324315D01*
X457717Y324312D01*
X457870Y324301D01*
X463330Y324301D01*
X463483Y324309D01*
X463637Y324307D01*
X463870Y324329D01*
X464103Y324341D01*
X464255Y324364D01*
X464408Y324379D01*
X464637Y324424D01*
X464868Y324460D01*
X465017Y324499D01*
X465168Y324529D01*
X465391Y324598D01*
X465617Y324658D01*
X465760Y324712D01*
X465908Y324758D01*
X466123Y324849D01*
X466341Y324932D01*
X466478Y325001D01*
X466620Y325061D01*
X466825Y325174D01*
X467033Y325279D01*
X467163Y325362D01*
X467297Y325436D01*
X467489Y325570D01*
X467686Y325696D01*
X467806Y325791D01*
X467932Y325879D01*
X468109Y326032D01*
X468292Y326177D01*
X468402Y326285D01*
X468518Y326385D01*
X468678Y326555D01*
X468846Y326719D01*
X468944Y326837D01*
X469049Y326949D01*
X469191Y327135D01*
X469340Y327315D01*
X469426Y327443D01*
X469519Y327565D01*
X469641Y327764D01*
X469770Y327958D01*
X469842Y328094D01*
X469922Y328225D01*
X470023Y328436D01*
X470132Y328643D01*
X470190Y328786D01*
X470256Y328924D01*
X470334Y329144D01*
X470422Y329361D01*
X470464Y329509D01*
X470516Y329654D01*
X470571Y329881D01*
X470635Y330105D01*
X470662Y330256D01*
X470699Y330406D01*
X470730Y330638D01*
X470771Y330868D01*
X470782Y331021D01*
X470803Y331173D01*
X470810Y331407D01*
X470828Y331640D01*
X470823Y331793D01*
X470828Y331947D01*
X470811Y332180D01*
X470804Y332414D01*
X470784Y332566D01*
X470773Y332719D01*
X470732Y332949D01*
X470701Y333181D01*
X470665Y333331D01*
X470638Y333482D01*
X470574Y333707D01*
X470519Y333934D01*
X470468Y334079D01*
X470426Y334227D01*
X470339Y334444D01*
X470261Y334664D01*
X470195Y334803D01*
X470138Y334945D01*
X470029Y335152D01*
X469929Y335363D01*
X469849Y335494D01*
X469777Y335631D01*
X469648Y335825D01*
X469526Y336025D01*
X469433Y336147D01*
X469348Y336275D01*
X469247Y336391D01*
X469057Y336641D01*
X468731Y336989D01*
X468633Y337103D01*
X452728Y353008D01*
X452704Y353029D01*
X452701Y353033D01*
X452683Y353048D01*
X452673Y353057D01*
X452623Y353111D01*
X452385Y353317D01*
X452153Y353526D01*
X452093Y353570D01*
X452038Y353618D01*
X451781Y353798D01*
X451527Y353983D01*
X451463Y354020D01*
X451403Y354062D01*
X451129Y354214D01*
X450858Y354372D01*
X450791Y354403D01*
X450727Y354438D01*
X450438Y354562D01*
X450152Y354691D01*
X450082Y354714D01*
X450015Y354743D01*
X449715Y354836D01*
X449417Y354935D01*
X449345Y354951D01*
X449275Y354972D01*
X448967Y355034D01*
X448661Y355102D01*
X448588Y355110D01*
X448516Y355124D01*
X448366Y355135D01*
X447892Y355190D01*
X447578Y355193D01*
X447425Y355204D01*
X445871Y355204D01*
X437204Y363871D01*
X437204Y376129D01*
X445871Y384796D01*
X458129Y384796D01*
X466796Y376129D01*
X466796Y374575D01*
X466800Y374502D01*
X466797Y374428D01*
X466820Y374115D01*
X466836Y373802D01*
X466847Y373729D01*
X466852Y373656D01*
X466907Y373347D01*
X466955Y373037D01*
X466974Y372966D01*
X466987Y372893D01*
X467073Y372591D01*
X467153Y372288D01*
X467179Y372220D01*
X467199Y372148D01*
X467316Y371856D01*
X467427Y371564D01*
X467460Y371498D01*
X467487Y371430D01*
X467633Y371152D01*
X467774Y370872D01*
X467814Y370810D01*
X467848Y370745D01*
X468022Y370484D01*
X468191Y370219D01*
X468236Y370161D01*
X468277Y370100D01*
X468375Y369987D01*
X468672Y369613D01*
X468892Y369389D01*
X468992Y369272D01*
X511767Y326497D01*
X511822Y326448D01*
X511872Y326394D01*
X512109Y326189D01*
X512342Y325979D01*
X512402Y325935D01*
X512457Y325887D01*
X512714Y325707D01*
X512968Y325522D01*
X513032Y325485D01*
X513092Y325443D01*
X513366Y325291D01*
X513637Y325133D01*
X513704Y325102D01*
X513768Y325067D01*
X514057Y324943D01*
X514343Y324814D01*
X514413Y324791D01*
X514480Y324762D01*
X514780Y324669D01*
X515078Y324570D01*
X515150Y324554D01*
X515220Y324533D01*
X515527Y324471D01*
X515834Y324403D01*
X515907Y324395D01*
X515979Y324381D01*
X516129Y324370D01*
X516603Y324315D01*
X516917Y324312D01*
X517070Y324301D01*
X598930Y324301D01*
X599003Y324305D01*
X599077Y324302D01*
X599140Y324307D01*
X599390Y324325D01*
X599703Y324341D01*
X599729Y324345D01*
X599776Y324352D01*
X599849Y324357D01*
X600158Y324412D01*
X600276Y324430D01*
X600468Y324460D01*
X600539Y324479D01*
X600612Y324492D01*
X600914Y324578D01*
X601217Y324658D01*
X601285Y324684D01*
X601357Y324704D01*
X601649Y324821D01*
X601941Y324932D01*
X602007Y324965D01*
X602075Y324992D01*
X602353Y325138D01*
X602633Y325279D01*
X602695Y325319D01*
X602760Y325353D01*
X603022Y325527D01*
X603286Y325696D01*
X603344Y325741D01*
X603405Y325782D01*
X603518Y325880D01*
X603892Y326177D01*
X604116Y326397D01*
X604233Y326497D01*
X614303Y336567D01*
X614352Y336622D01*
X614406Y336672D01*
X614612Y336910D01*
X614821Y337142D01*
X614865Y337202D01*
X614913Y337257D01*
X615093Y337514D01*
X615278Y337768D01*
X615315Y337831D01*
X615357Y337892D01*
X615510Y338166D01*
X615667Y338437D01*
X615698Y338504D01*
X615733Y338568D01*
X615857Y338857D01*
X615986Y339143D01*
X616009Y339213D01*
X616038Y339280D01*
X616131Y339580D01*
X616230Y339878D01*
X616246Y339950D01*
X616267Y340020D01*
X616329Y340327D01*
X616397Y340634D01*
X616405Y340707D01*
X616419Y340779D01*
X616430Y340929D01*
X616485Y341403D01*
X616488Y341717D01*
X616499Y341870D01*
X616499Y545288D01*
X618250Y549515D01*
X682985Y614250D01*
X687212Y616001D01*
X692000Y616001D01*
X692307Y616017D01*
X692614Y616026D01*
X692693Y616037D01*
X692773Y616041D01*
X693076Y616088D01*
X693381Y616129D01*
X693459Y616148D01*
X693538Y616160D01*
X693835Y616238D01*
X694134Y616311D01*
X694210Y616338D01*
X694287Y616358D01*
X694573Y616466D01*
X694864Y616569D01*
X694936Y616604D01*
X695011Y616632D01*
X695285Y616769D01*
X695563Y616901D01*
X695632Y616943D01*
X695703Y616979D01*
X695962Y617144D01*
X696225Y617304D01*
X696288Y617352D01*
X696356Y617396D01*
X696596Y617586D01*
X696841Y617773D01*
X696900Y617827D01*
X696962Y617877D01*
X697182Y618092D01*
X697406Y618302D01*
X697458Y618363D01*
X697516Y618419D01*
X697712Y618656D01*
X697913Y618887D01*
X697959Y618953D01*
X698010Y619015D01*
X698181Y619270D01*
X698357Y619522D01*
X698396Y619592D01*
X698441Y619658D01*
X698584Y619930D01*
X698733Y620198D01*
X698765Y620272D01*
X698802Y620343D01*
X698917Y620628D01*
X699038Y620910D01*
X699062Y620987D01*
X699092Y621061D01*
X699176Y621356D01*
X699267Y621650D01*
X699283Y621728D01*
X699305Y621805D01*
X699359Y622107D01*
X699419Y622409D01*
X699424Y622473D01*
X699441Y622568D01*
X699498Y623340D01*
X699495Y623436D01*
X699499Y623500D01*
X699499Y694288D01*
X701250Y698515D01*
X719985Y717250D01*
X720885Y717623D01*
X720990Y717666D01*
X721267Y717798D01*
X721548Y717924D01*
X721617Y717965D01*
X721689Y717999D01*
X721951Y718159D01*
X722035Y718208D01*
X722217Y718313D01*
X722282Y718361D01*
X722350Y718402D01*
X722594Y718588D01*
X722843Y718769D01*
X722903Y718823D01*
X722966Y718871D01*
X723190Y719081D01*
X723419Y719287D01*
X723473Y719347D01*
X723531Y719401D01*
X723732Y719634D01*
X723938Y719862D01*
X723985Y719926D01*
X724037Y719987D01*
X724213Y720239D01*
X724395Y720487D01*
X724435Y720556D01*
X724481Y720622D01*
X724630Y720890D01*
X724785Y721156D01*
X724818Y721229D01*
X724857Y721299D01*
X724978Y721582D01*
X725104Y721861D01*
X725129Y721937D01*
X725161Y722011D01*
X725251Y722305D01*
X725348Y722596D01*
X725366Y722674D01*
X725389Y722751D01*
X725450Y723052D01*
X725516Y723352D01*
X725525Y723431D01*
X725541Y723510D01*
X725570Y723816D01*
X725605Y724121D01*
X725606Y724201D01*
X725613Y724281D01*
X725610Y724588D01*
X725614Y724895D01*
X725606Y724975D01*
X725606Y725055D01*
X725571Y725360D01*
X725543Y725666D01*
X725527Y725745D01*
X725518Y725824D01*
X725452Y726125D01*
X725393Y726426D01*
X725373Y726486D01*
X725352Y726581D01*
X725109Y727316D01*
X725069Y727404D01*
X725049Y727464D01*
X723901Y730235D01*
X723901Y735565D01*
X725941Y740490D01*
X726936Y741484D01*
X727072Y741636D01*
X727216Y741780D01*
X727331Y741923D01*
X727454Y742060D01*
X727574Y742224D01*
X727703Y742383D01*
X727803Y742537D01*
X727911Y742685D01*
X728013Y742861D01*
X728124Y743032D01*
X728208Y743196D01*
X728300Y743354D01*
X728384Y743540D01*
X728477Y743721D01*
X728543Y743892D01*
X728619Y744060D01*
X728683Y744253D01*
X728757Y744443D01*
X728805Y744621D01*
X728863Y744795D01*
X728907Y744994D01*
X728960Y745190D01*
X728990Y745372D01*
X729030Y745551D01*
X729053Y745753D01*
X729086Y745955D01*
X729097Y746138D01*
X729118Y746320D01*
X729120Y746524D01*
X729132Y746727D01*
X729124Y746911D01*
X729126Y747094D01*
X729107Y747297D01*
X729098Y747501D01*
X729071Y747683D01*
X729054Y747865D01*
X729015Y748065D01*
X728985Y748267D01*
X728939Y748445D01*
X728904Y748625D01*
X728844Y748820D01*
X728793Y749017D01*
X728729Y749190D01*
X728675Y749365D01*
X728596Y749552D01*
X728525Y749744D01*
X728444Y749908D01*
X728372Y750077D01*
X728273Y750256D01*
X728183Y750438D01*
X728111Y750548D01*
X727997Y750755D01*
X727965Y750801D01*
X737300Y750801D01*
X746638Y750801D01*
X746578Y750715D01*
X746481Y750536D01*
X746375Y750362D01*
X746295Y750196D01*
X746208Y750035D01*
X746129Y749847D01*
X746041Y749663D01*
X745980Y749490D01*
X745909Y749321D01*
X745850Y749126D01*
X745781Y748934D01*
X745738Y748755D01*
X745685Y748579D01*
X745647Y748379D01*
X745598Y748181D01*
X745574Y747999D01*
X745539Y747819D01*
X745521Y747616D01*
X745494Y747414D01*
X745488Y747231D01*
X745472Y747048D01*
X745476Y746844D01*
X745469Y746640D01*
X745482Y746457D01*
X745485Y746273D01*
X745510Y746071D01*
X745524Y745868D01*
X745556Y745687D01*
X745578Y745505D01*
X745623Y745306D01*
X745659Y745105D01*
X745709Y744929D01*
X745750Y744750D01*
X745815Y744557D01*
X745871Y744361D01*
X745939Y744190D01*
X745998Y744016D01*
X746083Y743831D01*
X746159Y743642D01*
X746245Y743480D01*
X746321Y743313D01*
X746425Y743137D01*
X746520Y742957D01*
X746622Y742804D01*
X746715Y742646D01*
X746836Y742482D01*
X746949Y742312D01*
X747035Y742213D01*
X747175Y742023D01*
X747610Y741547D01*
X747664Y741484D01*
X748659Y740490D01*
X751072Y734665D01*
X751105Y734595D01*
X751132Y734524D01*
X751271Y734246D01*
X751404Y733966D01*
X751444Y733900D01*
X751479Y733831D01*
X751646Y733570D01*
X751808Y733305D01*
X751854Y733244D01*
X751896Y733179D01*
X752089Y732936D01*
X752277Y732689D01*
X752329Y732633D01*
X752377Y732573D01*
X752595Y732351D01*
X752807Y732125D01*
X752865Y732074D01*
X752919Y732019D01*
X753158Y731821D01*
X753393Y731618D01*
X753456Y731574D01*
X753515Y731525D01*
X753773Y731352D01*
X754027Y731174D01*
X754095Y731137D01*
X754158Y731094D01*
X754432Y730950D01*
X754704Y730799D01*
X754775Y730768D01*
X754843Y730732D01*
X755131Y730616D01*
X755416Y730495D01*
X755490Y730472D01*
X755561Y730443D01*
X755859Y730358D01*
X756156Y730266D01*
X756232Y730251D01*
X756305Y730230D01*
X756610Y730175D01*
X756915Y730114D01*
X756992Y730107D01*
X757068Y730094D01*
X757377Y730071D01*
X757686Y730042D01*
X757763Y730043D01*
X757840Y730037D01*
X758150Y730047D01*
X758461Y730050D01*
X758537Y730058D01*
X758614Y730061D01*
X758922Y730102D01*
X759230Y730137D01*
X759305Y730154D01*
X759381Y730164D01*
X759684Y730237D01*
X759986Y730303D01*
X760059Y730327D01*
X760134Y730346D01*
X760427Y730449D01*
X760721Y730547D01*
X760791Y730578D01*
X760864Y730604D01*
X761145Y730737D01*
X761427Y730865D01*
X761494Y730903D01*
X761563Y730936D01*
X761828Y731098D01*
X762097Y731253D01*
X762159Y731299D01*
X762225Y731339D01*
X762472Y731527D01*
X762723Y731709D01*
X762780Y731761D01*
X762841Y731807D01*
X763068Y732020D01*
X763298Y732227D01*
X763350Y732284D01*
X763406Y732337D01*
X763609Y732572D01*
X763817Y732802D01*
X763863Y732864D01*
X763913Y732922D01*
X764091Y733176D01*
X764274Y733427D01*
X764313Y733494D01*
X764357Y733556D01*
X764508Y733827D01*
X764664Y734096D01*
X764696Y734166D01*
X764733Y734233D01*
X764855Y734519D01*
X764983Y734801D01*
X765008Y734874D01*
X765038Y734945D01*
X765130Y735241D01*
X765228Y735536D01*
X765245Y735611D01*
X765267Y735685D01*
X765328Y735988D01*
X765396Y736292D01*
X765404Y736368D01*
X765419Y736444D01*
X765431Y736595D01*
X765431Y736599D01*
X765441Y736656D01*
X765447Y736740D01*
X765484Y737061D01*
X765487Y737281D01*
X765498Y737428D01*
X765496Y737487D01*
X765499Y737535D01*
X765499Y779065D01*
X765495Y779142D01*
X765498Y779219D01*
X765475Y779529D01*
X765459Y779838D01*
X765447Y779914D01*
X765442Y779991D01*
X765388Y780297D01*
X765340Y780603D01*
X765320Y780678D01*
X765307Y780754D01*
X765221Y781052D01*
X765142Y781352D01*
X765115Y781424D01*
X765094Y781498D01*
X764978Y781786D01*
X764868Y782076D01*
X764834Y782145D01*
X764805Y782216D01*
X764660Y782491D01*
X764521Y782769D01*
X764480Y782833D01*
X764444Y782901D01*
X764271Y783160D01*
X764104Y783421D01*
X764057Y783481D01*
X764014Y783545D01*
X763816Y783785D01*
X763623Y784027D01*
X763569Y784082D01*
X763520Y784142D01*
X763298Y784359D01*
X763081Y784581D01*
X763022Y784630D01*
X762967Y784684D01*
X762725Y784876D01*
X762485Y785075D01*
X762421Y785118D01*
X762361Y785166D01*
X762100Y785333D01*
X761842Y785506D01*
X761774Y785542D01*
X761709Y785583D01*
X761431Y785723D01*
X761157Y785868D01*
X761086Y785896D01*
X761017Y785931D01*
X760727Y786041D01*
X760439Y786157D01*
X760365Y786178D01*
X760293Y786205D01*
X759993Y786285D01*
X759695Y786370D01*
X759619Y786384D01*
X759545Y786404D01*
X759238Y786452D01*
X758932Y786506D01*
X758856Y786512D01*
X758780Y786524D01*
X758470Y786540D01*
X758160Y786563D01*
X758083Y786560D01*
X758007Y786564D01*
X757697Y786549D01*
X757386Y786539D01*
X757310Y786529D01*
X757233Y786525D01*
X756927Y786478D01*
X756619Y786436D01*
X756544Y786418D01*
X756468Y786406D01*
X756168Y786327D01*
X755866Y786254D01*
X755794Y786229D01*
X755719Y786209D01*
X755429Y786100D01*
X755136Y785996D01*
X755067Y785963D01*
X754995Y785936D01*
X754717Y785797D01*
X754437Y785664D01*
X754371Y785624D01*
X754302Y785589D01*
X754040Y785422D01*
X753775Y785261D01*
X753714Y785215D01*
X753649Y785173D01*
X753406Y784980D01*
X753159Y784793D01*
X753103Y784740D01*
X753043Y784692D01*
X752821Y784475D01*
X752594Y784263D01*
X752544Y784205D01*
X752489Y784151D01*
X752290Y783912D01*
X752087Y783678D01*
X752043Y783615D01*
X751994Y783556D01*
X751821Y783297D01*
X751643Y783044D01*
X751606Y782977D01*
X751563Y782912D01*
X751494Y782776D01*
X751267Y782367D01*
X751141Y782073D01*
X751072Y781935D01*
X748659Y776110D01*
X747664Y775116D01*
X747528Y774964D01*
X747384Y774820D01*
X747269Y774677D01*
X747146Y774540D01*
X747026Y774376D01*
X746897Y774217D01*
X746797Y774063D01*
X746689Y773915D01*
X746587Y773739D01*
X746476Y773568D01*
X746392Y773404D01*
X746300Y773246D01*
X746216Y773060D01*
X746123Y772879D01*
X746057Y772708D01*
X745981Y772540D01*
X745917Y772347D01*
X745843Y772157D01*
X745795Y771979D01*
X745737Y771805D01*
X745693Y771606D01*
X745640Y771410D01*
X745610Y771228D01*
X745570Y771049D01*
X745547Y770847D01*
X745514Y770645D01*
X745503Y770462D01*
X745482Y770280D01*
X745480Y770076D01*
X745468Y769873D01*
X745476Y769689D01*
X745474Y769506D01*
X745493Y769303D01*
X745502Y769099D01*
X745529Y768917D01*
X745546Y768735D01*
X745585Y768535D01*
X745615Y768333D01*
X745661Y768155D01*
X745696Y767975D01*
X745756Y767780D01*
X745807Y767583D01*
X745871Y767410D01*
X745925Y767235D01*
X746004Y767048D01*
X746075Y766856D01*
X746156Y766692D01*
X746228Y766523D01*
X746327Y766344D01*
X746417Y766162D01*
X746489Y766052D01*
X746603Y765845D01*
X746635Y765799D01*
X737300Y765799D01*
X727962Y765799D01*
X728022Y765885D01*
X728119Y766064D01*
X728225Y766238D01*
X728305Y766404D01*
X728392Y766565D01*
X728471Y766753D01*
X728559Y766937D01*
X728620Y767110D01*
X728691Y767279D01*
X728750Y767474D01*
X728819Y767666D01*
X728862Y767845D01*
X728915Y768021D01*
X728953Y768221D01*
X729002Y768419D01*
X729026Y768601D01*
X729061Y768781D01*
X729079Y768984D01*
X729106Y769186D01*
X729112Y769369D01*
X729128Y769552D01*
X729124Y769756D01*
X729131Y769960D01*
X729118Y770143D01*
X729115Y770327D01*
X729090Y770529D01*
X729076Y770732D01*
X729044Y770913D01*
X729022Y771095D01*
X728977Y771294D01*
X728941Y771495D01*
X728891Y771671D01*
X728850Y771850D01*
X728785Y772043D01*
X728729Y772239D01*
X728661Y772410D01*
X728602Y772584D01*
X728517Y772769D01*
X728441Y772958D01*
X728355Y773120D01*
X728279Y773287D01*
X728175Y773463D01*
X728080Y773643D01*
X727978Y773796D01*
X727885Y773954D01*
X727764Y774118D01*
X727651Y774288D01*
X727565Y774387D01*
X727425Y774577D01*
X726990Y775053D01*
X726936Y775116D01*
X725941Y776110D01*
X723901Y781035D01*
X723901Y786365D01*
X725957Y791328D01*
X726165Y791549D01*
X726213Y791613D01*
X726267Y791672D01*
X726448Y791920D01*
X726635Y792165D01*
X726676Y792233D01*
X726723Y792298D01*
X726878Y792563D01*
X727038Y792825D01*
X727073Y792898D01*
X727113Y792967D01*
X727239Y793247D01*
X727372Y793524D01*
X727399Y793600D01*
X727431Y793673D01*
X727528Y793964D01*
X727631Y794254D01*
X727650Y794331D01*
X727675Y794407D01*
X727742Y794707D01*
X727814Y795006D01*
X727825Y795086D01*
X727842Y795163D01*
X727877Y795469D01*
X727919Y795773D01*
X727921Y795853D01*
X727930Y795933D01*
X727934Y796240D01*
X727944Y796547D01*
X727938Y796627D01*
X727939Y796707D01*
X727910Y797013D01*
X727888Y797319D01*
X727875Y797398D01*
X727867Y797478D01*
X727807Y797780D01*
X727754Y798082D01*
X727732Y798159D01*
X727716Y798237D01*
X727626Y798531D01*
X727542Y798827D01*
X727512Y798901D01*
X727488Y798977D01*
X727368Y799260D01*
X727254Y799545D01*
X727216Y799616D01*
X727185Y799690D01*
X727036Y799959D01*
X726893Y800230D01*
X726849Y800297D01*
X726810Y800367D01*
X726634Y800620D01*
X726464Y800875D01*
X726422Y800923D01*
X726367Y801002D01*
X725953Y801481D01*
X723901Y806435D01*
X723901Y811765D01*
X725957Y816728D01*
X726165Y816949D01*
X726213Y817013D01*
X726267Y817072D01*
X726448Y817320D01*
X726635Y817565D01*
X726676Y817633D01*
X726723Y817698D01*
X726878Y817963D01*
X727038Y818225D01*
X727073Y818298D01*
X727113Y818367D01*
X727239Y818647D01*
X727372Y818924D01*
X727399Y819000D01*
X727431Y819073D01*
X727528Y819364D01*
X727631Y819654D01*
X727650Y819731D01*
X727675Y819807D01*
X727742Y820107D01*
X727814Y820406D01*
X727825Y820486D01*
X727842Y820563D01*
X727877Y820869D01*
X727919Y821173D01*
X727921Y821253D01*
X727930Y821333D01*
X727934Y821640D01*
X727944Y821947D01*
X727938Y822027D01*
X727939Y822107D01*
X727910Y822413D01*
X727888Y822719D01*
X727875Y822798D01*
X727867Y822878D01*
X727807Y823180D01*
X727754Y823482D01*
X727732Y823559D01*
X727716Y823637D01*
X727626Y823931D01*
X727542Y824227D01*
X727512Y824301D01*
X727488Y824377D01*
X727368Y824660D01*
X727254Y824945D01*
X727216Y825016D01*
X727185Y825090D01*
X727036Y825359D01*
X726893Y825630D01*
X726849Y825697D01*
X726810Y825767D01*
X726634Y826020D01*
X726464Y826275D01*
X726422Y826323D01*
X726367Y826402D01*
X725953Y826881D01*
X723901Y831835D01*
X723901Y837165D01*
X725941Y842090D01*
X729710Y845859D01*
X734635Y847899D01*
X739965Y847899D01*
X744890Y845859D01*
X748659Y842090D01*
X751072Y836265D01*
X751105Y836195D01*
X751132Y836124D01*
X751271Y835846D01*
X751404Y835566D01*
X751444Y835500D01*
X751479Y835431D01*
X751646Y835170D01*
X751808Y834905D01*
X751854Y834844D01*
X751896Y834779D01*
X752089Y834536D01*
X752277Y834289D01*
X752329Y834233D01*
X752377Y834173D01*
X752595Y833951D01*
X752807Y833725D01*
X752865Y833674D01*
X752919Y833619D01*
X753158Y833421D01*
X753393Y833218D01*
X753456Y833174D01*
X753515Y833125D01*
X753773Y832952D01*
X754027Y832774D01*
X754095Y832737D01*
X754158Y832694D01*
X754432Y832550D01*
X754704Y832399D01*
X754775Y832368D01*
X754843Y832332D01*
X755131Y832216D01*
X755416Y832095D01*
X755490Y832072D01*
X755561Y832043D01*
X755859Y831958D01*
X756156Y831866D01*
X756232Y831851D01*
X756305Y831830D01*
X756610Y831775D01*
X756915Y831714D01*
X756992Y831707D01*
X757068Y831694D01*
X757377Y831671D01*
X757686Y831642D01*
X757763Y831643D01*
X757840Y831637D01*
X758150Y831647D01*
X758461Y831650D01*
X758537Y831658D01*
X758614Y831661D01*
X758922Y831702D01*
X759230Y831737D01*
X759305Y831754D01*
X759381Y831764D01*
X759684Y831837D01*
X759986Y831903D01*
X760059Y831927D01*
X760134Y831946D01*
X760427Y832049D01*
X760721Y832147D01*
X760791Y832178D01*
X760864Y832204D01*
X761145Y832337D01*
X761427Y832465D01*
X761494Y832503D01*
X761563Y832536D01*
X761828Y832698D01*
X762097Y832853D01*
X762159Y832899D01*
X762225Y832939D01*
X762472Y833127D01*
X762723Y833309D01*
X762780Y833361D01*
X762841Y833407D01*
X763068Y833620D01*
X763298Y833827D01*
X763350Y833884D01*
X763406Y833937D01*
X763609Y834172D01*
X763817Y834402D01*
X763863Y834464D01*
X763913Y834522D01*
X764091Y834776D01*
X764274Y835027D01*
X764313Y835094D01*
X764357Y835156D01*
X764508Y835427D01*
X764664Y835696D01*
X764696Y835766D01*
X764733Y835833D01*
X764855Y836119D01*
X764983Y836401D01*
X765008Y836474D01*
X765038Y836545D01*
X765130Y836841D01*
X765228Y837136D01*
X765245Y837211D01*
X765267Y837285D01*
X765328Y837588D01*
X765396Y837892D01*
X765404Y837968D01*
X765419Y838044D01*
X765431Y838195D01*
X765484Y838661D01*
X765488Y838980D01*
X765499Y839135D01*
X765499Y855130D01*
X765495Y855203D01*
X765498Y855277D01*
X765475Y855590D01*
X765459Y855903D01*
X765448Y855976D01*
X765443Y856049D01*
X765388Y856358D01*
X765340Y856668D01*
X765321Y856739D01*
X765308Y856812D01*
X765222Y857114D01*
X765142Y857417D01*
X765116Y857485D01*
X765096Y857557D01*
X764979Y857849D01*
X764868Y858141D01*
X764835Y858207D01*
X764808Y858275D01*
X764662Y858553D01*
X764521Y858833D01*
X764481Y858895D01*
X764447Y858960D01*
X764273Y859221D01*
X764104Y859486D01*
X764059Y859544D01*
X764018Y859605D01*
X763920Y859718D01*
X763623Y860092D01*
X763403Y860316D01*
X763303Y860433D01*
X756433Y867303D01*
X756378Y867352D01*
X756328Y867406D01*
X756091Y867611D01*
X755858Y867821D01*
X755798Y867865D01*
X755743Y867913D01*
X755486Y868093D01*
X755232Y868278D01*
X755168Y868315D01*
X755108Y868357D01*
X754834Y868509D01*
X754563Y868667D01*
X754496Y868698D01*
X754432Y868733D01*
X754143Y868857D01*
X753857Y868986D01*
X753787Y869009D01*
X753720Y869038D01*
X753420Y869131D01*
X753122Y869230D01*
X753050Y869246D01*
X752980Y869267D01*
X752673Y869329D01*
X752366Y869397D01*
X752293Y869405D01*
X752221Y869419D01*
X752071Y869430D01*
X751597Y869485D01*
X751283Y869488D01*
X751130Y869499D01*
X569870Y869499D01*
X569797Y869495D01*
X569723Y869498D01*
X569410Y869475D01*
X569097Y869459D01*
X569024Y869448D01*
X568951Y869443D01*
X568642Y869388D01*
X568332Y869340D01*
X568261Y869321D01*
X568188Y869308D01*
X567886Y869222D01*
X567583Y869142D01*
X567515Y869116D01*
X567443Y869096D01*
X567152Y868979D01*
X566859Y868868D01*
X566836Y868857D01*
X566793Y868835D01*
X566725Y868808D01*
X566447Y868662D01*
X566167Y868521D01*
X566105Y868481D01*
X566040Y868447D01*
X565779Y868273D01*
X565514Y868104D01*
X565456Y868059D01*
X565395Y868018D01*
X565282Y867920D01*
X564908Y867623D01*
X564684Y867403D01*
X564567Y867303D01*
X552394Y855130D01*
X526305Y829040D01*
X526304Y829040D01*
X522015Y824750D01*
X517788Y822999D01*
X494370Y822999D01*
X494297Y822995D01*
X494223Y822998D01*
X493910Y822975D01*
X493597Y822959D01*
X493524Y822948D01*
X493451Y822943D01*
X493141Y822888D01*
X492832Y822840D01*
X492761Y822821D01*
X492688Y822808D01*
X492386Y822722D01*
X492083Y822642D01*
X492015Y822616D01*
X491943Y822596D01*
X491651Y822479D01*
X491359Y822368D01*
X491293Y822335D01*
X491225Y822308D01*
X490947Y822162D01*
X490667Y822021D01*
X490605Y821981D01*
X490540Y821947D01*
X490279Y821773D01*
X490014Y821604D01*
X489956Y821559D01*
X489895Y821518D01*
X489781Y821420D01*
X489408Y821123D01*
X489184Y820903D01*
X489067Y820803D01*
X486697Y818433D01*
X486648Y818378D01*
X486594Y818328D01*
X486389Y818091D01*
X486179Y817858D01*
X486135Y817798D01*
X486087Y817743D01*
X485907Y817486D01*
X485722Y817232D01*
X485685Y817168D01*
X485643Y817108D01*
X485491Y816834D01*
X485333Y816563D01*
X485302Y816496D01*
X485267Y816432D01*
X485143Y816143D01*
X485014Y815857D01*
X484991Y815787D01*
X484962Y815720D01*
X484869Y815420D01*
X484770Y815122D01*
X484754Y815050D01*
X484733Y814980D01*
X484671Y814673D01*
X484603Y814366D01*
X484595Y814293D01*
X484581Y814221D01*
X484570Y814071D01*
X484515Y813597D01*
X484512Y813283D01*
X484501Y813130D01*
X484501Y747712D01*
X482750Y743485D01*
X461515Y722250D01*
X457288Y720499D01*
X335812Y720499D01*
X331585Y722250D01*
X327295Y726540D01*
X322803Y731033D01*
X322689Y731136D01*
X322581Y731246D01*
X322401Y731395D01*
X322228Y731551D01*
X322104Y731642D01*
X321985Y731740D01*
X321791Y731870D01*
X321602Y732008D01*
X321470Y732085D01*
X321342Y732170D01*
X321135Y732280D01*
X320933Y732397D01*
X320793Y732461D01*
X320657Y732532D01*
X320440Y732620D01*
X320227Y732716D01*
X320082Y732764D01*
X319939Y732822D01*
X319714Y732886D01*
X319492Y732960D01*
X319342Y732993D01*
X319195Y733035D01*
X318965Y733076D01*
X318736Y733127D01*
X318584Y733144D01*
X318432Y733171D01*
X318199Y733188D01*
X317967Y733215D01*
X317813Y733216D01*
X317660Y733228D01*
X317427Y733220D01*
X317193Y733223D01*
X317040Y733209D01*
X316886Y733204D01*
X316654Y733173D01*
X316422Y733151D01*
X316271Y733121D01*
X316119Y733101D01*
X315891Y733046D01*
X315662Y733001D01*
X315516Y732955D01*
X315366Y732919D01*
X315145Y732841D01*
X314922Y732772D01*
X314781Y732712D01*
X314636Y732661D01*
X314425Y732560D01*
X314210Y732469D01*
X314076Y732395D01*
X313937Y732329D01*
X313737Y732207D01*
X313533Y732094D01*
X313407Y732006D01*
X313275Y731926D01*
X313089Y731785D01*
X312898Y731651D01*
X312781Y731550D01*
X312659Y731457D01*
X312488Y731298D01*
X312312Y731145D01*
X312206Y731033D01*
X312094Y730928D01*
X311941Y730751D01*
X311781Y730581D01*
X311688Y730459D01*
X311587Y730343D01*
X311453Y730151D01*
X311311Y729965D01*
X311231Y729834D01*
X311143Y729708D01*
X311029Y729504D01*
X310908Y729305D01*
X310841Y729166D01*
X310767Y729032D01*
X310675Y728817D01*
X310574Y728606D01*
X310523Y728461D01*
X310462Y728320D01*
X310393Y728097D01*
X310314Y727876D01*
X310278Y727727D01*
X310233Y727580D01*
X310187Y727351D01*
X310131Y727124D01*
X310111Y726972D01*
X310081Y726821D01*
X310069Y726667D01*
X310027Y726357D01*
X310012Y725880D01*
X310001Y725730D01*
X310001Y658212D01*
X308250Y653985D01*
X139697Y485433D01*
X139648Y485378D01*
X139594Y485328D01*
X139389Y485091D01*
X139179Y484858D01*
X139135Y484798D01*
X139087Y484743D01*
X138907Y484486D01*
X138722Y484232D01*
X138685Y484168D01*
X138643Y484108D01*
X138491Y483834D01*
X138333Y483563D01*
X138302Y483496D01*
X138267Y483432D01*
X138143Y483143D01*
X138014Y482857D01*
X137991Y482787D01*
X137962Y482720D01*
X137869Y482420D01*
X137770Y482122D01*
X137754Y482050D01*
X137733Y481980D01*
X137671Y481673D01*
X137603Y481366D01*
X137595Y481293D01*
X137581Y481221D01*
X137570Y481071D01*
X137515Y480597D01*
X137512Y480283D01*
X137501Y480130D01*
X137501Y117712D01*
X135750Y113485D01*
X91505Y69240D01*
X91504Y69240D01*
X87215Y64950D01*
X82988Y63199D01*
X68269Y63199D01*
X68039Y63187D01*
X67808Y63185D01*
X67652Y63167D01*
X67496Y63159D01*
X67268Y63124D01*
X67039Y63098D01*
X66886Y63064D01*
X66731Y63040D01*
X66508Y62981D01*
X66283Y62931D01*
X66133Y62882D01*
X65982Y62842D01*
X65766Y62761D01*
X65548Y62688D01*
X65404Y62624D01*
X65258Y62568D01*
X65052Y62465D01*
X64841Y62370D01*
X64706Y62291D01*
X64566Y62221D01*
X64371Y62097D01*
X64172Y61981D01*
X64045Y61889D01*
X63913Y61804D01*
X63733Y61661D01*
X63546Y61525D01*
X63429Y61420D01*
X63307Y61323D01*
X63142Y61162D01*
X62971Y61007D01*
X62866Y60891D01*
X62753Y60781D01*
X62606Y60604D01*
X62452Y60433D01*
X62359Y60306D01*
X62259Y60185D01*
X62131Y59994D01*
X61995Y59808D01*
X61916Y59672D01*
X61828Y59542D01*
X61721Y59338D01*
X61604Y59139D01*
X61540Y58996D01*
X61467Y58857D01*
X61380Y58643D01*
X61285Y58433D01*
X61236Y58284D01*
X61177Y58139D01*
X61114Y57917D01*
X61041Y57699D01*
X61007Y57545D01*
X60964Y57395D01*
X60923Y57168D01*
X60873Y56943D01*
X60855Y56787D01*
X60828Y56632D01*
X60811Y56403D01*
X60785Y56174D01*
X60783Y56017D01*
X60771Y55860D01*
X60778Y55630D01*
X60776Y55399D01*
X60790Y55243D01*
X60795Y55086D01*
X60825Y54858D01*
X60847Y54628D01*
X60877Y54474D01*
X60898Y54319D01*
X60952Y54095D01*
X60997Y53869D01*
X61033Y53758D01*
X61080Y53566D01*
X61338Y52836D01*
X61340Y52833D01*
X61340Y52830D01*
X61699Y51965D01*
X61699Y46635D01*
X59659Y41710D01*
X55890Y37941D01*
X50965Y35901D01*
X45635Y35901D01*
X42431Y37228D01*
X42289Y37279D01*
X42151Y37338D01*
X41924Y37408D01*
X41701Y37487D01*
X41555Y37523D01*
X41411Y37567D01*
X41179Y37614D01*
X40949Y37670D01*
X40800Y37690D01*
X40652Y37719D01*
X40498Y37731D01*
X40181Y37774D01*
X39712Y37788D01*
X39561Y37799D01*
X32012Y37799D01*
X27785Y39550D01*
X22963Y44373D01*
X22849Y44476D01*
X22741Y44586D01*
X22561Y44735D01*
X22388Y44891D01*
X22264Y44982D01*
X22145Y45080D01*
X21951Y45210D01*
X21762Y45348D01*
X21629Y45425D01*
X21502Y45510D01*
X21295Y45619D01*
X21093Y45737D01*
X20953Y45801D01*
X20817Y45872D01*
X20600Y45960D01*
X20387Y46056D01*
X20242Y46104D01*
X20099Y46162D01*
X19874Y46226D01*
X19652Y46300D01*
X19502Y46333D01*
X19355Y46375D01*
X19125Y46416D01*
X18896Y46467D01*
X18744Y46484D01*
X18592Y46511D01*
X18359Y46528D01*
X18127Y46555D01*
X17973Y46556D01*
X17820Y46568D01*
X17587Y46560D01*
X17353Y46563D01*
X17200Y46549D01*
X17046Y46544D01*
X16814Y46513D01*
X16582Y46491D01*
X16431Y46461D01*
X16279Y46441D01*
X16051Y46386D01*
X15822Y46341D01*
X15676Y46295D01*
X15526Y46259D01*
X15305Y46181D01*
X15082Y46112D01*
X14941Y46052D01*
X14796Y46001D01*
X14585Y45900D01*
X14370Y45809D01*
X14236Y45735D01*
X14097Y45669D01*
X13897Y45547D01*
X13693Y45434D01*
X13567Y45346D01*
X13435Y45266D01*
X13249Y45125D01*
X13058Y44991D01*
X12941Y44890D01*
X12819Y44797D01*
X12648Y44638D01*
X12472Y44485D01*
X12366Y44373D01*
X12254Y44268D01*
X12101Y44091D01*
X11941Y43921D01*
X11848Y43799D01*
X11747Y43683D01*
X11613Y43491D01*
X11471Y43305D01*
X11391Y43174D01*
X11303Y43048D01*
X11189Y42844D01*
X11068Y42645D01*
X11001Y42506D01*
X10927Y42372D01*
X10835Y42157D01*
X10734Y41946D01*
X10683Y41801D01*
X10622Y41660D01*
X10553Y41436D01*
X10474Y41216D01*
X10438Y41067D01*
X10393Y40920D01*
X10347Y40691D01*
X10291Y40464D01*
X10271Y40312D01*
X10241Y40161D01*
X10229Y40007D01*
X10187Y39697D01*
X10172Y39220D01*
X10161Y39070D01*
X10161Y17660D01*
X10177Y17353D01*
X10186Y17046D01*
X10197Y16967D01*
X10201Y16887D01*
X10248Y16584D01*
X10289Y16279D01*
X10308Y16201D01*
X10320Y16122D01*
X10398Y15825D01*
X10471Y15526D01*
X10498Y15450D01*
X10518Y15373D01*
X10626Y15087D01*
X10729Y14796D01*
X10764Y14724D01*
X10792Y14649D01*
X10929Y14375D01*
X11061Y14097D01*
X11103Y14028D01*
X11139Y13957D01*
X11304Y13698D01*
X11464Y13435D01*
X11512Y13372D01*
X11556Y13304D01*
X11746Y13064D01*
X11933Y12819D01*
X11987Y12760D01*
X12037Y12698D01*
X12252Y12478D01*
X12462Y12254D01*
X12523Y12202D01*
X12579Y12144D01*
X12816Y11948D01*
X13047Y11747D01*
X13113Y11701D01*
X13175Y11650D01*
X13430Y11479D01*
X13682Y11303D01*
X13752Y11264D01*
X13818Y11219D01*
X14090Y11076D01*
X14358Y10927D01*
X14432Y10895D01*
X14503Y10858D01*
X14788Y10743D01*
X15070Y10622D01*
X15147Y10598D01*
X15221Y10568D01*
X15516Y10484D01*
X15810Y10393D01*
X15888Y10377D01*
X15965Y10355D01*
X16267Y10301D01*
X16569Y10241D01*
X16633Y10236D01*
X16728Y10219D01*
X17500Y10162D01*
X17596Y10165D01*
X17660Y10161D01*
X782340Y10161D01*
X782647Y10177D01*
X782954Y10186D01*
X783033Y10197D01*
X783113Y10201D01*
X783416Y10248D01*
X783721Y10289D01*
X783799Y10308D01*
X783878Y10320D01*
X784175Y10398D01*
X784474Y10471D01*
X784550Y10498D01*
X784627Y10518D01*
X784913Y10626D01*
X785204Y10729D01*
X785276Y10764D01*
X785351Y10792D01*
X785625Y10929D01*
X785903Y11061D01*
X785972Y11103D01*
X786043Y11139D01*
X786302Y11304D01*
X786565Y11464D01*
X786628Y11512D01*
X786696Y11556D01*
X786936Y11746D01*
X787181Y11933D01*
X787240Y11987D01*
X787302Y12037D01*
X787522Y12252D01*
X787746Y12462D01*
X787798Y12523D01*
X787856Y12579D01*
X788052Y12816D01*
X788253Y13047D01*
X788299Y13113D01*
X788350Y13175D01*
X788521Y13430D01*
X788697Y13682D01*
X788736Y13752D01*
X788781Y13818D01*
X788924Y14090D01*
X789073Y14358D01*
X789105Y14432D01*
X789142Y14503D01*
X789257Y14788D01*
X789378Y15070D01*
X789402Y15147D01*
X789432Y15221D01*
X789516Y15516D01*
X789607Y15810D01*
X789623Y15888D01*
X789645Y15965D01*
X789699Y16267D01*
X789759Y16569D01*
X789764Y16633D01*
X789781Y16728D01*
X789838Y17500D01*
X789835Y17596D01*
X789839Y17660D01*
X789839Y636470D01*
X789831Y636623D01*
X789833Y636777D01*
X789811Y637010D01*
X789799Y637243D01*
X789776Y637395D01*
X789761Y637548D01*
X789716Y637777D01*
X789680Y638008D01*
X789641Y638157D01*
X789611Y638308D01*
X789542Y638531D01*
X789482Y638757D01*
X789428Y638900D01*
X789382Y639048D01*
X789291Y639263D01*
X789208Y639481D01*
X789139Y639618D01*
X789079Y639760D01*
X788966Y639965D01*
X788861Y640173D01*
X788778Y640303D01*
X788704Y640437D01*
X788570Y640629D01*
X788444Y640826D01*
X788349Y640946D01*
X788261Y641072D01*
X788108Y641249D01*
X787963Y641432D01*
X787855Y641542D01*
X787755Y641658D01*
X787585Y641818D01*
X787421Y641986D01*
X787303Y642084D01*
X787191Y642189D01*
X787005Y642331D01*
X786825Y642480D01*
X786697Y642566D01*
X786575Y642659D01*
X786376Y642781D01*
X786182Y642910D01*
X786046Y642982D01*
X785915Y643062D01*
X785704Y643163D01*
X785497Y643272D01*
X785354Y643330D01*
X785216Y643396D01*
X784996Y643474D01*
X784779Y643562D01*
X784631Y643604D01*
X784486Y643656D01*
X784259Y643711D01*
X784035Y643775D01*
X783884Y643802D01*
X783734Y643839D01*
X783502Y643870D01*
X783272Y643911D01*
X783119Y643922D01*
X782967Y643943D01*
X782733Y643950D01*
X782500Y643968D01*
X782347Y643963D01*
X782193Y643968D01*
X781960Y643951D01*
X781726Y643944D01*
G37*
G36*
X18040Y154049D02*
X18040Y154049D01*
X18274Y154056D01*
X18426Y154076D01*
X18579Y154087D01*
X18809Y154128D01*
X19041Y154159D01*
X19191Y154195D01*
X19342Y154222D01*
X19566Y154286D01*
X19794Y154341D01*
X19939Y154392D01*
X20087Y154434D01*
X20303Y154521D01*
X20524Y154599D01*
X20663Y154665D01*
X20805Y154722D01*
X21012Y154831D01*
X21223Y154931D01*
X21354Y155011D01*
X21491Y155083D01*
X21685Y155213D01*
X21885Y155334D01*
X22007Y155427D01*
X22135Y155512D01*
X22251Y155613D01*
X22501Y155803D01*
X22849Y156129D01*
X22963Y156227D01*
X26195Y159460D01*
X30485Y163750D01*
X34712Y165501D01*
X55130Y165501D01*
X55203Y165505D01*
X55277Y165502D01*
X55590Y165525D01*
X55903Y165541D01*
X55976Y165552D01*
X56049Y165557D01*
X56358Y165612D01*
X56668Y165660D01*
X56739Y165679D01*
X56812Y165692D01*
X57114Y165778D01*
X57417Y165858D01*
X57485Y165884D01*
X57557Y165904D01*
X57849Y166021D01*
X58141Y166132D01*
X58207Y166165D01*
X58275Y166192D01*
X58553Y166338D01*
X58833Y166479D01*
X58895Y166519D01*
X58960Y166553D01*
X59221Y166727D01*
X59486Y166896D01*
X59544Y166941D01*
X59605Y166982D01*
X59718Y167080D01*
X60092Y167377D01*
X60316Y167597D01*
X60433Y167697D01*
X68303Y175567D01*
X68352Y175622D01*
X68406Y175672D01*
X68611Y175909D01*
X68821Y176142D01*
X68865Y176202D01*
X68913Y176257D01*
X69093Y176514D01*
X69278Y176768D01*
X69315Y176832D01*
X69357Y176892D01*
X69509Y177166D01*
X69667Y177437D01*
X69698Y177504D01*
X69733Y177568D01*
X69857Y177857D01*
X69986Y178143D01*
X70009Y178213D01*
X70038Y178280D01*
X70131Y178580D01*
X70230Y178878D01*
X70246Y178950D01*
X70267Y179020D01*
X70329Y179327D01*
X70397Y179634D01*
X70405Y179707D01*
X70419Y179779D01*
X70430Y179929D01*
X70485Y180403D01*
X70488Y180717D01*
X70499Y180870D01*
X70499Y510288D01*
X72250Y514515D01*
X240953Y683217D01*
X241002Y683272D01*
X241056Y683322D01*
X241261Y683559D01*
X241471Y683792D01*
X241515Y683852D01*
X241563Y683907D01*
X241743Y684164D01*
X241928Y684418D01*
X241965Y684482D01*
X242007Y684542D01*
X242159Y684816D01*
X242317Y685087D01*
X242348Y685154D01*
X242383Y685218D01*
X242507Y685507D01*
X242636Y685793D01*
X242659Y685863D01*
X242688Y685930D01*
X242781Y686230D01*
X242880Y686528D01*
X242896Y686600D01*
X242917Y686670D01*
X242979Y686977D01*
X243047Y687284D01*
X243055Y687357D01*
X243069Y687429D01*
X243080Y687579D01*
X243135Y688053D01*
X243138Y688367D01*
X243149Y688520D01*
X243149Y836638D01*
X244900Y840865D01*
X313185Y909150D01*
X317412Y910901D01*
X436259Y910901D01*
X436592Y910918D01*
X436926Y910930D01*
X436979Y910938D01*
X437033Y910941D01*
X437362Y910992D01*
X437693Y911039D01*
X437745Y911052D01*
X437798Y911060D01*
X438119Y911145D01*
X438444Y911226D01*
X438495Y911244D01*
X438546Y911258D01*
X438858Y911376D01*
X439173Y911490D01*
X439221Y911513D01*
X439271Y911532D01*
X439569Y911682D01*
X439870Y911827D01*
X439915Y911855D01*
X439963Y911879D01*
X440244Y912059D01*
X440528Y912234D01*
X440570Y912267D01*
X440615Y912296D01*
X440876Y912503D01*
X441141Y912707D01*
X441180Y912744D01*
X441222Y912777D01*
X441460Y913010D01*
X441702Y913241D01*
X441737Y913281D01*
X441775Y913319D01*
X441988Y913576D01*
X442205Y913830D01*
X442235Y913874D01*
X442269Y913915D01*
X442455Y914191D01*
X442645Y914467D01*
X442670Y914514D01*
X442700Y914558D01*
X442856Y914853D01*
X443016Y915146D01*
X443037Y915196D01*
X443062Y915243D01*
X443187Y915553D01*
X443316Y915860D01*
X443331Y915911D01*
X443351Y915961D01*
X443443Y916282D01*
X443540Y916602D01*
X443550Y916654D01*
X443565Y916705D01*
X443623Y917033D01*
X443686Y917362D01*
X443691Y917415D01*
X443700Y917468D01*
X443725Y917801D01*
X443754Y918133D01*
X443753Y918187D01*
X443757Y918240D01*
X443747Y918574D01*
X443741Y918907D01*
X443735Y918960D01*
X443734Y919014D01*
X443689Y919345D01*
X443649Y919676D01*
X443638Y919728D01*
X443630Y919781D01*
X443552Y920106D01*
X443478Y920431D01*
X443461Y920482D01*
X443449Y920534D01*
X443337Y920850D01*
X443230Y921165D01*
X443212Y921204D01*
X443190Y921264D01*
X443173Y921301D01*
X452700Y921301D01*
X462038Y921301D01*
X461978Y921215D01*
X461881Y921036D01*
X461775Y920862D01*
X461695Y920696D01*
X461608Y920535D01*
X461529Y920347D01*
X461441Y920163D01*
X461380Y919990D01*
X461309Y919821D01*
X461250Y919626D01*
X461181Y919434D01*
X461138Y919255D01*
X461085Y919079D01*
X461047Y918879D01*
X460998Y918681D01*
X460974Y918499D01*
X460939Y918319D01*
X460921Y918116D01*
X460894Y917914D01*
X460888Y917731D01*
X460872Y917548D01*
X460876Y917344D01*
X460869Y917140D01*
X460882Y916957D01*
X460885Y916773D01*
X460910Y916571D01*
X460924Y916368D01*
X460956Y916187D01*
X460978Y916005D01*
X461023Y915806D01*
X461059Y915605D01*
X461109Y915429D01*
X461150Y915250D01*
X461215Y915057D01*
X461271Y914861D01*
X461339Y914690D01*
X461398Y914516D01*
X461483Y914331D01*
X461559Y914142D01*
X461645Y913980D01*
X461721Y913813D01*
X461825Y913637D01*
X461920Y913457D01*
X462022Y913304D01*
X462115Y913146D01*
X462236Y912982D01*
X462349Y912812D01*
X462435Y912713D01*
X462575Y912523D01*
X463010Y912047D01*
X463064Y911984D01*
X464059Y910990D01*
X466099Y906065D01*
X466099Y900735D01*
X465740Y899870D01*
X465663Y899653D01*
X465577Y899439D01*
X465534Y899288D01*
X465481Y899140D01*
X465427Y898916D01*
X465364Y898695D01*
X465336Y898540D01*
X465299Y898388D01*
X465268Y898159D01*
X465228Y897932D01*
X465216Y897776D01*
X465195Y897620D01*
X465188Y897390D01*
X465171Y897160D01*
X465176Y897003D01*
X465171Y896846D01*
X465188Y896616D01*
X465195Y896386D01*
X465216Y896231D01*
X465227Y896074D01*
X465267Y895847D01*
X465298Y895619D01*
X465335Y895466D01*
X465362Y895312D01*
X465425Y895090D01*
X465480Y894866D01*
X465532Y894718D01*
X465575Y894567D01*
X465661Y894354D01*
X465738Y894136D01*
X465805Y893994D01*
X465864Y893849D01*
X465971Y893645D01*
X466070Y893437D01*
X466152Y893303D01*
X466225Y893164D01*
X466353Y892972D01*
X466473Y892775D01*
X466568Y892650D01*
X466655Y892520D01*
X466802Y892343D01*
X466941Y892159D01*
X467049Y892044D01*
X467149Y891924D01*
X467313Y891762D01*
X467471Y891594D01*
X467590Y891491D01*
X467702Y891382D01*
X467882Y891238D01*
X468056Y891087D01*
X468185Y890997D01*
X468308Y890899D01*
X468502Y890775D01*
X468690Y890643D01*
X468828Y890567D01*
X468960Y890482D01*
X469166Y890379D01*
X469367Y890267D01*
X469511Y890205D01*
X469652Y890134D01*
X469867Y890053D01*
X470079Y889962D01*
X470229Y889916D01*
X470376Y889860D01*
X470599Y889801D01*
X470819Y889733D01*
X470972Y889702D01*
X471124Y889662D01*
X471352Y889626D01*
X471578Y889581D01*
X471694Y889572D01*
X471889Y889541D01*
X472662Y889501D01*
X472666Y889501D01*
X472669Y889501D01*
X489130Y889501D01*
X489203Y889505D01*
X489277Y889502D01*
X489590Y889525D01*
X489903Y889541D01*
X489976Y889552D01*
X490049Y889557D01*
X490358Y889612D01*
X490668Y889660D01*
X490739Y889679D01*
X490812Y889692D01*
X491114Y889778D01*
X491417Y889858D01*
X491485Y889884D01*
X491557Y889904D01*
X491849Y890021D01*
X492141Y890132D01*
X492207Y890165D01*
X492275Y890192D01*
X492553Y890338D01*
X492833Y890479D01*
X492895Y890519D01*
X492960Y890553D01*
X493221Y890727D01*
X493486Y890896D01*
X493544Y890941D01*
X493605Y890982D01*
X493718Y891080D01*
X494092Y891377D01*
X494316Y891597D01*
X494433Y891697D01*
X537485Y934750D01*
X541712Y936501D01*
X657060Y936501D01*
X657290Y936513D01*
X657521Y936515D01*
X657677Y936533D01*
X657833Y936541D01*
X658061Y936576D01*
X658290Y936602D01*
X658443Y936636D01*
X658598Y936660D01*
X658821Y936719D01*
X659046Y936769D01*
X659196Y936818D01*
X659347Y936858D01*
X659562Y936939D01*
X659781Y937012D01*
X659925Y937076D01*
X660071Y937132D01*
X660277Y937235D01*
X660487Y937330D01*
X660623Y937409D01*
X660763Y937479D01*
X660958Y937603D01*
X661157Y937719D01*
X661284Y937811D01*
X661416Y937896D01*
X661597Y938039D01*
X661783Y938175D01*
X661899Y938280D01*
X662022Y938377D01*
X662187Y938539D01*
X662358Y938693D01*
X662463Y938809D01*
X662576Y938919D01*
X662723Y939096D01*
X662877Y939267D01*
X662970Y939394D01*
X663070Y939515D01*
X663198Y939706D01*
X663334Y939892D01*
X663413Y940028D01*
X663500Y940158D01*
X663608Y940362D01*
X663724Y940561D01*
X663789Y940704D01*
X663862Y940843D01*
X663949Y941057D01*
X664043Y941267D01*
X664093Y941415D01*
X664152Y941561D01*
X664215Y941783D01*
X664288Y942001D01*
X664322Y942155D01*
X664365Y942305D01*
X664406Y942532D01*
X664456Y942757D01*
X664474Y942913D01*
X664501Y943068D01*
X664518Y943298D01*
X664541Y943501D01*
X675200Y943501D01*
X675507Y943516D01*
X675813Y943526D01*
X675893Y943536D01*
X675973Y943541D01*
X676276Y943588D01*
X676581Y943629D01*
X676659Y943648D01*
X676738Y943660D01*
X677034Y943738D01*
X677334Y943811D01*
X677409Y943837D01*
X677487Y943858D01*
X677773Y943966D01*
X678063Y944069D01*
X678136Y944103D01*
X678211Y944132D01*
X678485Y944269D01*
X678763Y944401D01*
X678831Y944443D01*
X678903Y944479D01*
X679162Y944644D01*
X679424Y944804D01*
X679488Y944852D01*
X679556Y944895D01*
X679796Y945086D01*
X680041Y945272D01*
X680099Y945327D01*
X680162Y945377D01*
X680381Y945592D01*
X680605Y945802D01*
X680606Y945802D01*
X680606Y945803D01*
X680658Y945863D01*
X680715Y945919D01*
X680716Y945919D01*
X680912Y946156D01*
X681113Y946388D01*
X681159Y946453D01*
X681210Y946515D01*
X681381Y946771D01*
X681557Y947022D01*
X681596Y947092D01*
X681641Y947159D01*
X681784Y947430D01*
X681933Y947699D01*
X681965Y947772D01*
X682002Y947843D01*
X682117Y948128D01*
X682238Y948411D01*
X682262Y948487D01*
X682292Y948561D01*
X682376Y948857D01*
X682468Y949150D01*
X682483Y949229D01*
X682505Y949306D01*
X682559Y949608D01*
X682620Y949909D01*
X682624Y949973D01*
X682641Y950068D01*
X682698Y950840D01*
X682695Y950937D01*
X682699Y951000D01*
X682699Y960338D01*
X682785Y960278D01*
X682964Y960181D01*
X683138Y960075D01*
X683304Y959995D01*
X683465Y959908D01*
X683653Y959829D01*
X683837Y959741D01*
X684010Y959680D01*
X684179Y959609D01*
X684374Y959550D01*
X684566Y959481D01*
X684745Y959438D01*
X684921Y959385D01*
X685121Y959347D01*
X685319Y959298D01*
X685501Y959274D01*
X685681Y959239D01*
X685884Y959221D01*
X686086Y959194D01*
X686269Y959188D01*
X686452Y959172D01*
X686656Y959176D01*
X686860Y959169D01*
X687043Y959182D01*
X687227Y959185D01*
X687429Y959210D01*
X687632Y959224D01*
X687813Y959256D01*
X687995Y959278D01*
X688194Y959323D01*
X688395Y959359D01*
X688571Y959409D01*
X688750Y959450D01*
X688943Y959515D01*
X689139Y959571D01*
X689310Y959639D01*
X689484Y959698D01*
X689669Y959783D01*
X689858Y959859D01*
X690020Y959945D01*
X690187Y960021D01*
X690363Y960125D01*
X690543Y960220D01*
X690696Y960322D01*
X690854Y960415D01*
X691018Y960536D01*
X691188Y960649D01*
X691287Y960735D01*
X691477Y960875D01*
X691953Y961310D01*
X692016Y961364D01*
X693010Y962359D01*
X697935Y964399D01*
X703265Y964399D01*
X708228Y962343D01*
X708449Y962135D01*
X708513Y962087D01*
X708572Y962033D01*
X708820Y961852D01*
X709065Y961665D01*
X709133Y961624D01*
X709198Y961577D01*
X709463Y961422D01*
X709725Y961262D01*
X709798Y961227D01*
X709867Y961187D01*
X710147Y961061D01*
X710424Y960928D01*
X710500Y960901D01*
X710573Y960869D01*
X710864Y960772D01*
X711154Y960669D01*
X711231Y960650D01*
X711307Y960625D01*
X711607Y960558D01*
X711906Y960486D01*
X711986Y960475D01*
X712063Y960458D01*
X712369Y960423D01*
X712673Y960381D01*
X712753Y960379D01*
X712833Y960370D01*
X713140Y960366D01*
X713447Y960356D01*
X713527Y960362D01*
X713607Y960361D01*
X713913Y960390D01*
X714219Y960412D01*
X714298Y960425D01*
X714378Y960433D01*
X714680Y960493D01*
X714982Y960546D01*
X715059Y960568D01*
X715137Y960584D01*
X715431Y960674D01*
X715727Y960758D01*
X715801Y960788D01*
X715877Y960812D01*
X716160Y960932D01*
X716445Y961046D01*
X716516Y961084D01*
X716590Y961115D01*
X716859Y961264D01*
X717130Y961407D01*
X717197Y961451D01*
X717267Y961490D01*
X717520Y961666D01*
X717775Y961836D01*
X717823Y961878D01*
X717902Y961933D01*
X718381Y962347D01*
X723335Y964399D01*
X728665Y964399D01*
X733628Y962343D01*
X733849Y962135D01*
X733913Y962087D01*
X733972Y962033D01*
X734220Y961852D01*
X734465Y961665D01*
X734533Y961624D01*
X734598Y961577D01*
X734863Y961422D01*
X735125Y961262D01*
X735198Y961227D01*
X735267Y961187D01*
X735547Y961061D01*
X735824Y960928D01*
X735900Y960901D01*
X735973Y960869D01*
X736264Y960772D01*
X736554Y960669D01*
X736631Y960650D01*
X736707Y960625D01*
X737007Y960558D01*
X737306Y960486D01*
X737386Y960475D01*
X737463Y960458D01*
X737769Y960423D01*
X738073Y960381D01*
X738153Y960379D01*
X738233Y960370D01*
X738540Y960366D01*
X738847Y960356D01*
X738927Y960362D01*
X739007Y960361D01*
X739313Y960390D01*
X739619Y960412D01*
X739698Y960425D01*
X739778Y960433D01*
X740080Y960493D01*
X740382Y960546D01*
X740459Y960568D01*
X740537Y960584D01*
X740831Y960674D01*
X741127Y960758D01*
X741201Y960788D01*
X741277Y960812D01*
X741560Y960932D01*
X741845Y961046D01*
X741916Y961084D01*
X741990Y961115D01*
X742259Y961264D01*
X742530Y961407D01*
X742597Y961451D01*
X742667Y961490D01*
X742920Y961666D01*
X743175Y961836D01*
X743223Y961878D01*
X743302Y961933D01*
X743781Y962347D01*
X748735Y964399D01*
X754065Y964399D01*
X758990Y962359D01*
X762759Y958590D01*
X764799Y953665D01*
X764799Y948335D01*
X763472Y945131D01*
X763421Y944989D01*
X763362Y944851D01*
X763292Y944624D01*
X763213Y944401D01*
X763177Y944255D01*
X763133Y944111D01*
X763086Y943879D01*
X763030Y943649D01*
X763010Y943500D01*
X762981Y943352D01*
X762969Y943198D01*
X762926Y942881D01*
X762912Y942412D01*
X762901Y942261D01*
X762901Y916712D01*
X761150Y912485D01*
X753967Y905303D01*
X753864Y905189D01*
X753754Y905081D01*
X753605Y904901D01*
X753449Y904728D01*
X753358Y904604D01*
X753260Y904485D01*
X753130Y904291D01*
X752992Y904102D01*
X752915Y903969D01*
X752830Y903842D01*
X752720Y903635D01*
X752603Y903433D01*
X752540Y903293D01*
X752468Y903157D01*
X752380Y902940D01*
X752284Y902727D01*
X752236Y902582D01*
X752178Y902439D01*
X752114Y902214D01*
X752040Y901992D01*
X752007Y901842D01*
X751965Y901695D01*
X751924Y901465D01*
X751873Y901236D01*
X751856Y901084D01*
X751829Y900932D01*
X751812Y900699D01*
X751785Y900467D01*
X751784Y900313D01*
X751772Y900160D01*
X751780Y899927D01*
X751777Y899693D01*
X751791Y899540D01*
X751796Y899386D01*
X751827Y899154D01*
X751849Y898922D01*
X751879Y898771D01*
X751899Y898619D01*
X751954Y898391D01*
X751999Y898162D01*
X752045Y898016D01*
X752081Y897866D01*
X752159Y897646D01*
X752228Y897422D01*
X752288Y897281D01*
X752339Y897136D01*
X752440Y896925D01*
X752531Y896710D01*
X752605Y896576D01*
X752671Y896437D01*
X752793Y896237D01*
X752906Y896033D01*
X752994Y895907D01*
X753074Y895775D01*
X753215Y895589D01*
X753349Y895398D01*
X753450Y895281D01*
X753543Y895159D01*
X753703Y894988D01*
X753855Y894812D01*
X753967Y894706D01*
X754072Y894594D01*
X754249Y894441D01*
X754419Y894281D01*
X754541Y894188D01*
X754657Y894087D01*
X754849Y893953D01*
X755035Y893811D01*
X755166Y893731D01*
X755292Y893643D01*
X755496Y893529D01*
X755695Y893408D01*
X755834Y893341D01*
X755968Y893267D01*
X756183Y893175D01*
X756394Y893074D01*
X756539Y893023D01*
X756680Y892962D01*
X756904Y892893D01*
X757124Y892814D01*
X757273Y892778D01*
X757420Y892733D01*
X757649Y892687D01*
X757876Y892631D01*
X758028Y892611D01*
X758179Y892581D01*
X758333Y892569D01*
X758643Y892527D01*
X759120Y892512D01*
X759270Y892501D01*
X761288Y892501D01*
X765515Y890750D01*
X777037Y879227D01*
X777151Y879124D01*
X777259Y879014D01*
X777439Y878865D01*
X777612Y878709D01*
X777736Y878618D01*
X777855Y878520D01*
X778049Y878390D01*
X778238Y878252D01*
X778371Y878175D01*
X778498Y878090D01*
X778705Y877980D01*
X778907Y877863D01*
X779047Y877800D01*
X779183Y877728D01*
X779400Y877640D01*
X779613Y877544D01*
X779758Y877496D01*
X779901Y877438D01*
X780126Y877374D01*
X780348Y877300D01*
X780498Y877267D01*
X780645Y877225D01*
X780875Y877184D01*
X781104Y877133D01*
X781256Y877116D01*
X781408Y877089D01*
X781641Y877072D01*
X781873Y877045D01*
X782027Y877044D01*
X782180Y877032D01*
X782413Y877040D01*
X782647Y877037D01*
X782800Y877051D01*
X782954Y877056D01*
X783186Y877087D01*
X783418Y877109D01*
X783569Y877139D01*
X783721Y877159D01*
X783949Y877214D01*
X784178Y877259D01*
X784324Y877305D01*
X784474Y877341D01*
X784694Y877419D01*
X784918Y877488D01*
X785059Y877548D01*
X785204Y877599D01*
X785415Y877700D01*
X785630Y877791D01*
X785764Y877865D01*
X785903Y877931D01*
X786103Y878053D01*
X786307Y878166D01*
X786433Y878254D01*
X786565Y878334D01*
X786751Y878475D01*
X786942Y878609D01*
X787059Y878710D01*
X787181Y878803D01*
X787352Y878963D01*
X787528Y879115D01*
X787634Y879227D01*
X787746Y879332D01*
X787899Y879509D01*
X788059Y879679D01*
X788152Y879801D01*
X788253Y879917D01*
X788387Y880109D01*
X788529Y880295D01*
X788609Y880426D01*
X788697Y880552D01*
X788810Y880756D01*
X788932Y880955D01*
X788999Y881094D01*
X789073Y881228D01*
X789165Y881443D01*
X789266Y881654D01*
X789317Y881799D01*
X789378Y881940D01*
X789447Y882164D01*
X789526Y882384D01*
X789562Y882533D01*
X789607Y882680D01*
X789653Y882909D01*
X789709Y883136D01*
X789729Y883288D01*
X789759Y883439D01*
X789771Y883593D01*
X789813Y883903D01*
X789828Y884380D01*
X789839Y884530D01*
X789839Y982340D01*
X789823Y982647D01*
X789814Y982954D01*
X789803Y983033D01*
X789799Y983113D01*
X789752Y983416D01*
X789711Y983721D01*
X789692Y983799D01*
X789680Y983878D01*
X789602Y984175D01*
X789529Y984474D01*
X789502Y984550D01*
X789482Y984627D01*
X789374Y984913D01*
X789271Y985204D01*
X789236Y985276D01*
X789208Y985351D01*
X789071Y985625D01*
X788939Y985903D01*
X788897Y985972D01*
X788861Y986043D01*
X788696Y986302D01*
X788536Y986565D01*
X788488Y986628D01*
X788444Y986696D01*
X788254Y986936D01*
X788067Y987181D01*
X788013Y987240D01*
X787963Y987302D01*
X787748Y987522D01*
X787538Y987746D01*
X787477Y987798D01*
X787421Y987856D01*
X787184Y988052D01*
X786953Y988253D01*
X786887Y988299D01*
X786825Y988350D01*
X786570Y988521D01*
X786318Y988697D01*
X786248Y988736D01*
X786182Y988781D01*
X785910Y988924D01*
X785642Y989073D01*
X785568Y989105D01*
X785497Y989142D01*
X785212Y989257D01*
X784930Y989378D01*
X784853Y989402D01*
X784779Y989432D01*
X784484Y989516D01*
X784190Y989607D01*
X784112Y989623D01*
X784035Y989645D01*
X783733Y989699D01*
X783431Y989759D01*
X783367Y989764D01*
X783272Y989781D01*
X782500Y989838D01*
X782404Y989835D01*
X782340Y989839D01*
X17660Y989839D01*
X17353Y989823D01*
X17046Y989814D01*
X16967Y989803D01*
X16887Y989799D01*
X16584Y989752D01*
X16279Y989711D01*
X16201Y989692D01*
X16122Y989680D01*
X15825Y989602D01*
X15526Y989529D01*
X15450Y989502D01*
X15373Y989482D01*
X15087Y989374D01*
X14796Y989271D01*
X14724Y989236D01*
X14649Y989208D01*
X14375Y989071D01*
X14097Y988939D01*
X14028Y988897D01*
X13957Y988861D01*
X13698Y988696D01*
X13435Y988536D01*
X13372Y988488D01*
X13304Y988444D01*
X13064Y988254D01*
X12819Y988067D01*
X12760Y988013D01*
X12698Y987963D01*
X12478Y987748D01*
X12254Y987538D01*
X12202Y987477D01*
X12144Y987421D01*
X11948Y987184D01*
X11747Y986953D01*
X11701Y986887D01*
X11650Y986825D01*
X11479Y986570D01*
X11303Y986318D01*
X11264Y986248D01*
X11219Y986182D01*
X11076Y985910D01*
X10927Y985642D01*
X10895Y985568D01*
X10858Y985497D01*
X10743Y985212D01*
X10622Y984930D01*
X10598Y984853D01*
X10568Y984779D01*
X10484Y984484D01*
X10393Y984190D01*
X10377Y984112D01*
X10355Y984035D01*
X10301Y983733D01*
X10241Y983431D01*
X10236Y983367D01*
X10219Y983272D01*
X10162Y982500D01*
X10165Y982404D01*
X10161Y982340D01*
X10161Y161530D01*
X10169Y161377D01*
X10167Y161223D01*
X10189Y160990D01*
X10201Y160757D01*
X10224Y160605D01*
X10239Y160452D01*
X10284Y160223D01*
X10320Y159992D01*
X10359Y159843D01*
X10389Y159692D01*
X10458Y159469D01*
X10518Y159243D01*
X10572Y159100D01*
X10618Y158952D01*
X10709Y158737D01*
X10792Y158519D01*
X10861Y158381D01*
X10921Y158240D01*
X11034Y158036D01*
X11139Y157827D01*
X11222Y157697D01*
X11296Y157563D01*
X11430Y157371D01*
X11556Y157174D01*
X11651Y157054D01*
X11739Y156928D01*
X11892Y156751D01*
X12037Y156568D01*
X12145Y156458D01*
X12245Y156342D01*
X12415Y156182D01*
X12579Y156014D01*
X12697Y155916D01*
X12809Y155811D01*
X12995Y155669D01*
X13175Y155520D01*
X13303Y155434D01*
X13425Y155341D01*
X13624Y155219D01*
X13818Y155090D01*
X13954Y155018D01*
X14085Y154938D01*
X14296Y154837D01*
X14503Y154728D01*
X14645Y154670D01*
X14784Y154604D01*
X15004Y154526D01*
X15221Y154438D01*
X15369Y154396D01*
X15514Y154344D01*
X15741Y154289D01*
X15965Y154225D01*
X16116Y154198D01*
X16266Y154161D01*
X16498Y154130D01*
X16728Y154089D01*
X16881Y154078D01*
X17033Y154057D01*
X17267Y154050D01*
X17500Y154032D01*
X17653Y154037D01*
X17807Y154032D01*
X18040Y154049D01*
G37*
%LPC*%
G36*
X545303Y451541D02*
X545303Y451541D01*
X545376Y451552D01*
X545449Y451557D01*
X545758Y451612D01*
X546068Y451660D01*
X546139Y451679D01*
X546212Y451692D01*
X546514Y451778D01*
X546817Y451858D01*
X546886Y451884D01*
X546956Y451904D01*
X547248Y452021D01*
X547541Y452132D01*
X547607Y452165D01*
X547675Y452192D01*
X547952Y452338D01*
X548233Y452479D01*
X548295Y452519D01*
X548360Y452553D01*
X548622Y452727D01*
X548886Y452896D01*
X548943Y452941D01*
X549005Y452982D01*
X549119Y453081D01*
X549492Y453377D01*
X549716Y453597D01*
X549833Y453697D01*
X550733Y454597D01*
X550836Y454711D01*
X550946Y454819D01*
X551095Y454999D01*
X551251Y455172D01*
X551342Y455296D01*
X551440Y455415D01*
X551570Y455609D01*
X551708Y455798D01*
X551785Y455931D01*
X551870Y456058D01*
X551980Y456265D01*
X552097Y456467D01*
X552160Y456607D01*
X552232Y456743D01*
X552320Y456960D01*
X552416Y457173D01*
X552464Y457318D01*
X552522Y457461D01*
X552586Y457686D01*
X552660Y457907D01*
X552693Y458058D01*
X552735Y458205D01*
X552776Y458435D01*
X552827Y458664D01*
X552844Y458817D01*
X552871Y458968D01*
X552888Y459200D01*
X552915Y459433D01*
X552916Y459587D01*
X552928Y459740D01*
X552920Y459973D01*
X552923Y460207D01*
X552909Y460360D01*
X552904Y460514D01*
X552873Y460745D01*
X552851Y460978D01*
X552821Y461129D01*
X552801Y461281D01*
X552746Y461508D01*
X552701Y461738D01*
X552655Y461884D01*
X552619Y462034D01*
X552541Y462255D01*
X552472Y462477D01*
X552412Y462619D01*
X552361Y462764D01*
X552261Y462975D01*
X552169Y463190D01*
X552095Y463324D01*
X552029Y463463D01*
X551907Y463663D01*
X551794Y463867D01*
X551706Y463993D01*
X551626Y464125D01*
X551485Y464310D01*
X551351Y464502D01*
X551250Y464619D01*
X551157Y464741D01*
X550998Y464911D01*
X550845Y465088D01*
X550733Y465194D01*
X550628Y465306D01*
X550451Y465459D01*
X550281Y465619D01*
X550159Y465712D01*
X550043Y465813D01*
X549851Y465947D01*
X549665Y466089D01*
X549534Y466169D01*
X549408Y466257D01*
X549204Y466370D01*
X549005Y466492D01*
X548866Y466559D01*
X548732Y466633D01*
X548517Y466725D01*
X548306Y466826D01*
X548161Y466877D01*
X548020Y466938D01*
X547797Y467007D01*
X547576Y467086D01*
X547427Y467122D01*
X547280Y467167D01*
X547051Y467213D01*
X546824Y467269D01*
X546672Y467289D01*
X546521Y467319D01*
X546368Y467331D01*
X546057Y467373D01*
X545580Y467388D01*
X545430Y467399D01*
X459812Y467399D01*
X456833Y468633D01*
X456691Y468684D01*
X456553Y468743D01*
X456326Y468813D01*
X456103Y468892D01*
X455957Y468928D01*
X455813Y468972D01*
X455581Y469019D01*
X455351Y469075D01*
X455202Y469095D01*
X455054Y469124D01*
X454900Y469136D01*
X454583Y469179D01*
X454114Y469193D01*
X453963Y469204D01*
X444871Y469204D01*
X436204Y477871D01*
X436204Y490129D01*
X444871Y498796D01*
X457129Y498796D01*
X460172Y495752D01*
X460284Y495652D01*
X460389Y495544D01*
X460571Y495392D01*
X460747Y495234D01*
X460868Y495145D01*
X460984Y495049D01*
X461181Y494917D01*
X461373Y494777D01*
X461503Y494702D01*
X461628Y494618D01*
X461766Y494549D01*
X462042Y494388D01*
X462469Y494195D01*
X462605Y494127D01*
X463515Y493750D01*
X464667Y492597D01*
X464722Y492548D01*
X464772Y492494D01*
X465009Y492289D01*
X465242Y492079D01*
X465302Y492035D01*
X465357Y491987D01*
X465614Y491807D01*
X465868Y491622D01*
X465932Y491585D01*
X465992Y491543D01*
X466266Y491391D01*
X466537Y491233D01*
X466604Y491202D01*
X466668Y491167D01*
X466957Y491043D01*
X467243Y490914D01*
X467313Y490891D01*
X467380Y490862D01*
X467680Y490769D01*
X467978Y490670D01*
X468050Y490654D01*
X468120Y490633D01*
X468427Y490571D01*
X468734Y490503D01*
X468807Y490495D01*
X468879Y490481D01*
X469029Y490470D01*
X469503Y490415D01*
X469817Y490412D01*
X469970Y490401D01*
X487230Y490401D01*
X487383Y490409D01*
X487537Y490407D01*
X487770Y490429D01*
X488003Y490441D01*
X488155Y490464D01*
X488308Y490479D01*
X488537Y490524D01*
X488768Y490560D01*
X488917Y490599D01*
X489068Y490629D01*
X489291Y490698D01*
X489517Y490758D01*
X489660Y490812D01*
X489808Y490858D01*
X490023Y490949D01*
X490241Y491032D01*
X490378Y491101D01*
X490520Y491161D01*
X490725Y491274D01*
X490933Y491379D01*
X491063Y491462D01*
X491197Y491536D01*
X491389Y491670D01*
X491586Y491796D01*
X491706Y491891D01*
X491832Y491979D01*
X492009Y492132D01*
X492192Y492277D01*
X492302Y492385D01*
X492418Y492485D01*
X492578Y492655D01*
X492746Y492819D01*
X492844Y492937D01*
X492949Y493049D01*
X493091Y493235D01*
X493240Y493415D01*
X493326Y493543D01*
X493419Y493665D01*
X493541Y493864D01*
X493670Y494058D01*
X493742Y494194D01*
X493822Y494325D01*
X493923Y494536D01*
X494032Y494743D01*
X494090Y494886D01*
X494156Y495024D01*
X494234Y495244D01*
X494322Y495461D01*
X494364Y495609D01*
X494416Y495754D01*
X494471Y495981D01*
X494535Y496205D01*
X494562Y496356D01*
X494599Y496506D01*
X494630Y496738D01*
X494671Y496968D01*
X494682Y497121D01*
X494703Y497273D01*
X494710Y497507D01*
X494728Y497740D01*
X494723Y497893D01*
X494728Y498047D01*
X494711Y498280D01*
X494704Y498514D01*
X494684Y498666D01*
X494673Y498819D01*
X494632Y499049D01*
X494601Y499281D01*
X494565Y499431D01*
X494538Y499582D01*
X494474Y499807D01*
X494419Y500034D01*
X494368Y500179D01*
X494326Y500327D01*
X494239Y500544D01*
X494161Y500764D01*
X494095Y500903D01*
X494038Y501045D01*
X493929Y501252D01*
X493829Y501463D01*
X493749Y501594D01*
X493677Y501731D01*
X493548Y501925D01*
X493426Y502125D01*
X493333Y502247D01*
X493248Y502375D01*
X493147Y502491D01*
X492957Y502741D01*
X492631Y503089D01*
X492533Y503203D01*
X481433Y514303D01*
X481378Y514352D01*
X481328Y514406D01*
X481090Y514612D01*
X480858Y514821D01*
X480798Y514865D01*
X480743Y514913D01*
X480485Y515093D01*
X480232Y515278D01*
X480169Y515315D01*
X480108Y515357D01*
X479834Y515510D01*
X479563Y515667D01*
X479496Y515698D01*
X479432Y515733D01*
X479143Y515857D01*
X478857Y515986D01*
X478787Y516009D01*
X478720Y516038D01*
X478420Y516131D01*
X478122Y516230D01*
X478050Y516246D01*
X477980Y516267D01*
X477672Y516329D01*
X477366Y516397D01*
X477293Y516405D01*
X477221Y516419D01*
X477071Y516430D01*
X476597Y516485D01*
X476283Y516488D01*
X476130Y516499D01*
X391870Y516499D01*
X391797Y516495D01*
X391723Y516498D01*
X391410Y516475D01*
X391097Y516459D01*
X391024Y516448D01*
X390951Y516443D01*
X390641Y516388D01*
X390332Y516340D01*
X390261Y516321D01*
X390188Y516308D01*
X389886Y516222D01*
X389583Y516142D01*
X389515Y516116D01*
X389443Y516096D01*
X389151Y515979D01*
X388859Y515868D01*
X388793Y515835D01*
X388725Y515808D01*
X388447Y515662D01*
X388167Y515521D01*
X388105Y515481D01*
X388040Y515447D01*
X387779Y515273D01*
X387514Y515104D01*
X387456Y515059D01*
X387395Y515018D01*
X387281Y514920D01*
X386908Y514623D01*
X386684Y514403D01*
X386567Y514303D01*
X357992Y485728D01*
X357943Y485673D01*
X357889Y485623D01*
X357684Y485386D01*
X357474Y485153D01*
X357430Y485093D01*
X357382Y485038D01*
X357202Y484781D01*
X357017Y484527D01*
X356980Y484463D01*
X356938Y484403D01*
X356785Y484129D01*
X356628Y483858D01*
X356597Y483791D01*
X356562Y483727D01*
X356438Y483438D01*
X356309Y483152D01*
X356286Y483082D01*
X356257Y483015D01*
X356164Y482715D01*
X356065Y482417D01*
X356049Y482345D01*
X356028Y482275D01*
X355966Y481968D01*
X355898Y481661D01*
X355890Y481588D01*
X355876Y481516D01*
X355865Y481366D01*
X355810Y480892D01*
X355807Y480578D01*
X355796Y480425D01*
X355796Y478871D01*
X347129Y470204D01*
X334871Y470204D01*
X326204Y478871D01*
X326204Y491129D01*
X334871Y499796D01*
X336425Y499796D01*
X336498Y499800D01*
X336572Y499797D01*
X336885Y499820D01*
X337198Y499836D01*
X337271Y499847D01*
X337344Y499852D01*
X337654Y499907D01*
X337963Y499955D01*
X338034Y499974D01*
X338107Y499987D01*
X338409Y500073D01*
X338712Y500153D01*
X338780Y500179D01*
X338852Y500199D01*
X339144Y500316D01*
X339436Y500427D01*
X339502Y500460D01*
X339570Y500487D01*
X339848Y500633D01*
X340128Y500774D01*
X340190Y500814D01*
X340255Y500848D01*
X340516Y501022D01*
X340781Y501191D01*
X340839Y501236D01*
X340900Y501277D01*
X341014Y501375D01*
X341387Y501672D01*
X341611Y501892D01*
X341728Y501992D01*
X373195Y533460D01*
X373196Y533460D01*
X377485Y537750D01*
X381712Y539501D01*
X486288Y539501D01*
X490515Y537750D01*
X510667Y517597D01*
X510722Y517548D01*
X510772Y517494D01*
X511009Y517289D01*
X511242Y517079D01*
X511302Y517035D01*
X511357Y516987D01*
X511614Y516807D01*
X511868Y516622D01*
X511932Y516585D01*
X511992Y516543D01*
X512266Y516391D01*
X512537Y516233D01*
X512604Y516202D01*
X512668Y516167D01*
X512957Y516043D01*
X513243Y515914D01*
X513313Y515891D01*
X513380Y515862D01*
X513680Y515769D01*
X513978Y515670D01*
X514050Y515654D01*
X514120Y515633D01*
X514427Y515571D01*
X514734Y515503D01*
X514807Y515495D01*
X514879Y515481D01*
X515029Y515470D01*
X515503Y515415D01*
X515817Y515412D01*
X515970Y515401D01*
X565097Y515401D01*
X565327Y515413D01*
X565558Y515415D01*
X565713Y515433D01*
X565870Y515441D01*
X566098Y515476D01*
X566327Y515502D01*
X566480Y515536D01*
X566635Y515560D01*
X566858Y515619D01*
X567083Y515669D01*
X567232Y515718D01*
X567384Y515758D01*
X567599Y515839D01*
X567818Y515912D01*
X567961Y515976D01*
X568108Y516032D01*
X568314Y516135D01*
X568524Y516230D01*
X568660Y516309D01*
X568800Y516379D01*
X568994Y516503D01*
X569194Y516619D01*
X569321Y516711D01*
X569453Y516796D01*
X569633Y516939D01*
X569820Y517075D01*
X569936Y517180D01*
X570059Y517277D01*
X570224Y517438D01*
X570395Y517593D01*
X570500Y517709D01*
X570612Y517819D01*
X570760Y517996D01*
X570914Y518167D01*
X571007Y518294D01*
X571107Y518415D01*
X571235Y518606D01*
X571371Y518792D01*
X571450Y518928D01*
X571537Y519058D01*
X571645Y519262D01*
X571761Y519461D01*
X571826Y519604D01*
X571899Y519743D01*
X571985Y519957D01*
X572080Y520167D01*
X572130Y520315D01*
X572188Y520461D01*
X572252Y520683D01*
X572325Y520901D01*
X572359Y521055D01*
X572402Y521205D01*
X572443Y521432D01*
X572492Y521657D01*
X572510Y521813D01*
X572538Y521968D01*
X572555Y522197D01*
X572581Y522426D01*
X572583Y522583D01*
X572594Y522740D01*
X572587Y522970D01*
X572590Y523201D01*
X572576Y523357D01*
X572571Y523514D01*
X572540Y523742D01*
X572519Y523972D01*
X572489Y524126D01*
X572468Y524281D01*
X572414Y524506D01*
X572369Y524731D01*
X572332Y524842D01*
X572286Y525034D01*
X572028Y525764D01*
X572026Y525767D01*
X572025Y525770D01*
X571501Y527035D01*
X571501Y532365D01*
X573557Y537328D01*
X573765Y537549D01*
X573813Y537613D01*
X573867Y537672D01*
X574048Y537920D01*
X574235Y538165D01*
X574276Y538233D01*
X574324Y538298D01*
X574478Y538563D01*
X574638Y538825D01*
X574673Y538898D01*
X574713Y538967D01*
X574839Y539247D01*
X574972Y539524D01*
X574999Y539600D01*
X575032Y539673D01*
X575128Y539965D01*
X575231Y540254D01*
X575250Y540331D01*
X575276Y540408D01*
X575342Y540708D01*
X575414Y541006D01*
X575425Y541085D01*
X575442Y541164D01*
X575477Y541469D01*
X575519Y541773D01*
X575521Y541854D01*
X575530Y541933D01*
X575534Y542240D01*
X575544Y542547D01*
X575538Y542627D01*
X575539Y542707D01*
X575510Y543013D01*
X575488Y543320D01*
X575475Y543398D01*
X575467Y543478D01*
X575407Y543780D01*
X575354Y544082D01*
X575332Y544159D01*
X575316Y544238D01*
X575226Y544532D01*
X575142Y544827D01*
X575112Y544901D01*
X575088Y544978D01*
X574968Y545260D01*
X574854Y545545D01*
X574816Y545616D01*
X574785Y545690D01*
X574636Y545959D01*
X574493Y546231D01*
X574449Y546297D01*
X574410Y546367D01*
X574234Y546619D01*
X574064Y546875D01*
X574022Y546923D01*
X573967Y547002D01*
X573553Y547481D01*
X571501Y552435D01*
X571501Y557765D01*
X573557Y562728D01*
X573765Y562949D01*
X573813Y563013D01*
X573867Y563072D01*
X574048Y563320D01*
X574235Y563565D01*
X574276Y563633D01*
X574324Y563698D01*
X574478Y563963D01*
X574638Y564225D01*
X574673Y564298D01*
X574713Y564367D01*
X574839Y564647D01*
X574972Y564924D01*
X574999Y565000D01*
X575032Y565073D01*
X575128Y565365D01*
X575231Y565654D01*
X575250Y565731D01*
X575276Y565808D01*
X575342Y566108D01*
X575414Y566406D01*
X575425Y566485D01*
X575442Y566564D01*
X575477Y566869D01*
X575519Y567173D01*
X575521Y567254D01*
X575530Y567333D01*
X575534Y567640D01*
X575544Y567947D01*
X575538Y568027D01*
X575539Y568107D01*
X575510Y568413D01*
X575488Y568720D01*
X575475Y568798D01*
X575467Y568878D01*
X575407Y569180D01*
X575354Y569482D01*
X575332Y569559D01*
X575316Y569638D01*
X575226Y569932D01*
X575142Y570227D01*
X575112Y570301D01*
X575088Y570378D01*
X574968Y570660D01*
X574854Y570945D01*
X574816Y571016D01*
X574785Y571090D01*
X574636Y571359D01*
X574493Y571631D01*
X574449Y571697D01*
X574410Y571767D01*
X574234Y572019D01*
X574064Y572275D01*
X574022Y572323D01*
X573967Y572402D01*
X573553Y572881D01*
X571501Y577835D01*
X571501Y583165D01*
X573557Y588128D01*
X573765Y588349D01*
X573813Y588413D01*
X573867Y588472D01*
X574048Y588720D01*
X574235Y588965D01*
X574276Y589033D01*
X574324Y589098D01*
X574478Y589363D01*
X574638Y589625D01*
X574673Y589698D01*
X574713Y589767D01*
X574839Y590047D01*
X574972Y590324D01*
X574999Y590400D01*
X575032Y590473D01*
X575128Y590765D01*
X575231Y591054D01*
X575250Y591131D01*
X575276Y591208D01*
X575342Y591508D01*
X575414Y591806D01*
X575425Y591885D01*
X575442Y591964D01*
X575477Y592269D01*
X575519Y592573D01*
X575521Y592654D01*
X575530Y592733D01*
X575534Y593040D01*
X575544Y593347D01*
X575538Y593427D01*
X575539Y593507D01*
X575510Y593813D01*
X575488Y594120D01*
X575475Y594198D01*
X575467Y594278D01*
X575407Y594580D01*
X575354Y594882D01*
X575332Y594959D01*
X575316Y595038D01*
X575226Y595332D01*
X575142Y595627D01*
X575112Y595701D01*
X575088Y595778D01*
X574968Y596060D01*
X574854Y596345D01*
X574816Y596416D01*
X574785Y596490D01*
X574636Y596759D01*
X574493Y597031D01*
X574449Y597097D01*
X574410Y597167D01*
X574234Y597419D01*
X574064Y597675D01*
X574022Y597723D01*
X573967Y597802D01*
X573553Y598281D01*
X571501Y603235D01*
X571501Y608565D01*
X573557Y613528D01*
X573765Y613749D01*
X573813Y613813D01*
X573867Y613872D01*
X574048Y614120D01*
X574235Y614365D01*
X574276Y614433D01*
X574324Y614498D01*
X574478Y614763D01*
X574638Y615025D01*
X574673Y615098D01*
X574713Y615167D01*
X574839Y615447D01*
X574972Y615724D01*
X574999Y615800D01*
X575032Y615873D01*
X575128Y616165D01*
X575231Y616454D01*
X575250Y616531D01*
X575276Y616608D01*
X575342Y616908D01*
X575414Y617206D01*
X575425Y617285D01*
X575442Y617364D01*
X575477Y617669D01*
X575519Y617973D01*
X575521Y618054D01*
X575530Y618133D01*
X575534Y618440D01*
X575544Y618747D01*
X575538Y618827D01*
X575539Y618907D01*
X575510Y619213D01*
X575488Y619520D01*
X575475Y619598D01*
X575467Y619678D01*
X575407Y619980D01*
X575354Y620282D01*
X575332Y620359D01*
X575316Y620438D01*
X575226Y620732D01*
X575142Y621027D01*
X575112Y621101D01*
X575088Y621178D01*
X574968Y621460D01*
X574854Y621745D01*
X574816Y621816D01*
X574785Y621890D01*
X574636Y622159D01*
X574493Y622431D01*
X574449Y622497D01*
X574410Y622567D01*
X574234Y622819D01*
X574064Y623075D01*
X574022Y623123D01*
X573967Y623202D01*
X573553Y623681D01*
X571501Y628635D01*
X571501Y633965D01*
X573557Y638928D01*
X573765Y639149D01*
X573813Y639213D01*
X573867Y639272D01*
X574048Y639520D01*
X574235Y639765D01*
X574276Y639833D01*
X574324Y639898D01*
X574478Y640163D01*
X574638Y640425D01*
X574673Y640498D01*
X574713Y640567D01*
X574839Y640847D01*
X574972Y641124D01*
X574999Y641200D01*
X575032Y641273D01*
X575128Y641565D01*
X575231Y641854D01*
X575250Y641931D01*
X575276Y642008D01*
X575342Y642308D01*
X575414Y642606D01*
X575425Y642685D01*
X575442Y642764D01*
X575477Y643069D01*
X575519Y643373D01*
X575521Y643454D01*
X575530Y643533D01*
X575534Y643840D01*
X575544Y644147D01*
X575538Y644227D01*
X575539Y644307D01*
X575510Y644613D01*
X575488Y644920D01*
X575475Y644998D01*
X575467Y645078D01*
X575407Y645380D01*
X575354Y645682D01*
X575332Y645759D01*
X575316Y645838D01*
X575226Y646132D01*
X575142Y646427D01*
X575112Y646501D01*
X575088Y646578D01*
X574968Y646860D01*
X574854Y647145D01*
X574816Y647216D01*
X574785Y647290D01*
X574636Y647559D01*
X574493Y647831D01*
X574449Y647897D01*
X574410Y647967D01*
X574234Y648219D01*
X574064Y648475D01*
X574022Y648523D01*
X573967Y648602D01*
X573553Y649081D01*
X571501Y654035D01*
X571501Y659365D01*
X573557Y664328D01*
X573765Y664549D01*
X573813Y664613D01*
X573867Y664672D01*
X574048Y664920D01*
X574235Y665165D01*
X574276Y665233D01*
X574324Y665298D01*
X574478Y665563D01*
X574638Y665825D01*
X574673Y665898D01*
X574713Y665967D01*
X574839Y666247D01*
X574972Y666524D01*
X574999Y666600D01*
X575032Y666673D01*
X575128Y666965D01*
X575231Y667254D01*
X575250Y667331D01*
X575276Y667408D01*
X575342Y667708D01*
X575414Y668006D01*
X575425Y668085D01*
X575442Y668164D01*
X575477Y668469D01*
X575519Y668773D01*
X575521Y668854D01*
X575530Y668933D01*
X575534Y669240D01*
X575544Y669547D01*
X575538Y669627D01*
X575539Y669707D01*
X575510Y670013D01*
X575488Y670320D01*
X575475Y670398D01*
X575467Y670478D01*
X575407Y670780D01*
X575354Y671082D01*
X575332Y671159D01*
X575316Y671238D01*
X575226Y671532D01*
X575142Y671827D01*
X575112Y671901D01*
X575088Y671978D01*
X574968Y672260D01*
X574854Y672545D01*
X574816Y672616D01*
X574785Y672690D01*
X574636Y672959D01*
X574493Y673231D01*
X574449Y673297D01*
X574410Y673367D01*
X574234Y673619D01*
X574064Y673875D01*
X574022Y673923D01*
X573967Y674002D01*
X573553Y674481D01*
X571501Y679435D01*
X571501Y684765D01*
X571662Y685154D01*
X573541Y689690D01*
X574536Y690684D01*
X574672Y690836D01*
X574816Y690980D01*
X574931Y691123D01*
X575054Y691259D01*
X575174Y691424D01*
X575302Y691583D01*
X575403Y691737D01*
X575511Y691885D01*
X575613Y692061D01*
X575724Y692232D01*
X575808Y692395D01*
X575900Y692554D01*
X575984Y692740D01*
X576077Y692921D01*
X576143Y693092D01*
X576219Y693260D01*
X576283Y693453D01*
X576357Y693643D01*
X576405Y693820D01*
X576463Y693995D01*
X576507Y694194D01*
X576560Y694390D01*
X576590Y694571D01*
X576630Y694751D01*
X576653Y694953D01*
X576686Y695154D01*
X576697Y695337D01*
X576718Y695520D01*
X576720Y695724D01*
X576732Y695927D01*
X576724Y696110D01*
X576726Y696294D01*
X576707Y696497D01*
X576698Y696701D01*
X576671Y696883D01*
X576654Y697065D01*
X576615Y697265D01*
X576585Y697467D01*
X576539Y697645D01*
X576504Y697825D01*
X576444Y698020D01*
X576393Y698217D01*
X576330Y698389D01*
X576275Y698565D01*
X576196Y698752D01*
X576125Y698943D01*
X576044Y699108D01*
X575972Y699277D01*
X575873Y699455D01*
X575783Y699638D01*
X575711Y699749D01*
X575597Y699954D01*
X575565Y700001D01*
X584900Y700001D01*
X594237Y700001D01*
X594179Y699915D01*
X594081Y699736D01*
X593974Y699562D01*
X593895Y699396D01*
X593808Y699235D01*
X593729Y699047D01*
X593641Y698863D01*
X593580Y698690D01*
X593509Y698521D01*
X593450Y698325D01*
X593381Y698134D01*
X593338Y697955D01*
X593285Y697780D01*
X593247Y697579D01*
X593198Y697381D01*
X593174Y697200D01*
X593139Y697019D01*
X593121Y696816D01*
X593094Y696614D01*
X593088Y696431D01*
X593072Y696248D01*
X593076Y696044D01*
X593069Y695840D01*
X593082Y695657D01*
X593085Y695474D01*
X593110Y695271D01*
X593124Y695068D01*
X593156Y694887D01*
X593178Y694705D01*
X593223Y694506D01*
X593259Y694305D01*
X593309Y694129D01*
X593350Y693950D01*
X593415Y693757D01*
X593471Y693561D01*
X593539Y693390D01*
X593598Y693217D01*
X593683Y693031D01*
X593759Y692842D01*
X593845Y692680D01*
X593921Y692513D01*
X594025Y692337D01*
X594120Y692157D01*
X594221Y692004D01*
X594315Y691846D01*
X594436Y691682D01*
X594549Y691512D01*
X594635Y691413D01*
X594775Y691223D01*
X595211Y690746D01*
X595264Y690684D01*
X596259Y689690D01*
X598299Y684765D01*
X598299Y679435D01*
X596243Y674472D01*
X596035Y674251D01*
X595987Y674187D01*
X595933Y674128D01*
X595752Y673880D01*
X595565Y673635D01*
X595524Y673567D01*
X595477Y673502D01*
X595322Y673237D01*
X595162Y672975D01*
X595127Y672902D01*
X595087Y672833D01*
X594961Y672553D01*
X594828Y672276D01*
X594801Y672200D01*
X594769Y672127D01*
X594672Y671836D01*
X594569Y671546D01*
X594550Y671469D01*
X594525Y671393D01*
X594458Y671093D01*
X594386Y670794D01*
X594375Y670714D01*
X594358Y670637D01*
X594323Y670331D01*
X594281Y670027D01*
X594279Y669947D01*
X594270Y669867D01*
X594266Y669560D01*
X594256Y669253D01*
X594262Y669173D01*
X594261Y669093D01*
X594290Y668787D01*
X594312Y668481D01*
X594325Y668402D01*
X594333Y668322D01*
X594393Y668020D01*
X594446Y667718D01*
X594468Y667641D01*
X594484Y667563D01*
X594574Y667269D01*
X594658Y666973D01*
X594688Y666899D01*
X594712Y666823D01*
X594832Y666540D01*
X594946Y666255D01*
X594984Y666184D01*
X595015Y666110D01*
X595164Y665841D01*
X595307Y665570D01*
X595351Y665503D01*
X595390Y665433D01*
X595566Y665180D01*
X595736Y664925D01*
X595778Y664877D01*
X595833Y664798D01*
X596247Y664319D01*
X598299Y659365D01*
X598299Y654035D01*
X596243Y649072D01*
X596035Y648851D01*
X595987Y648787D01*
X595933Y648728D01*
X595752Y648480D01*
X595565Y648235D01*
X595524Y648167D01*
X595477Y648102D01*
X595322Y647837D01*
X595162Y647575D01*
X595127Y647502D01*
X595087Y647433D01*
X594961Y647153D01*
X594828Y646876D01*
X594801Y646800D01*
X594769Y646727D01*
X594672Y646436D01*
X594569Y646146D01*
X594550Y646069D01*
X594525Y645993D01*
X594458Y645693D01*
X594386Y645394D01*
X594375Y645314D01*
X594358Y645237D01*
X594323Y644931D01*
X594281Y644627D01*
X594279Y644547D01*
X594270Y644467D01*
X594266Y644160D01*
X594256Y643853D01*
X594262Y643773D01*
X594261Y643693D01*
X594290Y643387D01*
X594312Y643081D01*
X594325Y643002D01*
X594333Y642922D01*
X594393Y642620D01*
X594446Y642318D01*
X594468Y642241D01*
X594484Y642163D01*
X594574Y641869D01*
X594658Y641573D01*
X594688Y641499D01*
X594712Y641423D01*
X594832Y641140D01*
X594946Y640855D01*
X594984Y640784D01*
X595015Y640710D01*
X595164Y640441D01*
X595307Y640170D01*
X595351Y640103D01*
X595390Y640033D01*
X595566Y639780D01*
X595736Y639525D01*
X595778Y639477D01*
X595833Y639398D01*
X596247Y638919D01*
X598299Y633965D01*
X598299Y628635D01*
X596243Y623672D01*
X596035Y623451D01*
X595987Y623387D01*
X595933Y623328D01*
X595752Y623080D01*
X595565Y622835D01*
X595524Y622767D01*
X595477Y622702D01*
X595322Y622437D01*
X595162Y622175D01*
X595127Y622102D01*
X595087Y622033D01*
X594961Y621753D01*
X594828Y621476D01*
X594801Y621400D01*
X594769Y621327D01*
X594672Y621036D01*
X594569Y620746D01*
X594550Y620669D01*
X594525Y620593D01*
X594458Y620293D01*
X594386Y619994D01*
X594375Y619914D01*
X594358Y619837D01*
X594323Y619531D01*
X594281Y619227D01*
X594279Y619147D01*
X594270Y619067D01*
X594266Y618760D01*
X594256Y618453D01*
X594262Y618373D01*
X594261Y618293D01*
X594290Y617987D01*
X594312Y617681D01*
X594325Y617602D01*
X594333Y617522D01*
X594393Y617220D01*
X594446Y616918D01*
X594468Y616841D01*
X594484Y616763D01*
X594574Y616469D01*
X594658Y616173D01*
X594688Y616099D01*
X594712Y616023D01*
X594832Y615740D01*
X594946Y615455D01*
X594984Y615384D01*
X595015Y615310D01*
X595164Y615041D01*
X595307Y614770D01*
X595351Y614703D01*
X595390Y614633D01*
X595566Y614380D01*
X595736Y614125D01*
X595778Y614077D01*
X595833Y613998D01*
X596247Y613519D01*
X598299Y608565D01*
X598299Y603235D01*
X596243Y598272D01*
X596035Y598051D01*
X595987Y597987D01*
X595933Y597928D01*
X595752Y597680D01*
X595565Y597435D01*
X595524Y597367D01*
X595477Y597302D01*
X595322Y597037D01*
X595162Y596775D01*
X595127Y596702D01*
X595087Y596633D01*
X594961Y596353D01*
X594828Y596076D01*
X594801Y596000D01*
X594769Y595927D01*
X594672Y595636D01*
X594569Y595346D01*
X594550Y595269D01*
X594525Y595193D01*
X594458Y594893D01*
X594386Y594594D01*
X594375Y594514D01*
X594358Y594437D01*
X594323Y594131D01*
X594281Y593827D01*
X594279Y593747D01*
X594270Y593667D01*
X594266Y593360D01*
X594256Y593053D01*
X594262Y592973D01*
X594261Y592893D01*
X594290Y592587D01*
X594312Y592281D01*
X594325Y592202D01*
X594333Y592122D01*
X594393Y591820D01*
X594446Y591518D01*
X594468Y591441D01*
X594484Y591363D01*
X594574Y591069D01*
X594658Y590773D01*
X594688Y590699D01*
X594712Y590623D01*
X594832Y590340D01*
X594946Y590055D01*
X594984Y589984D01*
X595015Y589910D01*
X595164Y589641D01*
X595307Y589370D01*
X595351Y589303D01*
X595390Y589233D01*
X595566Y588980D01*
X595736Y588725D01*
X595778Y588677D01*
X595833Y588598D01*
X596247Y588119D01*
X598299Y583165D01*
X598299Y577835D01*
X596243Y572872D01*
X596035Y572651D01*
X595987Y572587D01*
X595933Y572528D01*
X595752Y572280D01*
X595565Y572035D01*
X595524Y571967D01*
X595477Y571902D01*
X595322Y571637D01*
X595162Y571375D01*
X595127Y571302D01*
X595087Y571233D01*
X594961Y570953D01*
X594828Y570676D01*
X594801Y570600D01*
X594769Y570527D01*
X594672Y570236D01*
X594569Y569946D01*
X594550Y569869D01*
X594525Y569793D01*
X594458Y569493D01*
X594386Y569194D01*
X594375Y569114D01*
X594358Y569037D01*
X594323Y568731D01*
X594281Y568427D01*
X594279Y568347D01*
X594270Y568267D01*
X594266Y567960D01*
X594256Y567653D01*
X594262Y567573D01*
X594261Y567493D01*
X594290Y567187D01*
X594312Y566881D01*
X594325Y566802D01*
X594333Y566722D01*
X594393Y566420D01*
X594446Y566118D01*
X594468Y566041D01*
X594484Y565963D01*
X594574Y565669D01*
X594658Y565373D01*
X594688Y565299D01*
X594712Y565223D01*
X594832Y564940D01*
X594946Y564655D01*
X594984Y564584D01*
X595015Y564510D01*
X595164Y564241D01*
X595307Y563970D01*
X595351Y563903D01*
X595390Y563833D01*
X595566Y563580D01*
X595736Y563325D01*
X595778Y563277D01*
X595833Y563198D01*
X596247Y562719D01*
X598299Y557765D01*
X598299Y552435D01*
X596243Y547472D01*
X596035Y547251D01*
X595987Y547187D01*
X595933Y547128D01*
X595752Y546880D01*
X595565Y546635D01*
X595524Y546567D01*
X595477Y546502D01*
X595322Y546237D01*
X595162Y545975D01*
X595127Y545902D01*
X595087Y545833D01*
X594961Y545553D01*
X594828Y545276D01*
X594801Y545200D01*
X594769Y545127D01*
X594672Y544836D01*
X594569Y544546D01*
X594550Y544469D01*
X594525Y544393D01*
X594458Y544093D01*
X594386Y543794D01*
X594375Y543714D01*
X594358Y543637D01*
X594323Y543331D01*
X594281Y543027D01*
X594279Y542947D01*
X594270Y542867D01*
X594266Y542560D01*
X594256Y542253D01*
X594262Y542173D01*
X594261Y542093D01*
X594290Y541787D01*
X594312Y541481D01*
X594325Y541402D01*
X594333Y541322D01*
X594393Y541020D01*
X594446Y540718D01*
X594468Y540641D01*
X594484Y540563D01*
X594574Y540269D01*
X594658Y539973D01*
X594688Y539899D01*
X594712Y539823D01*
X594832Y539540D01*
X594946Y539255D01*
X594984Y539184D01*
X595015Y539110D01*
X595164Y538841D01*
X595307Y538570D01*
X595351Y538503D01*
X595390Y538433D01*
X595566Y538180D01*
X595736Y537925D01*
X595778Y537877D01*
X595833Y537798D01*
X596247Y537319D01*
X598299Y532365D01*
X598299Y527035D01*
X596243Y522072D01*
X596035Y521851D01*
X595987Y521787D01*
X595933Y521728D01*
X595752Y521480D01*
X595565Y521235D01*
X595524Y521167D01*
X595477Y521102D01*
X595322Y520837D01*
X595162Y520575D01*
X595127Y520502D01*
X595087Y520433D01*
X594961Y520153D01*
X594828Y519876D01*
X594801Y519800D01*
X594769Y519727D01*
X594672Y519436D01*
X594569Y519146D01*
X594550Y519069D01*
X594525Y518993D01*
X594458Y518693D01*
X594386Y518394D01*
X594375Y518314D01*
X594358Y518237D01*
X594323Y517931D01*
X594281Y517627D01*
X594279Y517547D01*
X594270Y517467D01*
X594266Y517160D01*
X594256Y516853D01*
X594262Y516773D01*
X594261Y516693D01*
X594290Y516387D01*
X594312Y516081D01*
X594325Y516002D01*
X594333Y515922D01*
X594393Y515620D01*
X594446Y515318D01*
X594468Y515241D01*
X594484Y515163D01*
X594574Y514869D01*
X594658Y514573D01*
X594688Y514499D01*
X594712Y514423D01*
X594832Y514140D01*
X594946Y513855D01*
X594984Y513784D01*
X595015Y513710D01*
X595164Y513441D01*
X595307Y513170D01*
X595351Y513103D01*
X595390Y513033D01*
X595566Y512780D01*
X595736Y512525D01*
X595778Y512477D01*
X595833Y512398D01*
X596247Y511919D01*
X598299Y506965D01*
X598299Y501635D01*
X596243Y496672D01*
X596035Y496451D01*
X595987Y496387D01*
X595933Y496328D01*
X595752Y496080D01*
X595565Y495835D01*
X595524Y495767D01*
X595477Y495702D01*
X595322Y495437D01*
X595162Y495175D01*
X595127Y495102D01*
X595087Y495033D01*
X594961Y494753D01*
X594828Y494476D01*
X594801Y494400D01*
X594769Y494327D01*
X594672Y494036D01*
X594569Y493746D01*
X594550Y493669D01*
X594525Y493593D01*
X594458Y493293D01*
X594386Y492994D01*
X594375Y492914D01*
X594358Y492837D01*
X594323Y492531D01*
X594281Y492227D01*
X594279Y492147D01*
X594270Y492067D01*
X594266Y491760D01*
X594256Y491453D01*
X594262Y491373D01*
X594261Y491293D01*
X594290Y490987D01*
X594312Y490681D01*
X594325Y490602D01*
X594333Y490522D01*
X594393Y490220D01*
X594446Y489918D01*
X594468Y489841D01*
X594484Y489763D01*
X594574Y489469D01*
X594658Y489173D01*
X594688Y489099D01*
X594712Y489023D01*
X594832Y488740D01*
X594946Y488455D01*
X594984Y488384D01*
X595015Y488310D01*
X595164Y488041D01*
X595307Y487770D01*
X595351Y487703D01*
X595390Y487633D01*
X595566Y487380D01*
X595736Y487125D01*
X595778Y487077D01*
X595833Y486998D01*
X596247Y486519D01*
X598299Y481565D01*
X598299Y476235D01*
X596243Y471272D01*
X596035Y471051D01*
X595987Y470987D01*
X595933Y470928D01*
X595752Y470680D01*
X595565Y470435D01*
X595524Y470367D01*
X595477Y470302D01*
X595322Y470037D01*
X595162Y469775D01*
X595127Y469702D01*
X595087Y469633D01*
X594961Y469353D01*
X594828Y469076D01*
X594801Y469000D01*
X594769Y468927D01*
X594672Y468636D01*
X594569Y468346D01*
X594550Y468269D01*
X594525Y468193D01*
X594458Y467893D01*
X594386Y467594D01*
X594375Y467514D01*
X594358Y467437D01*
X594323Y467131D01*
X594281Y466827D01*
X594279Y466747D01*
X594270Y466667D01*
X594266Y466360D01*
X594256Y466053D01*
X594262Y465973D01*
X594261Y465893D01*
X594290Y465587D01*
X594312Y465281D01*
X594325Y465202D01*
X594333Y465122D01*
X594393Y464820D01*
X594446Y464518D01*
X594468Y464441D01*
X594484Y464363D01*
X594574Y464069D01*
X594658Y463773D01*
X594688Y463699D01*
X594712Y463623D01*
X594832Y463340D01*
X594946Y463055D01*
X594984Y462984D01*
X595015Y462910D01*
X595164Y462641D01*
X595307Y462370D01*
X595351Y462303D01*
X595390Y462233D01*
X595566Y461980D01*
X595736Y461725D01*
X595778Y461677D01*
X595833Y461598D01*
X596247Y461119D01*
X598299Y456165D01*
X598299Y450835D01*
X596243Y445872D01*
X596035Y445651D01*
X595987Y445587D01*
X595933Y445528D01*
X595752Y445280D01*
X595565Y445035D01*
X595524Y444967D01*
X595477Y444902D01*
X595322Y444637D01*
X595162Y444375D01*
X595127Y444302D01*
X595087Y444233D01*
X594961Y443953D01*
X594828Y443676D01*
X594801Y443600D01*
X594769Y443527D01*
X594672Y443236D01*
X594569Y442946D01*
X594550Y442869D01*
X594525Y442793D01*
X594458Y442493D01*
X594386Y442194D01*
X594375Y442114D01*
X594358Y442037D01*
X594323Y441731D01*
X594281Y441427D01*
X594279Y441347D01*
X594270Y441267D01*
X594266Y440960D01*
X594256Y440653D01*
X594262Y440573D01*
X594261Y440493D01*
X594290Y440187D01*
X594312Y439881D01*
X594325Y439802D01*
X594333Y439722D01*
X594393Y439420D01*
X594446Y439118D01*
X594468Y439041D01*
X594484Y438963D01*
X594574Y438669D01*
X594658Y438373D01*
X594688Y438299D01*
X594712Y438223D01*
X594832Y437940D01*
X594946Y437655D01*
X594984Y437584D01*
X595015Y437510D01*
X595164Y437241D01*
X595307Y436970D01*
X595351Y436903D01*
X595390Y436833D01*
X595566Y436580D01*
X595736Y436325D01*
X595778Y436277D01*
X595833Y436198D01*
X596247Y435719D01*
X598299Y430765D01*
X598299Y425435D01*
X596259Y420510D01*
X592490Y416741D01*
X587565Y414701D01*
X582235Y414701D01*
X581023Y415203D01*
X581017Y415206D01*
X580656Y415334D01*
X580552Y415371D01*
X580294Y415463D01*
X580291Y415464D01*
X580288Y415465D01*
X579912Y415556D01*
X579541Y415646D01*
X579538Y415646D01*
X579535Y415647D01*
X579162Y415698D01*
X578774Y415750D01*
X578771Y415750D01*
X578768Y415751D01*
X578383Y415763D01*
X578000Y415775D01*
X577997Y415775D01*
X577994Y415775D01*
X577621Y415748D01*
X577228Y415720D01*
X577225Y415719D01*
X577221Y415719D01*
X576837Y415651D01*
X576690Y415625D01*
X576465Y415585D01*
X576462Y415585D01*
X576459Y415584D01*
X576087Y415477D01*
X575721Y415373D01*
X575718Y415372D01*
X575715Y415371D01*
X575367Y415231D01*
X575358Y415228D01*
X575002Y415085D01*
X574999Y415083D01*
X574996Y415082D01*
X574660Y414905D01*
X574317Y414724D01*
X574314Y414723D01*
X574311Y414721D01*
X573990Y414506D01*
X573672Y414295D01*
X573670Y414293D01*
X573667Y414291D01*
X573071Y413797D01*
X572933Y413656D01*
X572845Y413580D01*
X571805Y412540D01*
X571804Y412540D01*
X567515Y408250D01*
X563288Y406499D01*
X271870Y406499D01*
X271797Y406495D01*
X271723Y406498D01*
X271410Y406475D01*
X271097Y406459D01*
X271024Y406448D01*
X270951Y406443D01*
X270641Y406388D01*
X270332Y406340D01*
X270261Y406321D01*
X270188Y406308D01*
X269886Y406222D01*
X269583Y406142D01*
X269515Y406116D01*
X269443Y406096D01*
X269151Y405979D01*
X268859Y405868D01*
X268793Y405835D01*
X268725Y405808D01*
X268447Y405662D01*
X268167Y405521D01*
X268105Y405481D01*
X268040Y405447D01*
X267779Y405273D01*
X267514Y405104D01*
X267456Y405059D01*
X267395Y405018D01*
X267281Y404920D01*
X266908Y404623D01*
X266684Y404403D01*
X266567Y404303D01*
X235697Y373433D01*
X235648Y373378D01*
X235594Y373328D01*
X235389Y373091D01*
X235179Y372858D01*
X235135Y372798D01*
X235087Y372743D01*
X234907Y372486D01*
X234722Y372232D01*
X234685Y372168D01*
X234643Y372108D01*
X234491Y371834D01*
X234333Y371563D01*
X234302Y371496D01*
X234267Y371432D01*
X234143Y371143D01*
X234014Y370857D01*
X233991Y370787D01*
X233962Y370720D01*
X233869Y370420D01*
X233770Y370122D01*
X233754Y370050D01*
X233733Y369980D01*
X233671Y369673D01*
X233603Y369366D01*
X233595Y369293D01*
X233581Y369221D01*
X233570Y369071D01*
X233515Y368597D01*
X233512Y368283D01*
X233501Y368130D01*
X233501Y184000D01*
X233517Y183693D01*
X233526Y183386D01*
X233537Y183307D01*
X233541Y183227D01*
X233588Y182924D01*
X233629Y182619D01*
X233648Y182541D01*
X233660Y182462D01*
X233738Y182165D01*
X233811Y181866D01*
X233838Y181790D01*
X233858Y181713D01*
X233966Y181427D01*
X234069Y181136D01*
X234104Y181064D01*
X234132Y180989D01*
X234269Y180715D01*
X234401Y180437D01*
X234443Y180368D01*
X234479Y180297D01*
X234644Y180038D01*
X234804Y179775D01*
X234852Y179712D01*
X234896Y179644D01*
X235086Y179404D01*
X235273Y179159D01*
X235327Y179100D01*
X235377Y179038D01*
X235592Y178818D01*
X235802Y178594D01*
X235863Y178542D01*
X235919Y178484D01*
X236156Y178288D01*
X236387Y178087D01*
X236453Y178041D01*
X236515Y177990D01*
X236770Y177819D01*
X237022Y177643D01*
X237092Y177604D01*
X237158Y177559D01*
X237430Y177416D01*
X237698Y177267D01*
X237772Y177235D01*
X237843Y177198D01*
X238128Y177083D01*
X238410Y176962D01*
X238487Y176938D01*
X238561Y176908D01*
X238856Y176824D01*
X239150Y176733D01*
X239228Y176717D01*
X239305Y176695D01*
X239607Y176641D01*
X239909Y176581D01*
X239973Y176576D01*
X240068Y176559D01*
X240840Y176502D01*
X240936Y176505D01*
X241000Y176501D01*
X253130Y176501D01*
X253203Y176505D01*
X253277Y176502D01*
X253590Y176525D01*
X253903Y176541D01*
X253976Y176552D01*
X254049Y176557D01*
X254358Y176612D01*
X254668Y176660D01*
X254739Y176679D01*
X254812Y176692D01*
X255114Y176778D01*
X255417Y176858D01*
X255485Y176884D01*
X255557Y176904D01*
X255849Y177021D01*
X256141Y177132D01*
X256207Y177165D01*
X256275Y177192D01*
X256553Y177338D01*
X256833Y177479D01*
X256895Y177519D01*
X256960Y177553D01*
X257221Y177727D01*
X257486Y177896D01*
X257544Y177941D01*
X257605Y177982D01*
X257718Y178080D01*
X258092Y178377D01*
X258316Y178597D01*
X258433Y178697D01*
X351485Y271750D01*
X355712Y273501D01*
X377161Y273501D01*
X377392Y273513D01*
X377622Y273515D01*
X377778Y273533D01*
X377935Y273541D01*
X378162Y273576D01*
X378392Y273602D01*
X378545Y273636D01*
X378700Y273660D01*
X378922Y273719D01*
X379148Y273769D01*
X379297Y273818D01*
X379448Y273858D01*
X379664Y273939D01*
X379883Y274012D01*
X380026Y274076D01*
X380172Y274132D01*
X380379Y274235D01*
X380589Y274330D01*
X380724Y274409D01*
X380865Y274479D01*
X381059Y274603D01*
X381259Y274719D01*
X381385Y274811D01*
X381517Y274896D01*
X381698Y275039D01*
X381884Y275175D01*
X382001Y275280D01*
X382124Y275377D01*
X382288Y275539D01*
X382460Y275693D01*
X382565Y275809D01*
X382677Y275919D01*
X382824Y276096D01*
X382979Y276268D01*
X383071Y276394D01*
X383171Y276515D01*
X383300Y276706D01*
X383436Y276893D01*
X383515Y277028D01*
X383602Y277158D01*
X383710Y277362D01*
X383826Y277562D01*
X383890Y277704D01*
X383964Y277843D01*
X384050Y278057D01*
X384145Y278267D01*
X384194Y278416D01*
X384253Y278561D01*
X384317Y278783D01*
X384389Y279002D01*
X384423Y279155D01*
X384467Y279305D01*
X384507Y279532D01*
X384557Y279758D01*
X384573Y279901D01*
X395000Y279901D01*
X403694Y279901D01*
X403604Y279771D01*
X403507Y279592D01*
X403400Y279418D01*
X403321Y279252D01*
X403233Y279091D01*
X403155Y278903D01*
X403067Y278719D01*
X403005Y278546D01*
X402934Y278377D01*
X402876Y278181D01*
X402807Y277989D01*
X402764Y277811D01*
X402711Y277635D01*
X402672Y277435D01*
X402624Y277237D01*
X402599Y277055D01*
X402565Y276875D01*
X402547Y276672D01*
X402520Y276470D01*
X402514Y276286D01*
X402498Y276104D01*
X402501Y275900D01*
X402495Y275696D01*
X402508Y275513D01*
X402511Y275329D01*
X402536Y275127D01*
X402550Y274924D01*
X402582Y274743D01*
X402604Y274561D01*
X402649Y274362D01*
X402685Y274161D01*
X402735Y273985D01*
X402776Y273806D01*
X402841Y273612D01*
X402897Y273416D01*
X402965Y273246D01*
X403024Y273072D01*
X403109Y272887D01*
X403185Y272698D01*
X403270Y272535D01*
X403347Y272369D01*
X403451Y272193D01*
X403546Y272012D01*
X403647Y271860D01*
X403741Y271702D01*
X403862Y271537D01*
X403975Y271368D01*
X404061Y271269D01*
X404201Y271079D01*
X404636Y270603D01*
X404690Y270540D01*
X405928Y269302D01*
X407891Y264564D01*
X407891Y259436D01*
X405928Y254698D01*
X405833Y254603D01*
X405627Y254375D01*
X405417Y254151D01*
X405368Y254087D01*
X405315Y254028D01*
X405133Y253780D01*
X404947Y253535D01*
X404905Y253467D01*
X404858Y253402D01*
X404703Y253136D01*
X404543Y252875D01*
X404509Y252802D01*
X404469Y252733D01*
X404342Y252452D01*
X404210Y252176D01*
X404183Y252101D01*
X404150Y252027D01*
X404053Y251735D01*
X403950Y251446D01*
X403931Y251368D01*
X403906Y251292D01*
X403840Y250992D01*
X403767Y250694D01*
X403756Y250615D01*
X403739Y250536D01*
X403704Y250232D01*
X403663Y249927D01*
X403660Y249846D01*
X403651Y249767D01*
X403648Y249460D01*
X403638Y249153D01*
X403644Y249073D01*
X403643Y248993D01*
X403671Y248687D01*
X403693Y248380D01*
X403707Y248302D01*
X403714Y248222D01*
X403774Y247920D01*
X403828Y247618D01*
X403850Y247541D01*
X403865Y247462D01*
X403956Y247169D01*
X404040Y246873D01*
X404070Y246799D01*
X404093Y246722D01*
X404214Y246440D01*
X404328Y246155D01*
X404365Y246084D01*
X404397Y246010D01*
X404546Y245741D01*
X404689Y245469D01*
X404733Y245403D01*
X404772Y245333D01*
X404948Y245081D01*
X405118Y244825D01*
X405160Y244777D01*
X405215Y244698D01*
X405721Y244112D01*
X405792Y244045D01*
X405833Y243997D01*
X405928Y243902D01*
X407891Y239164D01*
X407891Y234036D01*
X405928Y229298D01*
X402302Y225672D01*
X397564Y223709D01*
X392436Y223709D01*
X390458Y224528D01*
X390317Y224579D01*
X390178Y224638D01*
X389952Y224708D01*
X389729Y224787D01*
X389582Y224823D01*
X389439Y224867D01*
X389206Y224914D01*
X388976Y224970D01*
X388827Y224990D01*
X388679Y225019D01*
X388525Y225031D01*
X388209Y225074D01*
X387740Y225088D01*
X387588Y225099D01*
X373470Y225099D01*
X373397Y225095D01*
X373323Y225098D01*
X373010Y225075D01*
X372697Y225059D01*
X372624Y225048D01*
X372551Y225043D01*
X372242Y224988D01*
X371932Y224940D01*
X371861Y224921D01*
X371788Y224908D01*
X371486Y224822D01*
X371183Y224742D01*
X371115Y224716D01*
X371043Y224696D01*
X370751Y224579D01*
X370459Y224468D01*
X370393Y224435D01*
X370325Y224408D01*
X370047Y224262D01*
X369767Y224121D01*
X369705Y224081D01*
X369640Y224047D01*
X369379Y223873D01*
X369114Y223704D01*
X369056Y223659D01*
X368995Y223618D01*
X368882Y223520D01*
X368508Y223223D01*
X368284Y223003D01*
X368167Y222903D01*
X325561Y180297D01*
X282783Y137519D01*
X278493Y133229D01*
X274266Y131478D01*
X239000Y131478D01*
X238693Y131462D01*
X238386Y131453D01*
X238307Y131442D01*
X238227Y131438D01*
X237924Y131391D01*
X237619Y131350D01*
X237541Y131331D01*
X237462Y131319D01*
X237165Y131240D01*
X236866Y131168D01*
X236790Y131141D01*
X236713Y131121D01*
X236427Y131013D01*
X236136Y130910D01*
X236064Y130875D01*
X235989Y130847D01*
X235715Y130709D01*
X235437Y130577D01*
X235368Y130536D01*
X235297Y130500D01*
X235038Y130335D01*
X234775Y130175D01*
X234712Y130126D01*
X234644Y130083D01*
X234404Y129892D01*
X234159Y129706D01*
X234100Y129651D01*
X234038Y129602D01*
X233818Y129387D01*
X233594Y129177D01*
X233542Y129116D01*
X233484Y129060D01*
X233288Y128823D01*
X233087Y128591D01*
X233041Y128526D01*
X232990Y128464D01*
X232819Y128209D01*
X232643Y127957D01*
X232604Y127887D01*
X232559Y127820D01*
X232416Y127549D01*
X232267Y127280D01*
X232235Y127207D01*
X232198Y127136D01*
X232083Y126851D01*
X231962Y126569D01*
X231938Y126492D01*
X231908Y126418D01*
X231824Y126123D01*
X231733Y125829D01*
X231717Y125750D01*
X231695Y125673D01*
X231641Y125372D01*
X231581Y125070D01*
X231576Y125006D01*
X231559Y124911D01*
X231502Y124139D01*
X231505Y124042D01*
X231501Y123979D01*
X231501Y108770D01*
X231505Y108697D01*
X231502Y108623D01*
X231525Y108310D01*
X231541Y107997D01*
X231552Y107924D01*
X231557Y107851D01*
X231612Y107542D01*
X231660Y107232D01*
X231679Y107161D01*
X231692Y107088D01*
X231778Y106786D01*
X231858Y106483D01*
X231884Y106415D01*
X231904Y106343D01*
X232021Y106051D01*
X232132Y105759D01*
X232165Y105693D01*
X232192Y105625D01*
X232338Y105347D01*
X232479Y105067D01*
X232519Y105005D01*
X232553Y104940D01*
X232727Y104679D01*
X232896Y104414D01*
X232941Y104356D01*
X232982Y104295D01*
X233080Y104182D01*
X233377Y103808D01*
X233597Y103584D01*
X233697Y103467D01*
X268467Y68697D01*
X268522Y68648D01*
X268572Y68594D01*
X268809Y68389D01*
X269042Y68179D01*
X269102Y68135D01*
X269157Y68087D01*
X269414Y67907D01*
X269668Y67722D01*
X269732Y67685D01*
X269792Y67643D01*
X270066Y67491D01*
X270337Y67333D01*
X270404Y67302D01*
X270468Y67267D01*
X270757Y67143D01*
X271043Y67014D01*
X271113Y66991D01*
X271180Y66962D01*
X271480Y66869D01*
X271778Y66770D01*
X271850Y66754D01*
X271920Y66733D01*
X272227Y66671D01*
X272534Y66603D01*
X272607Y66595D01*
X272679Y66581D01*
X272829Y66570D01*
X273303Y66515D01*
X273617Y66512D01*
X273770Y66501D01*
X311796Y66501D01*
X313942Y65612D01*
X314084Y65561D01*
X314222Y65502D01*
X314449Y65432D01*
X314672Y65353D01*
X314818Y65317D01*
X314962Y65273D01*
X315194Y65226D01*
X315425Y65170D01*
X315574Y65150D01*
X315721Y65121D01*
X315875Y65109D01*
X316001Y65092D01*
X316001Y58780D01*
X316001Y58777D01*
X316001Y55000D01*
X316001Y51222D01*
X316001Y51220D01*
X316001Y44913D01*
X315890Y44896D01*
X315740Y44882D01*
X315508Y44836D01*
X315274Y44800D01*
X315129Y44761D01*
X314981Y44732D01*
X314834Y44684D01*
X314525Y44602D01*
X314086Y44436D01*
X313942Y44388D01*
X311796Y43499D01*
X263612Y43499D01*
X259385Y45250D01*
X210250Y94385D01*
X208499Y98612D01*
X208499Y135109D01*
X208495Y135182D01*
X208498Y135256D01*
X208485Y135437D01*
X208476Y135568D01*
X208459Y135882D01*
X208448Y135955D01*
X208443Y136028D01*
X208388Y136337D01*
X208340Y136647D01*
X208321Y136718D01*
X208308Y136791D01*
X208222Y137093D01*
X208142Y137396D01*
X208116Y137464D01*
X208096Y137535D01*
X207979Y137827D01*
X207868Y138120D01*
X207835Y138186D01*
X207808Y138254D01*
X207662Y138532D01*
X207521Y138812D01*
X207481Y138874D01*
X207447Y138939D01*
X207273Y139200D01*
X207104Y139465D01*
X207059Y139522D01*
X207018Y139584D01*
X206920Y139697D01*
X206623Y140071D01*
X206403Y140295D01*
X206303Y140411D01*
X187250Y159464D01*
X185499Y163691D01*
X185499Y297929D01*
X185500Y297931D01*
X185523Y298002D01*
X185591Y298307D01*
X185665Y298612D01*
X185675Y298685D01*
X185691Y298757D01*
X185727Y299068D01*
X185769Y299379D01*
X185771Y299453D01*
X185779Y299527D01*
X185783Y299840D01*
X185793Y300153D01*
X185788Y300227D01*
X185788Y300301D01*
X185760Y300614D01*
X185737Y300926D01*
X185724Y300998D01*
X185717Y301072D01*
X185656Y301380D01*
X185602Y301688D01*
X185582Y301759D01*
X185567Y301832D01*
X185520Y301975D01*
X185499Y302047D01*
X185499Y387288D01*
X187250Y391515D01*
X245485Y449750D01*
X249712Y451501D01*
X544530Y451501D01*
X544603Y451505D01*
X544677Y451502D01*
X544990Y451525D01*
X545303Y451541D01*
G37*
%LPD*%
G36*
X447203Y743505D02*
X447203Y743505D01*
X447277Y743502D01*
X447590Y743525D01*
X447903Y743541D01*
X447976Y743552D01*
X448049Y743557D01*
X448358Y743612D01*
X448668Y743660D01*
X448739Y743679D01*
X448812Y743692D01*
X449114Y743778D01*
X449417Y743858D01*
X449485Y743884D01*
X449557Y743904D01*
X449849Y744021D01*
X450141Y744132D01*
X450207Y744165D01*
X450275Y744192D01*
X450553Y744338D01*
X450833Y744479D01*
X450895Y744519D01*
X450960Y744553D01*
X451221Y744727D01*
X451486Y744896D01*
X451544Y744941D01*
X451605Y744982D01*
X451718Y745080D01*
X452092Y745377D01*
X452316Y745597D01*
X452433Y745697D01*
X459303Y752567D01*
X459352Y752622D01*
X459406Y752672D01*
X459611Y752909D01*
X459821Y753142D01*
X459865Y753202D01*
X459913Y753257D01*
X460093Y753514D01*
X460278Y753768D01*
X460315Y753832D01*
X460357Y753892D01*
X460509Y754166D01*
X460667Y754437D01*
X460698Y754504D01*
X460733Y754568D01*
X460857Y754857D01*
X460986Y755143D01*
X461009Y755213D01*
X461038Y755280D01*
X461131Y755580D01*
X461230Y755878D01*
X461246Y755950D01*
X461267Y756020D01*
X461329Y756327D01*
X461397Y756634D01*
X461405Y756707D01*
X461419Y756779D01*
X461430Y756929D01*
X461485Y757403D01*
X461488Y757717D01*
X461499Y757870D01*
X461499Y783127D01*
X461482Y783461D01*
X461470Y783794D01*
X461462Y783847D01*
X461459Y783900D01*
X461408Y784230D01*
X461361Y784561D01*
X461348Y784613D01*
X461340Y784665D01*
X461255Y784987D01*
X461174Y785312D01*
X461156Y785362D01*
X461142Y785414D01*
X461024Y785725D01*
X460910Y786040D01*
X460887Y786088D01*
X460868Y786138D01*
X460719Y786436D01*
X460573Y786737D01*
X460545Y786783D01*
X460521Y786830D01*
X460341Y787112D01*
X460166Y787396D01*
X460133Y787438D01*
X460104Y787483D01*
X459897Y787744D01*
X459693Y788009D01*
X459656Y788047D01*
X459623Y788089D01*
X459389Y788327D01*
X459159Y788570D01*
X459118Y788604D01*
X459081Y788642D01*
X458824Y788856D01*
X458570Y789073D01*
X458526Y789103D01*
X458485Y789137D01*
X458208Y789322D01*
X457933Y789512D01*
X457886Y789538D01*
X457842Y789567D01*
X457546Y789724D01*
X457253Y789884D01*
X457205Y789904D01*
X457157Y789929D01*
X456847Y790054D01*
X456539Y790183D01*
X456488Y790198D01*
X456439Y790218D01*
X456118Y790311D01*
X455798Y790407D01*
X455746Y790417D01*
X455695Y790432D01*
X455366Y790491D01*
X455038Y790554D01*
X454985Y790559D01*
X454932Y790568D01*
X454599Y790592D01*
X454267Y790621D01*
X454213Y790620D01*
X454160Y790624D01*
X453827Y790614D01*
X453492Y790609D01*
X453439Y790603D01*
X453386Y790601D01*
X453055Y790556D01*
X452724Y790517D01*
X452672Y790505D01*
X452619Y790498D01*
X452294Y790419D01*
X451968Y790346D01*
X451918Y790329D01*
X451866Y790316D01*
X451551Y790204D01*
X451235Y790098D01*
X451196Y790079D01*
X451136Y790058D01*
X450437Y789725D01*
X450325Y789657D01*
X450314Y789652D01*
X443511Y787829D01*
X436489Y787829D01*
X429705Y789647D01*
X423624Y793158D01*
X418658Y798124D01*
X415147Y804205D01*
X413989Y808528D01*
X413981Y808550D01*
X413976Y808573D01*
X413862Y808920D01*
X413750Y809265D01*
X413740Y809286D01*
X413733Y809308D01*
X413584Y809639D01*
X413436Y809973D01*
X413425Y809993D01*
X413415Y810014D01*
X413234Y810326D01*
X413052Y810644D01*
X413038Y810664D01*
X413026Y810684D01*
X412814Y810975D01*
X412600Y811273D01*
X412584Y811291D01*
X412570Y811310D01*
X412328Y811579D01*
X412085Y811852D01*
X412068Y811868D01*
X412052Y811885D01*
X411784Y812128D01*
X411514Y812374D01*
X411495Y812389D01*
X411478Y812404D01*
X411185Y812618D01*
X410892Y812835D01*
X410872Y812847D01*
X410853Y812861D01*
X410538Y813045D01*
X410225Y813230D01*
X410204Y813239D01*
X410184Y813251D01*
X409850Y813402D01*
X409522Y813553D01*
X409500Y813561D01*
X409478Y813570D01*
X409132Y813686D01*
X408789Y813802D01*
X408766Y813808D01*
X408744Y813815D01*
X408388Y813894D01*
X408034Y813975D01*
X408011Y813977D01*
X407988Y813983D01*
X407627Y814024D01*
X407265Y814068D01*
X407242Y814069D01*
X407218Y814071D01*
X406857Y814075D01*
X406491Y814082D01*
X406468Y814080D01*
X406444Y814080D01*
X406085Y814047D01*
X405720Y814016D01*
X405696Y814011D01*
X405673Y814009D01*
X405320Y813939D01*
X404959Y813871D01*
X404936Y813864D01*
X404914Y813859D01*
X404836Y813833D01*
X404729Y813801D01*
X399235Y813801D01*
X394310Y815841D01*
X393316Y816836D01*
X393164Y816972D01*
X393020Y817116D01*
X392877Y817231D01*
X392740Y817354D01*
X392576Y817474D01*
X392417Y817603D01*
X392263Y817703D01*
X392115Y817811D01*
X391939Y817913D01*
X391768Y818024D01*
X391604Y818108D01*
X391446Y818200D01*
X391260Y818284D01*
X391079Y818377D01*
X390908Y818443D01*
X390740Y818519D01*
X390547Y818583D01*
X390357Y818657D01*
X390179Y818705D01*
X390005Y818763D01*
X389806Y818807D01*
X389610Y818860D01*
X389428Y818890D01*
X389249Y818930D01*
X389047Y818953D01*
X388845Y818986D01*
X388662Y818997D01*
X388480Y819018D01*
X388276Y819020D01*
X388073Y819032D01*
X387889Y819024D01*
X387706Y819026D01*
X387503Y819007D01*
X387299Y818998D01*
X387117Y818971D01*
X386935Y818954D01*
X386735Y818915D01*
X386533Y818885D01*
X386355Y818839D01*
X386175Y818804D01*
X385980Y818744D01*
X385783Y818693D01*
X385610Y818629D01*
X385435Y818575D01*
X385248Y818496D01*
X385056Y818425D01*
X384892Y818344D01*
X384723Y818272D01*
X384544Y818173D01*
X384362Y818083D01*
X384252Y818011D01*
X384045Y817897D01*
X383999Y817865D01*
X383999Y827200D01*
X383984Y827507D01*
X383974Y827813D01*
X383964Y827893D01*
X383959Y827973D01*
X383912Y828276D01*
X383871Y828581D01*
X383852Y828659D01*
X383840Y828738D01*
X383762Y829034D01*
X383689Y829334D01*
X383663Y829409D01*
X383642Y829487D01*
X383534Y829773D01*
X383431Y830063D01*
X383397Y830136D01*
X383368Y830211D01*
X383231Y830485D01*
X383099Y830763D01*
X383057Y830831D01*
X383021Y830903D01*
X382856Y831162D01*
X382696Y831424D01*
X382648Y831488D01*
X382605Y831556D01*
X382414Y831796D01*
X382228Y832041D01*
X382173Y832099D01*
X382123Y832162D01*
X381908Y832381D01*
X381698Y832605D01*
X381637Y832658D01*
X381581Y832715D01*
X381345Y832912D01*
X381113Y833113D01*
X381047Y833158D01*
X380985Y833210D01*
X380730Y833381D01*
X380478Y833557D01*
X380408Y833596D01*
X380342Y833640D01*
X380070Y833784D01*
X379802Y833933D01*
X379728Y833965D01*
X379657Y834002D01*
X379372Y834117D01*
X379090Y834238D01*
X379013Y834261D01*
X378939Y834291D01*
X378644Y834376D01*
X378350Y834467D01*
X378272Y834483D01*
X378195Y834505D01*
X377893Y834559D01*
X377591Y834619D01*
X377528Y834624D01*
X377432Y834641D01*
X376660Y834697D01*
X376564Y834694D01*
X376500Y834699D01*
X376193Y834683D01*
X375886Y834674D01*
X375807Y834663D01*
X375727Y834659D01*
X375423Y834612D01*
X375119Y834571D01*
X375041Y834552D01*
X374962Y834539D01*
X374665Y834461D01*
X374366Y834389D01*
X374290Y834362D01*
X374213Y834342D01*
X373926Y834233D01*
X373636Y834131D01*
X373563Y834096D01*
X373489Y834068D01*
X373214Y833930D01*
X372937Y833798D01*
X372868Y833757D01*
X372797Y833721D01*
X372538Y833555D01*
X372275Y833396D01*
X372211Y833347D01*
X372144Y833304D01*
X371904Y833113D01*
X371659Y832927D01*
X371600Y832872D01*
X371538Y832822D01*
X371318Y832608D01*
X371094Y832397D01*
X371042Y832337D01*
X370984Y832281D01*
X370788Y832044D01*
X370587Y831812D01*
X370541Y831747D01*
X370490Y831685D01*
X370319Y831429D01*
X370143Y831178D01*
X370104Y831108D01*
X370059Y831041D01*
X369916Y830770D01*
X369766Y830501D01*
X369735Y830428D01*
X369698Y830357D01*
X369583Y830072D01*
X369462Y829789D01*
X369438Y829713D01*
X369408Y829639D01*
X369324Y829343D01*
X369232Y829050D01*
X369217Y828971D01*
X369195Y828894D01*
X369141Y828592D01*
X369080Y828291D01*
X369076Y828227D01*
X369059Y828132D01*
X369002Y827360D01*
X369005Y827263D01*
X369001Y827200D01*
X369001Y817862D01*
X368915Y817922D01*
X368736Y818019D01*
X368562Y818125D01*
X368396Y818205D01*
X368235Y818292D01*
X368047Y818371D01*
X367863Y818459D01*
X367690Y818520D01*
X367521Y818591D01*
X367326Y818650D01*
X367134Y818719D01*
X366955Y818762D01*
X366779Y818815D01*
X366579Y818853D01*
X366381Y818902D01*
X366199Y818926D01*
X366019Y818961D01*
X365816Y818979D01*
X365614Y819006D01*
X365431Y819012D01*
X365248Y819028D01*
X365044Y819024D01*
X364840Y819031D01*
X364657Y819018D01*
X364473Y819015D01*
X364271Y818990D01*
X364068Y818976D01*
X363887Y818944D01*
X363705Y818922D01*
X363506Y818877D01*
X363305Y818841D01*
X363129Y818791D01*
X362950Y818750D01*
X362757Y818685D01*
X362561Y818629D01*
X362390Y818561D01*
X362216Y818502D01*
X362031Y818417D01*
X361842Y818341D01*
X361680Y818255D01*
X361513Y818179D01*
X361337Y818075D01*
X361157Y817980D01*
X361004Y817878D01*
X360846Y817785D01*
X360682Y817664D01*
X360512Y817551D01*
X360413Y817465D01*
X360223Y817325D01*
X359747Y816890D01*
X359684Y816836D01*
X358690Y815841D01*
X353728Y813786D01*
X353612Y813777D01*
X353299Y813761D01*
X353226Y813750D01*
X353153Y813745D01*
X352844Y813690D01*
X352534Y813642D01*
X352463Y813623D01*
X352390Y813610D01*
X352088Y813524D01*
X351785Y813444D01*
X351717Y813418D01*
X351645Y813398D01*
X351353Y813281D01*
X351061Y813170D01*
X350995Y813137D01*
X350927Y813110D01*
X350649Y812964D01*
X350369Y812823D01*
X350306Y812783D01*
X350242Y812749D01*
X349981Y812575D01*
X349716Y812406D01*
X349658Y812361D01*
X349597Y812320D01*
X349484Y812222D01*
X349110Y811925D01*
X348886Y811705D01*
X348769Y811605D01*
X333797Y796633D01*
X333748Y796578D01*
X333694Y796528D01*
X333489Y796291D01*
X333279Y796058D01*
X333235Y795998D01*
X333187Y795943D01*
X333007Y795686D01*
X332822Y795432D01*
X332785Y795368D01*
X332743Y795308D01*
X332591Y795034D01*
X332433Y794763D01*
X332402Y794696D01*
X332367Y794632D01*
X332243Y794343D01*
X332114Y794057D01*
X332091Y793987D01*
X332062Y793920D01*
X331969Y793620D01*
X331870Y793322D01*
X331854Y793250D01*
X331833Y793180D01*
X331771Y792873D01*
X331703Y792566D01*
X331695Y792493D01*
X331681Y792421D01*
X331670Y792271D01*
X331615Y791797D01*
X331612Y791483D01*
X331601Y791330D01*
X331601Y757870D01*
X331605Y757797D01*
X331602Y757723D01*
X331625Y757410D01*
X331641Y757097D01*
X331652Y757024D01*
X331657Y756951D01*
X331712Y756642D01*
X331760Y756332D01*
X331779Y756261D01*
X331792Y756188D01*
X331878Y755886D01*
X331958Y755583D01*
X331984Y755515D01*
X332004Y755443D01*
X332121Y755151D01*
X332232Y754859D01*
X332265Y754793D01*
X332292Y754725D01*
X332438Y754447D01*
X332579Y754167D01*
X332619Y754105D01*
X332653Y754040D01*
X332827Y753779D01*
X332996Y753514D01*
X333041Y753456D01*
X333082Y753395D01*
X333180Y753282D01*
X333477Y752908D01*
X333697Y752684D01*
X333797Y752567D01*
X340667Y745697D01*
X340722Y745648D01*
X340772Y745594D01*
X341009Y745389D01*
X341242Y745179D01*
X341302Y745135D01*
X341357Y745087D01*
X341614Y744907D01*
X341868Y744722D01*
X341932Y744685D01*
X341992Y744643D01*
X342266Y744491D01*
X342537Y744333D01*
X342604Y744302D01*
X342668Y744267D01*
X342957Y744143D01*
X343243Y744014D01*
X343313Y743991D01*
X343380Y743962D01*
X343680Y743869D01*
X343978Y743770D01*
X344050Y743754D01*
X344120Y743733D01*
X344427Y743671D01*
X344734Y743603D01*
X344807Y743595D01*
X344879Y743581D01*
X345029Y743570D01*
X345503Y743515D01*
X345817Y743512D01*
X345970Y743501D01*
X447130Y743501D01*
X447203Y743505D01*
G37*
%LPC*%
G36*
X183335Y750301D02*
X183335Y750301D01*
X178410Y752341D01*
X174641Y756110D01*
X172601Y761035D01*
X172601Y766365D01*
X174641Y771290D01*
X178379Y775027D01*
X178481Y775141D01*
X178591Y775249D01*
X178741Y775429D01*
X178897Y775602D01*
X178988Y775726D01*
X179086Y775845D01*
X179216Y776039D01*
X179354Y776228D01*
X179431Y776360D01*
X179516Y776488D01*
X179625Y776695D01*
X179743Y776897D01*
X179806Y777037D01*
X179878Y777173D01*
X179966Y777390D01*
X180062Y777603D01*
X180110Y777748D01*
X180167Y777891D01*
X180232Y778116D01*
X180306Y778338D01*
X180339Y778488D01*
X180381Y778635D01*
X180422Y778865D01*
X180472Y779094D01*
X180490Y779246D01*
X180517Y779398D01*
X180534Y779631D01*
X180561Y779863D01*
X180562Y780017D01*
X180573Y780170D01*
X180566Y780403D01*
X180569Y780637D01*
X180555Y780790D01*
X180550Y780944D01*
X180519Y781176D01*
X180497Y781408D01*
X180467Y781559D01*
X180447Y781711D01*
X180392Y781939D01*
X180346Y782168D01*
X180301Y782314D01*
X180265Y782464D01*
X180187Y782685D01*
X180118Y782908D01*
X180058Y783049D01*
X180007Y783194D01*
X179906Y783405D01*
X179815Y783620D01*
X179741Y783754D01*
X179674Y783893D01*
X179553Y784093D01*
X179440Y784297D01*
X179352Y784423D01*
X179272Y784555D01*
X179130Y784741D01*
X178997Y784932D01*
X178896Y785049D01*
X178803Y785171D01*
X178643Y785342D01*
X178491Y785518D01*
X178379Y785624D01*
X178274Y785736D01*
X178097Y785889D01*
X177927Y786049D01*
X177805Y786142D01*
X177688Y786243D01*
X177497Y786377D01*
X177311Y786519D01*
X177180Y786599D01*
X177054Y786687D01*
X176850Y786801D01*
X176651Y786922D01*
X176512Y786989D01*
X176377Y787063D01*
X176162Y787155D01*
X175952Y787256D01*
X175807Y787307D01*
X175666Y787368D01*
X175442Y787437D01*
X175222Y787516D01*
X175073Y787552D01*
X174926Y787597D01*
X174697Y787643D01*
X174470Y787699D01*
X174318Y787719D01*
X174167Y787749D01*
X174013Y787761D01*
X173703Y787803D01*
X173226Y787818D01*
X173076Y787829D01*
X169789Y787829D01*
X163005Y789647D01*
X156924Y793158D01*
X151958Y798124D01*
X148447Y804205D01*
X146629Y810989D01*
X146629Y818011D01*
X148447Y824795D01*
X151958Y830876D01*
X156924Y835842D01*
X163005Y839353D01*
X169789Y841171D01*
X176811Y841171D01*
X183595Y839353D01*
X189676Y835842D01*
X194642Y830876D01*
X198153Y824795D01*
X199971Y818011D01*
X199971Y810989D01*
X198153Y804205D01*
X194642Y798124D01*
X189676Y793158D01*
X186099Y791093D01*
X185795Y790896D01*
X185492Y790702D01*
X185471Y790686D01*
X185449Y790671D01*
X185167Y790444D01*
X184886Y790221D01*
X184867Y790202D01*
X184846Y790185D01*
X184591Y789932D01*
X184333Y789679D01*
X184315Y789658D01*
X184297Y789640D01*
X184068Y789361D01*
X183838Y789083D01*
X183823Y789061D01*
X183806Y789040D01*
X183608Y788739D01*
X183408Y788440D01*
X183395Y788416D01*
X183380Y788394D01*
X183215Y788075D01*
X183046Y787755D01*
X183036Y787730D01*
X183024Y787707D01*
X182891Y787371D01*
X182757Y787037D01*
X182749Y787011D01*
X182739Y786986D01*
X182642Y786637D01*
X182543Y786293D01*
X182538Y786266D01*
X182531Y786241D01*
X182470Y785885D01*
X182407Y785530D01*
X182405Y785504D01*
X182401Y785477D01*
X182377Y785117D01*
X182351Y784758D01*
X182351Y784732D01*
X182350Y784705D01*
X182363Y784344D01*
X182374Y783984D01*
X182378Y783958D01*
X182379Y783931D01*
X182429Y783576D01*
X182477Y783217D01*
X182483Y783191D01*
X182487Y783164D01*
X182574Y782817D01*
X182659Y782464D01*
X182668Y782439D01*
X182674Y782413D01*
X182796Y782076D01*
X182917Y781734D01*
X182929Y781710D01*
X182938Y781685D01*
X183094Y781362D01*
X183249Y781035D01*
X183263Y781012D01*
X183275Y780988D01*
X183465Y780681D01*
X183652Y780373D01*
X183668Y780352D01*
X183682Y780329D01*
X183903Y780043D01*
X184121Y779757D01*
X184139Y779737D01*
X184155Y779716D01*
X184403Y779455D01*
X184650Y779192D01*
X184671Y779175D01*
X184689Y779155D01*
X184962Y778922D01*
X185235Y778685D01*
X185257Y778670D01*
X185278Y778652D01*
X185575Y778447D01*
X185870Y778241D01*
X185893Y778228D01*
X185915Y778213D01*
X186232Y778040D01*
X186546Y777865D01*
X186571Y777854D01*
X186594Y777841D01*
X186925Y777703D01*
X187258Y777560D01*
X187284Y777552D01*
X187308Y777542D01*
X187653Y777438D01*
X187998Y777331D01*
X188024Y777325D01*
X188050Y777318D01*
X188213Y777286D01*
X193628Y775043D01*
X193849Y774835D01*
X193913Y774787D01*
X193972Y774733D01*
X194220Y774552D01*
X194465Y774365D01*
X194533Y774324D01*
X194598Y774277D01*
X194863Y774122D01*
X195125Y773962D01*
X195198Y773927D01*
X195267Y773887D01*
X195547Y773761D01*
X195824Y773628D01*
X195900Y773601D01*
X195973Y773569D01*
X196264Y773472D01*
X196554Y773369D01*
X196631Y773350D01*
X196707Y773325D01*
X197007Y773258D01*
X197306Y773186D01*
X197386Y773175D01*
X197463Y773158D01*
X197769Y773123D01*
X198073Y773081D01*
X198153Y773079D01*
X198233Y773070D01*
X198540Y773066D01*
X198847Y773056D01*
X198927Y773062D01*
X199007Y773061D01*
X199313Y773090D01*
X199619Y773112D01*
X199698Y773125D01*
X199778Y773133D01*
X200080Y773193D01*
X200382Y773246D01*
X200459Y773268D01*
X200537Y773284D01*
X200831Y773374D01*
X201127Y773458D01*
X201201Y773488D01*
X201277Y773512D01*
X201560Y773632D01*
X201845Y773746D01*
X201916Y773784D01*
X201990Y773815D01*
X202259Y773964D01*
X202530Y774107D01*
X202597Y774151D01*
X202667Y774190D01*
X202920Y774366D01*
X203175Y774536D01*
X203223Y774578D01*
X203302Y774633D01*
X203781Y775047D01*
X208735Y777099D01*
X214065Y777099D01*
X218990Y775059D01*
X222759Y771290D01*
X224799Y766365D01*
X224799Y761035D01*
X222759Y756110D01*
X218990Y752341D01*
X214065Y750301D01*
X208735Y750301D01*
X203772Y752357D01*
X203551Y752565D01*
X203487Y752613D01*
X203428Y752667D01*
X203180Y752848D01*
X202935Y753035D01*
X202867Y753076D01*
X202802Y753124D01*
X202537Y753278D01*
X202275Y753438D01*
X202202Y753473D01*
X202133Y753513D01*
X201853Y753639D01*
X201576Y753772D01*
X201500Y753799D01*
X201427Y753832D01*
X201135Y753928D01*
X200846Y754031D01*
X200769Y754050D01*
X200692Y754076D01*
X200392Y754142D01*
X200094Y754214D01*
X200015Y754225D01*
X199936Y754242D01*
X199631Y754277D01*
X199327Y754319D01*
X199246Y754321D01*
X199167Y754330D01*
X198860Y754334D01*
X198553Y754344D01*
X198473Y754338D01*
X198393Y754339D01*
X198087Y754310D01*
X197780Y754288D01*
X197702Y754275D01*
X197622Y754267D01*
X197320Y754207D01*
X197018Y754154D01*
X196941Y754132D01*
X196862Y754116D01*
X196568Y754026D01*
X196273Y753942D01*
X196199Y753912D01*
X196122Y753888D01*
X195840Y753768D01*
X195555Y753654D01*
X195484Y753616D01*
X195410Y753585D01*
X195141Y753436D01*
X194869Y753293D01*
X194803Y753249D01*
X194733Y753210D01*
X194481Y753034D01*
X194225Y752864D01*
X194177Y752822D01*
X194098Y752767D01*
X193619Y752353D01*
X188665Y750301D01*
X183335Y750301D01*
G37*
%LPD*%
%LPC*%
G36*
X584900Y714999D02*
X584900Y714999D01*
X575562Y714999D01*
X575622Y715085D01*
X575719Y715264D01*
X575825Y715438D01*
X575905Y715604D01*
X575992Y715765D01*
X576071Y715953D01*
X576159Y716137D01*
X576220Y716310D01*
X576291Y716479D01*
X576350Y716674D01*
X576419Y716866D01*
X576462Y717045D01*
X576515Y717221D01*
X576553Y717421D01*
X576602Y717619D01*
X576626Y717801D01*
X576661Y717981D01*
X576679Y718184D01*
X576706Y718386D01*
X576712Y718569D01*
X576728Y718752D01*
X576724Y718956D01*
X576731Y719160D01*
X576718Y719343D01*
X576715Y719527D01*
X576690Y719729D01*
X576676Y719932D01*
X576644Y720113D01*
X576622Y720295D01*
X576577Y720494D01*
X576541Y720695D01*
X576491Y720871D01*
X576450Y721050D01*
X576385Y721243D01*
X576329Y721439D01*
X576261Y721610D01*
X576202Y721784D01*
X576117Y721969D01*
X576041Y722158D01*
X575955Y722320D01*
X575879Y722487D01*
X575775Y722663D01*
X575680Y722843D01*
X575578Y722996D01*
X575485Y723154D01*
X575364Y723318D01*
X575251Y723488D01*
X575165Y723587D01*
X575025Y723777D01*
X574590Y724253D01*
X574536Y724316D01*
X573541Y725310D01*
X571579Y730047D01*
X571501Y730235D01*
X571501Y735565D01*
X573557Y740528D01*
X573765Y740749D01*
X573813Y740813D01*
X573867Y740872D01*
X574048Y741120D01*
X574235Y741365D01*
X574276Y741433D01*
X574324Y741498D01*
X574478Y741763D01*
X574638Y742025D01*
X574673Y742098D01*
X574713Y742167D01*
X574839Y742447D01*
X574972Y742724D01*
X574999Y742800D01*
X575032Y742873D01*
X575128Y743165D01*
X575231Y743454D01*
X575250Y743531D01*
X575276Y743608D01*
X575342Y743908D01*
X575414Y744206D01*
X575425Y744285D01*
X575442Y744364D01*
X575477Y744669D01*
X575519Y744973D01*
X575521Y745054D01*
X575530Y745133D01*
X575534Y745440D01*
X575544Y745747D01*
X575538Y745827D01*
X575539Y745907D01*
X575510Y746213D01*
X575488Y746520D01*
X575475Y746598D01*
X575467Y746678D01*
X575407Y746980D01*
X575354Y747282D01*
X575332Y747359D01*
X575316Y747438D01*
X575226Y747732D01*
X575142Y748027D01*
X575112Y748101D01*
X575088Y748178D01*
X574968Y748460D01*
X574854Y748745D01*
X574816Y748816D01*
X574785Y748890D01*
X574636Y749159D01*
X574493Y749431D01*
X574449Y749497D01*
X574410Y749567D01*
X574234Y749819D01*
X574064Y750075D01*
X574022Y750123D01*
X573967Y750202D01*
X573553Y750681D01*
X571501Y755635D01*
X571501Y760965D01*
X573557Y765928D01*
X573765Y766149D01*
X573813Y766213D01*
X573867Y766272D01*
X574048Y766520D01*
X574235Y766765D01*
X574276Y766833D01*
X574324Y766898D01*
X574478Y767163D01*
X574638Y767425D01*
X574673Y767498D01*
X574713Y767567D01*
X574839Y767846D01*
X574972Y768124D01*
X574999Y768200D01*
X575032Y768273D01*
X575128Y768565D01*
X575231Y768854D01*
X575250Y768931D01*
X575276Y769008D01*
X575342Y769308D01*
X575414Y769606D01*
X575425Y769685D01*
X575442Y769764D01*
X575477Y770069D01*
X575519Y770373D01*
X575521Y770454D01*
X575530Y770533D01*
X575534Y770840D01*
X575544Y771147D01*
X575538Y771227D01*
X575539Y771307D01*
X575510Y771613D01*
X575488Y771920D01*
X575475Y771998D01*
X575467Y772078D01*
X575407Y772380D01*
X575354Y772682D01*
X575332Y772759D01*
X575316Y772838D01*
X575226Y773132D01*
X575142Y773427D01*
X575112Y773501D01*
X575088Y773578D01*
X574968Y773860D01*
X574854Y774145D01*
X574816Y774216D01*
X574785Y774290D01*
X574636Y774559D01*
X574493Y774831D01*
X574449Y774897D01*
X574410Y774967D01*
X574234Y775219D01*
X574064Y775475D01*
X574022Y775523D01*
X573967Y775602D01*
X573553Y776081D01*
X571501Y781035D01*
X571501Y786365D01*
X573242Y790568D01*
X573557Y791328D01*
X573765Y791549D01*
X573813Y791613D01*
X573867Y791672D01*
X574017Y791877D01*
X574048Y791920D01*
X574235Y792165D01*
X574276Y792233D01*
X574324Y792298D01*
X574443Y792503D01*
X574478Y792563D01*
X574638Y792825D01*
X574673Y792898D01*
X574713Y792967D01*
X574799Y793158D01*
X574839Y793247D01*
X574972Y793524D01*
X574999Y793600D01*
X575031Y793673D01*
X575128Y793964D01*
X575231Y794254D01*
X575250Y794331D01*
X575275Y794407D01*
X575342Y794707D01*
X575414Y795006D01*
X575425Y795086D01*
X575442Y795163D01*
X575477Y795469D01*
X575506Y795676D01*
X575519Y795773D01*
X575521Y795853D01*
X575530Y795933D01*
X575534Y796240D01*
X575544Y796547D01*
X575538Y796627D01*
X575539Y796707D01*
X575524Y796867D01*
X575510Y797013D01*
X575488Y797319D01*
X575475Y797398D01*
X575467Y797478D01*
X575407Y797780D01*
X575354Y798082D01*
X575342Y798124D01*
X575332Y798159D01*
X575316Y798237D01*
X575316Y798238D01*
X575226Y798532D01*
X575184Y798678D01*
X575142Y798827D01*
X575112Y798901D01*
X575088Y798977D01*
X574993Y799200D01*
X574968Y799260D01*
X574854Y799545D01*
X574816Y799616D01*
X574785Y799690D01*
X574636Y799959D01*
X574493Y800231D01*
X574449Y800297D01*
X574410Y800367D01*
X574234Y800619D01*
X574064Y800875D01*
X574022Y800923D01*
X573967Y801002D01*
X573858Y801128D01*
X573553Y801481D01*
X571501Y806435D01*
X571501Y811765D01*
X573557Y816728D01*
X573765Y816949D01*
X573813Y817013D01*
X573867Y817072D01*
X574048Y817320D01*
X574235Y817565D01*
X574276Y817633D01*
X574324Y817698D01*
X574478Y817963D01*
X574638Y818225D01*
X574673Y818298D01*
X574713Y818367D01*
X574839Y818647D01*
X574972Y818924D01*
X574999Y819000D01*
X575032Y819073D01*
X575128Y819365D01*
X575231Y819654D01*
X575250Y819731D01*
X575276Y819808D01*
X575342Y820108D01*
X575414Y820406D01*
X575425Y820485D01*
X575442Y820564D01*
X575477Y820869D01*
X575519Y821173D01*
X575521Y821254D01*
X575530Y821333D01*
X575534Y821640D01*
X575544Y821947D01*
X575538Y822027D01*
X575539Y822107D01*
X575510Y822413D01*
X575488Y822720D01*
X575475Y822798D01*
X575467Y822878D01*
X575407Y823180D01*
X575354Y823482D01*
X575332Y823559D01*
X575316Y823638D01*
X575226Y823932D01*
X575142Y824227D01*
X575112Y824301D01*
X575088Y824378D01*
X574968Y824660D01*
X574854Y824945D01*
X574816Y825016D01*
X574785Y825090D01*
X574636Y825359D01*
X574493Y825631D01*
X574449Y825697D01*
X574410Y825767D01*
X574234Y826019D01*
X574064Y826275D01*
X574022Y826323D01*
X573967Y826402D01*
X573553Y826881D01*
X571501Y831835D01*
X571501Y837165D01*
X573541Y842090D01*
X577310Y845859D01*
X582235Y847899D01*
X587565Y847899D01*
X592490Y845859D01*
X596259Y842090D01*
X598299Y837165D01*
X598299Y831835D01*
X596243Y826872D01*
X596035Y826651D01*
X595987Y826587D01*
X595933Y826528D01*
X595752Y826280D01*
X595565Y826035D01*
X595524Y825967D01*
X595477Y825902D01*
X595322Y825637D01*
X595162Y825375D01*
X595127Y825302D01*
X595087Y825233D01*
X594961Y824953D01*
X594828Y824676D01*
X594801Y824600D01*
X594769Y824527D01*
X594672Y824236D01*
X594569Y823946D01*
X594550Y823869D01*
X594525Y823793D01*
X594458Y823493D01*
X594386Y823194D01*
X594375Y823114D01*
X594358Y823037D01*
X594323Y822731D01*
X594281Y822427D01*
X594279Y822347D01*
X594270Y822267D01*
X594266Y821960D01*
X594256Y821653D01*
X594262Y821573D01*
X594261Y821493D01*
X594290Y821187D01*
X594312Y820881D01*
X594325Y820802D01*
X594333Y820722D01*
X594393Y820420D01*
X594446Y820118D01*
X594468Y820041D01*
X594484Y819963D01*
X594574Y819669D01*
X594658Y819373D01*
X594688Y819299D01*
X594712Y819223D01*
X594832Y818940D01*
X594946Y818655D01*
X594984Y818584D01*
X595015Y818510D01*
X595164Y818241D01*
X595307Y817970D01*
X595351Y817903D01*
X595390Y817833D01*
X595566Y817580D01*
X595736Y817325D01*
X595778Y817277D01*
X595833Y817198D01*
X596247Y816719D01*
X598299Y811765D01*
X598299Y806435D01*
X596243Y801472D01*
X596035Y801251D01*
X595987Y801187D01*
X595933Y801128D01*
X595752Y800880D01*
X595565Y800635D01*
X595524Y800567D01*
X595476Y800502D01*
X595322Y800237D01*
X595162Y799975D01*
X595127Y799902D01*
X595087Y799833D01*
X594961Y799553D01*
X594828Y799276D01*
X594823Y799260D01*
X594801Y799200D01*
X594768Y799127D01*
X594718Y798976D01*
X594672Y798836D01*
X594569Y798546D01*
X594550Y798469D01*
X594525Y798393D01*
X594458Y798093D01*
X594386Y797794D01*
X594375Y797714D01*
X594358Y797637D01*
X594323Y797331D01*
X594281Y797027D01*
X594279Y796947D01*
X594270Y796867D01*
X594266Y796560D01*
X594256Y796253D01*
X594257Y796240D01*
X594262Y796173D01*
X594261Y796093D01*
X594290Y795787D01*
X594297Y795686D01*
X594312Y795481D01*
X594325Y795402D01*
X594333Y795322D01*
X594336Y795308D01*
X594393Y795020D01*
X594446Y794718D01*
X594468Y794641D01*
X594484Y794563D01*
X594484Y794562D01*
X594574Y794268D01*
X594654Y793987D01*
X594658Y793973D01*
X594662Y793964D01*
X594688Y793899D01*
X594712Y793822D01*
X594776Y793673D01*
X594832Y793540D01*
X594946Y793255D01*
X594984Y793184D01*
X595015Y793110D01*
X595164Y792841D01*
X595307Y792569D01*
X595351Y792503D01*
X595390Y792433D01*
X595566Y792181D01*
X595736Y791925D01*
X595778Y791877D01*
X595833Y791798D01*
X596152Y791429D01*
X596247Y791319D01*
X598299Y786365D01*
X598299Y781035D01*
X596243Y776072D01*
X596035Y775851D01*
X595987Y775787D01*
X595933Y775728D01*
X595752Y775480D01*
X595565Y775235D01*
X595524Y775167D01*
X595477Y775102D01*
X595322Y774837D01*
X595162Y774575D01*
X595127Y774502D01*
X595087Y774433D01*
X594961Y774153D01*
X594828Y773876D01*
X594801Y773800D01*
X594769Y773727D01*
X594672Y773436D01*
X594569Y773146D01*
X594550Y773069D01*
X594525Y772993D01*
X594458Y772693D01*
X594386Y772394D01*
X594375Y772314D01*
X594358Y772237D01*
X594323Y771931D01*
X594281Y771627D01*
X594279Y771547D01*
X594270Y771467D01*
X594267Y771227D01*
X594266Y771159D01*
X594256Y770853D01*
X594262Y770773D01*
X594261Y770693D01*
X594290Y770387D01*
X594312Y770081D01*
X594325Y770002D01*
X594333Y769922D01*
X594393Y769620D01*
X594446Y769318D01*
X594468Y769241D01*
X594484Y769163D01*
X594574Y768869D01*
X594658Y768573D01*
X594688Y768499D01*
X594712Y768423D01*
X594832Y768140D01*
X594946Y767855D01*
X594984Y767784D01*
X595015Y767710D01*
X595164Y767441D01*
X595307Y767170D01*
X595351Y767103D01*
X595390Y767033D01*
X595566Y766780D01*
X595736Y766525D01*
X595778Y766477D01*
X595833Y766398D01*
X596247Y765919D01*
X598299Y760965D01*
X598299Y755635D01*
X596243Y750672D01*
X596035Y750451D01*
X595987Y750387D01*
X595933Y750328D01*
X595752Y750080D01*
X595565Y749835D01*
X595524Y749767D01*
X595477Y749702D01*
X595322Y749437D01*
X595162Y749175D01*
X595127Y749102D01*
X595087Y749033D01*
X594961Y748753D01*
X594828Y748476D01*
X594801Y748400D01*
X594769Y748327D01*
X594672Y748036D01*
X594569Y747746D01*
X594550Y747669D01*
X594525Y747593D01*
X594458Y747293D01*
X594386Y746994D01*
X594375Y746914D01*
X594358Y746837D01*
X594323Y746531D01*
X594281Y746227D01*
X594279Y746147D01*
X594270Y746067D01*
X594266Y745760D01*
X594256Y745453D01*
X594262Y745373D01*
X594261Y745293D01*
X594290Y744987D01*
X594312Y744681D01*
X594325Y744602D01*
X594333Y744522D01*
X594393Y744220D01*
X594446Y743918D01*
X594468Y743841D01*
X594484Y743763D01*
X594574Y743469D01*
X594658Y743173D01*
X594688Y743099D01*
X594712Y743023D01*
X594832Y742740D01*
X594946Y742455D01*
X594984Y742384D01*
X595015Y742310D01*
X595164Y742041D01*
X595307Y741770D01*
X595351Y741703D01*
X595390Y741633D01*
X595566Y741380D01*
X595736Y741125D01*
X595778Y741077D01*
X595833Y740998D01*
X596247Y740519D01*
X598299Y735565D01*
X598299Y730235D01*
X597090Y727316D01*
X596259Y725310D01*
X595264Y724316D01*
X595128Y724164D01*
X594984Y724020D01*
X594869Y723877D01*
X594746Y723740D01*
X594626Y723576D01*
X594497Y723417D01*
X594397Y723263D01*
X594289Y723115D01*
X594187Y722939D01*
X594076Y722768D01*
X593992Y722604D01*
X593900Y722446D01*
X593816Y722260D01*
X593723Y722079D01*
X593657Y721908D01*
X593581Y721740D01*
X593517Y721547D01*
X593443Y721357D01*
X593395Y721179D01*
X593337Y721005D01*
X593293Y720806D01*
X593240Y720610D01*
X593210Y720428D01*
X593170Y720249D01*
X593147Y720047D01*
X593114Y719845D01*
X593103Y719662D01*
X593082Y719480D01*
X593080Y719276D01*
X593068Y719073D01*
X593076Y718889D01*
X593074Y718706D01*
X593093Y718503D01*
X593102Y718299D01*
X593129Y718117D01*
X593146Y717935D01*
X593185Y717735D01*
X593215Y717533D01*
X593261Y717355D01*
X593296Y717175D01*
X593356Y716980D01*
X593407Y716783D01*
X593471Y716610D01*
X593525Y716435D01*
X593604Y716248D01*
X593675Y716056D01*
X593756Y715892D01*
X593828Y715723D01*
X593927Y715544D01*
X594017Y715362D01*
X594089Y715252D01*
X594203Y715045D01*
X594235Y714999D01*
X584900Y714999D01*
X584900Y714999D01*
G37*
%LPD*%
G36*
X67424Y113624D02*
X67424Y113624D01*
X67450Y113624D01*
X67808Y113652D01*
X68170Y113677D01*
X68196Y113682D01*
X68222Y113684D01*
X68577Y113749D01*
X68932Y113812D01*
X68958Y113819D01*
X68984Y113824D01*
X69330Y113925D01*
X69677Y114024D01*
X69701Y114034D01*
X69727Y114042D01*
X70061Y114178D01*
X70395Y114312D01*
X70419Y114325D01*
X70444Y114335D01*
X70763Y114506D01*
X71081Y114673D01*
X71103Y114688D01*
X71126Y114700D01*
X71427Y114904D01*
X71725Y115102D01*
X71741Y115116D01*
X71768Y115134D01*
X72361Y115632D01*
X72476Y115751D01*
X72553Y115817D01*
X90303Y133567D01*
X90352Y133622D01*
X90406Y133672D01*
X90611Y133909D01*
X90821Y134142D01*
X90865Y134202D01*
X90913Y134257D01*
X91093Y134514D01*
X91278Y134768D01*
X91315Y134832D01*
X91357Y134892D01*
X91509Y135166D01*
X91667Y135437D01*
X91698Y135504D01*
X91733Y135568D01*
X91857Y135857D01*
X91986Y136143D01*
X92009Y136213D01*
X92038Y136280D01*
X92131Y136580D01*
X92230Y136878D01*
X92246Y136950D01*
X92267Y137020D01*
X92329Y137327D01*
X92397Y137634D01*
X92405Y137707D01*
X92419Y137779D01*
X92430Y137929D01*
X92485Y138403D01*
X92488Y138717D01*
X92499Y138870D01*
X92499Y149130D01*
X92491Y149283D01*
X92493Y149437D01*
X92471Y149670D01*
X92459Y149903D01*
X92436Y150055D01*
X92421Y150208D01*
X92376Y150437D01*
X92340Y150668D01*
X92301Y150817D01*
X92271Y150968D01*
X92202Y151191D01*
X92142Y151417D01*
X92088Y151560D01*
X92042Y151708D01*
X91951Y151923D01*
X91868Y152141D01*
X91799Y152278D01*
X91739Y152420D01*
X91626Y152625D01*
X91521Y152833D01*
X91438Y152963D01*
X91364Y153097D01*
X91230Y153289D01*
X91104Y153486D01*
X91009Y153606D01*
X90921Y153732D01*
X90768Y153910D01*
X90623Y154092D01*
X90515Y154202D01*
X90415Y154318D01*
X90245Y154478D01*
X90081Y154646D01*
X89963Y154744D01*
X89851Y154849D01*
X89665Y154991D01*
X89485Y155140D01*
X89358Y155225D01*
X89235Y155319D01*
X89036Y155441D01*
X88842Y155570D01*
X88706Y155642D01*
X88575Y155722D01*
X88364Y155823D01*
X88157Y155932D01*
X88014Y155990D01*
X87876Y156056D01*
X87656Y156134D01*
X87439Y156222D01*
X87291Y156264D01*
X87146Y156316D01*
X86919Y156371D01*
X86695Y156435D01*
X86544Y156462D01*
X86394Y156499D01*
X86162Y156530D01*
X85932Y156571D01*
X85779Y156582D01*
X85627Y156603D01*
X85393Y156610D01*
X85160Y156628D01*
X85007Y156623D01*
X84853Y156628D01*
X84620Y156611D01*
X84386Y156604D01*
X84234Y156584D01*
X84081Y156573D01*
X83851Y156532D01*
X83619Y156501D01*
X83469Y156465D01*
X83318Y156438D01*
X83093Y156374D01*
X82866Y156319D01*
X82721Y156268D01*
X82573Y156226D01*
X82357Y156139D01*
X82136Y156061D01*
X81997Y155995D01*
X81855Y155938D01*
X81648Y155829D01*
X81437Y155729D01*
X81306Y155649D01*
X81169Y155577D01*
X80975Y155447D01*
X80775Y155326D01*
X80653Y155233D01*
X80525Y155148D01*
X80409Y155047D01*
X80159Y154857D01*
X79811Y154531D01*
X79697Y154433D01*
X73805Y148540D01*
X69515Y144250D01*
X65288Y142499D01*
X65260Y142499D01*
X64926Y142482D01*
X64593Y142470D01*
X64540Y142462D01*
X64487Y142459D01*
X64157Y142408D01*
X63826Y142361D01*
X63774Y142348D01*
X63722Y142340D01*
X63400Y142255D01*
X63075Y142174D01*
X63025Y142156D01*
X62973Y142142D01*
X62662Y142024D01*
X62347Y141910D01*
X62299Y141887D01*
X62249Y141868D01*
X61951Y141719D01*
X61650Y141573D01*
X61604Y141545D01*
X61557Y141521D01*
X61275Y141341D01*
X60991Y141166D01*
X60949Y141133D01*
X60904Y141104D01*
X60643Y140897D01*
X60378Y140693D01*
X60340Y140656D01*
X60298Y140623D01*
X60060Y140389D01*
X59817Y140159D01*
X59783Y140118D01*
X59745Y140081D01*
X59531Y139824D01*
X59314Y139570D01*
X59284Y139526D01*
X59250Y139485D01*
X59065Y139208D01*
X58875Y138933D01*
X58849Y138886D01*
X58820Y138842D01*
X58664Y138547D01*
X58503Y138253D01*
X58483Y138204D01*
X58458Y138157D01*
X58333Y137847D01*
X58204Y137539D01*
X58189Y137488D01*
X58169Y137439D01*
X58076Y137118D01*
X57980Y136798D01*
X57970Y136746D01*
X57955Y136695D01*
X57896Y136366D01*
X57833Y136038D01*
X57828Y135985D01*
X57819Y135932D01*
X57795Y135599D01*
X57766Y135267D01*
X57767Y135213D01*
X57763Y135160D01*
X57773Y134827D01*
X57778Y134492D01*
X57784Y134439D01*
X57786Y134386D01*
X57831Y134055D01*
X57870Y133724D01*
X57882Y133672D01*
X57889Y133619D01*
X57968Y133294D01*
X58034Y132999D01*
X48300Y132999D01*
X47993Y132984D01*
X47687Y132974D01*
X47607Y132964D01*
X47527Y132959D01*
X47224Y132912D01*
X46919Y132871D01*
X46841Y132852D01*
X46762Y132840D01*
X46466Y132762D01*
X46166Y132689D01*
X46091Y132663D01*
X46013Y132642D01*
X45727Y132534D01*
X45437Y132431D01*
X45364Y132397D01*
X45289Y132368D01*
X45015Y132231D01*
X44737Y132099D01*
X44669Y132057D01*
X44597Y132021D01*
X44338Y131856D01*
X44076Y131696D01*
X44012Y131648D01*
X43944Y131605D01*
X43704Y131414D01*
X43459Y131228D01*
X43401Y131173D01*
X43338Y131123D01*
X43119Y130908D01*
X42895Y130698D01*
X42842Y130637D01*
X42785Y130581D01*
X42588Y130345D01*
X42387Y130113D01*
X42342Y130047D01*
X42290Y129985D01*
X42119Y129730D01*
X41943Y129478D01*
X41904Y129408D01*
X41860Y129342D01*
X41716Y129070D01*
X41567Y128802D01*
X41535Y128728D01*
X41498Y128657D01*
X41383Y128372D01*
X41262Y128090D01*
X41239Y128013D01*
X41209Y127939D01*
X41124Y127644D01*
X41033Y127350D01*
X41017Y127272D01*
X40995Y127195D01*
X40941Y126893D01*
X40881Y126591D01*
X40876Y126528D01*
X40859Y126432D01*
X40803Y125660D01*
X40806Y125564D01*
X40801Y125500D01*
X40817Y125193D01*
X40826Y124886D01*
X40837Y124807D01*
X40841Y124727D01*
X40888Y124423D01*
X40929Y124119D01*
X40948Y124041D01*
X40961Y123962D01*
X41039Y123665D01*
X41111Y123366D01*
X41138Y123290D01*
X41158Y123213D01*
X41267Y122926D01*
X41369Y122636D01*
X41404Y122563D01*
X41432Y122489D01*
X41570Y122214D01*
X41702Y121937D01*
X41743Y121868D01*
X41779Y121797D01*
X41945Y121538D01*
X42104Y121275D01*
X42153Y121211D01*
X42196Y121144D01*
X42387Y120904D01*
X42573Y120659D01*
X42628Y120600D01*
X42678Y120538D01*
X42892Y120318D01*
X43103Y120094D01*
X43163Y120042D01*
X43219Y119984D01*
X43456Y119788D01*
X43688Y119587D01*
X43753Y119541D01*
X43815Y119490D01*
X44071Y119319D01*
X44322Y119143D01*
X44392Y119104D01*
X44459Y119059D01*
X44730Y118916D01*
X44999Y118766D01*
X45072Y118735D01*
X45143Y118698D01*
X45428Y118583D01*
X45711Y118462D01*
X45787Y118438D01*
X45861Y118408D01*
X46157Y118324D01*
X46450Y118232D01*
X46529Y118217D01*
X46606Y118195D01*
X46908Y118141D01*
X47209Y118080D01*
X47273Y118076D01*
X47368Y118059D01*
X48140Y118002D01*
X48237Y118005D01*
X48300Y118001D01*
X60438Y118001D01*
X60511Y117830D01*
X60524Y117807D01*
X60535Y117782D01*
X60711Y117469D01*
X60886Y117153D01*
X60902Y117131D01*
X60915Y117108D01*
X61122Y116815D01*
X61329Y116518D01*
X61347Y116498D01*
X61362Y116476D01*
X61600Y116205D01*
X61835Y115932D01*
X61855Y115914D01*
X61872Y115893D01*
X62138Y115647D01*
X62399Y115401D01*
X62420Y115385D01*
X62440Y115367D01*
X62730Y115148D01*
X63015Y114931D01*
X63037Y114918D01*
X63059Y114901D01*
X63370Y114714D01*
X63675Y114528D01*
X63699Y114516D01*
X63722Y114502D01*
X64050Y114349D01*
X64374Y114194D01*
X64399Y114185D01*
X64423Y114174D01*
X64765Y114055D01*
X65104Y113935D01*
X65130Y113928D01*
X65155Y113920D01*
X65505Y113837D01*
X65856Y113752D01*
X65883Y113748D01*
X65908Y113742D01*
X66266Y113696D01*
X66623Y113647D01*
X66650Y113646D01*
X66676Y113643D01*
X67037Y113634D01*
X67397Y113622D01*
X67424Y113624D01*
G37*
%LPC*%
G36*
X221435Y877301D02*
X221435Y877301D01*
X216510Y879341D01*
X212741Y883110D01*
X210701Y888035D01*
X210701Y893365D01*
X212757Y898328D01*
X212965Y898549D01*
X213013Y898613D01*
X213067Y898672D01*
X213248Y898920D01*
X213435Y899165D01*
X213476Y899233D01*
X213523Y899298D01*
X213678Y899563D01*
X213838Y899825D01*
X213873Y899898D01*
X213913Y899967D01*
X214039Y900247D01*
X214172Y900524D01*
X214199Y900600D01*
X214231Y900673D01*
X214328Y900964D01*
X214431Y901254D01*
X214450Y901331D01*
X214475Y901407D01*
X214542Y901707D01*
X214614Y902006D01*
X214625Y902086D01*
X214642Y902163D01*
X214677Y902469D01*
X214719Y902773D01*
X214721Y902853D01*
X214730Y902933D01*
X214734Y903240D01*
X214744Y903547D01*
X214738Y903627D01*
X214739Y903707D01*
X214710Y904013D01*
X214688Y904319D01*
X214675Y904398D01*
X214667Y904478D01*
X214607Y904780D01*
X214554Y905082D01*
X214532Y905159D01*
X214516Y905237D01*
X214426Y905531D01*
X214342Y905827D01*
X214312Y905901D01*
X214288Y905977D01*
X214168Y906260D01*
X214054Y906545D01*
X214016Y906616D01*
X213985Y906690D01*
X213836Y906959D01*
X213693Y907230D01*
X213649Y907297D01*
X213610Y907367D01*
X213434Y907620D01*
X213264Y907875D01*
X213222Y907923D01*
X213167Y908002D01*
X212753Y908481D01*
X210701Y913435D01*
X210701Y918765D01*
X212741Y923690D01*
X216510Y927459D01*
X221435Y929499D01*
X226765Y929499D01*
X231690Y927459D01*
X235459Y923690D01*
X237499Y918765D01*
X237499Y913435D01*
X235443Y908472D01*
X235235Y908251D01*
X235187Y908187D01*
X235133Y908128D01*
X234952Y907880D01*
X234765Y907635D01*
X234724Y907567D01*
X234676Y907502D01*
X234522Y907237D01*
X234362Y906975D01*
X234327Y906902D01*
X234287Y906833D01*
X234161Y906553D01*
X234028Y906276D01*
X234001Y906200D01*
X233968Y906127D01*
X233872Y905835D01*
X233769Y905546D01*
X233750Y905469D01*
X233724Y905392D01*
X233658Y905092D01*
X233586Y904794D01*
X233575Y904715D01*
X233558Y904636D01*
X233523Y904331D01*
X233481Y904027D01*
X233479Y903946D01*
X233470Y903867D01*
X233466Y903560D01*
X233456Y903253D01*
X233462Y903173D01*
X233461Y903093D01*
X233490Y902787D01*
X233512Y902480D01*
X233525Y902402D01*
X233533Y902322D01*
X233593Y902020D01*
X233646Y901718D01*
X233668Y901641D01*
X233684Y901562D01*
X233774Y901268D01*
X233858Y900973D01*
X233888Y900899D01*
X233912Y900822D01*
X234032Y900540D01*
X234146Y900255D01*
X234184Y900184D01*
X234215Y900110D01*
X234364Y899841D01*
X234507Y899569D01*
X234551Y899503D01*
X234590Y899433D01*
X234766Y899181D01*
X234936Y898925D01*
X234978Y898877D01*
X235033Y898798D01*
X235447Y898319D01*
X237499Y893365D01*
X237499Y888035D01*
X235459Y883110D01*
X231690Y879341D01*
X226765Y877301D01*
X221435Y877301D01*
G37*
%LPD*%
%LPC*%
G36*
X456499Y583499D02*
X456499Y583499D01*
X456499Y587360D01*
X460360Y583499D01*
X456499Y583499D01*
G37*
%LPD*%
%LPC*%
G36*
X349499Y583499D02*
X349499Y583499D01*
X349499Y587360D01*
X353360Y583499D01*
X349499Y583499D01*
G37*
%LPD*%
%LPC*%
G36*
X437640Y583499D02*
X437640Y583499D01*
X441501Y587360D01*
X441501Y583499D01*
X437640Y583499D01*
G37*
%LPD*%
%LPC*%
G36*
X330640Y583499D02*
X330640Y583499D01*
X334501Y587360D01*
X334501Y583499D01*
X330640Y583499D01*
G37*
%LPD*%
%LPC*%
G36*
X456499Y568501D02*
X456499Y568501D01*
X460360Y568501D01*
X456499Y564640D01*
X456499Y568501D01*
G37*
%LPD*%
%LPC*%
G36*
X349499Y568501D02*
X349499Y568501D01*
X353360Y568501D01*
X349499Y564640D01*
X349499Y568501D01*
G37*
%LPD*%
%LPC*%
G36*
X330640Y568501D02*
X330640Y568501D01*
X334501Y568501D01*
X334501Y564640D01*
X330640Y568501D01*
G37*
%LPD*%
%LPC*%
G36*
X437640Y568501D02*
X437640Y568501D01*
X441501Y568501D01*
X441501Y564640D01*
X437640Y568501D01*
G37*
%LPD*%
%LPC*%
G36*
X330999Y62499D02*
X330999Y62499D01*
X330999Y64836D01*
X331204Y64752D01*
X331620Y64474D01*
X331974Y64120D01*
X332252Y63704D01*
X332443Y63241D01*
X332541Y62750D01*
X332541Y62499D01*
X330999Y62499D01*
G37*
%LPD*%
%LPC*%
G36*
X330999Y47501D02*
X330999Y47501D01*
X332541Y47501D01*
X332541Y47250D01*
X332443Y46759D01*
X332252Y46296D01*
X331974Y45880D01*
X331620Y45526D01*
X331204Y45248D01*
X330999Y45164D01*
X330999Y47501D01*
G37*
%LPD*%
%LPC*%
G36*
X460199Y936299D02*
X460199Y936299D01*
X460199Y938094D01*
X460589Y937795D01*
X461695Y936689D01*
X461994Y936299D01*
X460199Y936299D01*
G37*
%LPD*%
%LPC*%
G36*
X665906Y958499D02*
X665906Y958499D01*
X666205Y958889D01*
X667311Y959995D01*
X667701Y960294D01*
X667701Y958499D01*
X665906Y958499D01*
G37*
%LPD*%
%LPC*%
G36*
X443406Y936299D02*
X443406Y936299D01*
X443705Y936689D01*
X444811Y937795D01*
X445201Y938094D01*
X445201Y936299D01*
X443406Y936299D01*
G37*
%LPD*%
D10*
X48300Y125500D03*
X48300Y100100D03*
X48300Y74700D03*
X48300Y49300D03*
D11*
X395000Y236600D03*
X395000Y262000D03*
X395000Y287400D03*
X395000Y312800D03*
D10*
X186000Y763700D03*
X211400Y763700D03*
X452700Y903400D03*
X452700Y928800D03*
X351100Y827200D03*
X376500Y827200D03*
X401900Y827200D03*
X224100Y890700D03*
X224100Y916100D03*
X675200Y951000D03*
X700600Y951000D03*
X726000Y951000D03*
X751400Y951000D03*
D12*
X552000Y126000D03*
X553000Y192000D03*
X554000Y260000D03*
X342000Y371000D03*
X452000Y370000D03*
X341000Y485000D03*
X451000Y484000D03*
X342000Y576000D03*
X449000Y576000D03*
X729000Y255000D03*
X728000Y126000D03*
X728000Y188000D03*
D10*
X584900Y834500D03*
X584900Y809100D03*
X584900Y783700D03*
X584900Y758300D03*
X584900Y732900D03*
X584900Y707500D03*
X584900Y682100D03*
X584900Y656700D03*
X584900Y631300D03*
X584900Y605900D03*
X584900Y580500D03*
X584900Y555100D03*
X584900Y529700D03*
X584900Y504300D03*
X584900Y478900D03*
X584900Y453500D03*
X584900Y428100D03*
X737300Y428100D03*
X737300Y453500D03*
X737300Y478900D03*
X737300Y504300D03*
X737300Y529700D03*
X737300Y555100D03*
X737300Y580500D03*
X737300Y605900D03*
X737300Y631300D03*
X737300Y656700D03*
X737300Y682100D03*
X737300Y707500D03*
X737300Y732900D03*
X737300Y758300D03*
X737300Y783700D03*
X737300Y809100D03*
X737300Y834500D03*
D13*
X197000Y290500D03*
X197000Y309500D03*
D14*
X323500Y55000D03*
X304500Y55000D03*
D15*
X365600Y236600D02*
X395000Y236600D01*
X365600Y236600D02*
X271979Y142979D01*
X220000Y142979D01*
X220000Y100900D01*
X197000Y165979D02*
X197000Y290500D01*
X197000Y165979D02*
X220000Y142979D01*
X265900Y55000D02*
X304500Y55000D01*
X265900Y55000D02*
X220000Y100900D01*
X48300Y49300D02*
X34300Y49300D01*
X22000Y61600D01*
X448700Y899400D02*
X452700Y903400D01*
X448700Y899400D02*
X319700Y899400D01*
X254650Y834350D01*
X37000Y154000D02*
X22000Y139000D01*
X22000Y61600D01*
X63000Y154000D02*
X82000Y173000D01*
X63000Y154000D02*
X37000Y154000D01*
X82000Y173000D02*
X82000Y508000D01*
X254650Y680650D02*
X254650Y834350D01*
X254650Y680650D02*
X82000Y508000D01*
X700600Y933000D02*
X700600Y951000D01*
X700600Y933000D02*
X692600Y925000D01*
X544000Y925000D01*
X497000Y878000D01*
X330000Y878000D01*
X73100Y100100D02*
X48300Y100100D01*
X104000Y131000D02*
X104000Y497000D01*
X276500Y824500D02*
X330000Y878000D01*
X104000Y131000D02*
X73100Y100100D01*
X276500Y669500D02*
X276500Y824500D01*
X276500Y669500D02*
X104000Y497000D01*
X726000Y926000D02*
X726000Y951000D01*
X726000Y926000D02*
X703000Y903000D01*
X554000Y903000D01*
X507500Y856500D01*
X342500Y856500D02*
X298500Y812500D01*
X126000Y488000D02*
X126000Y120000D01*
X80700Y74700D01*
X48300Y74700D01*
X342500Y856500D02*
X507500Y856500D01*
X298500Y812500D02*
X298500Y660500D01*
X126000Y488000D01*
X606800Y312800D02*
X628000Y334000D01*
X606800Y312800D02*
X554000Y260000D01*
X628000Y334000D02*
X628000Y543000D01*
X450000Y312800D02*
X395000Y312800D01*
X450000Y312800D02*
X509200Y312800D01*
X606800Y312800D01*
X628000Y334000D02*
X628000Y267000D01*
X553000Y192000D01*
X628000Y202000D02*
X628000Y267000D01*
X628000Y202000D02*
X552000Y126000D01*
X509200Y312800D02*
X452000Y370000D01*
X450000Y312800D02*
X391800Y371000D01*
X342000Y371000D01*
X628000Y543000D02*
X689500Y604500D01*
X711000Y604500D01*
X711000Y692000D01*
X726500Y707500D01*
X737300Y707500D01*
X451000Y484000D02*
X450000Y484000D01*
X451000Y484000D02*
X457000Y484000D01*
X462100Y478900D02*
X584900Y478900D01*
X462100Y478900D02*
X457000Y484000D01*
X384000Y528000D02*
X341000Y485000D01*
X384000Y528000D02*
X484000Y528000D01*
X508100Y503900D01*
X584500Y503900D02*
X584900Y504300D01*
X584500Y503900D02*
X508100Y503900D01*
X700000Y188000D02*
X728000Y188000D01*
X672000Y216000D02*
X672000Y523000D01*
X672000Y216000D02*
X700000Y188000D01*
X672000Y523000D02*
X704100Y555100D01*
X737300Y555100D01*
X728000Y126000D02*
X693000Y126000D01*
X650000Y169000D02*
X650000Y533000D01*
X650000Y169000D02*
X693000Y126000D01*
X650000Y533000D02*
X697500Y580500D01*
X737300Y580500D01*
X729000Y255000D02*
X704000Y255000D01*
X694000Y265000D01*
X694000Y511897D01*
X711803Y529700D01*
X737300Y529700D01*
X751400Y919000D02*
X751400Y951000D01*
X751400Y919000D02*
X713400Y881000D01*
X562000Y881000D01*
X351100Y827200D02*
X348100Y827200D01*
X320100Y799200D01*
X320100Y750000D01*
X515500Y834500D02*
X562000Y881000D01*
X473000Y750000D02*
X455000Y732000D01*
X338100Y732000D02*
X320100Y750000D01*
X338100Y732000D02*
X455000Y732000D01*
X749900Y630900D02*
X777000Y658000D01*
X759000Y881000D02*
X713400Y881000D01*
X759000Y881000D02*
X777000Y863000D01*
X777000Y658000D01*
X515500Y834500D02*
X486500Y834500D01*
X473000Y821000D02*
X473000Y750000D01*
X473000Y821000D02*
X486500Y834500D01*
X737700Y630900D02*
X749900Y630900D01*
X737700Y630900D02*
X737300Y631300D01*
X552400Y440000D02*
X252000Y440000D01*
X565900Y453500D02*
X584900Y453500D01*
X565900Y453500D02*
X552400Y440000D01*
X197000Y385000D02*
X197000Y309500D01*
X197000Y385000D02*
X252000Y440000D01*
X393500Y263500D02*
X395000Y262000D01*
X264000Y418000D02*
X222000Y376000D01*
X358000Y262000D02*
X395000Y262000D01*
X358000Y262000D02*
X261000Y165000D01*
X230000Y165000D01*
X222000Y173000D01*
X222000Y376000D01*
X561000Y418000D02*
X571000Y428000D01*
X584800Y428000D01*
X584900Y428100D01*
X561000Y418000D02*
X264000Y418000D01*
M02*
