G04 EAGLE Gerber RS-274X export*
G75*
%MOMM*%
%FSLAX34Y34*%
%LPD*%
%IN*%
%IPPOS*%
%AMOC8*
5,1,8,0,0,1.08239X$1,22.5*%
G01*
%ADD10C,0.254000*%


D10*
X0Y0D02*
X800000Y0D01*
X800000Y1000000D01*
X0Y1000000D01*
X0Y0D01*
X440540Y831010D02*
X441619Y830939D01*
X442691Y830798D01*
X443751Y830587D01*
X444795Y830308D01*
X445819Y829960D01*
X446817Y829546D01*
X447787Y829068D01*
X448723Y828528D01*
X449622Y827927D01*
X450479Y827269D01*
X451292Y826557D01*
X452057Y825792D01*
X452769Y824979D01*
X453427Y824122D01*
X454028Y823223D01*
X454568Y822287D01*
X455046Y821317D01*
X455460Y820319D01*
X455808Y819295D01*
X456087Y818251D01*
X456298Y817191D01*
X456439Y816119D01*
X456510Y815040D01*
X456510Y813960D01*
X456439Y812881D01*
X456298Y811809D01*
X456087Y810749D01*
X455808Y809705D01*
X455460Y808681D01*
X455046Y807683D01*
X454568Y806713D01*
X454028Y805777D01*
X453427Y804878D01*
X452769Y804021D01*
X452057Y803208D01*
X451292Y802444D01*
X450479Y801731D01*
X449622Y801073D01*
X448723Y800472D01*
X447787Y799932D01*
X446817Y799454D01*
X445819Y799040D01*
X444795Y798692D01*
X443751Y798413D01*
X442691Y798202D01*
X441619Y798061D01*
X440540Y797990D01*
X439460Y797990D01*
X438381Y798061D01*
X437309Y798202D01*
X436249Y798413D01*
X435205Y798692D01*
X434181Y799040D01*
X433183Y799454D01*
X432213Y799932D01*
X431277Y800472D01*
X430378Y801073D01*
X429521Y801731D01*
X428708Y802444D01*
X427944Y803208D01*
X427231Y804021D01*
X426573Y804878D01*
X425972Y805777D01*
X425432Y806713D01*
X424954Y807683D01*
X424540Y808681D01*
X424192Y809705D01*
X423913Y810749D01*
X423702Y811809D01*
X423561Y812881D01*
X423490Y813960D01*
X423490Y815040D01*
X423561Y816119D01*
X423702Y817191D01*
X423913Y818251D01*
X424192Y819295D01*
X424540Y820319D01*
X424954Y821317D01*
X425432Y822287D01*
X425972Y823223D01*
X426573Y824122D01*
X427231Y824979D01*
X427944Y825792D01*
X428708Y826557D01*
X429521Y827269D01*
X430378Y827927D01*
X431277Y828528D01*
X432213Y829068D01*
X433183Y829546D01*
X434181Y829960D01*
X435205Y830308D01*
X436249Y830587D01*
X437309Y830798D01*
X438381Y830939D01*
X439460Y831010D01*
X440540Y831010D01*
X173840Y831010D02*
X174919Y830939D01*
X175991Y830798D01*
X177051Y830587D01*
X178095Y830308D01*
X179119Y829960D01*
X180117Y829546D01*
X181087Y829068D01*
X182023Y828528D01*
X182922Y827927D01*
X183779Y827269D01*
X184592Y826557D01*
X185357Y825792D01*
X186069Y824979D01*
X186727Y824122D01*
X187328Y823223D01*
X187868Y822287D01*
X188346Y821317D01*
X188760Y820319D01*
X189108Y819295D01*
X189387Y818251D01*
X189598Y817191D01*
X189739Y816119D01*
X189810Y815040D01*
X189810Y813960D01*
X189739Y812881D01*
X189598Y811809D01*
X189387Y810749D01*
X189108Y809705D01*
X188760Y808681D01*
X188346Y807683D01*
X187868Y806713D01*
X187328Y805777D01*
X186727Y804878D01*
X186069Y804021D01*
X185357Y803208D01*
X184592Y802444D01*
X183779Y801731D01*
X182922Y801073D01*
X182023Y800472D01*
X181087Y799932D01*
X180117Y799454D01*
X179119Y799040D01*
X178095Y798692D01*
X177051Y798413D01*
X175991Y798202D01*
X174919Y798061D01*
X173840Y797990D01*
X172760Y797990D01*
X171681Y798061D01*
X170609Y798202D01*
X169549Y798413D01*
X168505Y798692D01*
X167481Y799040D01*
X166483Y799454D01*
X165513Y799932D01*
X164577Y800472D01*
X163678Y801073D01*
X162821Y801731D01*
X162008Y802444D01*
X161244Y803208D01*
X160531Y804021D01*
X159873Y804878D01*
X159272Y805777D01*
X158732Y806713D01*
X158254Y807683D01*
X157840Y808681D01*
X157492Y809705D01*
X157213Y810749D01*
X157002Y811809D01*
X156861Y812881D01*
X156790Y813960D01*
X156790Y815040D01*
X156861Y816119D01*
X157002Y817191D01*
X157213Y818251D01*
X157492Y819295D01*
X157840Y820319D01*
X158254Y821317D01*
X158732Y822287D01*
X159272Y823223D01*
X159873Y824122D01*
X160531Y824979D01*
X161244Y825792D01*
X162008Y826557D01*
X162821Y827269D01*
X163678Y827927D01*
X164577Y828528D01*
X165513Y829068D01*
X166483Y829546D01*
X167481Y829960D01*
X168505Y830308D01*
X169549Y830587D01*
X170609Y830798D01*
X171681Y830939D01*
X172760Y831010D01*
X173840Y831010D01*
M02*
