G04 EAGLE Gerber RS-274X export*
G75*
%MOMM*%
%FSLAX34Y34*%
%LPD*%
%INSoldermask Bottom*%
%IPPOS*%
%AMOC8*
5,1,8,0,0,1.08239X$1,22.5*%
G01*
%ADD10C,2.082800*%
%ADD11C,1.981200*%
%ADD12C,3.505200*%
%ADD13P,2.556822X8X22.500000*%


D10*
X48300Y125500D03*
X48300Y100100D03*
X48300Y74700D03*
X48300Y49300D03*
D11*
X395000Y236600D03*
X395000Y262000D03*
X395000Y287400D03*
X395000Y312800D03*
D10*
X186000Y763700D03*
X211400Y763700D03*
X452700Y903400D03*
X452700Y928800D03*
X351100Y827200D03*
X376500Y827200D03*
X401900Y827200D03*
X224100Y890700D03*
X224100Y916100D03*
D12*
X440000Y814500D03*
X173300Y814500D03*
D10*
X675200Y951000D03*
X700600Y951000D03*
X726000Y951000D03*
X751400Y951000D03*
D13*
X552000Y126000D03*
X553000Y192000D03*
X554000Y260000D03*
X342000Y371000D03*
X452000Y370000D03*
X341000Y485000D03*
X451000Y484000D03*
X342000Y576000D03*
X449000Y576000D03*
X729000Y255000D03*
X728000Y126000D03*
X728000Y188000D03*
D10*
X584900Y834500D03*
X584900Y809100D03*
X584900Y783700D03*
X584900Y758300D03*
X584900Y732900D03*
X584900Y707500D03*
X584900Y682100D03*
X584900Y656700D03*
X584900Y631300D03*
X584900Y605900D03*
X584900Y580500D03*
X584900Y555100D03*
X584900Y529700D03*
X584900Y504300D03*
X584900Y478900D03*
X584900Y453500D03*
X584900Y428100D03*
X737300Y428100D03*
X737300Y453500D03*
X737300Y478900D03*
X737300Y504300D03*
X737300Y529700D03*
X737300Y555100D03*
X737300Y580500D03*
X737300Y605900D03*
X737300Y631300D03*
X737300Y656700D03*
X737300Y682100D03*
X737300Y707500D03*
X737300Y732900D03*
X737300Y758300D03*
X737300Y783700D03*
X737300Y809100D03*
X737300Y834500D03*
M02*
